<?xml version="1.0" encoding="UTF-8"?>
<svg width="110px" height="35px" viewBox="0 0 110 35" version="1.1" xmlns="http://www.w3.org/2000/svg" xmlns:xlink="http://www.w3.org/1999/xlink">
    <!-- Generator: Sketch 46 (44423) - http://www.bohemiancoding.com/sketch -->
    <title>2 eixos dupla</title>
    <desc>Created with Sketch.</desc>
    <defs></defs>
    <g id="Symbols" stroke="none" stroke-width="1" fill="none" fill-rule="evenodd">
        <g id="2-eixos-dupla">
            <g id="Page-1" transform="translate(26.000000, 1.000000)">
                <path d="M49.058405,27.47701 C49.058405,24.81116 46.897455,22.65021 44.231605,22.65021 C41.565755,22.65021 39.404805,24.81116 39.404805,27.47701 C39.404805,30.14286 41.565755,32.30381 44.231605,32.30381 C46.897455,32.30381 49.058405,30.14286 49.058405,27.47701" id="Fill-1" fill="#FFFFFF"></path>
                <path d="M49.058405,27.47701 C49.058405,24.81116 46.897455,22.65021 44.231605,22.65021 C41.565755,22.65021 39.404805,24.81116 39.404805,27.47701 C39.404805,30.14286 41.565755,32.30381 44.231605,32.30381 C46.897455,32.30381 49.058405,30.14286 49.058405,27.47701 Z" id="Stroke-3" stroke="#4D5862" stroke-width="2" stroke-linecap="round" stroke-linejoin="round"></path>
                <path d="M45.40503,27.00764 C45.40503,26.35974 44.87978,25.83449 44.23188,25.83449 C43.58343,25.83449 43.05818,26.35974 43.05818,27.00764 C43.05818,27.65554 43.58343,28.18079 44.23188,28.18079 C44.87978,28.18079 45.40503,27.65554 45.40503,27.00764" id="Fill-5" fill="#353C44"></path>
                <path d="M17.666275,26.538325 C17.666275,23.872475 15.505325,21.711525 12.839475,21.711525 C10.173625,21.711525 8.012675,23.872475 8.012675,26.538325 C8.012675,29.204175 10.173625,31.365125 12.839475,31.365125 C15.505325,31.365125 17.666275,29.204175 17.666275,26.538325" id="Fill-7" fill="#FFFFFF"></path>
                <path d="M17.666275,26.538325 C17.666275,23.872475 15.505325,21.711525 12.839475,21.711525 C10.173625,21.711525 8.012675,23.872475 8.012675,26.538325 C8.012675,29.204175 10.173625,31.365125 12.839475,31.365125 C15.505325,31.365125 17.666275,29.204175 17.666275,26.538325 Z" id="Stroke-9" stroke="#4D5862" stroke-width="2" stroke-linecap="round" stroke-linejoin="round"></path>
                <path d="M14.0129,26.538325 C14.0129,25.890425 13.48765,25.365175 12.83975,25.365175 C12.1913,25.365175 11.66605,25.890425 11.66605,26.538325 C11.66605,27.186225 12.1913,27.711475 12.83975,27.711475 C13.48765,27.711475 14.0129,27.186225 14.0129,26.538325" id="Fill-11" fill="#353C44"></path>
                <path d="M16.258165,27.47701 C16.258165,24.81116 14.097215,22.65021 11.431365,22.65021 C8.765515,22.65021 6.604565,24.81116 6.604565,27.47701 C6.604565,30.14286 8.765515,32.30381 11.431365,32.30381 C14.097215,32.30381 16.258165,30.14286 16.258165,27.47701" id="Fill-13" fill="#FFFFFF"></path>
                <path d="M16.258165,27.47701 C16.258165,24.81116 14.097215,22.65021 11.431365,22.65021 C8.765515,22.65021 6.604565,24.81116 6.604565,27.47701 C6.604565,30.14286 8.765515,32.30381 11.431365,32.30381 C14.097215,32.30381 16.258165,30.14286 16.258165,27.47701 Z" id="Stroke-15" stroke="#4D5862" stroke-width="2" stroke-linecap="round" stroke-linejoin="round"></path>
                <path d="M12.60479,27.47701 C12.60479,26.82911 12.07954,26.30386 11.43164,26.30386 C10.78319,26.30386 10.25794,26.82911 10.25794,27.47701 C10.25794,28.12491 10.78319,28.65016 11.43164,28.65016 C12.07954,28.65016 12.60479,28.12491 12.60479,27.47701" id="Fill-17" fill="#353C44"></path>
                <path d="M2.30736,26.4308 C1.18371,26.4308 0.27291,25.5189 0.27511,24.39525 L0.28061,19.06575 C0.28061,19.06575 1.19801,18.91395 2.32001,18.9178 L37.10201,19.0498 L37.14766,3.05525 C37.15261,1.51855 38.40001,0.275 39.93726,0.275 L49.25151,0.275 C50.47031,0.275 51.58901,0.95095 52.15606,2.03005 L57.97286,13.10155 C58.26326,13.50965 58.41891,13.99805 58.41671,14.4991 L58.40076,22.04895 C58.39581,24.4706 56.43121,26.4308 54.00956,26.4308 L2.30736,26.4308 Z" id="Fill-19" fill="#FFFFFF"></path>
                <path d="M2.30736,26.4308 C1.18371,26.4308 0.27291,25.5189 0.27511,24.39525 L0.28061,19.06575 C0.28061,19.06575 1.19801,18.91395 2.32001,18.9178 L37.10201,19.0498 L37.14766,3.05525 C37.15261,1.51855 38.40001,0.275 39.93726,0.275 L49.25151,0.275 C50.47031,0.275 51.58901,0.95095 52.15606,2.03005 L57.97286,13.10155 C58.26326,13.50965 58.41891,13.99805 58.41671,14.4991 L58.40076,22.04895 C58.39581,24.4706 56.43121,26.4308 54.00956,26.4308 L2.30736,26.4308 Z" id="Stroke-21" stroke="#4D5862" stroke-width="2" stroke-linecap="round" stroke-linejoin="round"></path>
                <path d="M57.506515,12.8095 L44.765765,12.7699 C43.469965,12.7655 42.422765,11.71115 42.427165,10.41535 L42.442015,6.14185 C42.446415,4.84605 43.500765,3.79885 44.797115,3.80325 L52.728115,3.82085" id="Stroke-23" stroke="#4D5862" stroke-width="2" stroke-linecap="round" stroke-linejoin="round"></path>
                <path d="M47.65035,27.94638 C47.65035,25.28053 45.4894,23.11958 42.82355,23.11958 C40.1577,23.11958 37.99675,25.28053 37.99675,27.94638 C37.99675,30.61223 40.1577,32.77318 42.82355,32.77318 C45.4894,32.77318 47.65035,30.61223 47.65035,27.94638" id="Fill-25" fill="#FFFFFF"></path>
                <path d="M47.65035,27.94638 C47.65035,25.28053 45.4894,23.11958 42.82355,23.11958 C40.1577,23.11958 37.99675,25.28053 37.99675,27.94638 C37.99675,30.61223 40.1577,32.77318 42.82355,32.77318 C45.4894,32.77318 47.65035,30.61223 47.65035,27.94638 Z" id="Stroke-27" stroke="#4D5862" stroke-width="2" stroke-linecap="round" stroke-linejoin="round"></path>
                <path d="M43.996975,27.94638 C43.996975,27.29848 43.471725,26.77323 42.823825,26.77323 C42.175375,26.77323 41.650125,27.29848 41.650125,27.94638 C41.650125,28.59428 42.175375,29.11953 42.823825,29.11953 C43.471725,29.11953 43.996975,28.59428 43.996975,27.94638" id="Fill-29" fill="#4D5862"></path>
                <path d="M14.850055,27.94638 C14.850055,25.28053 12.689105,23.11958 10.023255,23.11958 C7.357405,23.11958 5.196455,25.28053 5.196455,27.94638 C5.196455,30.61223 7.357405,32.77318 10.023255,32.77318 C12.689105,32.77318 14.850055,30.61223 14.850055,27.94638" id="Fill-31" fill="#FFFFFF"></path>
                <path d="M14.850055,27.94638 C14.850055,25.28053 12.689105,23.11958 10.023255,23.11958 C7.357405,23.11958 5.196455,25.28053 5.196455,27.94638 C5.196455,30.61223 7.357405,32.77318 10.023255,32.77318 C12.689105,32.77318 14.850055,30.61223 14.850055,27.94638 Z" id="Stroke-33" stroke="#4D5862" stroke-width="2" stroke-linecap="round" stroke-linejoin="round"></path>
                <path d="M11.19668,27.94638 C11.19668,27.29848 10.67143,26.77323 10.02353,26.77323 C9.37508,26.77323 8.84983,27.29848 8.84983,27.94638 C8.84983,28.59428 9.37508,29.11953 10.02353,29.11953 C10.67143,29.11953 11.19668,28.59428 11.19668,27.94638" id="Fill-35" fill="#4D5862"></path>
                <path d="M37.10212,20.92739 L0.29997,20.92739 L0.29997,13.62889 C0.29997,12.31329 1.36642,11.24739 2.68147,11.24739 L37.10212,11.24739 L37.10212,20.92739 Z" id="Fill-37" fill="#FFFFFF"></path>
                <path d="M37.10212,20.92739 L0.29997,20.92739 L0.29997,13.62889 C0.29997,12.31329 1.36642,11.24739 2.68147,11.24739 L37.10212,11.24739 L37.10212,20.92739 Z" id="Stroke-39" stroke="#4D5862" stroke-width="2" stroke-linecap="round" stroke-linejoin="round"></path>
                <path d="M42.697985,16 L46.522685,16" id="Stroke-41" stroke="#4D5862" stroke-width="2" stroke-linecap="round" stroke-linejoin="round"></path>
            </g>
        </g>
    </g>
</svg>