<?xml version="1.0" encoding="UTF-8"?>
<svg width="110px" height="35px" viewBox="0 0 110 35" version="1.1" xmlns="http://www.w3.org/2000/svg" xmlns:xlink="http://www.w3.org/1999/xlink">
    <!-- Generator: Sketch 46 (44423) - http://www.bohemiancoding.com/sketch -->
    <title>2 eixos duplas onibus </title>
    <desc>Created with Sketch.</desc>
    <defs></defs>
    <g id="Symbols" stroke="none" stroke-width="1" fill="none" fill-rule="evenodd">
        <g id="2-eixos-duplas-onibus-">
            <g id="Page-1" transform="translate(25.000000, 1.000000)">
                <path d="M52.245545,27.38494 C52.245545,24.71909 50.084595,22.55814 47.418745,22.55814 C44.752895,22.55814 42.591945,24.71909 42.591945,27.38494 C42.591945,30.05079 44.752895,32.21174 47.418745,32.21174 C50.084595,32.21174 52.245545,30.05079 52.245545,27.38494" id="Fill-1" fill="#FFFFFF"></path>
                <path d="M52.245545,27.38494 C52.245545,24.71909 50.084595,22.55814 47.418745,22.55814 C44.752895,22.55814 42.591945,24.71909 42.591945,27.38494 C42.591945,30.05079 44.752895,32.21174 47.418745,32.21174 C50.084595,32.21174 52.245545,30.05079 52.245545,27.38494 Z" id="Stroke-3" stroke="#4D5862" stroke-width="2" stroke-linecap="round" stroke-linejoin="round"></path>
                <path d="M18.506565,26.446255 C18.506565,23.780405 16.345615,21.619455 13.679765,21.619455 C11.013915,21.619455 8.852965,23.780405 8.852965,26.446255 C8.852965,29.112105 11.013915,31.273055 13.679765,31.273055 C16.345615,31.273055 18.506565,29.112105 18.506565,26.446255" id="Fill-5" fill="#FFFFFF"></path>
                <path d="M18.506565,26.446255 C18.506565,23.780405 16.345615,21.619455 13.679765,21.619455 C11.013915,21.619455 8.852965,23.780405 8.852965,26.446255 C8.852965,29.112105 11.013915,31.273055 13.679765,31.273055 C16.345615,31.273055 18.506565,29.112105 18.506565,26.446255 Z" id="Stroke-7" stroke="#4D5862" stroke-width="2" stroke-linecap="round" stroke-linejoin="round"></path>
                <path d="M14.85319,26.446255 C14.85319,25.798355 14.32794,25.273105 13.68004,25.273105 C13.03159,25.273105 12.50634,25.798355 12.50634,26.446255 C12.50634,27.094155 13.03159,27.619405 13.68004,27.619405 C14.32794,27.619405 14.85319,27.094155 14.85319,26.446255" id="Fill-9" fill="#353C44"></path>
                <path d="M17.098455,27.38494 C17.098455,24.71909 14.937505,22.55814 12.271655,22.55814 C9.605805,22.55814 7.444855,24.71909 7.444855,27.38494 C7.444855,30.05079 9.605805,32.21174 12.271655,32.21174 C14.937505,32.21174 17.098455,30.05079 17.098455,27.38494" id="Fill-11" fill="#FFFFFF"></path>
                <path d="M17.098455,27.38494 C17.098455,24.71909 14.937505,22.55814 12.271655,22.55814 C9.605805,22.55814 7.444855,24.71909 7.444855,27.38494 C7.444855,30.05079 9.605805,32.21174 12.271655,32.21174 C14.937505,32.21174 17.098455,30.05079 17.098455,27.38494 Z" id="Stroke-13" stroke="#4D5862" stroke-width="2" stroke-linecap="round" stroke-linejoin="round"></path>
                <path d="M13.44508,27.38494 C13.44508,26.73704 12.91983,26.21179 12.27193,26.21179 C11.62348,26.21179 11.09823,26.73704 11.09823,27.38494 C11.09823,28.03284 11.62348,28.55809 12.27193,28.55809 C12.91983,28.55809 13.44508,28.03284 13.44508,27.38494" id="Fill-15" fill="#353C44"></path>
                <path d="M56.68883,27.850185 L4.76113,27.850185 C2.28338,27.850185 0.27478,25.663935 0.27478,22.966735 L0.27478,3.901535 C0.27478,1.898435 1.76638,0.274835 3.60668,0.274835 L53.65833,0.274835 C55.49863,0.274835 56.99023,1.898435 56.99023,3.901535 L56.99023,13.587585 L61.17518,18.526035 L61.17518,22.966735 C61.17518,25.663935 59.16658,27.850185 56.68883,27.850185" id="Fill-17" fill="#FFFFFF"></path>
                <path d="M56.68883,27.850185 L4.76113,27.850185 C2.28338,27.850185 0.27478,25.663935 0.27478,22.966735 L0.27478,3.901535 C0.27478,1.898435 1.76638,0.274835 3.60668,0.274835 L53.65833,0.274835 C55.49863,0.274835 56.99023,1.898435 56.99023,3.901535 L56.99023,13.587585 L61.17518,18.526035 L61.17518,22.966735 C61.17518,25.663935 59.16658,27.850185 56.68883,27.850185 Z" id="Stroke-19" stroke="#4D5862" stroke-width="2"></path>
                <path d="M56.989955,3.56235 L46.896905,3.56235 C45.774355,3.56235 44.864655,4.47205 44.864655,5.5946 L44.864655,10.9098 C44.864655,12.0318 45.774355,12.94205 46.896905,12.94205 L56.989955,12.94205" id="Stroke-21" stroke="#4D5862" stroke-width="2"></path>
                <path d="M28.493355,12.94194 L39.002205,12.94194 C40.317805,12.94194 41.383705,11.87549 41.383705,10.56044 L41.383705,5.94374 C41.383705,4.62869 40.317805,3.56224 39.002205,3.56224 L28.493355,3.56224 C27.178305,3.56224 26.111855,4.62869 26.111855,5.94374 L26.111855,10.56044 C26.111855,11.87549 27.178305,12.94194 28.493355,12.94194" id="Fill-23" fill="#FFFFFF"></path>
                <path d="M28.493355,12.94194 L39.002205,12.94194 C40.317805,12.94194 41.383705,11.87549 41.383705,10.56044 L41.383705,5.94374 C41.383705,4.62869 40.317805,3.56224 39.002205,3.56224 L28.493355,3.56224 C27.178305,3.56224 26.111855,4.62869 26.111855,5.94374 L26.111855,10.56044 C26.111855,11.87549 27.178305,12.94194 28.493355,12.94194 Z" id="Stroke-25" stroke="#4D5862" stroke-width="2"></path>
                <path d="M9.77592,12.94194 L20.28477,12.94194 C21.60037,12.94194 22.66627,11.87549 22.66627,10.56044 L22.66627,5.94374 C22.66627,4.62869 21.60037,3.56224 20.28477,3.56224 L9.77592,3.56224 C8.46087,3.56224 7.39442,4.62869 7.39442,5.94374 L7.39442,10.56044 C7.39442,11.87549 8.46087,12.94194 9.77592,12.94194" id="Fill-27" fill="#FFFFFF"></path>
                <path d="M9.77592,12.94194 L20.28477,12.94194 C21.60037,12.94194 22.66627,11.87549 22.66627,10.56044 L22.66627,5.94374 C22.66627,4.62869 21.60037,3.56224 20.28477,3.56224 L9.77592,3.56224 C8.46087,3.56224 7.39442,4.62869 7.39442,5.94374 L7.39442,10.56044 C7.39442,11.87549 8.46087,12.94194 9.77592,12.94194 Z" id="Stroke-29" stroke="#4D5862" stroke-width="2"></path>
                <path d="M0.27709,12.94194 L1.89299,12.94194 C3.01554,12.94194 3.92524,11.98109 3.92524,10.79639 L3.92524,5.70779 C3.92524,4.52309 3.01554,3.56224 1.89299,3.56224 L0.27709,3.56224" id="Stroke-31" stroke="#4D5862" stroke-width="2"></path>
                <path d="M50.837435,27.85431 C50.837435,25.18846 48.676485,23.02751 46.010635,23.02751 C43.344785,23.02751 41.183835,25.18846 41.183835,27.85431 C41.183835,30.52016 43.344785,32.68111 46.010635,32.68111 C48.676485,32.68111 50.837435,30.52016 50.837435,27.85431" id="Fill-33" fill="#FFFFFF"></path>
                <path d="M50.837435,27.85431 C50.837435,25.18846 48.676485,23.02751 46.010635,23.02751 C43.344785,23.02751 41.183835,25.18846 41.183835,27.85431 C41.183835,30.52016 43.344785,32.68111 46.010635,32.68111 C48.676485,32.68111 50.837435,30.52016 50.837435,27.85431 Z" id="Stroke-35" stroke="#4D5862" stroke-width="2" stroke-linecap="round" stroke-linejoin="round"></path>
                <path d="M47.18406,27.85431 C47.18406,27.20641 46.65881,26.68116 46.01091,26.68116 C45.36246,26.68116 44.83721,27.20641 44.83721,27.85431 C44.83721,28.50221 45.36246,29.02746 46.01091,29.02746 C46.65881,29.02746 47.18406,28.50221 47.18406,27.85431" id="Fill-37" fill="#4D5862"></path>
                <path d="M15.6904,27.85431 C15.6904,25.18846 13.52945,23.02751 10.8636,23.02751 C8.19775,23.02751 6.0368,25.18846 6.0368,27.85431 C6.0368,30.52016 8.19775,32.68111 10.8636,32.68111 C13.52945,32.68111 15.6904,30.52016 15.6904,27.85431" id="Fill-39" fill="#FFFFFF"></path>
                <path d="M15.6904,27.85431 C15.6904,25.18846 13.52945,23.02751 10.8636,23.02751 C8.19775,23.02751 6.0368,25.18846 6.0368,27.85431 C6.0368,30.52016 8.19775,32.68111 10.8636,32.68111 C13.52945,32.68111 15.6904,30.52016 15.6904,27.85431 Z" id="Stroke-41" stroke="#4D5862" stroke-width="2" stroke-linecap="round" stroke-linejoin="round"></path>
                <path d="M12.037025,27.85431 C12.037025,27.20641 11.511775,26.68116 10.863875,26.68116 C10.215425,26.68116 9.690175,27.20641 9.690175,27.85431 C9.690175,28.50221 10.215425,29.02746 10.863875,29.02746 C11.511775,29.02746 12.037025,28.50221 12.037025,27.85431" id="Fill-43" fill="#4D5862"></path>
            </g>
        </g>
    </g>
</svg>