<?xml version="1.0" encoding="UTF-8"?>
<svg width="110px" height="35px" viewBox="0 0 110 35" version="1.1" xmlns="http://www.w3.org/2000/svg" xmlns:xlink="http://www.w3.org/1999/xlink">
    <!-- Generator: Sketch 46 (44423) - http://www.bohemiancoding.com/sketch -->
    <title>3 eixos dupla onibus </title>
    <desc>Created with Sketch.</desc>
    <defs></defs>
    <g id="Symbols" stroke="none" stroke-width="1" fill="none" fill-rule="evenodd">
        <g id="3-eixos-dupla-onibus-">
            <g id="Page-1" transform="translate(19.000000, 1.000000)">
                <path d="M30.7479333,26.1712 C30.7479333,23.5055333 28.58735,21.3440333 25.9207667,21.3440333 C23.2551,21.3440333 21.0945167,23.5055333 21.0945167,26.1712 C21.0945167,28.8368667 23.2551,30.9983667 25.9207667,30.9983667 C28.58735,30.9983667 30.7479333,28.8368667 30.7479333,26.1712" id="Fill-1" fill="#FFFFFF"></path>
                <path d="M30.7479333,26.1712 C30.7479333,23.5055333 28.58735,21.3440333 25.9207667,21.3440333 C23.2551,21.3440333 21.0945167,23.5055333 21.0945167,26.1712 C21.0945167,28.8368667 23.2551,30.9983667 25.9207667,30.9983667 C28.58735,30.9983667 30.7479333,28.8368667 30.7479333,26.1712 Z" id="Stroke-3" stroke="#4D5862" stroke-width="2" stroke-linecap="round" stroke-linejoin="round"></path>
                <path d="M27.0945583,26.1712 C27.0945583,25.5231167 26.5693083,24.9978667 25.921225,24.9978667 C25.2731417,24.9978667 24.7478917,25.5231167 24.7478917,26.1712 C24.7478917,26.8192833 25.2731417,27.3445333 25.921225,27.3445333 C26.5693083,27.3445333 27.0945583,26.8192833 27.0945583,26.1712" id="Fill-5" fill="#4D5862"></path>
                <path d="M29.3398417,27.1099583 C29.3398417,24.4442917 27.1792583,22.2827917 24.512675,22.2827917 C21.8470083,22.2827917 19.686425,24.4442917 19.686425,27.1099583 C19.686425,29.775625 21.8470083,31.937125 24.512675,31.937125 C27.1792583,31.937125 29.3398417,29.775625 29.3398417,27.1099583" id="Fill-7" fill="#FFFFFF"></path>
                <path d="M29.3398417,27.1099583 C29.3398417,24.4442917 27.1792583,22.2827917 24.512675,22.2827917 C21.8470083,22.2827917 19.686425,24.4442917 19.686425,27.1099583 C19.686425,29.775625 21.8470083,31.937125 24.512675,31.937125 C27.1792583,31.937125 29.3398417,29.775625 29.3398417,27.1099583 Z" id="Stroke-9" stroke="#4D5862" stroke-width="2" stroke-linecap="round" stroke-linejoin="round"></path>
                <path d="M25.6864667,27.1099583 C25.6864667,26.461875 25.1612167,25.936625 24.5131333,25.936625 C23.86505,25.936625 23.3398,26.461875 23.3398,27.1099583 C23.3398,27.7580417 23.86505,28.2832917 24.5131333,28.2832917 C25.1612167,28.2832917 25.6864667,27.7580417 25.6864667,27.1099583" id="Fill-11" fill="#4D5862"></path>
                <path d="M62.824575,27.1099583 C62.824575,24.4442917 60.6639917,22.2827917 57.9974083,22.2827917 C55.3317417,22.2827917 53.1711583,24.4442917 53.1711583,27.1099583 C53.1711583,29.775625 55.3317417,31.937125 57.9974083,31.937125 C60.6639917,31.937125 62.824575,29.775625 62.824575,27.1099583" id="Fill-13" fill="#FFFFFF"></path>
                <path d="M62.824575,27.1099583 C62.824575,24.4442917 60.6639917,22.2827917 57.9974083,22.2827917 C55.3317417,22.2827917 53.1711583,24.4442917 53.1711583,27.1099583 C53.1711583,29.775625 55.3317417,31.937125 57.9974083,31.937125 C60.6639917,31.937125 62.824575,29.775625 62.824575,27.1099583 Z" id="Stroke-15" stroke="#4D5862" stroke-width="2" stroke-linecap="round" stroke-linejoin="round"></path>
                <path d="M18.2315833,26.1712 C18.2315833,23.5055333 16.071,21.3440333 13.4044167,21.3440333 C10.73875,21.3440333 8.57816667,23.5055333 8.57816667,26.1712 C8.57816667,28.8368667 10.73875,30.9983667 13.4044167,30.9983667 C16.071,30.9983667 18.2315833,28.8368667 18.2315833,26.1712" id="Fill-17" fill="#FFFFFF"></path>
                <path d="M18.2315833,26.1712 C18.2315833,23.5055333 16.071,21.3440333 13.4044167,21.3440333 C10.73875,21.3440333 8.57816667,23.5055333 8.57816667,26.1712 C8.57816667,28.8368667 10.73875,30.9983667 13.4044167,30.9983667 C16.071,30.9983667 18.2315833,28.8368667 18.2315833,26.1712 Z" id="Stroke-19" stroke="#4D5862" stroke-width="2" stroke-linecap="round" stroke-linejoin="round"></path>
                <path d="M14.5782083,26.1712 C14.5782083,25.5231167 14.0529583,24.9978667 13.404875,24.9978667 C12.7567917,24.9978667 12.2315417,25.5231167 12.2315417,26.1712 C12.2315417,26.8192833 12.7567917,27.3445333 13.404875,27.3445333 C14.0529583,27.3445333 14.5782083,26.8192833 14.5782083,26.1712" id="Fill-21" fill="#4D5862"></path>
                <path d="M16.8234917,27.1099583 C16.8234917,24.4442917 14.6629083,22.2827917 11.996325,22.2827917 C9.33065833,22.2827917 7.170075,24.4442917 7.170075,27.1099583 C7.170075,29.775625 9.33065833,31.937125 11.996325,31.937125 C14.6629083,31.937125 16.8234917,29.775625 16.8234917,27.1099583" id="Fill-23" fill="#FFFFFF"></path>
                <path d="M16.8234917,27.1099583 C16.8234917,24.4442917 14.6629083,22.2827917 11.996325,22.2827917 C9.33065833,22.2827917 7.170075,24.4442917 7.170075,27.1099583 C7.170075,29.775625 9.33065833,31.937125 11.996325,31.937125 C14.6629083,31.937125 16.8234917,29.775625 16.8234917,27.1099583 Z" id="Stroke-25" stroke="#4D5862" stroke-width="2" stroke-linecap="round" stroke-linejoin="round"></path>
                <path d="M13.1701167,27.1099583 C13.1701167,26.461875 12.6448667,25.936625 11.9967833,25.936625 C11.3487,25.936625 10.82345,26.461875 10.82345,27.1099583 C10.82345,27.7580417 11.3487,28.2832917 11.9967833,28.2832917 C12.6448667,28.2832917 13.1701167,27.7580417 13.1701167,27.1099583" id="Fill-27" fill="#4D5862"></path>
                <path d="M67.2678417,27.5751667 L4.48625833,27.5751667 C2.00850833,27.5751667 9.16666667e-05,25.3889167 9.16666667e-05,22.6920833 L9.16666667e-05,3.62633333 C9.16666667e-05,1.62341667 1.49150833,0 3.33125833,0 L64.2373417,0 C66.0770917,0 67.569425,1.62341667 67.569425,3.62633333 L67.569425,13.31275 L71.7540083,18.2508333 L71.7540083,22.6920833 C71.7540083,25.3889167 69.7455917,27.5751667 67.2678417,27.5751667" id="Fill-29" fill="#FFFFFF"></path>
                <path d="M67.2678417,27.5751667 L4.48625833,27.5751667 C2.00850833,27.5751667 9.16666667e-05,25.3889167 9.16666667e-05,22.6920833 L9.16666667e-05,3.62633333 C9.16666667e-05,1.62341667 1.49150833,0 3.33125833,0 L64.2373417,0 C66.0770917,0 67.569425,1.62341667 67.569425,3.62633333 L67.569425,13.31275 L71.7540083,18.2508333 L71.7540083,22.6920833 C71.7540083,25.3889167 69.7455917,27.5751667 67.2678417,27.5751667 Z" id="Stroke-31" stroke="#4D5862" stroke-width="2"></path>
                <path d="M67.5690583,3.28735 L57.4765583,3.28735 C56.3536417,3.28735 55.4433917,4.1976 55.4433917,5.3196 L55.4433917,10.6344333 C55.4433917,11.75735 56.3536417,12.6666833 57.4765583,12.6666833 L67.5690583,12.6666833" id="Stroke-33" stroke="#4D5862" stroke-width="2"></path>
                <path d="M26.977775,12.6669583 L32.387025,12.6669583 C34.578775,12.6669583 36.3561917,10.8895417 36.3561917,8.69779167 L36.3561917,7.25679167 C36.3561917,5.064125 34.578775,3.287625 32.387025,3.287625 L26.977775,3.287625 C24.786025,3.287625 23.0086083,5.064125 23.0086083,7.25679167 L23.0086083,8.69779167 C23.0086083,10.8895417 24.786025,12.6669583 26.977775,12.6669583" id="Fill-35" fill="#FFFFFF"></path>
                <path d="M26.977775,12.6669583 L32.387025,12.6669583 C34.578775,12.6669583 36.3561917,10.8895417 36.3561917,8.69779167 L36.3561917,7.25679167 C36.3561917,5.064125 34.578775,3.287625 32.387025,3.287625 L26.977775,3.287625 C24.786025,3.287625 23.0086083,5.064125 23.0086083,7.25679167 L23.0086083,8.69779167 C23.0086083,10.8895417 24.786025,12.6669583 26.977775,12.6669583 Z" id="Stroke-37" stroke="#4D5862" stroke-width="2"></path>
                <path d="M43.249525,12.6669583 L48.658775,12.6669583 C50.850525,12.6669583 52.6279417,10.8895417 52.6279417,8.69779167 L52.6279417,7.25679167 C52.6279417,5.064125 50.850525,3.287625 48.658775,3.287625 L43.249525,3.287625 C41.057775,3.287625 39.2803583,5.064125 39.2803583,7.25679167 L39.2803583,8.69779167 C39.2803583,10.8895417 41.057775,12.6669583 43.249525,12.6669583" id="Fill-39" fill="#FFFFFF"></path>
                <path d="M43.249525,12.6669583 L48.658775,12.6669583 C50.850525,12.6669583 52.6279417,10.8895417 52.6279417,8.69779167 L52.6279417,7.25679167 C52.6279417,5.064125 50.850525,3.287625 48.658775,3.287625 L43.249525,3.287625 C41.057775,3.287625 39.2803583,5.064125 39.2803583,7.25679167 L39.2803583,8.69779167 C39.2803583,10.8895417 41.057775,12.6669583 43.249525,12.6669583 Z" id="Stroke-41" stroke="#4D5862" stroke-width="2"></path>
                <path d="M10.6192167,12.6669583 L16.0284667,12.6669583 C18.2202167,12.6669583 19.9976333,10.8895417 19.9976333,8.69779167 L19.9976333,7.25679167 C19.9976333,5.064125 18.2202167,3.287625 16.0284667,3.287625 L10.6192167,3.287625 C8.42746667,3.287625 6.65005,5.064125 6.65005,7.25679167 L6.65005,8.69779167 C6.65005,10.8895417 8.42746667,12.6669583 10.6192167,12.6669583" id="Fill-43" fill="#FFFFFF"></path>
                <path d="M10.6192167,12.6669583 L16.0284667,12.6669583 C18.2202167,12.6669583 19.9976333,10.8895417 19.9976333,8.69779167 L19.9976333,7.25679167 C19.9976333,5.064125 18.2202167,3.287625 16.0284667,3.287625 L10.6192167,3.287625 C8.42746667,3.287625 6.65005,5.064125 6.65005,7.25679167 L6.65005,8.69779167 C6.65005,10.8895417 8.42746667,12.6669583 10.6192167,12.6669583 Z" id="Stroke-45" stroke="#4D5862" stroke-width="2"></path>
                <path d="M0.00210833333,12.6669583 L1.61819167,12.6669583 C2.74019167,12.6669583 3.65044167,11.7062917 3.65044167,10.5210417 L3.65044167,5.432625 C3.65044167,4.24829167 2.74019167,3.287625 1.61819167,3.287625 L0.00210833333,3.287625" id="Stroke-47" stroke="#4D5862" stroke-width="2"></path>
                <path d="M61.4164833,27.5792917 C61.4164833,24.913625 59.2559,22.752125 56.5893167,22.752125 C53.92365,22.752125 51.7630667,24.913625 51.7630667,27.5792917 C51.7630667,30.2449583 53.92365,32.4064583 56.5893167,32.4064583 C59.2559,32.4064583 61.4164833,30.2449583 61.4164833,27.5792917" id="Fill-49" fill="#FFFFFF"></path>
                <path d="M61.4164833,27.5792917 C61.4164833,24.913625 59.2559,22.752125 56.5893167,22.752125 C53.92365,22.752125 51.7630667,24.913625 51.7630667,27.5792917 C51.7630667,30.2449583 53.92365,32.4064583 56.5893167,32.4064583 C59.2559,32.4064583 61.4164833,30.2449583 61.4164833,27.5792917 Z" id="Stroke-51" stroke="#4D5862" stroke-width="2" stroke-linecap="round" stroke-linejoin="round"></path>
                <path d="M57.7632,27.5792917 C57.7632,26.9312083 57.23795,26.4059583 56.5898667,26.4059583 C55.9417833,26.4059583 55.4165333,26.9312083 55.4165333,27.5792917 C55.4165333,28.227375 55.9417833,28.752625 56.5898667,28.752625 C57.23795,28.752625 57.7632,28.227375 57.7632,27.5792917" id="Fill-53" fill="#4D5862"></path>
                <path d="M15.4154,27.5792917 C15.4154,24.913625 13.2548167,22.752125 10.5882333,22.752125 C7.92256667,22.752125 5.76198333,24.913625 5.76198333,27.5792917 C5.76198333,30.2449583 7.92256667,32.4064583 10.5882333,32.4064583 C13.2548167,32.4064583 15.4154,30.2449583 15.4154,27.5792917" id="Fill-55" fill="#FFFFFF"></path>
                <path d="M15.4154,27.5792917 C15.4154,24.913625 13.2548167,22.752125 10.5882333,22.752125 C7.92256667,22.752125 5.76198333,24.913625 5.76198333,27.5792917 C5.76198333,30.2449583 7.92256667,32.4064583 10.5882333,32.4064583 C13.2548167,32.4064583 15.4154,30.2449583 15.4154,27.5792917 Z" id="Stroke-57" stroke="#4D5862" stroke-width="2" stroke-linecap="round" stroke-linejoin="round"></path>
                <path d="M11.762025,27.5792917 C11.762025,26.9312083 11.236775,26.4059583 10.5886917,26.4059583 C9.94060833,26.4059583 9.41535833,26.9312083 9.41535833,27.5792917 C9.41535833,28.227375 9.94060833,28.752625 10.5886917,28.752625 C11.236775,28.752625 11.762025,28.227375 11.762025,27.5792917" id="Fill-59" fill="#4D5862"></path>
                <path d="M27.93175,27.5792917 C27.93175,24.913625 25.7711667,22.752125 23.1045833,22.752125 C20.4389167,22.752125 18.2783333,24.913625 18.2783333,27.5792917 C18.2783333,30.2449583 20.4389167,32.4064583 23.1045833,32.4064583 C25.7711667,32.4064583 27.93175,30.2449583 27.93175,27.5792917" id="Fill-61" fill="#FFFFFF"></path>
                <path d="M27.93175,27.5792917 C27.93175,24.913625 25.7711667,22.752125 23.1045833,22.752125 C20.4389167,22.752125 18.2783333,24.913625 18.2783333,27.5792917 C18.2783333,30.2449583 20.4389167,32.4064583 23.1045833,32.4064583 C25.7711667,32.4064583 27.93175,30.2449583 27.93175,27.5792917 Z" id="Stroke-63" stroke="#4D5862" stroke-width="2" stroke-linecap="round" stroke-linejoin="round"></path>
                <path d="M24.278375,27.5792917 C24.278375,26.9312083 23.753125,26.4059583 23.1050417,26.4059583 C22.4569583,26.4059583 21.9317083,26.9312083 21.9317083,27.5792917 C21.9317083,28.227375 22.4569583,28.752625 23.1050417,28.752625 C23.753125,28.752625 24.278375,28.227375 24.278375,27.5792917" id="Fill-65" fill="#4D5862"></path>
            </g>
        </g>
    </g>
</svg>