<?xml version="1.0" encoding="UTF-8"?>
<svg width="110px" height="35px" viewBox="0 0 110 35" version="1.1" xmlns="http://www.w3.org/2000/svg" xmlns:xlink="http://www.w3.org/1999/xlink">
    <!-- Generator: Sketch 46 (44423) - http://www.bohemiancoding.com/sketch -->
    <title>4 eixos dupla </title>
    <desc>Created with Sketch.</desc>
    <defs></defs>
    <g id="Symbols" stroke="none" stroke-width="1" fill="none" fill-rule="evenodd">
        <g id="4-eixos-dupla-">
            <g id="Page-1" transform="translate(17.000000, 3.000000)">
                <path d="M21.2511,23.9193 C21.2511,21.8403 19.5571,22.4113 17.4781,22.4113 C15.3981,22.4113 13.7221,21.8403 13.7221,23.9193 C13.7221,25.9983 15.4071,27.6843 17.4861,27.6843 C19.5661,27.6843 21.2511,25.9983 21.2511,23.9193" id="Fill-1" fill="#FFFFFF"></path>
                <path d="M21.2511,23.9193 C21.2511,21.8403 19.5571,22.4113 17.4781,22.4113 C15.3981,22.4113 13.7221,21.8403 13.7221,23.9193 C13.7221,25.9983 15.4071,27.6843 17.4861,27.6843 C19.5661,27.6843 21.2511,25.9983 21.2511,23.9193 Z" id="Stroke-3" stroke="#4D5862" stroke-width="2" stroke-linecap="round" stroke-linejoin="round"></path>
                <path d="M18.4017,23.9193 C18.4017,23.4143 17.9917,23.0043 17.4867,23.0043 C16.9807,23.0043 16.5717,23.4143 16.5717,23.9193 C16.5717,24.4243 16.9807,24.8343 17.4867,24.8343 C17.9917,24.8343 18.4017,24.4243 18.4017,23.9193" id="Fill-5" fill="#4D5862"></path>
                <path d="M20.1528,24.6515 C20.1528,22.5725 18.4678,20.8865 16.3878,20.8865 C14.3088,20.8865 12.6238,22.5725 12.6238,24.6515 C12.6238,26.7305 14.3088,28.4165 16.3878,28.4165 C18.4678,28.4165 20.1528,26.7305 20.1528,24.6515" id="Fill-7" fill="#FFFFFF"></path>
                <path d="M20.1528,24.6515 C20.1528,22.5725 18.4678,20.8865 16.3878,20.8865 C14.3088,20.8865 12.6238,22.5725 12.6238,24.6515 C12.6238,26.7305 14.3088,28.4165 16.3878,28.4165 C18.4678,28.4165 20.1528,26.7305 20.1528,24.6515 Z" id="Stroke-9" stroke="#4D5862" stroke-width="2" stroke-linecap="round" stroke-linejoin="round"></path>
                <path d="M17.3035,24.6515 C17.3035,24.1465 16.8935,23.7365 16.3885,23.7365 C15.8825,23.7365 15.4735,24.1465 15.4735,24.6515 C15.4735,25.1565 15.8825,25.5665 16.3885,25.5665 C16.8935,25.5665 17.3035,25.1565 17.3035,24.6515" id="Fill-11" fill="#4D5862"></path>
                <path d="M48.6716,23.9193 C48.6716,21.8403 46.9866,20.1543 44.9066,20.1543 C42.8276,20.1543 41.1426,21.8403 41.1426,23.9193 C41.1426,25.9983 42.8276,27.6843 44.9066,27.6843 C46.9866,27.6843 48.6716,25.9983 48.6716,23.9193" id="Fill-13" fill="#FFFFFF"></path>
                <path d="M48.6716,23.9193 C48.6716,21.8403 46.9866,20.1543 44.9066,20.1543 C42.8276,20.1543 41.1426,21.8403 41.1426,23.9193 C41.1426,25.9983 42.8276,27.6843 44.9066,27.6843 C46.9866,27.6843 48.6716,25.9983 48.6716,23.9193 Z" id="Stroke-15" stroke="#4D5862" stroke-width="2" stroke-linecap="round" stroke-linejoin="round"></path>
                <path d="M45.8223,23.9193 C45.8223,23.4143 45.4123,23.0043 44.9073,23.0043 C44.4013,23.0043 43.9923,23.4143 43.9923,23.9193 C43.9923,24.4243 44.4013,24.8343 44.9073,24.8343 C45.4123,24.8343 45.8223,24.4243 45.8223,23.9193" id="Fill-17" fill="#4D5862"></path>
                <path d="M47.5734,24.6515 C47.5734,22.5725 45.8884,20.8865 43.8084,20.8865 C41.7294,20.8865 40.0444,22.5725 40.0444,24.6515 C40.0444,26.7305 41.7294,28.4165 43.8084,28.4165 C45.8884,28.4165 47.5734,26.7305 47.5734,24.6515" id="Fill-19" fill="#FFFFFF"></path>
                <path d="M47.5734,24.6515 C47.5734,22.5725 45.8884,20.8865 43.8084,20.8865 C41.7294,20.8865 40.0444,22.5725 40.0444,24.6515 C40.0444,26.7305 41.7294,28.4165 43.8084,28.4165 C45.8884,28.4165 47.5734,26.7305 47.5734,24.6515 Z" id="Stroke-21" stroke="#4D5862" stroke-width="2" stroke-linecap="round" stroke-linejoin="round"></path>
                <path d="M44.7241,24.6515 C44.7241,24.1465 44.3141,23.7365 43.8091,23.7365 C43.3031,23.7365 42.8941,24.1465 42.8941,24.6515 C42.8941,25.1565 43.3031,25.5665 43.8091,25.5665 C44.3141,25.5665 44.7241,25.1565 44.7241,24.6515" id="Fill-23" fill="#4D5862"></path>
                <path d="M12.8594,23.9193 C12.8594,21.8403 11.1744,20.1543 9.0944,20.1543 C7.0154,20.1543 5.3304,21.8403 5.3304,23.9193 C5.3304,25.9983 7.0154,27.6843 9.0944,27.6843 C11.1744,27.6843 12.8594,25.9983 12.8594,23.9193" id="Fill-25" fill="#FFFFFF"></path>
                <path d="M12.8594,23.9193 C12.8594,21.8403 11.1744,20.1543 9.0944,20.1543 C7.0154,20.1543 5.3304,21.8403 5.3304,23.9193 C5.3304,25.9983 7.0154,27.6843 9.0944,27.6843 C11.1744,27.6843 12.8594,25.9983 12.8594,23.9193 Z" id="Stroke-27" stroke="#4D5862" stroke-width="2" stroke-linecap="round" stroke-linejoin="round"></path>
                <path d="M10.01,23.9193 C10.01,23.4143 9.6,23.0043 9.095,23.0043 C8.589,23.0043 8.18,23.4143 8.18,23.9193 C8.18,24.4243 8.589,24.8343 9.095,24.8343 C9.6,24.8343 10.01,24.4243 10.01,23.9193" id="Fill-29" fill="#4D5862"></path>
                <path d="M11.7612,24.6515 C11.7612,22.5725 10.0762,20.8865 7.9962,20.8865 C5.9172,20.8865 4.2322,22.5725 4.2322,24.6515 C4.2322,26.7305 5.9172,28.4165 7.9962,28.4165 C10.0762,28.4165 11.7612,26.7305 11.7612,24.6515" id="Fill-31" fill="#FFFFFF"></path>
                <path d="M11.7612,24.6515 C11.7612,22.5725 10.0762,20.8865 7.9962,20.8865 C5.9172,20.8865 4.2322,22.5725 4.2322,24.6515 C4.2322,26.7305 5.9172,28.4165 7.9962,28.4165 C10.0762,28.4165 11.7612,26.7305 11.7612,24.6515 Z" id="Stroke-33" stroke="#4D5862" stroke-width="2" stroke-linecap="round" stroke-linejoin="round"></path>
                <path d="M8.9118,24.6515 C8.9118,24.1465 8.5018,23.7365 7.9968,23.7365 C7.4908,23.7365 7.0818,24.1465 7.0818,24.6515 C7.0818,25.1565 7.4908,25.5665 7.9968,25.5665 C8.5018,25.5665 8.9118,25.1565 8.9118,24.6515" id="Fill-35" fill="#4D5862"></path>
                <path d="M69.9602,24.6515 C69.9602,22.5725 68.2752,20.8865 66.1952,20.8865 C64.1162,20.8865 62.4312,22.5725 62.4312,24.6515 C62.4312,26.7305 64.1162,28.4165 66.1952,28.4165 C68.2752,28.4165 69.9602,26.7305 69.9602,24.6515" id="Fill-37" fill="#FFFFFF"></path>
                <path d="M69.9602,24.6515 C69.9602,22.5725 68.2752,20.8865 66.1952,20.8865 C64.1162,20.8865 62.4312,22.5725 62.4312,24.6515 C62.4312,26.7305 64.1162,28.4165 66.1952,28.4165 C68.2752,28.4165 69.9602,26.7305 69.9602,24.6515 Z" id="Stroke-39" stroke="#4D5862" stroke-width="2" stroke-linecap="round" stroke-linejoin="round"></path>
                <path d="M58.8459,23.2447 L1.5849,23.2447 C0.7089,23.2447 -0.0011,22.5337 -0.0001,21.6567 L0.0049,18.5847 L56.3029,18.6877 L56.3029,20.3907 L58.8459,22.0687 L58.8459,23.2447 Z" id="Fill-41" fill="#FFFFFF"></path>
                <path d="M58.8459,23.2447 L1.5849,23.2447 C0.7089,23.2447 -0.0011,22.5337 -0.0001,21.6567 L0.0049,18.5847 L56.3029,18.6877 L56.3029,20.3907 L58.8459,22.0687 L58.8459,23.2447 Z" id="Stroke-43" stroke="#4D5862" stroke-width="2" stroke-linecap="round" stroke-linejoin="round"></path>
                <path d="M58.8466,23.2492 L58.8516,5.0132 C58.8556,3.8152 59.8286,2.8452 61.0276,2.8452 L69.0236,2.8452 C69.9746,2.8452 70.8466,3.3722 71.2896,4.2142 L75.8266,12.8492 C76.0526,13.1672 76.1736,13.5482 76.1726,13.9392 L76.1596,19.8272 C76.1556,21.7162 74.6236,23.2452 72.7656,23.2452 L58.8466,23.2492 Z" id="Fill-45" fill="#FFFFFF"></path>
                <path d="M58.8466,23.2492 L58.8516,5.0132 C58.8556,3.8152 59.8286,2.8452 61.0276,2.8452 L69.0236,2.8452 C69.9746,2.8452 70.8466,3.3722 71.2896,4.2142 L75.8266,12.8492 C76.0526,13.1672 76.1736,13.5482 76.1726,13.9392 L76.1596,19.8272 C76.1556,21.7162 74.6236,23.2452 72.7656,23.2452 L58.8466,23.2492 Z" id="Stroke-47" stroke="#4D5862" stroke-width="2" stroke-linecap="round" stroke-linejoin="round"></path>
                <path d="M67.1109,23.6947 C67.1109,23.1897 66.7009,22.7797 66.1959,22.7797 C65.6899,22.7797 65.2809,23.1897 65.2809,23.6947 C65.2809,24.1997 65.6899,24.6097 66.1959,24.6097 C66.7009,24.6097 67.1109,24.1997 67.1109,23.6947" id="Fill-49" fill="#4D5862"></path>
                <path d="M56.285,18.9525 L0.011,18.9525 L0.011,4.3305 C0.011,1.9385 1.95,0.0005 4.341,0.0005 L51.955,0.0005 C54.346,0.0005 56.285,1.9385 56.285,4.3305 L56.285,18.9525 Z" id="Fill-51" fill="#FFFFFF"></path>
                <path d="M56.285,18.9525 L0.011,18.9525 L0.011,4.3305 C0.011,1.9385 1.95,0.0005 4.341,0.0005 L51.955,0.0005 C54.346,0.0005 56.285,1.9385 56.285,4.3305 L56.285,18.9525 Z" id="Stroke-53" stroke="#4D5862" stroke-width="2" stroke-linecap="round" stroke-linejoin="round"></path>
                <path d="M67.5733,15.186 L70.5563,15.186" id="Stroke-55" stroke="#4D5862" stroke-width="2" stroke-linecap="round" stroke-linejoin="round"></path>
                <path d="M75.4622,12.6211 L65.5252,12.5901 C64.5142,12.5871 63.6982,11.7641 63.7012,10.7541 L63.7132,7.4211 C63.7162,6.4101 64.5392,5.5931 65.5502,5.5971 L71.7352,5.6111" id="Stroke-57" stroke="#4D5862" stroke-width="2" stroke-linecap="round" stroke-linejoin="round"></path>
                <path d="M68.862,25.0176 C68.862,22.9386 67.177,21.2526 65.097,21.2526 C63.018,21.2526 61.333,22.9386 61.333,25.0176 C61.333,27.0966 63.018,28.7826 65.097,28.7826 C67.177,28.7826 68.862,27.0966 68.862,25.0176" id="Fill-59" fill="#FFFFFF"></path>
                <path d="M68.862,25.0176 C68.862,22.9386 67.177,21.2526 65.097,21.2526 C63.018,21.2526 61.333,22.9386 61.333,25.0176 C61.333,27.0966 63.018,28.7826 65.097,28.7826 C67.177,28.7826 68.862,27.0966 68.862,25.0176 Z" id="Stroke-61" stroke="#4D5862" stroke-width="2" stroke-linecap="round" stroke-linejoin="round"></path>
                <path d="M66.0127,25.0176 C66.0127,24.5126 65.6027,24.1026 65.0977,24.1026 C64.5917,24.1026 64.1827,24.5126 64.1827,25.0176 C64.1827,25.5226 64.5917,25.9326 65.0977,25.9326 C65.6027,25.9326 66.0127,25.5226 66.0127,25.0176" id="Fill-63" fill="#4D5862"></path>
                <path d="M19.0546,25.0176 C19.0546,22.9386 17.3696,21.2526 15.2896,21.2526 C13.2106,21.2526 11.5256,22.9386 11.5256,25.0176 C11.5256,27.0966 13.2106,28.7826 15.2896,28.7826 C17.3696,28.7826 19.0546,27.0966 19.0546,25.0176" id="Fill-65" fill="#FFFFFF"></path>
                <path d="M19.0546,25.0176 C19.0546,22.9386 17.3696,21.2526 15.2896,21.2526 C13.2106,21.2526 11.5256,22.9386 11.5256,25.0176 C11.5256,27.0966 13.2106,28.7826 15.2896,28.7826 C17.3696,28.7826 19.0546,27.0966 19.0546,25.0176 Z" id="Stroke-67" stroke="#4D5862" stroke-width="2" stroke-linecap="round" stroke-linejoin="round"></path>
                <path d="M16.2053,25.0176 C16.2053,24.5126 15.7953,24.1026 15.2903,24.1026 C14.7843,24.1026 14.3753,24.5126 14.3753,25.0176 C14.3753,25.5226 14.7843,25.9326 15.2903,25.9326 C15.7953,25.9326 16.2053,25.5226 16.2053,25.0176" id="Fill-69" fill="#4D5862"></path>
                <path d="M46.4752,25.0176 C46.4752,22.9386 44.7902,21.2526 42.7102,21.2526 C40.6312,21.2526 38.9462,22.9386 38.9462,25.0176 C38.9462,27.0966 40.6312,28.7826 42.7102,28.7826 C44.7902,28.7826 46.4752,27.0966 46.4752,25.0176" id="Fill-71" fill="#FFFFFF"></path>
                <path d="M46.4752,25.0176 C46.4752,22.9386 44.7902,21.2526 42.7102,21.2526 C40.6312,21.2526 38.9462,22.9386 38.9462,25.0176 C38.9462,27.0966 40.6312,28.7826 42.7102,28.7826 C44.7902,28.7826 46.4752,27.0966 46.4752,25.0176 Z" id="Stroke-73" stroke="#4D5862" stroke-width="2" stroke-linecap="round" stroke-linejoin="round"></path>
                <path d="M43.6258,25.0176 C43.6258,24.5126 43.2158,24.1026 42.7108,24.1026 C42.2048,24.1026 41.7958,24.5126 41.7958,25.0176 C41.7958,25.5226 42.2048,25.9326 42.7108,25.9326 C43.2158,25.9326 43.6258,25.5226 43.6258,25.0176" id="Fill-75" fill="#4D5862"></path>
                <path d="M10.663,25.0176 C10.663,22.9386 8.978,21.2526 6.898,21.2526 C4.819,21.2526 3.134,22.9386 3.134,25.0176 C3.134,27.0966 4.819,28.7826 6.898,28.7826 C8.978,28.7826 10.663,27.0966 10.663,25.0176" id="Fill-77" fill="#FFFFFF"></path>
                <path d="M10.663,25.0176 C10.663,22.9386 8.978,21.2526 6.898,21.2526 C4.819,21.2526 3.134,22.9386 3.134,25.0176 C3.134,27.0966 4.819,28.7826 6.898,28.7826 C8.978,28.7826 10.663,27.0966 10.663,25.0176 Z" id="Stroke-79" stroke="#4D5862" stroke-width="2" stroke-linecap="round" stroke-linejoin="round"></path>
                <path d="M7.8136,25.0176 C7.8136,24.5126 7.4036,24.1026 6.8986,24.1026 C6.3926,24.1026 5.9836,24.5126 5.9836,25.0176 C5.9836,25.5226 6.3926,25.9326 6.8986,25.9326 C7.4036,25.9326 7.8136,25.5226 7.8136,25.0176" id="Fill-81" fill="#4D5862"></path>
            </g>
        </g>
    </g>
</svg>