<?xml version="1.0" encoding="UTF-8"?>
<svg width="22px" height="22px" viewBox="0 0 22 22" version="1.1" xmlns="http://www.w3.org/2000/svg" xmlns:xlink="http://www.w3.org/1999/xlink">
    <!-- Generator: Sketch 46.1 (44463) - http://www.bohemiancoding.com/sketch -->
    <title>ic Abastecimento</title>
    <desc>Created with Sketch.</desc>
    <defs></defs>
    <g id="Symbols" stroke="none" stroke-width="1" fill="none" fill-rule="evenodd">
        <g id="ic-Abastecimento" transform="translate(-7.000000, -4.000000)">
            <g transform="translate(-2.000000, 0.000000)">
                <g id="Page-1" transform="translate(10.000000, 5.000000)" stroke="#7C878F" stroke-linejoin="round">
                    <polygon id="Stroke-1" stroke-linecap="round" points="19.668434 11.5450979 17.7625292 12.5017838 17.7625292 8.5845053 19.668434 8.5845053"></polygon>
                    <path d="M17.7336886,11.2002244 L17.7336886,7.61241916 C17.7336886,5.96971959 19.4837236,5.60011218 19.4837236,5.60011218" id="Stroke-3" stroke-linecap="round"></path>
                    <path d="M17.7336886,10.2668723 L17.7336886,14.4669565 C17.7336886,15.239772 17.106476,15.8669845 16.3336605,15.8669845 L16.3336605,15.8669845 C15.5608451,15.8669845 14.9336325,15.239772 14.9336325,14.4669565 L14.9336325,4.60515892 C14.9336325,3.61207236 14.1216162,2.80005609 13.1285297,2.80005609 L13.0669284,2.80005609" id="Stroke-5" stroke-linecap="round"></path>
                    <path d="M0.466676015,1.7289413 L0.466676015,19.5419648 L12.6002524,19.5419648 L12.6002524,1.7289413 C12.6002524,1.03172733 12.0355744,0.467049356 11.3383605,0.467049356 L1.72856796,0.467049356 C1.03135399,0.467049356 0.466676015,1.03172733 0.466676015,1.7289413 Z" id="Stroke-7"></path>
                    <polygon id="Stroke-9" stroke-linecap="round" points="2.33338008 6.06632152 10.7335484 6.06632152 10.7335484 2.3329134 2.33338008 2.3329134"></polygon>
                </g>
                <rect id="Rectangle" x="0" y="0" width="36" height="32"></rect>
            </g>
        </g>
    </g>
</svg>