<?xml version="1.0" encoding="UTF-8"?>
<svg width="22px" height="24px" viewBox="0 0 22 24" version="1.1" xmlns="http://www.w3.org/2000/svg" xmlns:xlink="http://www.w3.org/1999/xlink">
    <!-- Generator: Sketch 46.1 (44463) - http://www.bohemiancoding.com/sketch -->
    <title>Group 3</title>
    <desc>Created with Sketch.</desc>
    <defs></defs>
    <g id="Symbols" stroke="none" stroke-width="1" fill="none" fill-rule="evenodd">
        <g id="ic-Estacionamento" transform="translate(-5.000000, -3.000000)">
            <g id="Group-3" transform="translate(-2.000000, 0.000000)">
                <g id="Group-2" transform="translate(6.000000, 3.000000)">
                    <polyline id="Path-2" stroke="#7C878F" stroke-linecap="round" stroke-linejoin="round" points="1.39019508 8.70205688 11.7973196 0.692718506 22.1630276 8.70205688"></polyline>
                    <g id="Group" transform="translate(2.000000, 9.000000)" stroke="#7C878F" stroke-linecap="round" stroke-linejoin="round">
                        <path d="M14.7610178,12.8004535 L14.7610178,13.6209542 C14.7610178,14.0939892 15.1480464,14.4810178 15.6210814,14.4810178 L16.481145,14.4810178 C16.95418,14.4810178 17.3412086,14.0939892 17.3412086,13.6209542 L17.3412086,8.19137259 C17.3412086,7.23068154 17.1803767,6.27773106 16.8655934,5.37036395 L15.5522763,1.58866425 C15.3802636,1.08122672 14.898628,0.72 14.330986,0.72 L4.87028625,0.72 C4.30264427,0.72 3.82960928,1.08122672 3.64899592,1.58866425 L2.33567879,5.37036395 C2.02089551,6.27773106 1.86006361,7.23068154 1.86006361,8.19137259 L1.86006361,13.6209542 C1.86006361,14.0939892 2.24709224,14.4810178 2.72012722,14.4810178 L3.58019083,14.4810178 C4.05322582,14.4810178 4.44025445,14.0939892 4.44025445,13.6209542 L4.44025445,12.7927129" id="Stroke-1"></path>
                        <path d="M16.7356365,5.02031806 C16.7356365,5.69116768 16.1954974,5.90532351 15.874357,5.90532351 L3.31785446,5.90532351 C2.99671407,5.90532351 2.48946807,5.59398049 2.48946807,5.03063882" id="Stroke-3"></path>
                        <path d="M17.35927,11.900827 C17.35927,12.5716766 16.7718465,12.7858324 16.4226607,12.7858324 L2.76227034,12.7858324 C2.41222445,12.7858324 1.86006361,12.4744894 1.86006361,11.9111477" id="Stroke-5"></path>
                        <path d="M4.48325763,9.40664248 C3.98356067,9.40664248 3.58019083,9.00327264 3.58019083,8.50357569 C3.58019083,8.00387873 3.98356067,7.60050889 4.48325763,7.60050889 C4.98295459,7.60050889 5.38632442,8.00387873 5.38632442,8.50357569 C5.38632442,9.00327264 4.98295459,9.40664248 4.48325763,9.40664248 Z" id="Stroke-7"></path>
                        <path d="M14.804021,9.40664248 C14.304324,9.40664248 13.9009542,9.00327264 13.9009542,8.50357569 C13.9009542,8.00387873 14.304324,7.60050889 14.804021,7.60050889 C15.3037179,7.60050889 15.7070878,8.00387873 15.7070878,8.50357569 C15.7070878,9.00327264 15.3037179,9.40664248 14.804021,9.40664248 Z" id="Stroke-9"></path>
                        <path d="M17.5372314,3.7 L18.4944822,3.7" id="Stroke-11"></path>
                        <path d="M0.528852965,3.7 L1.57727051,3.7" id="Stroke-13"></path>
                    </g>
                    <rect id="Rectangle" x="0" y="0" width="24" height="26"></rect>
                </g>
                <rect id="Rectangle" x="0" y="0" width="36" height="32"></rect>
            </g>
        </g>
    </g>
</svg>