<?xml version="1.0" encoding="UTF-8"?>
<svg width="18px" height="10px" viewBox="0 0 18 10" version="1.1" xmlns="http://www.w3.org/2000/svg" xmlns:xlink="http://www.w3.org/1999/xlink">
    <!-- Generator: Sketch 46 (44423) - http://www.bohemiancoding.com/sketch -->
    <title>ic conta mini car</title>
    <desc>Created with Sketch.</desc>
    <defs></defs>
    <g id="Extrato-iOS" stroke="none" stroke-width="1" fill="none" fill-rule="evenodd">
        <g id="Extrato-iOS-Conta-2" transform="translate(-237.000000, -216.000000)">
            <g id="mini-car" transform="translate(238.000000, 216.621118)">
                <g id="Page-1-Copy-2">
                    <path d="M14.3840785,6.76126451 L2.01183002,6.76126451 C0.95200432,6.76126451 0.0927765404,5.90222247 0.0927765404,4.84239677 L0.0927765404,3.65515423 C0.0927765404,3.27587556 0.400360026,2.96847782 0.779452957,2.96847782 L14.3840785,2.96847782 C15.4314597,2.96847782 16.2804719,3.81748996 16.2804719,4.86487116 L16.2804719,4.86487116 C16.2804719,5.91225237 15.4314597,6.76126451 14.3840785,6.76126451" id="Fill-9"></path>
                    <path d="M11.1813332,6.76126451 C8.62209848,6.76126451 6.59268197,6.76126451 5.09308364,6.76126451 C5.013781,5.93497502 4.31765148,5.28889432 3.47056699,5.28889432 C2.62581908,5.28889432 1.93119451,5.93141566 1.84872066,6.75443097 C0.865231653,6.67166264 0.0927765404,5.84728305 0.0927765404,4.84239677 L0.0927765404,3.65515423 C0.0927765404,3.27587556 0.400360026,2.96847782 0.779452957,2.96847782 L14.3840785,2.96847782 C15.4314597,2.96847782 16.2804719,3.81748996 16.2804719,4.86487116 C16.2804719,5.8981346 15.4541934,6.73834061 14.4263221,6.76080334 C14.3468048,5.93473464 13.6507767,5.28889432 12.8038498,5.28889432 C11.9567653,5.28889432 11.2606358,5.93497502 11.1813332,6.76126451 Z" id="Combined-Shape" stroke="#A0A7AE" stroke-linecap="round" stroke-linejoin="round"></path>
                    <path d="M14.4338937,6.9189382 C14.4338937,6.01866214 13.7041259,5.28889432 12.8038498,5.28889432 C11.9035738,5.28889432 11.1738059,6.01866214 11.1738059,6.9189382 C11.1738059,7.81921425 11.9035738,8.54898208 12.8038498,8.54898208 C13.7041259,8.54898208 14.4338937,7.81921425 14.4338937,6.9189382 Z" id="Stroke-17" stroke="#A0A7AE" stroke-linecap="round" stroke-linejoin="round"></path>
                    <path d="M5.10061087,6.9189382 C5.10061087,6.01866214 4.37084305,5.28889432 3.47056699,5.28889432 C2.57029093,5.28889432 1.84052311,6.01866214 1.84052311,6.9189382 C1.84052311,7.81921425 2.57029093,8.54898208 3.47056699,8.54898208 C4.37084305,8.54898208 5.10061087,7.81921425 5.10061087,6.9189382 Z" id="Stroke-21" stroke="#A0A7AE" stroke-linecap="round" stroke-linejoin="round"></path>
                    <path d="M12.9586817,2.96845924 L2.57179542,2.96845924 L2.57179542,0.997770365 C2.57179542,0.497947202 2.97689178,0.0928508359 3.47671495,0.0928508359 L9.65531678,0.0928508359 C10.6428901,0.0928508359 11.5576538,0.61310527 12.0624919,1.46174594 L12.9586817,2.96845924 Z" id="Stroke-13" stroke="#A0A7AE" stroke-linecap="round" stroke-linejoin="round"></path>
                    <path d="M14.4338937,6.9189382 C14.4338937,6.01866214 13.7041259,5.28889432 12.8038498,5.28889432 C11.9035738,5.28889432 11.1738059,6.01866214 11.1738059,6.9189382 C11.1738059,7.81921425 11.9035738,8.54898208 12.8038498,8.54898208 C13.7041259,8.54898208 14.4338937,7.81921425 14.4338937,6.9189382" id="Fill-15"></path>
                    <path d="M5.10061087,6.9189382 C5.10061087,6.01866214 4.37084305,5.28889432 3.47056699,5.28889432 C2.57029093,5.28889432 1.84052311,6.01866214 1.84052311,6.9189382 C1.84052311,7.81921425 2.57029093,8.54898208 3.47056699,8.54898208 C4.37084305,8.54898208 5.10061087,7.81921425 5.10061087,6.9189382" id="Fill-19"></path>
                    <path d="M13.2001422,6.9189382 C13.2001422,6.70013787 13.0227616,6.52275729 12.8039613,6.52275729 C12.5849752,6.52275729 12.4075946,6.70013787 12.4075946,6.9189382 C12.4075946,7.13773853 12.5849752,7.3151191 12.8039613,7.3151191 C13.0227616,7.3151191 13.2001422,7.13773853 13.2001422,6.9189382" id="Fill-25" fill="#A0A7AE"></path>
                    <path d="M3.86684076,6.9189382 C3.86684076,6.70013787 3.68946019,6.52275729 3.47065986,6.52275729 C3.25167379,6.52275729 3.07429322,6.70013787 3.07429322,6.9189382 C3.07429322,7.13773853 3.25167379,7.3151191 3.47065986,7.3151191 C3.68946019,7.3151191 3.86684076,7.13773853 3.86684076,6.9189382" id="Fill-27" fill="#A0A7AE"></path>
                </g>
            </g>
        </g>
    </g>
</svg>