<?xml version="1.0" encoding="UTF-8"?>
<svg width="71px" height="71px" viewBox="0 0 71 71" version="1.1" xmlns="http://www.w3.org/2000/svg" xmlns:xlink="http://www.w3.org/1999/xlink">
    <!-- Generator: Sketch 46.1 (44463) - http://www.bohemiancoding.com/sketch -->
    <title>ic Abastecimento Detalhe</title>
    <desc>Created with Sketch.</desc>
    <defs></defs>
    <g id="Symbols" stroke="none" stroke-width="1" fill="none" fill-rule="evenodd">
        <g id="ic-Abastecimento-Detalhe">
            <circle id="Oval-2" stroke="#FF6A38" cx="35.3052515" cy="35.3052515" r="35.3052515"></circle>
            <g id="Page-1" transform="translate(24.000000, 20.000000)" stroke="#FFFFFF" stroke-linejoin="round">
                <polygon id="Stroke-1" stroke-linecap="round" points="29.3802844 17.0330556 26.418457 18.5197711 26.418457 12.4322151 29.3802844 12.4322151"></polygon>
                <path d="M26.418457,16.4728593 L26.418457,10.8973136 C26.418457,8.34451426 29.1380586,7.77013442 29.1380586,7.77013442" id="Stroke-3" stroke-linecap="round"></path>
                <path d="M26.4173584,14.711687 L26.4173584,21.2387306 C26.4173584,22.4397067 25.4426532,23.4144118 24.2416772,23.4144118 C23.0407011,23.4144118 22.065996,22.4397067 22.065996,21.2387306 L22.065996,5.91323209 C22.065996,4.36994888 20.8041008,3.10805377 19.2608176,3.10805377 L19.1650877,3.10805377" id="Stroke-5" stroke-linecap="round"></path>
                <path d="M0,1.96101401 L0,29.6429314 L18.8559039,29.6429314 L18.8559039,1.96101401 C18.8559039,0.87752476 17.9783792,0 16.8948899,0 L1.96101401,0 C0.87752476,0 0,0.87752476 0,1.96101401 Z" id="Stroke-7"></path>
                <polygon id="Stroke-9" stroke-linecap="round" points="3.10805377 8.90987036 16.1621411 8.90987036 16.1621411 3.10805377 3.10805377 3.10805377"></polygon>
            </g>
        </g>
    </g>
</svg>