<?xml version="1.0" encoding="UTF-8"?>
<svg width="71px" height="71px" viewBox="0 0 71 71" version="1.1" xmlns="http://www.w3.org/2000/svg" xmlns:xlink="http://www.w3.org/1999/xlink">
    <!-- Generator: Sketch 46.1 (44463) - http://www.bohemiancoding.com/sketch -->
    <title>ic Estacionamento Detalhe</title>
    <desc>Created with Sketch.</desc>
    <defs></defs>
    <g id="Symbols" stroke="none" stroke-width="1" fill="none" fill-rule="evenodd">
        <g id="ic-Estacionamento-Detalhe">
            <g id="Group-7" stroke="#FF6A38">
                <circle id="Oval-2" cx="35.3052515" cy="35.3052515" r="35.3052515"></circle>
            </g>
            <g id="Group-2" transform="translate(17.000000, 13.000000)" stroke-linecap="round" stroke="#FFFFFF" stroke-linejoin="round">
                <g id="Group">
                    <polyline id="Path-2" points="0.646361824 13.290039 17.8858614 0.0224947161 35.0567541 13.290039"></polyline>
                    <path d="M26.1082741,34.9876561 L26.1082741,36.3468232 C26.1082741,37.1304101 26.7493907,37.7715267 27.5329776,37.7715267 L28.957681,37.7715267 C29.7412679,37.7715267 30.3823845,37.1304101 30.3823845,36.3468232 L30.3823845,27.3526703 C30.3823845,25.7612765 30.1159649,24.1827051 29.5945235,22.679643 L27.4190013,16.4152219 C27.1340606,15.5746468 26.3362267,14.9762714 25.3959224,14.9762714 L9.72418435,14.9762714 C8.78388007,14.9762714 8.00029317,15.5746468 7.70110545,16.4152219 L5.52558327,22.679643 C5.0041418,24.1827051 4.73772226,25.7612765 4.73772226,27.3526703 L4.73772226,36.3468232 C4.73772226,37.1304101 5.37883881,37.7715267 6.16242571,37.7715267 L7.58712917,37.7715267 C8.37071607,37.7715267 9.01183263,37.1304101 9.01183263,36.3468232 L9.01183263,34.9748338" id="Stroke-1"></path>
                    <path d="M29.3792485,22.0997886 C29.3792485,23.2110573 28.4845031,23.5658085 27.952531,23.5658085 L7.1525665,23.5658085 C6.62059443,23.5658085 5.78033666,23.0500659 5.78033666,22.1168851" id="Stroke-3"></path>
                    <path d="M30.4123033,33.4974163 C30.4123033,34.608685 29.4392308,34.9634362 28.8608012,34.9634362 L6.23223618,34.9634362 C5.65238187,34.9634362 4.73772226,34.4476935 4.73772226,33.5145127" id="Stroke-5"></path>
                    <path d="M9.0830678,29.3657763 C8.25531509,29.3657763 7.58712917,28.6975904 7.58712917,27.8698376 C7.58712917,27.0420849 8.25531509,26.373899 9.0830678,26.373899 C9.91082051,26.373899 10.5790064,27.0420849 10.5790064,27.8698376 C10.5790064,28.6975904 9.91082051,29.3657763 9.0830678,29.3657763 Z" id="Stroke-7"></path>
                    <path d="M26.1795093,29.3657763 C25.3517566,29.3657763 24.6835707,28.6975904 24.6835707,27.8698376 C24.6835707,27.0420849 25.3517566,26.373899 26.1795093,26.373899 C27.007262,26.373899 27.6754479,27.0420849 27.6754479,27.8698376 C27.6754479,28.6975904 27.007262,29.3657763 26.1795093,29.3657763 Z" id="Stroke-9"></path>
                    <path d="M30.7070981,19.9126694 L32.2927931,19.9126694" id="Stroke-11"></path>
                    <path d="M2.53255931,19.9126694 L4.26927282,19.9126694" id="Stroke-13"></path>
                </g>
            </g>
        </g>
    </g>
</svg>