<?xml version="1.0" encoding="UTF-8"?>
<svg width="71px" height="71px" viewBox="0 0 71 71" version="1.1" xmlns="http://www.w3.org/2000/svg" xmlns:xlink="http://www.w3.org/1999/xlink">
    <!-- Generator: Sketch 46.2 (44496) - http://www.bohemiancoding.com/sketch -->
    <title>ic Outros Detalhe</title>
    <desc>Created with Sketch.</desc>
    <defs></defs>
    <g id="Symbols" stroke="none" stroke-width="1" fill="none" fill-rule="evenodd">
        <g id="ic-Outros-Detalhe">
            <circle id="Oval-2" stroke="#FF6A38" cx="35.3052515" cy="35.3052515" r="34.8052515"></circle>
            <g id="Group" transform="translate(7.000000, 11.000000)">
                <g id="Group-11">
                    <path d="M22.3416,28.8032833 L21.5086556,29.8118389" id="Stroke-1" stroke="#FFFFFF" stroke-linecap="round" stroke-linejoin="round"></path>
                    <path d="M28.1709222,21.7467778 L27.3379778,22.7537222" id="Stroke-2" stroke="#FFFFFF" stroke-linecap="round" stroke-linejoin="round"></path>
                    <path d="M21.8946778,27.2653167 C21.2051222,28.1014833 21.4049,28.7894278 22.3409556,28.8039278 C23.2770111,28.8168167 24.5965111,28.1514278 25.2860667,27.3168722 C25.9756222,26.4790944 25.7758444,25.7927611 24.8397889,25.7782611 C23.9037333,25.7669833 23.7039556,25.0758167 24.3935111,24.2412611 C25.0830667,23.4067056 26.4025667,22.7413167 27.3386222,22.7525944 C28.2730667,22.7703167 28.4744556,23.45665 27.7832889,24.2912056" id="Stroke-3" stroke="#FFFFFF" stroke-linecap="round" stroke-linejoin="round"></path>
                    <polygon id="Stroke-5" stroke="#FFFFFF" stroke-linecap="round" stroke-linejoin="round" points="41.0833333 18.5277778 26.5833333 33.0277778 10.4722222 33.0277778 24.9722222 18.5277778"></polygon>
                    <polyline id="Stroke-7" stroke="#FFFFFF" stroke-linecap="round" stroke-linejoin="round" points="41.0833333 22.5555556 27.3888889 36.25 10.4722222 36.25"></polyline>
                    <polyline id="Stroke-9" stroke="#FFFFFF" stroke-linejoin="round" points="38.6666667 24.9722222 47.5277778 24.9722222 47.5277778 15.3055556 10.4722222 15.3055556 10.4722222 24.9722222 18.5277778 24.9722222"></polyline>
                    <rect id="Rectangle" x="0" y="0" width="58" height="51.5555556"></rect>
                </g>
            </g>
        </g>
    </g>
</svg>