<?xml version="1.0" encoding="UTF-8"?>
<svg width="71px" height="71px" viewBox="0 0 71 71" version="1.1" xmlns="http://www.w3.org/2000/svg" xmlns:xlink="http://www.w3.org/1999/xlink">
    <!-- Generator: Sketch 46.2 (44496) - http://www.bohemiancoding.com/sketch -->
    <title>ic Recarga Detalhe</title>
    <desc>Created with Sketch.</desc>
    <defs></defs>
    <g id="Symbols" stroke="none" stroke-width="1" fill="none" fill-rule="evenodd">
        <g id="ic-Recarga-Detalhe">
            <g id="Page-1" transform="translate(15.824779, 10.949303)" stroke="#FFFFFF">
                <path d="M30.5002407,9.5535913 C35.0256872,12.9827701 37.9486626,18.4154936 37.9486626,24.5312575 C37.9486626,34.9038701 29.5400949,43.3124377 19.1674823,43.3124377 C8.79486965,43.3124377 0.386302013,34.9038701 0.386302013,24.5312575 C0.386302013,14.1586448 8.79486965,5.75007718 19.1674823,5.75007718 C19.8201383,5.75007718 20.4642868,5.78349998 21.0999276,5.84852251 L22.4271164,5.9767445" id="Stroke-1" stroke-linecap="round" stroke-linejoin="round"></path>
                <polyline id="Stroke-3" stroke-linecap="round" stroke-linejoin="round" points="16.7597528 11.7378422 22.5607479 5.93684712 16.7597528 0.136418283"></polyline>
                <path d="M23.9477412,20.0351159 C23.049049,18.827559 21.8804247,17.8542462 19.2096543,17.8542462 C16.5388838,17.8542462 14.275607,18.9294325 14.275607,21.1122487 C14.275607,23.4507951 16.0204325,24.0458137 18.5471526,24.3702513 C21.7305345,24.7790427 24.1281285,24.9620255 24.5090183,27.9390651 C24.7867369,30.1095527 22.3216599,31.7038392 19.3991258,31.7038392 C16.3980779,31.7038392 14.6402749,30.4936869 13.6539845,28.9999761" id="Stroke-5"></path>
                <path d="M19.3854346,34.2842862 L19.3854346,31.7037094" id="Stroke-7"></path>
                <path d="M19.3854346,17.8544409 L19.3854346,15.4425716" id="Stroke-9"></path>
            </g>
            <circle id="Oval-2" stroke="#FF6A38" cx="35.3052515" cy="35.3052515" r="34.8052515"></circle>
        </g>
    </g>
</svg>