<?xml version="1.0" encoding="UTF-8"?>
<svg width="130px" height="63px" viewBox="0 0 130 63" version="1.1" xmlns="http://www.w3.org/2000/svg" xmlns:xlink="http://www.w3.org/1999/xlink">
    <!-- Generator: Sketch 46.2 (44496) - http://www.bohemiancoding.com/sketch -->
    <title>ic Pedido realizado</title>
    <desc>Created with Sketch.</desc>
    <defs></defs>
    <g id="Tracking-Mobile" stroke="none" stroke-width="1" fill="none" fill-rule="evenodd">
        <g id="_00-Fullpage_Detalhe" transform="translate(-123.000000, -325.000000)">
            <g id="ic-Pedido-realizado" transform="translate(124.000000, 326.000000)">
                <g id="Group-11" transform="translate(96.000000, 29.000000)"></g>
                <g id="adesivo-grande">
                    <path d="M111.345072,47.4628219 L1.26947054,47.4628219 C0.673662654,47.4628219 0.190163603,46.9818413 0.190163603,46.3882907 L0.190163603,1.2636639 C0.190163603,0.670492334 0.673662654,0.189511683 1.26947054,0.189511683 L111.345072,0.189511683 C111.941261,0.189511683 112.424379,0.670492334 112.424379,1.2636639 L112.424379,46.3882907 C112.424379,46.9818413 111.941261,47.4628219 111.345072,47.4628219 Z" id="Stroke-1" stroke="#7C878F"></path>
                    <g id="Group-3" transform="translate(14.168423, 13.132922)" fill="#DADADA">
                        <path d="M9.24224315,7.24735376 C10.0877954,7.24735376 10.474214,5.91205445 10.474214,5.07024355 C10.474214,4.57751318 10.2690124,4.16778892 9.73754415,4.16778892 C8.84288055,4.16778892 8.48082732,5.58761045 8.48082732,6.30927093 C8.48082732,6.88652352 8.74694216,7.24735376 9.22967979,7.24735376 L9.24224315,7.24735376 Z M8.95214372,8.79907542 C7.42969277,8.79907542 6.34277168,7.88487106 6.34277168,6.34527815 C6.34277168,4.26406085 7.81611131,2.61644628 10.0032783,2.61644628 C11.597683,2.61644628 12.6126503,3.65080105 12.6126503,5.04636508 C12.6126503,7.34324667 11.0422302,8.79907542 8.96394567,8.79907542 L8.95214372,8.79907542 Z" id="Fill-5"></path>
                        <path d="M12.7199338,8.66656885 L13.4566036,4.76945061 C13.6134553,3.97577568 13.7101551,3.30225116 13.7946722,2.74887705 L15.6076033,2.74887705 L15.5105228,3.6630814 L15.5348881,3.6630814 C16.1025236,2.91716342 16.8152088,2.61621887 17.564442,2.61621887 C18.6517438,2.61621887 19.0994563,3.28974339 19.0994563,4.22820524 C19.0994563,4.49314258 19.050345,4.96161545 19.0023758,5.23868154 L18.3376598,8.66656885 L16.2837406,8.66656885 L16.887924,5.45510388 C16.9240913,5.26256001 16.9484566,5.03400892 16.9484566,4.84184407 C16.9484566,4.49314258 16.8395741,4.26421246 16.5011248,4.26421246 C16.0062045,4.26421246 15.4983402,4.91385851 15.2565906,6.14113617 L14.773853,8.66656885 L12.7199338,8.66656885 Z" id="Fill-7"></path>
                        <path d="M23.5318863,4.48044529 C23.5318863,4.2761517 23.3384867,4.09573658 23.0000373,4.09573658 C22.2633675,4.09573658 21.9009336,4.64948971 21.840401,5.03381941 C23.0967371,5.04632718 23.5318863,4.86553303 23.5318863,4.49295306 L23.5318863,4.48044529 Z M24.7276898,8.31767785 C23.9304875,8.70276558 23.0000373,8.78690877 22.4084172,8.78690877 C20.6560187,8.78690877 19.7019647,7.88483316 19.7019647,6.23683957 C19.7019647,4.43306737 21.0066507,2.61640838 23.2417868,2.61640838 C24.4859403,2.61640838 25.4529384,3.28955388 25.4529384,4.49295306 C25.4529384,5.97228126 24.0995218,6.58554106 21.6588033,6.51352663 C21.6831686,6.64580578 21.7555031,6.79021368 21.8647663,6.89823534 C22.0939525,7.10290796 22.4567671,7.21092962 22.9277028,7.21092962 C23.5318863,7.21092962 24.0995218,7.09115823 24.6070054,6.8504784 L24.7276898,8.31767785 Z" id="Fill-9"></path>
                        <path d="M30.1152017,8.49832038 C29.7047986,8.69048523 29.1127978,8.78713619 28.4480818,8.78713619 C27.010148,8.78713619 25.850131,7.94494627 25.850131,6.2973317 C25.850131,4.1804862 27.5176316,2.62876454 29.825483,2.62876454 C30.3082206,2.62876454 30.7197659,2.70039996 31.0212866,2.79629287 L30.5263663,4.3605223 C30.332586,4.28812884 30.1273844,4.25250064 29.8136811,4.25250064 C28.702014,4.25250064 28.0133133,5.10644028 28.0133133,6.08090936 C28.0133133,6.83857706 28.5325989,7.15127134 29.0400826,7.15127134 C29.511399,7.15127134 29.8376657,7.05499941 30.1391863,6.9462197 L30.1152017,8.49832038 Z" id="Fill-11"></path>
                        <path d="M34.6818312,1.06476253 L34.3673665,2.74876334 L35.5757334,2.74876334 L35.2734513,4.30010598 L34.0658458,4.30010598 L33.7273965,5.9242211 C33.6908485,6.11676497 33.6428793,6.42945924 33.6428793,6.59774562 C33.6428793,6.8505542 33.7513811,7.0548478 34.1259977,7.0548478 C34.2718088,7.0548478 34.439701,7.0548478 34.609116,7.04309807 L34.3433819,8.6429557 C34.0902111,8.73884861 33.6063314,8.78698458 33.2081109,8.78698458 C32.0842611,8.78698458 31.5284276,8.25748893 31.5284276,7.46343498 C31.5284276,7.13899098 31.5645948,6.82629671 31.649112,6.36919453 L32.0598958,4.30010598 L31.335028,4.30010598 L31.63731,2.74876334 L32.3621779,2.74876334 L32.5673795,1.64239414 L34.6818312,1.06476253 Z" id="Fill-13"></path>
                        <path d="M22.465828,19.2131972 C22.0554248,19.4057411 21.318755,19.54977 20.3155897,19.54977 C18.1048188,19.54977 16.5819872,18.2387281 16.5819872,16.0854964 C16.5819872,14.1251876 17.4884527,12.7417523 18.7813368,11.9602061 C19.6268891,11.4307105 20.5935065,11.2021594 21.7291582,11.2021594 C22.598695,11.2021594 23.2755937,11.3943242 23.5169625,11.5144746 L22.985875,13.1867257 C22.7681101,13.1025825 22.2484438,12.9585536 21.5601238,12.9585536 C20.9197731,12.9585536 20.3395743,13.126461 19.8926232,13.4634128 C19.2522725,13.9447724 18.829306,14.7744546 18.829306,15.8573243 C18.829306,17.083844 19.5903411,17.7937547 20.8592406,17.7937547 C21.4154548,17.7937547 21.9343597,17.7092325 22.3207783,17.5530749 L22.465828,19.2131972 Z" id="Fill-15"></path>
                        <path d="M27.0072165,14.9549076 C26.8743495,14.9306501 26.7292998,14.9185214 26.620798,14.9185214 C25.6663633,14.9185214 25.0256318,16.2060637 25.0256318,17.0717531 C25.0256318,17.6251272 25.2673814,17.913943 25.6180134,17.913943 C25.9922492,17.913943 26.5001136,17.540984 26.7532844,16.145799 L27.0072165,14.9549076 Z M26.5602654,19.4292784 C26.58425,19.0927057 26.6082346,18.7436252 26.620798,18.4070524 L26.58425,18.4070524 C26.0767664,19.2848705 25.3397159,19.5619366 24.7119285,19.5619366 C23.6486113,19.5619366 22.8750128,18.7436252 22.8750128,17.4568408 C22.8750128,15.4840242 24.1321104,13.3793075 27.2006162,13.3793075 C27.9616513,13.3793075 28.783219,13.5358441 29.3146872,13.7041305 L28.6743365,16.8075738 C28.5536521,17.4447121 28.420785,18.659482 28.4447696,19.4292784 L26.5602654,19.4292784 Z" id="Fill-17"></path>
                        <path d="M29.5078203,19.4293921 L30.159973,16.037133 C30.329388,15.0873005 30.4017225,14.0048097 30.4618744,13.5117003 L32.2382575,13.5117003 C32.2138922,13.9085378 32.1895269,14.3053753 32.1533596,14.690463 L32.1895269,14.690463 C32.624676,13.9202875 33.3015747,13.3790422 34.1223809,13.3790422 C34.2316441,13.3790422 34.3527092,13.3790422 34.461211,13.3915499 L34.0622291,15.3757373 L33.7850737,15.3757373 C32.5767068,15.3757373 32.1533596,16.3263279 31.9477773,17.4084396 L31.5735415,19.4293921 L29.5078203,19.4293921 Z" id="Fill-19"></path>
                        <path d="M6.04616214,8.45037393 C5.6349976,8.6429178 4.89832778,8.78694667 3.89554314,8.78694667 C1.68439158,8.78694667 0.162321336,7.47590485 0.162321336,5.32267311 C0.162321336,3.36236427 1.06840617,1.97892898 2.36090954,1.1973828 C3.20684252,0.667887161 4.17345992,0.439336071 5.30911162,0.439336071 C6.17902921,0.439336071 6.85554717,0.631500918 7.09691599,0.751651324 L6.56544774,2.42390241 C6.34806352,2.33975923 5.82839722,2.19573035 5.14007731,2.19573035 C4.49934589,2.19573035 3.91952774,2.3636377 3.47257665,2.70058947 C2.83260664,3.18194914 2.40964015,4.01163129 2.40964015,5.09450105 C2.40964015,6.32102066 3.17067527,7.03093142 4.43919404,7.03093142 C4.99502759,7.03093142 5.51431319,6.94640921 5.90111243,6.79025158 L6.04616214,8.45037393 Z" id="Fill-3"></path>
                    </g>
                    <path d="M100.18759,42.881756 L76.5463895,42.881756 C75.9528659,42.881756 75.4670826,42.3981222 75.4670826,41.8072248 L75.4670826,35.4002138 C75.4670826,34.8093164 75.9528659,34.3260616 76.5463895,34.3260616 L100.18759,34.3260616 C100.781113,34.3260616 101.266896,34.8093164 101.266896,35.4002138 L101.266896,41.8072248 C101.266896,42.3981222 100.781113,42.881756 100.18759,42.881756 Z" id="Stroke-21" stroke="#7C878F"></path>
                    <path d="M100.18759,31.0738895 L76.5463895,31.0738895 C75.9528659,31.0738895 75.4670826,30.5902557 75.4670826,29.9993583 L75.4670826,6.46276531 C75.4670826,5.87186788 75.9528659,5.38823407 76.5463895,5.38823407 L100.18759,5.38823407 C100.781113,5.38823407 101.266896,5.87186788 101.266896,6.46276531 L101.266896,29.9993583 C101.266896,30.5902557 100.781113,31.0738895 100.18759,31.0738895 Z" id="Stroke-23" stroke="#7C878F"></path>
                    <path d="M79.2316366,38.8100217 C79.2354437,38.8934069 79.2487685,38.9741388 79.2708495,39.0518386 C79.2933113,39.1291594 79.3279557,39.1954885 79.3766863,39.2504469 C79.4246555,39.3057843 79.4943251,39.333074 79.5845529,39.333074 C79.6770649,39.333074 79.7482573,39.3057843 79.7977493,39.2504469 C79.8472413,39.1954885 79.8826472,39.1291594 79.9051089,39.0518386 C79.92719,38.9741388 79.9405148,38.8934069 79.9447025,38.8100217 C79.9485096,38.7266366 79.9507939,38.6553802 79.9507939,38.5962525 C79.9507939,38.5610034 79.9504132,38.5185527 79.949271,38.4681426 C79.9481289,38.4181116 79.9439411,38.3665644 79.936327,38.3135011 C79.9290935,38.2604378 79.9188144,38.2081326 79.9051089,38.1558274 C79.8914034,38.1039012 79.8708452,38.0572813 79.8434342,38.0159678 C79.8160233,37.9746542 79.7813788,37.9413002 79.739501,37.9159056 C79.6972424,37.890511 79.6458468,37.8776242 79.5845529,37.8776242 C79.5236396,37.8776242 79.4730054,37.890511 79.4315083,37.9159056 C79.3907725,37.9413002 79.3572702,37.9746542 79.3310014,38.0159678 C79.3043518,38.0572813 79.2841743,38.1039012 79.2693267,38.1558274 C79.2544791,38.2081326 79.2442,38.2604378 79.2377279,38.3135011 C79.2316366,38.3665644 79.2278295,38.4181116 79.2270681,38.4681426 C79.2255453,38.5185527 79.2251646,38.5610034 79.2251646,38.5962525 C79.2251646,38.6553802 79.2274488,38.7266366 79.2316366,38.8100217 M78.841411,38.0910144 C78.8851924,37.954566 78.94306,37.8450282 79.0169174,37.7627802 C79.090394,37.6801531 79.1760533,37.6214044 79.2742759,37.5857762 C79.3717371,37.5505271 79.4756704,37.533092 79.5845529,37.533092 C79.6961003,37.533092 79.8011757,37.5505271 79.8986369,37.5857762 C79.9968595,37.6214044 80.0828995,37.6801531 80.1575183,37.7627802 C80.232137,37.8450282 80.290766,37.954566 80.3341667,38.0910144 C80.3771867,38.2278418 80.3988871,38.3961282 80.3988871,38.5962525 C80.3988871,38.8028203 80.3771867,38.9748969 80.3341667,39.1136194 C80.290766,39.252342 80.232137,39.3626378 80.1575183,39.4448858 C80.0828995,39.5275129 79.9968595,39.5862616 79.8986369,39.6215107 C79.8011757,39.6571389 79.6961003,39.674574 79.5845529,39.674574 C79.4756704,39.674574 79.3717371,39.6571389 79.2742759,39.6215107 C79.1760533,39.5862616 79.090394,39.5275129 79.0169174,39.4448858 C78.94306,39.3626378 78.8851924,39.252342 78.841411,39.1136194 C78.798391,38.9748969 78.7770714,38.8028203 78.7770714,38.5962525 C78.7770714,38.3961282 78.798391,38.2278418 78.841411,38.0910144" id="Fill-25" fill="#DADADA"></path>
                    <path d="M80.9858625,38.8100217 C80.9896696,38.8934069 81.0029944,38.9741388 81.0250755,39.0518386 C81.0475372,39.1291594 81.0821816,39.1954885 81.1309123,39.2504469 C81.1788815,39.3057843 81.248551,39.333074 81.3387788,39.333074 C81.4312908,39.333074 81.5024832,39.3057843 81.5519752,39.2504469 C81.6014672,39.1954885 81.6368731,39.1291594 81.6593348,39.0518386 C81.6814159,38.9741388 81.6947407,38.8934069 81.6989285,38.8100217 C81.7027355,38.7266366 81.7050198,38.6553802 81.7050198,38.5962525 C81.7050198,38.5610034 81.7046391,38.5185527 81.703497,38.4681426 C81.7023548,38.4181116 81.6981671,38.3665644 81.6905529,38.3135011 C81.6833194,38.2604378 81.6730403,38.2081326 81.6593348,38.1558274 C81.6456294,38.1039012 81.6250711,38.0572813 81.5976602,38.0159678 C81.5702492,37.9746542 81.5356048,37.9413002 81.4937269,37.9159056 C81.4514683,37.890511 81.4000728,37.8776242 81.3387788,37.8776242 C81.2778655,37.8776242 81.2272314,37.890511 81.1857342,37.9159056 C81.1449985,37.9413002 81.1114962,37.9746542 81.0852273,38.0159678 C81.0585778,38.0572813 81.0384002,38.1039012 81.0235526,38.1558274 C81.008705,38.2081326 80.9984259,38.2604378 80.9919539,38.3135011 C80.9858625,38.3665644 80.9820555,38.4181116 80.9812941,38.4681426 C80.9797712,38.5185527 80.9793905,38.5610034 80.9793905,38.5962525 C80.9793905,38.6553802 80.9816748,38.7266366 80.9858625,38.8100217 M80.5956369,38.0910144 C80.6394183,37.954566 80.6972859,37.8450282 80.7711433,37.7627802 C80.8446199,37.6801531 80.9302792,37.6214044 81.0285018,37.5857762 C81.1259631,37.5505271 81.2298963,37.533092 81.3387788,37.533092 C81.4503262,37.533092 81.5554016,37.5505271 81.6528628,37.5857762 C81.7510855,37.6214044 81.8371254,37.6801531 81.9117442,37.7627802 C81.9863629,37.8450282 82.044992,37.954566 82.0883927,38.0910144 C82.1314127,38.2278418 82.153113,38.3961282 82.153113,38.5962525 C82.153113,38.8028203 82.1314127,38.9748969 82.0883927,39.1136194 C82.044992,39.252342 81.9863629,39.3626378 81.9117442,39.4448858 C81.8371254,39.5275129 81.7510855,39.5862616 81.6528628,39.6215107 C81.5554016,39.6571389 81.4503262,39.674574 81.3387788,39.674574 C81.2298963,39.674574 81.1259631,39.6571389 81.0285018,39.6215107 C80.9302792,39.5862616 80.8446199,39.5275129 80.7711433,39.4448858 C80.6972859,39.3626378 80.6394183,39.252342 80.5956369,39.1136194 C80.5526169,38.9748969 80.5312973,38.8028203 80.5312973,38.5962525 C80.5312973,38.3961282 80.5526169,38.2278418 80.5956369,38.0910144" id="Fill-27" fill="#DADADA"></path>
                    <path d="M82.7400504,38.8100217 C82.7438575,38.8934069 82.7571823,38.9741388 82.7792633,39.0518386 C82.8017251,39.1291594 82.8363695,39.1954885 82.8851001,39.2504469 C82.9330693,39.3057843 83.0027389,39.333074 83.0929666,39.333074 C83.1854787,39.333074 83.256671,39.3057843 83.3061631,39.2504469 C83.3556551,39.1954885 83.3910609,39.1291594 83.4135227,39.0518386 C83.4356038,38.9741388 83.4489285,38.8934069 83.4531163,38.8100217 C83.4569234,38.7266366 83.4592077,38.6553802 83.4592077,38.5962525 C83.4592077,38.5610034 83.4588269,38.5185527 83.4576848,38.4681426 C83.4565427,38.4181116 83.4523549,38.3665644 83.4447408,38.3135011 C83.4375073,38.2604378 83.4272282,38.2081326 83.4135227,38.1558274 C83.3998172,38.1039012 83.379259,38.0572813 83.351848,38.0159678 C83.324437,37.9746542 83.2897926,37.9413002 83.2479148,37.9159056 C83.2056562,37.890511 83.1542606,37.8776242 83.0929666,37.8776242 C83.0320534,37.8776242 82.9814192,37.890511 82.9399221,37.9159056 C82.8991863,37.9413002 82.865684,37.9746542 82.8394152,38.0159678 C82.8127656,38.0572813 82.7925881,38.1039012 82.7777405,38.1558274 C82.7628929,38.2081326 82.7526138,38.2604378 82.7461417,38.3135011 C82.7400504,38.3665644 82.7362433,38.4181116 82.7354819,38.4681426 C82.7339591,38.5185527 82.7335784,38.5610034 82.7335784,38.5962525 C82.7335784,38.6553802 82.7358626,38.7266366 82.7400504,38.8100217 M82.3498248,38.0910144 C82.3936062,37.954566 82.4514738,37.8450282 82.5253311,37.7627802 C82.5988078,37.6801531 82.684467,37.6214044 82.7826897,37.5857762 C82.8801509,37.5505271 82.9840842,37.533092 83.0929666,37.533092 C83.2045141,37.533092 83.3095894,37.5505271 83.4070507,37.5857762 C83.5052733,37.6214044 83.5913133,37.6801531 83.665932,37.7627802 C83.7405508,37.8450282 83.7991798,37.954566 83.8425805,38.0910144 C83.8856005,38.2278418 83.9073009,38.3961282 83.9073009,38.5962525 C83.9073009,38.8028203 83.8856005,38.9748969 83.8425805,39.1136194 C83.7991798,39.252342 83.7405508,39.3626378 83.665932,39.4448858 C83.5913133,39.5275129 83.5052733,39.5862616 83.4070507,39.6215107 C83.3095894,39.6571389 83.2045141,39.674574 83.0929666,39.674574 C82.9840842,39.674574 82.8801509,39.6571389 82.7826897,39.6215107 C82.684467,39.5862616 82.5988078,39.5275129 82.5253311,39.4448858 C82.4514738,39.3626378 82.3936062,39.252342 82.3498248,39.1136194 C82.3068048,38.9748969 82.2854852,38.8028203 82.2854852,38.5962525 C82.2854852,38.3961282 82.3068048,38.2278418 82.3498248,38.0910144" id="Fill-29" fill="#DADADA"></path>
                    <path d="M84.4942763,38.8100217 C84.4980834,38.8934069 84.5114082,38.9741388 84.5334892,39.0518386 C84.555951,39.1291594 84.5905954,39.1954885 84.639326,39.2504469 C84.6872952,39.3057843 84.7569648,39.333074 84.8471926,39.333074 C84.9397046,39.333074 85.010897,39.3057843 85.060389,39.2504469 C85.109881,39.1954885 85.1452869,39.1291594 85.1677486,39.0518386 C85.1898297,38.9741388 85.2031545,38.8934069 85.2073423,38.8100217 C85.2111493,38.7266366 85.2134336,38.6553802 85.2134336,38.5962525 C85.2134336,38.5610034 85.2130529,38.5185527 85.2119107,38.4681426 C85.2107686,38.4181116 85.2065808,38.3665644 85.1989667,38.3135011 C85.1917332,38.2604378 85.1814541,38.2081326 85.1677486,38.1558274 C85.1540431,38.1039012 85.1334849,38.0572813 85.1060739,38.0159678 C85.078663,37.9746542 85.0440186,37.9413002 85.0021407,37.9159056 C84.9598821,37.890511 84.9084865,37.8776242 84.8471926,37.8776242 C84.7862793,37.8776242 84.7356451,37.890511 84.694148,37.9159056 C84.6534122,37.9413002 84.6199099,37.9746542 84.5936411,38.0159678 C84.5669915,38.0572813 84.546814,38.1039012 84.5319664,38.1558274 C84.5171188,38.2081326 84.5068397,38.2604378 84.5003677,38.3135011 C84.4942763,38.3665644 84.4904692,38.4181116 84.4897078,38.4681426 C84.488185,38.5185527 84.4878043,38.5610034 84.4878043,38.5962525 C84.4878043,38.6553802 84.4900885,38.7266366 84.4942763,38.8100217 M84.1040507,38.0910144 C84.1478321,37.954566 84.2056997,37.8450282 84.2795571,37.7627802 C84.3530337,37.6801531 84.438693,37.6214044 84.5369156,37.5857762 C84.6343768,37.5505271 84.7383101,37.533092 84.8471926,37.533092 C84.95874,37.533092 85.0638154,37.5505271 85.1612766,37.5857762 C85.2594992,37.6214044 85.3455392,37.6801531 85.420158,37.7627802 C85.4947767,37.8450282 85.5534057,37.954566 85.5968064,38.0910144 C85.6398264,38.2278418 85.6615268,38.3961282 85.6615268,38.5962525 C85.6615268,38.8028203 85.6398264,38.9748969 85.5968064,39.1136194 C85.5534057,39.252342 85.4947767,39.3626378 85.420158,39.4448858 C85.3455392,39.5275129 85.2594992,39.5862616 85.1612766,39.6215107 C85.0638154,39.6571389 84.95874,39.674574 84.8471926,39.674574 C84.7383101,39.674574 84.6343768,39.6571389 84.5369156,39.6215107 C84.438693,39.5862616 84.3530337,39.5275129 84.2795571,39.4448858 C84.2056997,39.3626378 84.1478321,39.252342 84.1040507,39.1136194 C84.0610307,38.9748969 84.0397111,38.8028203 84.0397111,38.5962525 C84.0397111,38.3961282 84.0610307,38.2278418 84.1040507,38.0910144" id="Fill-31" fill="#DADADA"></path>
                    <path d="M86.2485023,38.8100217 C86.2523093,38.8934069 86.2656341,38.9741388 86.2877152,39.0518386 C86.3101769,39.1291594 86.3448214,39.1954885 86.393552,39.2504469 C86.4415212,39.3057843 86.5111907,39.333074 86.6014185,39.333074 C86.6939305,39.333074 86.7651229,39.3057843 86.8146149,39.2504469 C86.8641069,39.1954885 86.8995128,39.1291594 86.9219746,39.0518386 C86.9440556,38.9741388 86.9573804,38.8934069 86.9615682,38.8100217 C86.9653753,38.7266366 86.9676595,38.6553802 86.9676595,38.5962525 C86.9676595,38.5610034 86.9672788,38.5185527 86.9661367,38.4681426 C86.9649945,38.4181116 86.9608068,38.3665644 86.9531926,38.3135011 C86.9459592,38.2604378 86.93568,38.2081326 86.9219746,38.1558274 C86.9082691,38.1039012 86.8877108,38.0572813 86.8602999,38.0159678 C86.8328889,37.9746542 86.7982445,37.9413002 86.7563666,37.9159056 C86.714108,37.890511 86.6627125,37.8776242 86.6014185,37.8776242 C86.5405052,37.8776242 86.4898711,37.890511 86.4483739,37.9159056 C86.4076382,37.9413002 86.3741359,37.9746542 86.347867,38.0159678 C86.3212175,38.0572813 86.3010399,38.1039012 86.2861923,38.1558274 C86.2713447,38.2081326 86.2610656,38.2604378 86.2545936,38.3135011 C86.2485023,38.3665644 86.2446952,38.4181116 86.2439338,38.4681426 C86.2424109,38.5185527 86.2420302,38.5610034 86.2420302,38.5962525 C86.2420302,38.6553802 86.2443145,38.7266366 86.2485023,38.8100217 M85.8582766,38.0910144 C85.9020581,37.954566 85.9599257,37.8450282 86.033783,37.7627802 C86.1072596,37.6801531 86.1929189,37.6214044 86.2911415,37.5857762 C86.3886028,37.5505271 86.492536,37.533092 86.6014185,37.533092 C86.7129659,37.533092 86.8180413,37.5505271 86.9155025,37.5857762 C87.0137252,37.6214044 87.0997651,37.6801531 87.1743839,37.7627802 C87.2490027,37.8450282 87.3076317,37.954566 87.3510324,38.0910144 C87.3940524,38.2278418 87.4157527,38.3961282 87.4157527,38.5962525 C87.4157527,38.8028203 87.3940524,38.9748969 87.3510324,39.1136194 C87.3076317,39.252342 87.2490027,39.3626378 87.1743839,39.4448858 C87.0997651,39.5275129 87.0137252,39.5862616 86.9155025,39.6215107 C86.8180413,39.6571389 86.7129659,39.674574 86.6014185,39.674574 C86.492536,39.674574 86.3886028,39.6571389 86.2911415,39.6215107 C86.1929189,39.5862616 86.1072596,39.5275129 86.033783,39.4448858 C85.9599257,39.3626378 85.9020581,39.252342 85.8582766,39.1136194 C85.8152566,38.9748969 85.793937,38.8028203 85.793937,38.5962525 C85.793937,38.3961282 85.8152566,38.2278418 85.8582766,38.0910144" id="Fill-33" fill="#DADADA"></path>
                    <path d="M79.3699859,13.4823159 L80.1523406,13.4823159 L80.9346954,13.4823159 L81.7170502,13.4823159 L82.4994049,13.4823159 L83.2817597,13.4823159 L83.2817597,12.7515589 L83.2817597,12.0211809 L83.2817597,11.2904238 L83.2817597,10.5600458 L83.2817597,9.82928874 L82.4994049,9.82928874 L81.7170502,9.82928874 L80.9346954,9.82928874 L80.1523406,9.82928874 L79.3699859,9.82928874 L79.3699859,10.5600458 L79.3699859,11.2904238 L79.3699859,12.0211809 L79.3699859,12.7515589 L79.3699859,13.4823159 L79.3699859,13.4823159 Z M78.5876311,14.213073 L79.3699859,14.213073 L80.1523406,14.213073 L80.9346954,14.213073 L81.7170502,14.213073 L82.4994049,14.213073 L83.2817597,14.213073 L84.0641145,14.213073 L84.0641145,13.4823159 L84.0641145,12.7515589 L84.0641145,12.0211809 L84.0641145,11.2904238 L84.0641145,10.5600458 L84.0641145,9.82928874 L84.0641145,9.09891072 L83.2817597,9.09891072 L82.4994049,9.09891072 L81.7170502,9.09891072 L80.9346954,9.09891072 L80.1523406,9.09891072 L79.3699859,9.09891072 L78.5876311,9.09891072 L78.5876311,9.82928874 L78.5876311,10.5600458 L78.5876311,11.2904238 L78.5876311,12.0211809 L78.5876311,12.7515589 L78.5876311,13.4823159 L78.5876311,14.213073 Z" id="Fill-35" fill="#DADADA"></path>
                    <polygon id="Fill-37" fill="#DADADA" points="84.8464311 12.021143 85.6287859 12.021143 86.4111407 12.021143 86.4111407 11.2903859 87.1934954 11.2903859 87.1934954 12.021143 87.9758502 12.021143 87.9758502 11.2903859 87.9758502 10.5600079 88.758205 10.5600079 88.758205 9.82925084 87.9758502 9.82925084 87.1934954 9.82925084 87.1934954 10.5600079 86.4111407 10.5600079 86.4111407 9.82925084 86.4111407 9.09887282 85.6287859 9.09887282 85.6287859 9.82925084 84.8464311 9.82925084 84.8464311 10.5600079 85.6287859 10.5600079 85.6287859 11.2903859 84.8464311 11.2903859"></polygon>
                    <polygon id="Fill-39" fill="#DADADA" points="88.7581288 12.021143 89.5404836 12.021143 90.3228383 12.021143 91.1051931 12.021143 91.1051931 11.2903859 90.3228383 11.2903859 90.3228383 10.5600079 91.1051931 10.5600079 91.1051931 11.2903859 91.8875479 11.2903859 91.8875479 10.5600079 91.8875479 9.82925084 91.1051931 9.82925084 90.3228383 9.82925084 90.3228383 9.09887282 89.5404836 9.09887282 89.5404836 9.82925084 89.5404836 10.5600079 89.5404836 11.2903859 88.7581288 11.2903859"></polygon>
                    <path d="M93.4522193,13.4823159 L94.2345741,13.4823159 L95.0169289,13.4823159 L95.7992836,13.4823159 L96.5816384,13.4823159 L97.3639931,13.4823159 L97.3639931,12.7515589 L97.3639931,12.0211809 L97.3639931,11.2904238 L97.3639931,10.5600458 L97.3639931,9.82928874 L96.5816384,9.82928874 L95.7992836,9.82928874 L95.0169289,9.82928874 L94.2345741,9.82928874 L93.4522193,9.82928874 L93.4522193,10.5600458 L93.4522193,11.2904238 L93.4522193,12.0211809 L93.4522193,12.7515589 L93.4522193,13.4823159 L93.4522193,13.4823159 Z M92.6698646,14.213073 L93.4522193,14.213073 L94.2345741,14.213073 L95.0169289,14.213073 L95.7992836,14.213073 L96.5816384,14.213073 L97.3639931,14.213073 L98.1463479,14.213073 L98.1463479,13.4823159 L98.1463479,12.7515589 L98.1463479,12.0211809 L98.1463479,11.2904238 L98.1463479,10.5600458 L98.1463479,9.82928874 L98.1463479,9.09891072 L97.3639931,9.09891072 L96.5816384,9.09891072 L95.7992836,9.09891072 L95.0169289,9.09891072 L94.2345741,9.09891072 L93.4522193,9.09891072 L92.6698646,9.09891072 L92.6698646,9.82928874 L92.6698646,10.5600458 L92.6698646,11.2904238 L92.6698646,12.0211809 L92.6698646,12.7515589 L92.6698646,13.4823159 L92.6698646,14.213073 Z" id="Fill-41" fill="#DADADA"></path>
                    <polygon id="Fill-43" fill="#DADADA" points="80.1523406 12.7517105 80.9346954 12.7517105 81.7170502 12.7517105 82.4994049 12.7517105 82.4994049 12.0209535 82.4994049 11.2905754 82.4994049 10.5598184 81.7170502 10.5598184 80.9346954 10.5598184 80.1523406 10.5598184 80.1523406 11.2905754 80.1523406 12.0209535"></polygon>
                    <polygon id="Fill-45" fill="#DADADA" points="94.234536 12.7517105 95.0168908 12.7517105 95.7992455 12.7517105 96.5816003 12.7517105 96.5816003 12.0209535 96.5816003 11.2905754 96.5816003 10.5598184 95.7992455 10.5598184 95.0168908 10.5598184 94.234536 10.5598184 94.234536 11.2905754 94.234536 12.0209535"></polygon>
                    <polygon id="Fill-47" fill="#DADADA" points="86.4111026 14.2129214 87.1934574 14.2129214 87.1934574 13.4821643 87.1934574 12.7517863 87.1934574 12.0210293 86.4111026 12.0210293 86.4111026 12.7517863 86.4111026 13.4821643"></polygon>
                    <polyline id="Fill-49" fill="#DADADA" points="87.9757741 12.7517105 88.7581288 12.7517105 88.7581288 12.0209535 87.9757741 12.0209535"></polyline>
                    <polygon id="Fill-51" fill="#DADADA" points="87.9757741 15.6740944 88.7581288 15.6740944 89.5404836 15.6740944 90.3228383 15.6740944 91.1051931 15.6740944 91.1051931 14.9433373 91.1051931 14.2129593 90.3228383 14.2129593 90.3228383 13.4822022 91.1051931 13.4822022 91.1051931 14.2129593 91.8875479 14.2129593 91.8875479 13.4822022 91.8875479 12.7518242 91.8875479 12.0210672 91.1051931 12.0210672 91.1051931 12.7518242 90.3228383 12.7518242 89.5404836 12.7518242 89.5404836 13.4822022 89.5404836 14.2129593 89.5404836 14.9433373 88.7581288 14.9433373 88.7581288 14.2129593 88.7581288 13.4822022 87.9757741 13.4822022 87.9757741 14.2129593 87.9757741 14.9433373"></polygon>
                    <polygon id="Fill-53" fill="#DADADA" points="84.8464311 14.2129214 85.6287859 14.2129214 85.6287859 13.4821643 85.6287859 12.7517863 84.8464311 12.7517863 84.8464311 13.4821643"></polygon>
                    <polygon id="Fill-55" fill="#DADADA" points="78.5876311 21.5187863 79.3699859 21.5187863 79.3699859 20.7880292 79.3699859 20.0576512 79.3699859 19.3268941 79.3699859 18.5965161 80.1523406 18.5965161 80.9346954 18.5965161 81.7170502 18.5965161 81.7170502 17.8657591 81.7170502 17.135381 82.4994049 17.135381 82.4994049 16.404624 82.4994049 15.674246 82.4994049 14.9434889 81.7170502 14.9434889 80.9346954 14.9434889 80.1523406 14.9434889 79.3699859 14.9434889 78.5876311 14.9434889 78.5876311 15.674246 78.5876311 16.404624 78.5876311 17.135381 79.3699859 17.135381 79.3699859 16.404624 80.1523406 16.404624 80.9346954 16.404624 80.9346954 17.135381 80.1523406 17.135381 79.3699859 17.135381 79.3699859 17.8657591 78.5876311 17.8657591 78.5876311 18.5965161 78.5876311 19.3268941 78.5876311 20.0576512 78.5876311 20.7880292"></polygon>
                    <path d="M84.8464692,16.4045103 L85.628824,16.4045103 L85.628824,15.6737532 L84.8464692,15.6737532 L84.8464692,16.4045103 Z M85.628824,20.0575375 L86.4111787,20.0575375 L87.1935335,20.0575375 L87.1935335,19.3271595 L87.1935335,18.5964024 L86.4111787,18.5964024 L86.4111787,17.8660244 L87.1935335,17.8660244 L87.1935335,18.5964024 L87.9758883,18.5964024 L87.9758883,17.8660244 L87.9758883,17.1352673 L88.758243,17.1352673 L88.758243,16.4045103 L87.9758883,16.4045103 L87.1935335,16.4045103 L87.1935335,17.1352673 L86.4111787,17.1352673 L86.4111787,16.4045103 L86.4111787,15.6741323 L87.1935335,15.6741323 L87.1935335,14.9433752 L86.4111787,14.9433752 L85.628824,14.9433752 L84.8464692,14.9433752 L84.0641145,14.9433752 L83.2817597,14.9433752 L83.2817597,15.6741323 L84.0641145,15.6741323 L84.0641145,16.4045103 L83.2817597,16.4045103 L83.2817597,17.1352673 L84.0641145,17.1352673 L84.8464692,17.1352673 L85.628824,17.1352673 L85.628824,17.8660244 L84.8464692,17.8660244 L84.0641145,17.8660244 L83.2817597,17.8660244 L83.2817597,18.5964024 L84.0641145,18.5964024 L84.8464692,18.5964024 L84.8464692,19.3271595 L85.628824,19.3271595 L85.628824,20.0575375 Z" id="Fill-57" fill="#DADADA"></path>
                    <polygon id="Fill-59" fill="#DADADA" points="91.105155 16.4046619 91.8875098 16.4046619 92.6698646 16.4046619 92.6698646 15.6739048 92.6698646 14.9435268 91.8875098 14.9435268 91.8875098 15.6739048 91.105155 15.6739048"></polygon>
                    <polygon id="Fill-60" fill="#DADADA" points="94.234536 18.5964403 95.0168908 18.5964403 95.0168908 17.8656833 95.0168908 17.1353052 94.234536 17.1353052 94.234536 16.4045482 94.234536 15.6741702 94.234536 14.9434131 93.4521813 14.9434131 93.4521813 15.6741702 93.4521813 16.4045482 92.6698265 16.4045482 92.6698265 17.1353052 93.4521813 17.1353052 93.4521813 17.8656833 94.234536 17.8656833"></polygon>
                    <polyline id="Fill-61" fill="#DADADA" points="95.0168908 15.6740944 95.7992455 15.6740944 95.7992455 14.9433373 95.0168908 14.9433373"></polyline>
                    <polygon id="Fill-62" fill="#DADADA" points="97.363917 20.7882187 98.1462718 20.7882187 98.1462718 20.0574617 98.1462718 19.3270837 97.363917 19.3270837 97.363917 18.5963266 98.1462718 18.5963266 98.1462718 17.8659486 98.1462718 17.1351915 98.1462718 16.4048135 97.363917 16.4048135 97.363917 15.6740565 97.363917 14.9436784 96.5815622 14.9436784 96.5815622 15.6740565 96.5815622 16.4048135 96.5815622 17.1351915 97.363917 17.1351915 97.363917 17.8659486 96.5815622 17.8659486 95.7992075 17.8659486 95.7992075 18.5963266 96.5815622 18.5963266 96.5815622 19.3270837 96.5815622 20.0574617 97.363917 20.0574617"></polygon>
                    <polygon id="Fill-63" fill="#DADADA" points="89.5404836 17.1352673 90.3228383 17.1352673 91.1051931 17.1352673 91.1051931 16.4045103 90.3228383 16.4045103 89.5404836 16.4045103"></polygon>
                    <polyline id="Fill-64" fill="#DADADA" points="95.0168908 17.1352673 95.7992455 17.1352673 95.7992455 16.4045103 95.0168908 16.4045103"></polyline>
                    <polyline id="Fill-65" fill="#DADADA" points="82.4993669 17.8658728 83.2817216 17.8658728 83.2817216 17.1351157 82.4993669 17.1351157"></polyline>
                    <polyline id="Fill-66" fill="#DADADA" points="90.3228383 18.5964403 91.1051931 18.5964403 91.1051931 17.8656833 90.3228383 17.8656833"></polyline>
                    <polyline id="Fill-67" fill="#DADADA" points="92.6698646 18.5964403 93.4522193 18.5964403 93.4522193 17.8656833 92.6698646 17.8656833"></polyline>
                    <path d="M92.6700168,25.9024568 L93.4523716,25.9024568 L93.4523716,25.1716998 L92.6700168,25.1716998 L92.6700168,25.9024568 Z M95.7990552,26.6328348 L96.58141,26.6328348 L97.3637647,26.6328348 L97.3637647,25.9024568 L97.3637647,25.1716998 L96.58141,25.1716998 L96.58141,25.9024568 L95.7990552,25.9024568 L95.7990552,25.1716998 L95.7990552,24.4413217 L95.0170811,24.4413217 L95.0170811,25.1716998 L94.2347264,25.1716998 L94.2347264,25.9024568 L95.0170811,25.9024568 L95.7990552,25.9024568 L95.7990552,26.6328348 L95.7990552,26.6328348 Z M95.7990552,23.7105647 L96.58141,23.7105647 L97.3637647,23.7105647 L97.3637647,22.9798076 L96.58141,22.9798076 L95.7990552,22.9798076 L95.7990552,23.7105647 L95.7990552,23.7105647 Z M91.8876621,23.7105647 L92.6700168,23.7105647 L93.4523716,23.7105647 L94.2347264,23.7105647 L94.2347264,22.9798076 L94.2347264,22.2494296 L94.2347264,21.5186726 L93.4523716,21.5186726 L92.6700168,21.5186726 L91.8876621,21.5186726 L91.8876621,22.2494296 L91.8876621,22.9798076 L91.8876621,23.7105647 L91.8876621,23.7105647 Z M92.6700168,27.3635919 L93.4523716,27.3635919 L94.2347264,27.3635919 L95.0170811,27.3635919 L95.7990552,27.3635919 L96.58141,27.3635919 L97.3637647,27.3635919 L98.1461195,27.3635919 L98.1461195,26.6328348 L98.1461195,25.9024568 L98.1461195,25.1716998 L98.1461195,24.4413217 L98.1461195,23.7105647 L98.1461195,22.9798076 L98.1461195,22.2494296 L97.3637647,22.2494296 L96.58141,22.2494296 L96.58141,21.5186726 L96.58141,20.7882945 L95.7990552,20.7882945 L95.7990552,21.5186726 L95.0170811,21.5186726 L95.0170811,20.7882945 L94.2347264,20.7882945 L93.4523716,20.7882945 L92.6700168,20.7882945 L91.8876621,20.7882945 L91.8876621,20.0575375 L92.6700168,20.0575375 L92.6700168,19.3271595 L91.8876621,19.3271595 L91.8876621,18.5964024 L91.1053073,18.5964024 L91.1053073,19.3271595 L90.3229526,19.3271595 L89.5405978,19.3271595 L89.5405978,18.5964024 L88.758243,18.5964024 L87.9758883,18.5964024 L87.9758883,19.3271595 L88.758243,19.3271595 L88.758243,20.0575375 L87.9758883,20.0575375 L87.9758883,20.7882945 L87.9758883,21.5186726 L88.758243,21.5186726 L88.758243,20.7882945 L89.5405978,20.7882945 L89.5405978,20.0575375 L90.3229526,20.0575375 L91.1053073,20.0575375 L91.1053073,20.7882945 L91.1053073,21.5186726 L90.3229526,21.5186726 L90.3229526,22.2494296 L91.1053073,22.2494296 L91.1053073,22.9798076 L90.3229526,22.9798076 L89.5405978,22.9798076 L89.5405978,23.7105647 L90.3229526,23.7105647 L90.3229526,24.4413217 L91.1053073,24.4413217 L91.1053073,25.1716998 L91.1053073,25.9024568 L90.3229526,25.9024568 L90.3229526,26.6328348 L91.1053073,26.6328348 L91.8876621,26.6328348 L92.6700168,26.6328348 L92.6700168,27.3635919 Z" id="Fill-68" fill="#DADADA"></path>
                    <polygon id="Fill-69" fill="#DADADA" points="95.0168908 20.7882187 95.7992455 20.7882187 95.7992455 20.0574617 95.7992455 19.3270837 95.7992455 18.5963266 95.0168908 18.5963266 95.0168908 19.3270837 95.0168908 20.0574617"></polygon>
                    <polygon id="Fill-70" fill="#DADADA" points="80.9346954 21.5187863 81.7170502 21.5187863 81.7170502 20.7880292 81.7170502 20.0576512 82.4994049 20.0576512 82.4994049 19.3268941 81.7170502 19.3268941 80.9346954 19.3268941 80.1523406 19.3268941 80.1523406 20.0576512 80.9346954 20.0576512 80.9346954 20.7880292"></polygon>
                    <polygon id="Fill-71" fill="#DADADA" points="84.8464311 22.9799971 85.6287859 22.9799971 86.4111407 22.9799971 86.4111407 22.2492401 85.6287859 22.2492401 85.6287859 21.5188621 85.6287859 20.788105 85.6287859 20.057727 84.8464311 20.057727 84.8464311 19.3269699 84.0640764 19.3269699 83.2817216 19.3269699 83.2817216 20.057727 84.0640764 20.057727 84.0640764 20.788105 84.8464311 20.788105 84.8464311 21.5188621 84.8464311 22.2492401"></polygon>
                    <polyline id="Fill-72" fill="#DADADA" points="93.4522193 20.0576133 94.2345741 20.0576133 94.2345741 19.3268562 93.4522193 19.3268562"></polyline>
                    <polygon id="Fill-73" fill="#DADADA" points="82.4993669 21.5187863 83.2817216 21.5187863 84.0640764 21.5187863 84.0640764 20.7880292 83.2817216 20.7880292 83.2817216 20.0576512 82.4993669 20.0576512 82.4993669 20.7880292"></polygon>
                    <polyline id="Fill-74" fill="#DADADA" points="86.4111026 21.5187863 87.1934574 21.5187863 87.1934574 20.7880292 86.4111026 20.7880292"></polyline>
                    <polyline id="Fill-75" fill="#DADADA" points="89.5404836 21.5187863 90.3228383 21.5187863 90.3228383 20.7880292 89.5404836 20.7880292"></polyline>
                    <path d="M79.3699859,26.6329485 L80.1523406,26.6329485 L80.9346954,26.6329485 L81.7170502,26.6329485 L82.4994049,26.6329485 L83.2817597,26.6329485 L83.2817597,25.9021915 L83.2817597,25.1718135 L83.2817597,24.4410564 L83.2817597,23.7106784 L83.2817597,22.9799213 L82.4994049,22.9799213 L81.7170502,22.9799213 L80.9346954,22.9799213 L80.1523406,22.9799213 L79.3699859,22.9799213 L79.3699859,23.7106784 L79.3699859,24.4410564 L79.3699859,25.1718135 L79.3699859,25.9021915 L79.3699859,26.6329485 L79.3699859,26.6329485 Z M78.5876311,27.3637056 L79.3699859,27.3637056 L80.1523406,27.3637056 L80.9346954,27.3637056 L81.7170502,27.3637056 L82.4994049,27.3637056 L83.2817597,27.3637056 L84.0641145,27.3637056 L84.0641145,26.6329485 L84.0641145,25.9021915 L84.0641145,25.1718135 L84.0641145,24.4410564 L84.0641145,23.7106784 L84.0641145,22.9799213 L84.0641145,22.2495433 L83.2817597,22.2495433 L82.4994049,22.2495433 L81.7170502,22.2495433 L80.9346954,22.2495433 L80.1523406,22.2495433 L79.3699859,22.2495433 L78.5876311,22.2495433 L78.5876311,22.9799213 L78.5876311,23.7106784 L78.5876311,24.4410564 L78.5876311,25.1718135 L78.5876311,25.9021915 L78.5876311,26.6329485 L78.5876311,27.3637056 Z" id="Fill-76" fill="#DADADA"></path>
                    <polygon id="Fill-77" fill="#DADADA" points="86.4111026 24.4411701 87.1934574 24.4411701 87.9758121 24.4411701 87.9758121 23.7104131 87.9758121 22.980035 88.7581669 22.980035 88.7581669 22.249278 87.9758121 22.249278 87.1934574 22.249278 87.1934574 22.980035 86.4111026 22.980035 86.4111026 23.7104131"></polygon>
                    <polyline id="Fill-78" fill="#DADADA" points="92.6698646 22.9799971 93.4522193 22.9799971 93.4522193 22.2492401 92.6698646 22.2492401"></polyline>
                    <polygon id="Fill-79" fill="#DADADA" points="80.1523406 25.9023431 80.9346954 25.9023431 81.7170502 25.9023431 82.4994049 25.9023431 82.4994049 25.171586 82.4994049 24.441208 82.4994049 23.710451 81.7170502 23.710451 80.9346954 23.710451 80.1523406 23.710451 80.1523406 24.441208 80.1523406 25.171586"></polygon>
                    <polygon id="Fill-80" fill="#DADADA" points="84.8464311 27.3635161 85.6287859 27.3635161 86.4111407 27.3635161 87.1934954 27.3635161 87.1934954 26.632759 87.1934954 25.902381 87.1934954 25.1716239 86.4111407 25.1716239 86.4111407 25.902381 85.6287859 25.902381 85.6287859 25.1716239 86.4111407 25.1716239 86.4111407 24.4412459 85.6287859 24.4412459 85.6287859 23.7104889 84.8464311 23.7104889 84.8464311 24.4412459 84.8464311 25.1716239 84.8464311 25.902381 84.8464311 26.632759"></polygon>
                    <polygon id="Fill-81" fill="#DADADA" points="87.9757741 27.3635161 88.7581288 27.3635161 88.7581288 26.632759 89.5404836 26.632759 89.5404836 25.902381 90.3228383 25.902381 90.3228383 25.1716239 90.3228383 24.4412459 89.5404836 24.4412459 88.7581288 24.4412459 87.9757741 24.4412459 87.9757741 25.1716239 88.7581288 25.1716239 88.7581288 25.902381 87.9757741 25.902381 87.9757741 26.632759"></polygon>
                    <polyline id="Fill-82" fill="#DADADA" points="89.5404836 27.3635161 90.3228383 27.3635161 90.3228383 26.632759 89.5404836 26.632759"></polyline>
                    <path d="M88.0013196,38.8100217 C88.0051266,38.8934069 88.0184514,38.9741388 88.0405325,39.0518386 C88.0629942,39.1291594 88.0976387,39.1954885 88.1463693,39.2504469 C88.1943385,39.3057843 88.264008,39.333074 88.3542358,39.333074 C88.4467478,39.333074 88.5179402,39.3057843 88.5674322,39.2504469 C88.6169243,39.1954885 88.6523301,39.1291594 88.6747919,39.0518386 C88.6968729,38.9741388 88.7101977,38.8934069 88.7143855,38.8100217 C88.7181926,38.7266366 88.7204768,38.6553802 88.7204768,38.5962525 C88.7204768,38.5610034 88.7200961,38.5185527 88.718954,38.4681426 C88.7178119,38.4181116 88.7136241,38.3665644 88.7060099,38.3135011 C88.6987765,38.2604378 88.6884973,38.2081326 88.6747919,38.1558274 C88.6610864,38.1039012 88.6405281,38.0572813 88.6131172,38.0159678 C88.5857062,37.9746542 88.5510618,37.9413002 88.5091839,37.9159056 C88.4669253,37.890511 88.4155298,37.8776242 88.3542358,37.8776242 C88.2933225,37.8776242 88.2426884,37.890511 88.2011912,37.9159056 C88.1604555,37.9413002 88.1269532,37.9746542 88.1006843,38.0159678 C88.0740348,38.0572813 88.0538573,38.1039012 88.0390096,38.1558274 C88.024162,38.2081326 88.0138829,38.2604378 88.0074109,38.3135011 C88.0013196,38.3665644 87.9975125,38.4181116 87.9967511,38.4681426 C87.9952282,38.5185527 87.9948475,38.5610034 87.9948475,38.5962525 C87.9948475,38.6553802 87.9971318,38.7266366 88.0013196,38.8100217 M87.6110939,38.0910144 C87.6548754,37.954566 87.712743,37.8450282 87.7866003,37.7627802 C87.8600769,37.6801531 87.9457362,37.6214044 88.0439588,37.5857762 C88.1414201,37.5505271 88.2453533,37.533092 88.3542358,37.533092 C88.4657832,37.533092 88.5708586,37.5505271 88.6683198,37.5857762 C88.7665425,37.6214044 88.8525825,37.6801531 88.9272012,37.7627802 C89.00182,37.8450282 89.060449,37.954566 89.1038497,38.0910144 C89.1468697,38.2278418 89.16857,38.3961282 89.16857,38.5962525 C89.16857,38.8028203 89.1468697,38.9748969 89.1038497,39.1136194 C89.060449,39.252342 89.00182,39.3626378 88.9272012,39.4448858 C88.8525825,39.5275129 88.7665425,39.5862616 88.6683198,39.6215107 C88.5708586,39.6571389 88.4657832,39.674574 88.3542358,39.674574 C88.2453533,39.674574 88.1414201,39.6571389 88.0439588,39.6215107 C87.9457362,39.5862616 87.8600769,39.5275129 87.7866003,39.4448858 C87.712743,39.3626378 87.6548754,39.252342 87.6110939,39.1136194 C87.568074,38.9748969 87.5467543,38.8028203 87.5467543,38.5962525 C87.5467543,38.3961282 87.568074,38.2278418 87.6110939,38.0910144" id="Fill-83" fill="#DADADA"></path>
                    <path d="M89.7555455,38.8100217 C89.7593526,38.8934069 89.7726773,38.9741388 89.7947584,39.0518386 C89.8172202,39.1291594 89.8518646,39.1954885 89.9005952,39.2504469 C89.9485644,39.3057843 90.0182339,39.333074 90.1084617,39.333074 C90.2009737,39.333074 90.2721661,39.3057843 90.3216582,39.2504469 C90.3711502,39.1954885 90.406556,39.1291594 90.4290178,39.0518386 C90.4510988,38.9741388 90.4644236,38.8934069 90.4686114,38.8100217 C90.4724185,38.7266366 90.4747027,38.6553802 90.4747027,38.5962525 C90.4747027,38.5610034 90.474322,38.5185527 90.4731799,38.4681426 C90.4720378,38.4181116 90.46785,38.3665644 90.4602358,38.3135011 C90.4530024,38.2604378 90.4427233,38.2081326 90.4290178,38.1558274 C90.4153123,38.1039012 90.3947541,38.0572813 90.3673431,38.0159678 C90.3399321,37.9746542 90.3052877,37.9413002 90.2634098,37.9159056 C90.2211513,37.890511 90.1697557,37.8776242 90.1084617,37.8776242 C90.0475485,37.8776242 89.9969143,37.890511 89.9554171,37.9159056 C89.9146814,37.9413002 89.8811791,37.9746542 89.8549102,38.0159678 C89.8282607,38.0572813 89.8080832,38.1039012 89.7932356,38.1558274 C89.778388,38.2081326 89.7681088,38.2604378 89.7616368,38.3135011 C89.7555455,38.3665644 89.7517384,38.4181116 89.750977,38.4681426 C89.7494542,38.5185527 89.7490734,38.5610034 89.7490734,38.5962525 C89.7490734,38.6553802 89.7513577,38.7266366 89.7555455,38.8100217 M89.3653199,38.0910144 C89.4091013,37.954566 89.4669689,37.8450282 89.5408262,37.7627802 C89.6143028,37.6801531 89.6999621,37.6214044 89.7981848,37.5857762 C89.895646,37.5505271 89.9995793,37.533092 90.1084617,37.533092 C90.2200091,37.533092 90.3250845,37.5505271 90.4225457,37.5857762 C90.5207684,37.6214044 90.6068084,37.6801531 90.6814271,37.7627802 C90.7560459,37.8450282 90.8146749,37.954566 90.8580756,38.0910144 C90.9010956,38.2278418 90.9227959,38.3961282 90.9227959,38.5962525 C90.9227959,38.8028203 90.9010956,38.9748969 90.8580756,39.1136194 C90.8146749,39.252342 90.7560459,39.3626378 90.6814271,39.4448858 C90.6068084,39.5275129 90.5207684,39.5862616 90.4225457,39.6215107 C90.3250845,39.6571389 90.2200091,39.674574 90.1084617,39.674574 C89.9995793,39.674574 89.895646,39.6571389 89.7981848,39.6215107 C89.6999621,39.5862616 89.6143028,39.5275129 89.5408262,39.4448858 C89.4669689,39.3626378 89.4091013,39.252342 89.3653199,39.1136194 C89.3222999,38.9748969 89.3009802,38.8028203 89.3009802,38.5962525 C89.3009802,38.3961282 89.3222999,38.2278418 89.3653199,38.0910144" id="Fill-84" fill="#DADADA"></path>
                    <path d="M91.5097333,38.8100217 C91.5135404,38.8934069 91.5268652,38.9741388 91.5489463,39.0518386 C91.571408,39.1291594 91.6060524,39.1954885 91.6547831,39.2504469 C91.7027523,39.3057843 91.7724218,39.333074 91.8626496,39.333074 C91.9551616,39.333074 92.026354,39.3057843 92.075846,39.2504469 C92.125338,39.1954885 92.1607439,39.1291594 92.1832056,39.0518386 C92.2052867,38.9741388 92.2186115,38.8934069 92.2227993,38.8100217 C92.2266063,38.7266366 92.2288906,38.6553802 92.2288906,38.5962525 C92.2288906,38.5610034 92.2285099,38.5185527 92.2273678,38.4681426 C92.2262256,38.4181116 92.2220378,38.3665644 92.2144237,38.3135011 C92.2071902,38.2604378 92.1969111,38.2081326 92.1832056,38.1558274 C92.1695002,38.1039012 92.1489419,38.0572813 92.121531,38.0159678 C92.09412,37.9746542 92.0594756,37.9413002 92.0175977,37.9159056 C91.9753391,37.890511 91.9239435,37.8776242 91.8626496,37.8776242 C91.8017363,37.8776242 91.7511022,37.890511 91.709605,37.9159056 C91.6688692,37.9413002 91.635367,37.9746542 91.6090981,38.0159678 C91.5824486,38.0572813 91.562271,38.1039012 91.5474234,38.1558274 C91.5325758,38.2081326 91.5222967,38.2604378 91.5158247,38.3135011 C91.5097333,38.3665644 91.5059263,38.4181116 91.5051648,38.4681426 C91.503642,38.5185527 91.5032613,38.5610034 91.5032613,38.5962525 C91.5032613,38.6553802 91.5055456,38.7266366 91.5097333,38.8100217 M91.1195077,38.0910144 C91.1632891,37.954566 91.2211567,37.8450282 91.2950141,37.7627802 C91.3684907,37.6801531 91.45415,37.6214044 91.5523726,37.5857762 C91.6498339,37.5505271 91.7537671,37.533092 91.8626496,37.533092 C91.974197,37.533092 92.0792724,37.5505271 92.1767336,37.5857762 C92.2749562,37.6214044 92.3609962,37.6801531 92.435615,37.7627802 C92.5102337,37.8450282 92.5688628,37.954566 92.6122635,38.0910144 C92.6552835,38.2278418 92.6769838,38.3961282 92.6769838,38.5962525 C92.6769838,38.8028203 92.6552835,38.9748969 92.6122635,39.1136194 C92.5688628,39.252342 92.5102337,39.3626378 92.435615,39.4448858 C92.3609962,39.5275129 92.2749562,39.5862616 92.1767336,39.6215107 C92.0792724,39.6571389 91.974197,39.674574 91.8626496,39.674574 C91.7537671,39.674574 91.6498339,39.6571389 91.5523726,39.6215107 C91.45415,39.5862616 91.3684907,39.5275129 91.2950141,39.4448858 C91.2211567,39.3626378 91.1632891,39.252342 91.1195077,39.1136194 C91.0764877,38.9748969 91.0551681,38.8028203 91.0551681,38.5962525 C91.0551681,38.3961282 91.0764877,38.2278418 91.1195077,38.0910144" id="Fill-85" fill="#DADADA"></path>
                    <path d="M93.2639593,38.8100217 C93.2677663,38.8934069 93.2810911,38.9741388 93.3031722,39.0518386 C93.3256339,39.1291594 93.3602784,39.1954885 93.409009,39.2504469 C93.4569782,39.3057843 93.5266477,39.333074 93.6168755,39.333074 C93.7093875,39.333074 93.7805799,39.3057843 93.8300719,39.2504469 C93.879564,39.1954885 93.9149698,39.1291594 93.9374316,39.0518386 C93.9595126,38.9741388 93.9728374,38.8934069 93.9770252,38.8100217 C93.9808323,38.7266366 93.9831165,38.6553802 93.9831165,38.5962525 C93.9831165,38.5610034 93.9827358,38.5185527 93.9815937,38.4681426 C93.9804516,38.4181116 93.9762638,38.3665644 93.9686496,38.3135011 C93.9614162,38.2604378 93.951137,38.2081326 93.9374316,38.1558274 C93.9237261,38.1039012 93.9031679,38.0572813 93.8757569,38.0159678 C93.8483459,37.9746542 93.8137015,37.9413002 93.7718236,37.9159056 C93.729565,37.890511 93.6781695,37.8776242 93.6168755,37.8776242 C93.5559622,37.8776242 93.5053281,37.890511 93.4638309,37.9159056 C93.4230952,37.9413002 93.3895929,37.9746542 93.363324,38.0159678 C93.3366745,38.0572813 93.316497,38.1039012 93.3016493,38.1558274 C93.2868017,38.2081326 93.2765226,38.2604378 93.2700506,38.3135011 C93.2639593,38.3665644 93.2601522,38.4181116 93.2593908,38.4681426 C93.2578679,38.5185527 93.2574872,38.5610034 93.2574872,38.5962525 C93.2574872,38.6553802 93.2597715,38.7266366 93.2639593,38.8100217 M92.8737337,38.0910144 C92.9175151,37.954566 92.9753827,37.8450282 93.04924,37.7627802 C93.1227166,37.6801531 93.2083759,37.6214044 93.3065986,37.5857762 C93.4040598,37.5505271 93.507993,37.533092 93.6168755,37.533092 C93.7284229,37.533092 93.8334983,37.5505271 93.9309595,37.5857762 C94.0291822,37.6214044 94.1152222,37.6801531 94.1898409,37.7627802 C94.2644597,37.8450282 94.3230887,37.954566 94.3664894,38.0910144 C94.4095094,38.2278418 94.4312097,38.3961282 94.4312097,38.5962525 C94.4312097,38.8028203 94.4095094,38.9748969 94.3664894,39.1136194 C94.3230887,39.252342 94.2644597,39.3626378 94.1898409,39.4448858 C94.1152222,39.5275129 94.0291822,39.5862616 93.9309595,39.6215107 C93.8334983,39.6571389 93.7284229,39.674574 93.6168755,39.674574 C93.507993,39.674574 93.4040598,39.6571389 93.3065986,39.6215107 C93.2083759,39.5862616 93.1227166,39.5275129 93.04924,39.4448858 C92.9753827,39.3626378 92.9175151,39.252342 92.8737337,39.1136194 C92.8307137,38.9748969 92.809394,38.8028203 92.809394,38.5962525 C92.809394,38.3961282 92.8307137,38.2278418 92.8737337,38.0910144" id="Fill-86" fill="#DADADA"></path>
                    <path d="M95.0181852,38.8100217 C95.0219923,38.8934069 95.035317,38.9741388 95.0573981,39.0518386 C95.0798599,39.1291594 95.1145043,39.1954885 95.1632349,39.2504469 C95.2112041,39.3057843 95.2808737,39.333074 95.3711014,39.333074 C95.4636134,39.333074 95.5348058,39.3057843 95.5842979,39.2504469 C95.6337899,39.1954885 95.6691957,39.1291594 95.6916575,39.0518386 C95.7137385,38.9741388 95.7270633,38.8934069 95.7312511,38.8100217 C95.7350582,38.7266366 95.7373424,38.6553802 95.7373424,38.5962525 C95.7373424,38.5610034 95.7369617,38.5185527 95.7358196,38.4681426 C95.7346775,38.4181116 95.7304897,38.3665644 95.7228755,38.3135011 C95.7156421,38.2604378 95.705363,38.2081326 95.6916575,38.1558274 C95.677952,38.1039012 95.6573938,38.0572813 95.6299828,38.0159678 C95.6025718,37.9746542 95.5679274,37.9413002 95.5260495,37.9159056 C95.483791,37.890511 95.4323954,37.8776242 95.3711014,37.8776242 C95.3101882,37.8776242 95.259554,37.890511 95.2180568,37.9159056 C95.1773211,37.9413002 95.1438188,37.9746542 95.11755,38.0159678 C95.0909004,38.0572813 95.0707229,38.1039012 95.0558753,38.1558274 C95.0410277,38.2081326 95.0307486,38.2604378 95.0242765,38.3135011 C95.0181852,38.3665644 95.0143781,38.4181116 95.0136167,38.4681426 C95.0120939,38.5185527 95.0117132,38.5610034 95.0117132,38.5962525 C95.0117132,38.6553802 95.0139974,38.7266366 95.0181852,38.8100217 M94.6279596,38.0910144 C94.671741,37.954566 94.7296086,37.8450282 94.8034659,37.7627802 C94.8769426,37.6801531 94.9626018,37.6214044 95.0608245,37.5857762 C95.1582857,37.5505271 95.262219,37.533092 95.3711014,37.533092 C95.4826488,37.533092 95.5877242,37.5505271 95.6851855,37.5857762 C95.7834081,37.6214044 95.8694481,37.6801531 95.9440668,37.7627802 C96.0186856,37.8450282 96.0773146,37.954566 96.1207153,38.0910144 C96.1637353,38.2278418 96.1854357,38.3961282 96.1854357,38.5962525 C96.1854357,38.8028203 96.1637353,38.9748969 96.1207153,39.1136194 C96.0773146,39.252342 96.0186856,39.3626378 95.9440668,39.4448858 C95.8694481,39.5275129 95.7834081,39.5862616 95.6851855,39.6215107 C95.5877242,39.6571389 95.4826488,39.674574 95.3711014,39.674574 C95.262219,39.674574 95.1582857,39.6571389 95.0608245,39.6215107 C94.9626018,39.5862616 94.8769426,39.5275129 94.8034659,39.4448858 C94.7296086,39.3626378 94.671741,39.252342 94.6279596,39.1136194 C94.5849396,38.9748969 94.5636199,38.8028203 94.5636199,38.5962525 C94.5636199,38.3961282 94.5849396,38.2278418 94.6279596,38.0910144" id="Fill-87" fill="#DADADA"></path>
                    <path d="M96.8106723,38.8100217 C96.8144793,38.8934069 96.8278041,38.9741388 96.8498852,39.0518386 C96.8723469,39.1291594 96.9069914,39.1954885 96.955722,39.2504469 C97.0036912,39.3057843 97.0733607,39.333074 97.1635885,39.333074 C97.2561005,39.333074 97.3272929,39.3057843 97.3767849,39.2504469 C97.426277,39.1954885 97.4616828,39.1291594 97.4841446,39.0518386 C97.5062256,38.9741388 97.5195504,38.8934069 97.5237382,38.8100217 C97.5275453,38.7266366 97.5298295,38.6553802 97.5298295,38.5962525 C97.5298295,38.5610034 97.5294488,38.5185527 97.5283067,38.4681426 C97.5271646,38.4181116 97.5229768,38.3665644 97.5153626,38.3135011 C97.5081292,38.2604378 97.49785,38.2081326 97.4841446,38.1558274 C97.4704391,38.1039012 97.4498808,38.0572813 97.4224699,38.0159678 C97.3950589,37.9746542 97.3604145,37.9413002 97.3185366,37.9159056 C97.276278,37.890511 97.2248825,37.8776242 97.1635885,37.8776242 C97.1026752,37.8776242 97.0520411,37.890511 97.0105439,37.9159056 C96.9698082,37.9413002 96.9363059,37.9746542 96.910037,38.0159678 C96.8833875,38.0572813 96.86321,38.1039012 96.8483623,38.1558274 C96.8335147,38.2081326 96.8232356,38.2604378 96.8167636,38.3135011 C96.8106723,38.3665644 96.8068652,38.4181116 96.8061038,38.4681426 C96.8045809,38.5185527 96.8042002,38.5610034 96.8042002,38.5962525 C96.8042002,38.6553802 96.8064845,38.7266366 96.8106723,38.8100217 M96.4204466,38.0910144 C96.4642281,37.954566 96.5220957,37.8450282 96.595953,37.7627802 C96.6694296,37.6801531 96.7550889,37.6214044 96.8533115,37.5857762 C96.9507728,37.5505271 97.054706,37.533092 97.1635885,37.533092 C97.2751359,37.533092 97.3802113,37.5505271 97.4776725,37.5857762 C97.5758952,37.6214044 97.6619352,37.6801531 97.7365539,37.7627802 C97.8111727,37.8450282 97.8698017,37.954566 97.9132024,38.0910144 C97.9562224,38.2278418 97.9779227,38.3961282 97.9779227,38.5962525 C97.9779227,38.8028203 97.9562224,38.9748969 97.9132024,39.1136194 C97.8698017,39.252342 97.8111727,39.3626378 97.7365539,39.4448858 C97.6619352,39.5275129 97.5758952,39.5862616 97.4776725,39.6215107 C97.3802113,39.6571389 97.2751359,39.674574 97.1635885,39.674574 C97.054706,39.674574 96.9507728,39.6571389 96.8533115,39.6215107 C96.7550889,39.5862616 96.6694296,39.5275129 96.595953,39.4448858 C96.5220957,39.3626378 96.4642281,39.252342 96.4204466,39.1136194 C96.3774267,38.9748969 96.356107,38.8028203 96.356107,38.5962525 C96.356107,38.3961282 96.3774267,38.2278418 96.4204466,38.0910144" id="Fill-88" fill="#DADADA"></path>
                </g>
                <g id="Group" transform="translate(95.000000, 27.000000)">
                    <circle id="Oval-3" fill="#FFFFFF" cx="15.5" cy="15.5" r="15"></circle>
                    <g id="Group-13" transform="translate(3.000000, 4.000000)">
                        <g id="Group-11" stroke="#809AE0">
                            <g id="Group-2" transform="translate(0.756757, 1.162162)" stroke-linecap="round">
                                <path d="M11.5,26.7094595 L11.5,29.1802993" id="Line-3"></path>
                                <path d="M28.5,8.9301206 L28.5,11.4009605" id="Line-3" transform="translate(28.500000, 10.165541) rotate(90.000000) translate(-28.500000, -10.165541) "></path>
                                <path d="M26.5,17.7073583 L26.5,20.1781982" id="Line-3" transform="translate(26.500000, 18.942778) rotate(120.000000) translate(-26.500000, -18.942778) "></path>
                                <path d="M19.5,24.186151 L19.5,26.6569909" id="Line-3" transform="translate(19.500000, 25.421571) rotate(150.000000) translate(-19.500000, -25.421571) "></path>
                                <path d="M1.5,24.2545219 L1.5,26.7253618" id="Line-3" transform="translate(1.500000, 25.489942) rotate(30.000000) translate(-1.500000, -25.489942) "></path>
                                <path d="M25.5,0.206291723 L25.5,2.67713161" id="Line-3" transform="translate(25.500000, 1.441712) rotate(60.000000) translate(-25.500000, -1.441712) "></path>
                            </g>
                            <circle id="Oval-3" cx="12.5526059" cy="11.5526059" r="11.5526059"></circle>
                        </g>
                        <g id="Group-12" transform="translate(7.699997, 7.000000)" fill-rule="nonzero" fill="#809AE0">
                            <polygon id="Combined-Shape" points="5.86904628 1.5681999 8.34046039 3.95 0.3 3.95 0.3 4.95 8.3422989 4.95 5.86905463 7.33349383 6.5629759 8.05354471 10.3012742 4.45090384 6.56297813 0.848159214"></polygon>
                        </g>
                    </g>
                </g>
            </g>
        </g>
    </g>
</svg>