<?xml version="1.0" encoding="UTF-8"?>
<svg width="76px" height="66px" viewBox="0 0 76 66" version="1.1" xmlns="http://www.w3.org/2000/svg" xmlns:xlink="http://www.w3.org/1999/xlink">
    <!-- Generator: Sketch 45 (43475) - http://www.bohemiancoding.com/sketch -->
    <title>Group</title>
    <desc>Created with Sketch.</desc>
    <defs></defs>
    <g id="Tracking" stroke="none" stroke-width="1" fill="none" fill-rule="evenodd">
        <g id="05" transform="translate(-147.000000, -323.000000)" stroke-width="2">
            <g id="Group" transform="translate(148.000000, 324.000000)">
                <g id="Group-10" transform="translate(0.108108, 0.675676)" stroke-linecap="round" stroke="#4D5862" stroke-linejoin="round">
                    <g id="Group-4">
                        <path d="M39.907507,45.6085794 L7.6014299,45.6085794 C3.4054406,45.6085794 0,42.1993381 0,38.0071495 L0,7.6014299 C0,3.40163988 3.4054406,0 7.6014299,0 L57.0107243,0 C61.2105143,0 64.6121542,3.40163988 64.6121542,7.6014299 L64.6121542,32.3060771" id="Stroke-446"></path>
                        <path d="M0,11 L64.6121542,11" id="Stroke-447"></path>
                        <path d="M30.4057196,18 L11.4021449,18" id="Stroke-448"></path>
                        <path d="M57.0107243,18 L49.4092944,18" id="Stroke-449"></path>
                        <path d="M22.8042897,26 L11.4021449,26" id="Stroke-450"></path>
                    </g>
                </g>
                <g id="Group-11" transform="translate(43.000000, 32.000000)" stroke="#809AE0">
                    <g id="Group-2" transform="translate(0.756757, 2.162162)" stroke-linecap="round">
                        <path d="M12,26.7094595 L12,29.1802993" id="Line-3"></path>
                        <path d="M29,8.9301206 L29,11.4009605" id="Line-3" transform="translate(29.000000, 10.165541) rotate(90.000000) translate(-29.000000, -10.165541) "></path>
                        <path d="M27,17.7073583 L27,20.1781982" id="Line-3" transform="translate(27.000000, 18.942778) rotate(120.000000) translate(-27.000000, -18.942778) "></path>
                        <path d="M20,24.186151 L20,26.6569909" id="Line-3" transform="translate(20.000000, 25.421571) rotate(150.000000) translate(-20.000000, -25.421571) "></path>
                        <path d="M2,24.2545219 L2,26.7253618" id="Line-3" transform="translate(2.000000, 25.489942) rotate(30.000000) translate(-2.000000, -25.489942) "></path>
                        <path d="M26,0.206291723 L26,2.67713161" id="Line-3" transform="translate(26.000000, 1.441712) rotate(60.000000) translate(-26.000000, -1.441712) "></path>
                    </g>
                    <circle id="Oval-3" cx="12.1216216" cy="12.527027" r="11.5526059"></circle>
                    <polyline id="Path-249" transform="translate(12.520270, 12.297502) scale(-1, -1) rotate(180.000000) translate(-12.520270, -12.297502) " points="7.33783784 12.9047222 10.3825935 15.9095004 17.7027027 8.68550369"></polyline>
                </g>
            </g>
        </g>
    </g>
</svg>