<?xml version="1.0" encoding="UTF-8"?>
<svg width="73px" height="72px" viewBox="0 0 73 72" version="1.1" xmlns="http://www.w3.org/2000/svg" xmlns:xlink="http://www.w3.org/1999/xlink">
    <!-- Generator: Sketch 46.2 (44496) - http://www.bohemiancoding.com/sketch -->
    <title>ic tracking Sucesso</title>
    <desc>Created with Sketch.</desc>
    <defs></defs>
    <g id="Meus-Pedidos-Mobile" stroke="none" stroke-width="1" fill="none" fill-rule="evenodd">
        <g id="08-Detalhe" transform="translate(-149.000000, -288.000000)">
            <g id="ic-tracking-Sucesso" transform="translate(148.000000, 287.000000)">
                <g id="Group-10" stroke="#4D5862" stroke-linejoin="round">
                    <g id="Group-5" transform="translate(0.905405, 0.905405)">
                        <polygon id="Stroke-25" stroke-linecap="round" points="32.5027231 26.7887636 0.719443721 13.9135926 0.719443721 47.3890372 32.5027231 60.2642083"></polygon>
                        <polygon id="Stroke-26" stroke-linecap="round" points="32.5238169 26.8096322 61.5390389 13.9531628 61.5390389 47.4286075 32.5238169 60.2850768"></polygon>
                        <polyline id="Stroke-27" stroke-linecap="round" points="0.74021181 13.9036813 31.0821368 0.669102898 61.5104715 13.7595106"></polyline>
                        <path d="M17.0754501,6.81100249 L47.3857122,19.9284741" id="Stroke-28"></path>
                        <polygon id="Stroke-29" stroke-linecap="round" points="23.8313274 33.2792249 7.92291945 27.0081972 7.92291945 39.8833682 23.8313274 46.1543959"></polygon>
                    </g>
                </g>
                <g id="Group-11" transform="translate(43.000000, 41.000000)" stroke="#809AE0">
                    <g id="Group-2" transform="translate(0.756757, 2.162162)" stroke-linecap="round">
                        <path d="M11.5,26.7094595 L11.5,29.1802993" id="Line-3"></path>
                        <path d="M28.5,8.9301206 L28.5,11.4009605" id="Line-3" transform="translate(28.500000, 10.165541) rotate(90.000000) translate(-28.500000, -10.165541) "></path>
                        <path d="M26.5,17.7073583 L26.5,20.1781982" id="Line-3" transform="translate(26.500000, 18.942778) rotate(120.000000) translate(-26.500000, -18.942778) "></path>
                        <path d="M19.5,24.186151 L19.5,26.6569909" id="Line-3" transform="translate(19.500000, 25.421571) rotate(150.000000) translate(-19.500000, -25.421571) "></path>
                        <path d="M1.5,24.2545219 L1.5,26.7253618" id="Line-3" transform="translate(1.500000, 25.489942) rotate(30.000000) translate(-1.500000, -25.489942) "></path>
                        <path d="M25.5,0.206291723 L25.5,2.67713161" id="Line-3" transform="translate(25.500000, 1.441712) rotate(60.000000) translate(-25.500000, -1.441712) "></path>
                    </g>
                    <circle id="Oval-3" fill="#FFFFFF" cx="12.1216216" cy="12.527027" r="11.5526059"></circle>
                    <polyline id="Path-249" transform="translate(12.520270, 12.297502) scale(-1, -1) rotate(180.000000) translate(-12.520270, -12.297502) " points="7.33783784 12.9047222 10.3825935 15.9095004 17.7027027 8.68550369"></polyline>
                </g>
            </g>
        </g>
    </g>
</svg>