<?xml version="1.0" encoding="UTF-8"?>
<svg width="110px" height="50px" viewBox="0 0 110 50" version="1.1" xmlns="http://www.w3.org/2000/svg" xmlns:xlink="http://www.w3.org/1999/xlink">
    <!-- Generator: Sketch 46 (44423) - http://www.bohemiancoding.com/sketch -->
    <title>2 eixos simples</title>
    <desc>Created with Sketch.</desc>
    <defs></defs>
    <g id="Symbols" stroke="none" stroke-width="1" fill="none" fill-rule="evenodd">
        <g id="2-eixos-simples">
            <g id="Group" transform="translate(35.943359, 22.000000)" stroke="#B5BDC4">
                <path d="M19.1032844,21.4516072 L19.1032844,27.4590563" id="Line-2" stroke-linecap="square"></path>
                <g id="Group-2" transform="translate(0.553260, 0.000000)">
                    <path d="M36.0695157,1.06781486 L0.721313233,1.06781486 L0.721313233,18.0831279 C0.721313233,19.4638398 1.84060136,20.5831279 3.22131323,20.5831279 L33.5695157,20.5831279 C34.9502276,20.5831279 36.0695157,19.4638398 36.0695157,18.0831279 L36.0695157,1.06781486 Z" id="Rectangle-2"></path>
                </g>
            </g>
            <g id="Page-1" transform="translate(25.000000, 0.000000)">
                <path d="M55.6482417,25.2327665 C55.6482417,21.8725572 52.9244409,19.1487564 49.5642316,19.1487564 C46.2040223,19.1487564 43.4802215,21.8725572 43.4802215,25.2327665 C43.4802215,28.5929759 46.2040223,31.3167767 49.5642316,31.3167767 C52.9244409,31.3167767 55.6482417,28.5929759 55.6482417,25.2327665" id="Fill-1" fill="#FFFFFF"></path>
                <path d="M55.6482417,25.2327665 C55.6482417,21.8725572 52.9244409,19.1487564 49.5642316,19.1487564 C46.2040223,19.1487564 43.4802215,21.8725572 43.4802215,25.2327665 C43.4802215,28.5929759 46.2040223,31.3167767 49.5642316,31.3167767 C52.9244409,31.3167767 55.6482417,28.5929759 55.6482417,25.2327665 Z" id="Stroke-3" stroke="#4D5862" stroke-width="2" stroke-linecap="round" stroke-linejoin="round"></path>
                <path d="M20.8125002,25.2327665 C20.8125002,21.8725572 18.0886994,19.1487564 14.7284901,19.1487564 C11.3682808,19.1487564 8.64447995,21.8725572 8.64447995,25.2327665 C8.64447995,28.5929759 11.3682808,31.3167767 14.7284901,31.3167767 C18.0886994,31.3167767 20.8125002,28.5929759 20.8125002,25.2327665" id="Fill-5" fill="#FFFFFF"></path>
                <path d="M20.8125002,25.2327665 C20.8125002,21.8725572 18.0886994,19.1487564 14.7284901,19.1487564 C11.3682808,19.1487564 8.64447995,21.8725572 8.64447995,25.2327665 C8.64447995,28.5929759 11.3682808,31.3167767 14.7284901,31.3167767 C18.0886994,31.3167767 20.8125002,28.5929759 20.8125002,25.2327665 Z" id="Stroke-7" stroke="#4D5862" stroke-width="2" stroke-linecap="round" stroke-linejoin="round"></path>
                <path d="M53.6874379,25.2358862 L7.50899679,25.2358862 C3.55328099,25.2358862 0.346281115,22.0295796 0.346281115,18.0738638 L0.346281115,13.6425747 C0.346281115,12.226947 1.4943122,11.0796092 2.90924664,11.0796092 L53.6874379,11.0796092 C57.5967056,11.0796092 60.7655764,14.24848 60.7655764,18.1577477 L60.7655764,18.1577477 C60.7655764,22.0670154 57.5967056,25.2358862 53.6874379,25.2358862" id="Fill-9" fill="#FFFFFF"></path>
                <path d="M53.6874379,25.2358862 L7.50899679,25.2358862 C3.55328099,25.2358862 0.346281115,22.0295796 0.346281115,18.0738638 L0.346281115,13.6425747 C0.346281115,12.226947 1.4943122,11.0796092 2.90924664,11.0796092 L53.6874379,11.0796092 C57.5967056,11.0796092 60.7655764,14.24848 60.7655764,18.1577477 L60.7655764,18.1577477 C60.7655764,22.0670154 57.5967056,25.2358862 53.6874379,25.2358862 Z" id="Stroke-11" stroke="#4D5862" stroke-width="2" stroke-linecap="round" stroke-linejoin="round"></path>
                <path d="M48.3672567,11.0795398 L9.59902343,11.0795398 L9.59902343,3.72409914 C9.59902343,1.85854863 11.1110136,0.346558417 12.9765642,0.346558417 L36.0377079,0.346558417 C39.7237473,0.346558417 43.1380306,2.28836703 45.022299,5.45585134 L48.3672567,11.0795398 Z" id="Stroke-13" stroke="#4D5862" stroke-width="2" stroke-linecap="round" stroke-linejoin="round"></path>
                <path d="M53.873369,25.8243908 C53.873369,22.4641814 51.1495682,19.7403806 47.7893589,19.7403806 C44.4291496,19.7403806 41.7053488,22.4641814 41.7053488,25.8243908 C41.7053488,29.1846001 44.4291496,31.9084009 47.7893589,31.9084009 C51.1495682,31.9084009 53.873369,29.1846001 53.873369,25.8243908" id="Fill-15" fill="#FFFFFF"></path>
                <path d="M53.873369,25.8243908 C53.873369,22.4641814 51.1495682,19.7403806 47.7893589,19.7403806 C44.4291496,19.7403806 41.7053488,22.4641814 41.7053488,25.8243908 C41.7053488,29.1846001 44.4291496,31.9084009 47.7893589,31.9084009 C51.1495682,31.9084009 53.873369,29.1846001 53.873369,25.8243908 Z" id="Stroke-17" stroke="#4D5862" stroke-width="2" stroke-linecap="round" stroke-linejoin="round"></path>
                <path d="M19.0376275,25.8243908 C19.0376275,22.4641814 16.3138267,19.7403806 12.9536174,19.7403806 C9.59340806,19.7403806 6.86960726,22.4641814 6.86960726,25.8243908 C6.86960726,29.1846001 9.59340806,31.9084009 12.9536174,31.9084009 C16.3138267,31.9084009 19.0376275,29.1846001 19.0376275,25.8243908" id="Fill-19" fill="#FFFFFF"></path>
                <path d="M19.0376275,25.8243908 C19.0376275,22.4641814 16.3138267,19.7403806 12.9536174,19.7403806 C9.59340806,19.7403806 6.86960726,22.4641814 6.86960726,25.8243908 C6.86960726,29.1846001 9.59340806,31.9084009 12.9536174,31.9084009 C16.3138267,31.9084009 19.0376275,29.1846001 19.0376275,25.8243908 Z" id="Stroke-21" stroke="#4D5862" stroke-width="2" stroke-linecap="round" stroke-linejoin="round"></path>
                <path d="M27.5161421,15.797822 L32.3370408,15.797822" id="Stroke-23" stroke="#4D5862" stroke-width="2" stroke-linecap="round" stroke-linejoin="round"></path>
                <path d="M49.2684888,25.8243908 C49.2684888,25.0077358 48.6064298,24.3456768 47.7897749,24.3456768 C46.9724266,24.3456768 46.3103677,25.0077358 46.3103677,25.8243908 C46.3103677,26.6410457 46.9724266,27.3031047 47.7897749,27.3031047 C48.6064298,27.3031047 49.2684888,26.6410457 49.2684888,25.8243908" id="Fill-25" fill="#4D5862"></path>
                <path d="M14.432678,25.8243908 C14.432678,25.0077358 13.770619,24.3456768 12.953964,24.3456768 C12.1366158,24.3456768 11.4745568,25.0077358 11.4745568,25.8243908 C11.4745568,26.6410457 12.1366158,27.3031047 12.953964,27.3031047 C13.770619,27.3031047 14.432678,26.6410457 14.432678,25.8243908" id="Fill-27" fill="#4D5862"></path>
            </g>
        </g>
    </g>
</svg>