<?xml version="1.0" encoding="UTF-8"?>
<svg width="110px" height="50px" viewBox="0 0 110 50" version="1.1" xmlns="http://www.w3.org/2000/svg" xmlns:xlink="http://www.w3.org/1999/xlink">
    <!-- Generator: Sketch 46 (44423) - http://www.bohemiancoding.com/sketch -->
    <title>3 eixos dupla</title>
    <desc>Created with Sketch.</desc>
    <defs></defs>
    <g id="Symbols" stroke="none" stroke-width="1" fill="none" fill-rule="evenodd">
        <g id="3-eixos-dupla">
            <g id="Group" transform="translate(27.000000, 20.000000)" stroke="#B5BDC4">
                <path d="M29.1581316,14.496094 L29.1581316,29.4590563" id="Line-2" stroke-linecap="square"></path>
                <g id="Group-2" transform="translate(0.762186, 0.000000)">
                    <rect id="Rectangle-2" x="0.804887395" y="0.5" width="47.9710121" height="22.0831279" rx="3"></rect>
                </g>
            </g>
            <g id="Page-1" transform="translate(20.000000, 2.000000)">
                <path d="M63.3193,27.2020833 C63.3193,24.5364167 61.1587167,22.3749167 58.4921333,22.3749167 C55.8264667,22.3749167 53.6658833,24.5364167 53.6658833,27.2020833 C53.6658833,29.86775 55.8264667,32.02925 58.4921333,32.02925 C61.1587167,32.02925 63.3193,29.86775 63.3193,27.2020833" id="Fill-1" fill="#FFFFFF"></path>
                <path d="M63.3193,27.2020833 C63.3193,24.5364167 61.1587167,22.3749167 58.4921333,22.3749167 C55.8264667,22.3749167 53.6658833,24.5364167 53.6658833,27.2020833 C53.6658833,29.86775 55.8264667,32.02925 58.4921333,32.02925 C61.1587167,32.02925 63.3193,29.86775 63.3193,27.2020833 Z" id="Stroke-3" stroke="#4D5862" stroke-width="2" stroke-linecap="round" stroke-linejoin="round"></path>
                <path d="M16.4525167,26.263325 C16.4525167,23.5976583 14.2919333,21.4361583 11.62535,21.4361583 C8.95968333,21.4361583 6.7991,23.5976583 6.7991,26.263325 C6.7991,28.9289917 8.95968333,31.0904917 11.62535,31.0904917 C14.2919333,31.0904917 16.4525167,28.9289917 16.4525167,26.263325" id="Fill-5" fill="#FFFFFF"></path>
                <path d="M16.4525167,26.263325 C16.4525167,23.5976583 14.2919333,21.4361583 11.62535,21.4361583 C8.95968333,21.4361583 6.7991,23.5976583 6.7991,26.263325 C6.7991,28.9289917 8.95968333,31.0904917 11.62535,31.0904917 C14.2919333,31.0904917 16.4525167,28.9289917 16.4525167,26.263325 Z" id="Stroke-7" stroke="#4D5862" stroke-width="2" stroke-linecap="round" stroke-linejoin="round"></path>
                <path d="M12.7991417,26.263325 C12.7991417,25.6152417 12.2738917,25.0899917 11.6258083,25.0899917 C10.977725,25.0899917 10.452475,25.6152417 10.452475,26.263325 C10.452475,26.9114083 10.977725,27.4366583 11.6258083,27.4366583 C12.2738917,27.4366583 12.7991417,26.9114083 12.7991417,26.263325" id="Fill-9" fill="#4D5862"></path>
                <path d="M15.044425,27.2020833 C15.044425,24.5364167 12.8838417,22.3749167 10.2172583,22.3749167 C7.55159167,22.3749167 5.39100833,24.5364167 5.39100833,27.2020833 C5.39100833,29.86775 7.55159167,32.02925 10.2172583,32.02925 C12.8838417,32.02925 15.044425,29.86775 15.044425,27.2020833" id="Fill-11" fill="#FFFFFF"></path>
                <path d="M15.044425,27.2020833 C15.044425,24.5364167 12.8838417,22.3749167 10.2172583,22.3749167 C7.55159167,22.3749167 5.39100833,24.5364167 5.39100833,27.2020833 C5.39100833,29.86775 7.55159167,32.02925 10.2172583,32.02925 C12.8838417,32.02925 15.044425,29.86775 15.044425,27.2020833 Z" id="Stroke-13" stroke="#4D5862" stroke-width="2" stroke-linecap="round" stroke-linejoin="round"></path>
                <path d="M11.39105,27.2020833 C11.39105,26.554 10.8658,26.02875 10.2177167,26.02875 C9.56963333,26.02875 9.04438333,26.554 9.04438333,27.2020833 C9.04438333,27.8501667 9.56963333,28.3754167 10.2177167,28.3754167 C10.8658,28.3754167 11.39105,27.8501667 11.39105,27.2020833" id="Fill-15" fill="#4D5862"></path>
                <path d="M45.396725,26.263325 C45.396725,23.5976583 43.2361417,21.4361583 40.5695583,21.4361583 C37.9038917,21.4361583 35.7433083,23.5976583 35.7433083,26.263325 C35.7433083,28.9289917 37.9038917,31.0904917 40.5695583,31.0904917 C43.2361417,31.0904917 45.396725,28.9289917 45.396725,26.263325" id="Fill-17" fill="#FFFFFF"></path>
                <path d="M45.396725,26.263325 C45.396725,23.5976583 43.2361417,21.4361583 40.5695583,21.4361583 C37.9038917,21.4361583 35.7433083,23.5976583 35.7433083,26.263325 C35.7433083,28.9289917 37.9038917,31.0904917 40.5695583,31.0904917 C43.2361417,31.0904917 45.396725,28.9289917 45.396725,26.263325 Z" id="Stroke-19" stroke="#4D5862" stroke-width="2" stroke-linecap="round" stroke-linejoin="round"></path>
                <path d="M41.74335,26.263325 C41.74335,25.6152417 41.2181,25.0899917 40.5700167,25.0899917 C39.9219333,25.0899917 39.3966833,25.6152417 39.3966833,26.263325 C39.3966833,26.9114083 39.9219333,27.4366583 40.5700167,27.4366583 C41.2181,27.4366583 41.74335,26.9114083 41.74335,26.263325" id="Fill-21" fill="#4D5862"></path>
                <path d="M43.9886333,27.2020833 C43.9886333,24.5364167 41.82805,22.3749167 39.1614667,22.3749167 C36.4958,22.3749167 34.3352167,24.5364167 34.3352167,27.2020833 C34.3352167,29.86775 36.4958,32.02925 39.1614667,32.02925 C41.82805,32.02925 43.9886333,29.86775 43.9886333,27.2020833" id="Fill-23" fill="#FFFFFF"></path>
                <path d="M43.9886333,27.2020833 C43.9886333,24.5364167 41.82805,22.3749167 39.1614667,22.3749167 C36.4958,22.3749167 34.3352167,24.5364167 34.3352167,27.2020833 C34.3352167,29.86775 36.4958,32.02925 39.1614667,32.02925 C41.82805,32.02925 43.9886333,29.86775 43.9886333,27.2020833 Z" id="Stroke-25" stroke="#4D5862" stroke-width="2" stroke-linecap="round" stroke-linejoin="round"></path>
                <path d="M40.3352583,27.2020833 C40.3352583,26.554 39.8100083,26.02875 39.161925,26.02875 C38.5138417,26.02875 37.9885917,26.554 37.9885917,27.2020833 C37.9885917,27.8501667 38.5138417,28.3754167 39.161925,28.3754167 C39.8100083,28.3754167 40.3352583,27.8501667 40.3352583,27.2020833" id="Fill-27" fill="#4D5862"></path>
                <path d="M49.0688917,26.1558917 L6.726225,26.1558917 L2.031975,26.1558917 C0.909058333,26.1558917 -0.00210833333,25.2438083 -0.000275,24.119975 L0.00614166667,18.6428917 L6.73905833,18.6428917 L46.565475,18.7748917 L46.565475,22.4965583 L49.0688917,24.647975 L49.0688917,26.1558917 Z" id="Fill-29" fill="#FFFFFF"></path>
                <path d="M49.0688917,26.1558917 L6.726225,26.1558917 L2.031975,26.1558917 C0.909058333,26.1558917 -0.00210833333,25.2438083 -0.000275,24.119975 L0.00614166667,18.6428917 L6.73905833,18.6428917 L46.565475,18.7748917 L46.565475,22.4965583 L49.0688917,24.647975 L49.0688917,26.1558917 Z" id="Stroke-31" stroke="#4D5862" stroke-width="2" stroke-linecap="round" stroke-linejoin="round"></path>
                <path d="M49.0697167,26.161575 L49.0761333,2.78015833 C49.0816333,1.243825 50.3283,-9.16666667e-05 51.86555,-9.16666667e-05 L62.1184667,-9.16666667e-05 C63.3376333,-9.16666667e-05 64.4559667,0.675491667 65.0233833,1.755325 L70.84055,12.826825 C71.1311333,13.2347417 71.28605,13.723325 71.2842167,14.223825 L71.2677167,21.7744083 C71.2631333,24.195325 69.2987167,26.156075 66.9153833,26.156075 L49.0697167,26.161575 Z" id="Fill-33" fill="#FFFFFF"></path>
                <path d="M49.0697167,26.161575 L49.0761333,2.78015833 C49.0816333,1.243825 50.3283,-9.16666667e-05 51.86555,-9.16666667e-05 L62.1184667,-9.16666667e-05 C63.3376333,-9.16666667e-05 64.4559667,0.675491667 65.0233833,1.755325 L70.84055,12.826825 C71.1311333,13.2347417 71.28605,13.723325 71.2842167,14.223825 L71.2677167,21.7744083 C71.2631333,24.195325 69.2987167,26.156075 66.9153833,26.156075 L49.0697167,26.161575 Z" id="Stroke-35" stroke="#4D5862" stroke-width="2" stroke-linecap="round" stroke-linejoin="round"></path>
                <path d="M59.665925,26.7326583 C59.665925,26.084575 59.140675,25.559325 58.4925917,25.559325 C57.8445083,25.559325 57.3192583,26.084575 57.3192583,26.7326583 C57.3192583,27.3807417 57.8445083,27.9059917 58.4925917,27.9059917 C59.140675,27.9059917 59.665925,27.3807417 59.665925,26.7326583" id="Fill-37" fill="#4D5862"></path>
                <path d="M46.5664833,20.6524083 L0.0254833333,20.6524083 L0.0254833333,4.28165833 C0.0254833333,2.08899167 1.80198333,0.312491667 3.99465,0.312491667 L42.5973167,0.312491667 C44.7890667,0.312491667 46.5664833,2.08899167 46.5664833,4.28165833 L46.5664833,20.6524083 Z" id="Fill-39" fill="#FFFFFF"></path>
                <path d="M46.5664833,20.6524083 L0.0254833333,20.6524083 L0.0254833333,4.28165833 C0.0254833333,2.08899167 1.80198333,0.312491667 3.99465,0.312491667 L42.5973167,0.312491667 C44.7890667,0.312491667 46.5664833,2.08899167 46.5664833,4.28165833 L46.5664833,20.6524083 Z" id="Stroke-41" stroke="#4D5862" stroke-width="2" stroke-linecap="round" stroke-linejoin="round"></path>
                <path d="M60.258825,15.823225 L64.084075,15.823225" id="Stroke-43" stroke="#4D5862" stroke-width="2" stroke-linecap="round" stroke-linejoin="round"></path>
                <path d="M70.3736917,12.5345917 L57.6329417,12.495175 C56.336775,12.4905917 55.2899417,11.436425 55.294525,10.1402583 L55.3091917,5.86675833 C55.313775,4.57059167 56.3679417,3.52375833 57.6641083,3.52834167 L65.5951083,3.54575833" id="Stroke-45" stroke="#4D5862" stroke-width="2" stroke-linecap="round" stroke-linejoin="round"></path>
                <path d="M61.9112083,27.6714167 C61.9112083,25.00575 59.750625,22.84425 57.0840417,22.84425 C54.418375,22.84425 52.2577917,25.00575 52.2577917,27.6714167 C52.2577917,30.3370833 54.418375,32.4985833 57.0840417,32.4985833 C59.750625,32.4985833 61.9112083,30.3370833 61.9112083,27.6714167" id="Fill-47" fill="#FFFFFF"></path>
                <path d="M61.9112083,27.6714167 C61.9112083,25.00575 59.750625,22.84425 57.0840417,22.84425 C54.418375,22.84425 52.2577917,25.00575 52.2577917,27.6714167 C52.2577917,30.3370833 54.418375,32.4985833 57.0840417,32.4985833 C59.750625,32.4985833 61.9112083,30.3370833 61.9112083,27.6714167 Z" id="Stroke-49" stroke="#4D5862" stroke-width="2" stroke-linecap="round" stroke-linejoin="round"></path>
                <path d="M58.2578333,27.6714167 C58.2578333,27.0233333 57.7325833,26.4980833 57.0845,26.4980833 C56.4364167,26.4980833 55.9111667,27.0233333 55.9111667,27.6714167 C55.9111667,28.3195 56.4364167,28.84475 57.0845,28.84475 C57.7325833,28.84475 58.2578333,28.3195 58.2578333,27.6714167" id="Fill-51" fill="#4D5862"></path>
                <path d="M42.5805417,27.6714167 C42.5805417,25.00575 40.4199583,22.84425 37.753375,22.84425 C35.0877083,22.84425 32.927125,25.00575 32.927125,27.6714167 C32.927125,30.3370833 35.0877083,32.4985833 37.753375,32.4985833 C40.4199583,32.4985833 42.5805417,30.3370833 42.5805417,27.6714167" id="Fill-53" fill="#FFFFFF"></path>
                <path d="M42.5805417,27.6714167 C42.5805417,25.00575 40.4199583,22.84425 37.753375,22.84425 C35.0877083,22.84425 32.927125,25.00575 32.927125,27.6714167 C32.927125,30.3370833 35.0877083,32.4985833 37.753375,32.4985833 C40.4199583,32.4985833 42.5805417,30.3370833 42.5805417,27.6714167 Z" id="Stroke-55" stroke="#4D5862" stroke-width="2" stroke-linecap="round" stroke-linejoin="round"></path>
                <path d="M38.9271667,27.6714167 C38.9271667,27.0233333 38.4019167,26.4980833 37.7538333,26.4980833 C37.10575,26.4980833 36.5805,27.0233333 36.5805,27.6714167 C36.5805,28.3195 37.10575,28.84475 37.7538333,28.84475 C38.4019167,28.84475 38.9271667,28.3195 38.9271667,27.6714167" id="Fill-57" fill="#4D5862"></path>
                <path d="M13.6363333,27.6714167 C13.6363333,25.00575 11.47575,22.84425 8.80916667,22.84425 C6.1435,22.84425 3.98291667,25.00575 3.98291667,27.6714167 C3.98291667,30.3370833 6.1435,32.4985833 8.80916667,32.4985833 C11.47575,32.4985833 13.6363333,30.3370833 13.6363333,27.6714167" id="Fill-59" fill="#FFFFFF"></path>
                <path d="M13.6363333,27.6714167 C13.6363333,25.00575 11.47575,22.84425 8.80916667,22.84425 C6.1435,22.84425 3.98291667,25.00575 3.98291667,27.6714167 C3.98291667,30.3370833 6.1435,32.4985833 8.80916667,32.4985833 C11.47575,32.4985833 13.6363333,30.3370833 13.6363333,27.6714167 Z" id="Stroke-61" stroke="#4D5862" stroke-width="2" stroke-linecap="round" stroke-linejoin="round"></path>
                <path d="M9.98295833,27.6714167 C9.98295833,27.0233333 9.45770833,26.4980833 8.809625,26.4980833 C8.16154167,26.4980833 7.63629167,27.0233333 7.63629167,27.6714167 C7.63629167,28.3195 8.16154167,28.84475 8.809625,28.84475 C9.45770833,28.84475 9.98295833,28.3195 9.98295833,27.6714167" id="Fill-63" fill="#4D5862"></path>
            </g>
        </g>
    </g>
</svg>