<?xml version="1.0" encoding="UTF-8"?>
<svg width="110px" height="50px" viewBox="0 0 110 50" version="1.1" xmlns="http://www.w3.org/2000/svg" xmlns:xlink="http://www.w3.org/1999/xlink">
    <!-- Generator: Sketch 46 (44423) - http://www.bohemiancoding.com/sketch -->
    <title>3 eixos simples</title>
    <desc>Created with Sketch.</desc>
    <defs></defs>
    <g id="Symbols" stroke="none" stroke-width="1" fill="none" fill-rule="evenodd">
        <g id="3-eixos-simples">
            <g id="Group-3" transform="translate(17.000000, 6.000000)">
                <g id="Group" transform="translate(7.587402, 18.000000)" stroke="#B5BDC4">
                    <path d="M36.8894043,6.37394589 L36.8894043,17.5" id="Line-2" stroke-linecap="square"></path>
                    <g id="Group-2" transform="translate(0.974609, 0.000000)">
                        <rect id="Rectangle-2" x="0.995366875" y="1.4589762" width="60.876405" height="16.7591953" rx="3"></rect>
                    </g>
                </g>
                <g id="Page-1">
                    <path d="M76.2149243,20.8480649 C76.2149243,18.3640108 74.2009784,16.3500649 71.7169243,16.3500649 C69.2321676,16.3500649 67.2182216,18.3640108 67.2182216,20.8480649 C67.2182216,23.3321189 69.2321676,25.3460649 71.7169243,25.3460649 C74.2009784,25.3460649 76.2149243,23.3321189 76.2149243,20.8480649" id="Fill-1" fill="#FFFFFF"></path>
                    <path d="M76.2149243,20.8480649 C76.2149243,18.3640108 74.2009784,16.3500649 71.7169243,16.3500649 C69.2321676,16.3500649 67.2182216,18.3640108 67.2182216,20.8480649 C67.2182216,23.3321189 69.2321676,25.3460649 71.7169243,25.3460649 C74.2009784,25.3460649 76.2149243,23.3321189 76.2149243,20.8480649 Z" id="Stroke-3" stroke="#4D5862" stroke-width="2" stroke-linecap="round" stroke-linejoin="round"></path>
                    <path d="M50.4583405,20.8480649 C50.4583405,18.3640108 48.4443946,16.3500649 45.9603405,16.3500649 C43.4755838,16.3500649 41.4616378,18.3640108 41.4616378,20.8480649 C41.4616378,23.3321189 43.4755838,25.3460649 45.9603405,25.3460649 C48.4443946,25.3460649 50.4583405,23.3321189 50.4583405,20.8480649" id="Fill-5" fill="#FFFFFF"></path>
                    <path d="M50.4583405,20.8480649 C50.4583405,18.3640108 48.4443946,16.3500649 45.9603405,16.3500649 C43.4755838,16.3500649 41.4616378,18.3640108 41.4616378,20.8480649 C41.4616378,23.3321189 43.4755838,25.3460649 45.9603405,25.3460649 C48.4443946,25.3460649 50.4583405,23.3321189 50.4583405,20.8480649 Z" id="Stroke-7" stroke="#4D5862" stroke-width="2" stroke-linecap="round" stroke-linejoin="round"></path>
                    <path d="M74.7651081,20.8503838 L40.6221892,20.8503838 C37.6975405,20.8503838 35.3266216,18.4794649 35.3266216,15.5548162 L35.3266216,12.2781135 C35.3266216,11.2317892 36.1747838,10.383627 37.2211081,10.383627 L74.7651081,10.383627 C77.6553243,10.383627 79.9988378,12.7264378 79.9988378,15.6166541 L79.9988378,15.6166541 C79.9988378,18.507573 77.6553243,20.8503838 74.7651081,20.8503838" id="Fill-9" fill="#FFFFFF"></path>
                    <path d="M74.7651081,20.8503838 L40.6221892,20.8503838 C37.6975405,20.8503838 35.3266216,18.4794649 35.3266216,15.5548162 L35.3266216,12.2781135 C35.3266216,11.2317892 36.1747838,10.383627 37.2211081,10.383627 L74.7651081,10.383627 C77.6553243,10.383627 79.9988378,12.7264378 79.9988378,15.6166541 L79.9988378,15.6166541 C79.9988378,18.507573 77.6553243,20.8503838 74.7651081,20.8503838 Z" id="Stroke-11" stroke="#4D5862" stroke-width="2" stroke-linecap="round" stroke-linejoin="round"></path>
                    <path d="M70.8315189,10.3835568 L42.167573,10.3835568 L42.167573,4.94463784 C42.167573,3.56593514 43.285573,2.44793514 44.6642757,2.44793514 L61.7153568,2.44793514 C64.4411405,2.44793514 66.9652486,3.88355676 68.3580054,6.22566486 L70.8315189,10.3835568 Z" id="Stroke-13" stroke="#4D5862" stroke-width="2" stroke-linecap="round" stroke-linejoin="round"></path>
                    <path d="M74.902627,21.2854973 C74.902627,18.8014432 72.8886811,16.7874973 70.404627,16.7874973 C67.9198703,16.7874973 65.9059243,18.8014432 65.9059243,21.2854973 C65.9059243,23.7695514 67.9198703,25.7834973 70.404627,25.7834973 C72.8886811,25.7834973 74.902627,23.7695514 74.902627,21.2854973" id="Fill-15" fill="#FFFFFF"></path>
                    <path d="M74.902627,21.2854973 C74.902627,18.8014432 72.8886811,16.7874973 70.404627,16.7874973 C67.9198703,16.7874973 65.9059243,18.8014432 65.9059243,21.2854973 C65.9059243,23.7695514 67.9198703,25.7834973 70.404627,25.7834973 C72.8886811,25.7834973 74.902627,23.7695514 74.902627,21.2854973 Z" id="Stroke-17" stroke="#4D5862" stroke-width="2" stroke-linecap="round" stroke-linejoin="round"></path>
                    <path d="M49.1460432,21.2854973 C49.1460432,18.8014432 47.1320973,16.7874973 44.6480432,16.7874973 C42.1632865,16.7874973 40.1493405,18.8014432 40.1493405,21.2854973 C40.1493405,23.7695514 42.1632865,25.7834973 44.6480432,25.7834973 C47.1320973,25.7834973 49.1460432,23.7695514 49.1460432,21.2854973" id="Fill-19" fill="#FFFFFF"></path>
                    <path d="M49.1460432,21.2854973 C49.1460432,18.8014432 47.1320973,16.7874973 44.6480432,16.7874973 C42.1632865,16.7874973 40.1493405,18.8014432 40.1493405,21.2854973 C40.1493405,23.7695514 42.1632865,25.7834973 44.6480432,25.7834973 C47.1320973,25.7834973 49.1460432,23.7695514 49.1460432,21.2854973 Z" id="Stroke-21" stroke="#4D5862" stroke-width="2" stroke-linecap="round" stroke-linejoin="round"></path>
                    <path d="M55.4147838,14.1803297 L58.9795946,14.1803297" id="Stroke-23" stroke="#4D5862" stroke-width="2" stroke-linecap="round" stroke-linejoin="round"></path>
                    <path d="M71.4978216,21.2854973 C71.4978216,20.6818757 71.0080378,20.1920919 70.4044162,20.1920919 C69.8000919,20.1920919 69.3110108,20.6818757 69.3110108,21.2854973 C69.3110108,21.8891189 69.8000919,22.3789027 70.4044162,22.3789027 C71.0080378,22.3789027 71.4978216,21.8891189 71.4978216,21.2854973" id="Fill-25" fill="#4D5862"></path>
                    <path d="M45.7413081,21.2854973 C45.7413081,20.6818757 45.2515243,20.1920919 44.6479027,20.1920919 C44.0435784,20.1920919 43.5544973,20.6818757 43.5544973,21.2854973 C43.5544973,21.8891189 44.0435784,22.3789027 44.6479027,22.3789027 C45.2515243,22.3789027 45.7413081,21.8891189 45.7413081,21.2854973" id="Fill-27" fill="#4D5862"></path>
                    <path d="M15.8853676,20.8480649 C15.8853676,18.3640108 13.8714216,16.3500649 11.3873676,16.3500649 C8.90261081,16.3500649 6.88866486,18.3640108 6.88866486,20.8480649 C6.88866486,23.3321189 8.90261081,25.3460649 11.3873676,25.3460649 C13.8714216,25.3460649 15.8853676,23.3321189 15.8853676,20.8480649" id="Fill-29" fill="#FFFFFF"></path>
                    <path d="M15.8853676,20.8480649 C15.8853676,18.3640108 13.8714216,16.3500649 11.3873676,16.3500649 C8.90261081,16.3500649 6.88866486,18.3640108 6.88866486,20.8480649 C6.88866486,23.3321189 8.90261081,25.3460649 11.3873676,25.3460649 C13.8714216,25.3460649 15.8853676,23.3321189 15.8853676,20.8480649 Z" id="Stroke-31" stroke="#4D5862" stroke-width="2" stroke-linecap="round" stroke-linejoin="round"></path>
                    <path d="M25.9981027,20.8503838 L6.30204865,20.8503838 C2.82156216,20.8503838 0.000210810811,18.0290324 0.000210810811,14.5485459 L0.000210810811,14.5485459 C0.000210810811,6.51384324 6.51356216,-0.000210810811 14.5482649,-0.000210810811 L25.9981027,-0.000210810811 C29.4378324,-0.000210810811 32.2261568,2.78811351 32.2261568,6.22784324 L32.2261568,14.6223297 C32.2261568,18.0620595 29.4378324,20.8503838 25.9981027,20.8503838" id="Fill-33" fill="#FFFFFF"></path>
                    <path d="M25.9981027,20.8503838 L6.30204865,20.8503838 C2.82156216,20.8503838 0.000210810811,18.0290324 0.000210810811,14.5485459 L0.000210810811,14.5485459 C0.000210810811,6.51384324 6.51356216,-0.000210810811 14.5482649,-0.000210810811 L25.9981027,-0.000210810811 C29.4378324,-0.000210810811 32.2261568,2.78811351 32.2261568,6.22784324 L32.2261568,14.6223297 C32.2261568,18.0620595 29.4378324,20.8503838 25.9981027,20.8503838 Z" id="Stroke-35" stroke="#4D5862" stroke-width="2" stroke-linecap="round" stroke-linejoin="round"></path>
                    <path d="M31.1843297,19.1539892 L36.3140595,19.1539892" id="Stroke-37" stroke="#4D5862" stroke-width="2" stroke-linecap="round" stroke-linejoin="round"></path>
                    <path d="M14.5730703,21.2854973 C14.5730703,18.8014432 12.5591243,16.7874973 10.0750703,16.7874973 C7.59031351,16.7874973 5.57636757,18.8014432 5.57636757,21.2854973 C5.57636757,23.7695514 7.59031351,25.7834973 10.0750703,25.7834973 C12.5591243,25.7834973 14.5730703,23.7695514 14.5730703,21.2854973" id="Fill-39" fill="#FFFFFF"></path>
                    <path d="M14.5730703,21.2854973 C14.5730703,18.8014432 12.5591243,16.7874973 10.0750703,16.7874973 C7.59031351,16.7874973 5.57636757,18.8014432 5.57636757,21.2854973 C5.57636757,23.7695514 7.59031351,25.7834973 10.0750703,25.7834973 C12.5591243,25.7834973 14.5730703,23.7695514 14.5730703,21.2854973 Z" id="Stroke-41" stroke="#4D5862" stroke-width="2" stroke-linecap="round" stroke-linejoin="round"></path>
                    <path d="M11.1683351,21.2854973 C11.1683351,20.6818757 10.6785514,20.1920919 10.0749297,20.1920919 C9.47060541,20.1920919 8.98152432,20.6818757 8.98152432,21.2854973 C8.98152432,21.8891189 9.47060541,22.3789027 10.0749297,22.3789027 C10.6785514,22.3789027 11.1683351,21.8891189 11.1683351,21.2854973" id="Fill-43" fill="#4D5862"></path>
                </g>
            </g>
            <path d="M55.4750977,42.4999585 L55.4750977,49.9679375" id="Line-2" stroke="#B5BDC4"></path>
        </g>
    </g>
</svg>