<?xml version="1.0" encoding="UTF-8"?>
<svg width="110px" height="50px" viewBox="0 0 110 50" version="1.1" xmlns="http://www.w3.org/2000/svg" xmlns:xlink="http://www.w3.org/1999/xlink">
    <!-- Generator: Sketch 46 (44423) - http://www.bohemiancoding.com/sketch -->
    <title>4 eixos simples</title>
    <desc>Created with Sketch.</desc>
    <defs></defs>
    <g id="Symbols" stroke="none" stroke-width="1" fill="none" fill-rule="evenodd">
        <g id="4-eixos-simples">
            <g id="Group" transform="translate(21.587402, 25.000000)" stroke="#B5BDC4">
                <path d="M43.584978,7.49111889 L43.584978,16.5059552" id="Line-2" stroke-linecap="square"></path>
                <path d="M12.7756088,7.49111889 L12.7756088,16.5167074" id="Line-2-Copy" stroke-linecap="square"></path>
                <g id="Group-2" transform="translate(0.996733, 0.000000)">
                    <rect id="Rectangle-2" x="1.0440015" y="1.40850377" width="66.9513684" height="15.8245009" rx="3"></rect>
                </g>
            </g>
            <path d="M55.4750977,42.4999585 L55.4750977,49.9679375" id="Line-2" stroke="#B5BDC4"></path>
            <g id="Page-1" transform="translate(14.000000, 6.000000)">
                <path d="M81.8365459,20.8480649 C81.8365459,18.3640108 79.8226,16.3500649 77.3385459,16.3500649 C74.8537892,16.3500649 72.8398432,18.3640108 72.8398432,20.8480649 C72.8398432,23.3321189 74.8537892,25.3460649 77.3385459,25.3460649 C79.8226,25.3460649 81.8365459,23.3321189 81.8365459,20.8480649" id="Fill-1" fill="#FFFFFF"></path>
                <path d="M81.8365459,20.8480649 C81.8365459,18.3640108 79.8226,16.3500649 77.3385459,16.3500649 C74.8537892,16.3500649 72.8398432,18.3640108 72.8398432,20.8480649 C72.8398432,23.3321189 74.8537892,25.3460649 77.3385459,25.3460649 C79.8226,25.3460649 81.8365459,23.3321189 81.8365459,20.8480649 Z" id="Stroke-3" stroke="#4D5862" stroke-width="2" stroke-linecap="round" stroke-linejoin="round"></path>
                <path d="M56.0799622,20.8480649 C56.0799622,18.3640108 54.0660162,16.3500649 51.5819622,16.3500649 C49.0972054,16.3500649 47.0832595,18.3640108 47.0832595,20.8480649 C47.0832595,23.3321189 49.0972054,25.3460649 51.5819622,25.3460649 C54.0660162,25.3460649 56.0799622,23.3321189 56.0799622,20.8480649" id="Fill-5" fill="#FFFFFF"></path>
                <path d="M56.0799622,20.8480649 C56.0799622,18.3640108 54.0660162,16.3500649 51.5819622,16.3500649 C49.0972054,16.3500649 47.0832595,18.3640108 47.0832595,20.8480649 C47.0832595,23.3321189 49.0972054,25.3460649 51.5819622,25.3460649 C54.0660162,25.3460649 56.0799622,23.3321189 56.0799622,20.8480649 Z" id="Stroke-7" stroke="#4D5862" stroke-width="2" stroke-linecap="round" stroke-linejoin="round"></path>
                <path d="M80.3867297,20.8503838 L46.2438108,20.8503838 C43.3191622,20.8503838 40.9482432,18.4794649 40.9482432,15.5548162 L40.9482432,12.2781135 C40.9482432,11.2317892 41.7964054,10.383627 42.8427297,10.383627 L80.3867297,10.383627 C83.2769459,10.383627 85.6204595,12.7264378 85.6204595,15.6166541 L85.6204595,15.6166541 C85.6204595,18.507573 83.2769459,20.8503838 80.3867297,20.8503838" id="Fill-9" fill="#FFFFFF"></path>
                <path d="M80.3867297,20.8503838 L46.2438108,20.8503838 C43.3191622,20.8503838 40.9482432,18.4794649 40.9482432,15.5548162 L40.9482432,12.2781135 C40.9482432,11.2317892 41.7964054,10.383627 42.8427297,10.383627 L80.3867297,10.383627 C83.2769459,10.383627 85.6204595,12.7264378 85.6204595,15.6166541 L85.6204595,15.6166541 C85.6204595,18.507573 83.2769459,20.8503838 80.3867297,20.8503838 Z" id="Stroke-11" stroke="#4D5862" stroke-width="2" stroke-linecap="round" stroke-linejoin="round"></path>
                <path d="M76.4531405,10.3835568 L47.7891946,10.3835568 L47.7891946,4.94463784 C47.7891946,3.56593514 48.9071946,2.44793514 50.2858973,2.44793514 L67.3369784,2.44793514 C70.0627622,2.44793514 72.5868703,3.88355676 73.979627,6.22566486 L76.4531405,10.3835568 Z" id="Stroke-13" stroke="#4D5862" stroke-width="2" stroke-linecap="round" stroke-linejoin="round"></path>
                <path d="M80.5242486,21.2854973 C80.5242486,18.8014432 78.5103027,16.7874973 76.0262486,16.7874973 C73.5414919,16.7874973 71.5275459,18.8014432 71.5275459,21.2854973 C71.5275459,23.7695514 73.5414919,25.7834973 76.0262486,25.7834973 C78.5103027,25.7834973 80.5242486,23.7695514 80.5242486,21.2854973" id="Fill-15" fill="#FFFFFF"></path>
                <path d="M80.5242486,21.2854973 C80.5242486,18.8014432 78.5103027,16.7874973 76.0262486,16.7874973 C73.5414919,16.7874973 71.5275459,18.8014432 71.5275459,21.2854973 C71.5275459,23.7695514 73.5414919,25.7834973 76.0262486,25.7834973 C78.5103027,25.7834973 80.5242486,23.7695514 80.5242486,21.2854973 Z" id="Stroke-17" stroke="#4D5862" stroke-width="2" stroke-linecap="round" stroke-linejoin="round"></path>
                <path d="M54.7676649,21.2854973 C54.7676649,18.8014432 52.7537189,16.7874973 50.2696649,16.7874973 C47.7849081,16.7874973 45.7709622,18.8014432 45.7709622,21.2854973 C45.7709622,23.7695514 47.7849081,25.7834973 50.2696649,25.7834973 C52.7537189,25.7834973 54.7676649,23.7695514 54.7676649,21.2854973" id="Fill-19" fill="#FFFFFF"></path>
                <path d="M54.7676649,21.2854973 C54.7676649,18.8014432 52.7537189,16.7874973 50.2696649,16.7874973 C47.7849081,16.7874973 45.7709622,18.8014432 45.7709622,21.2854973 C45.7709622,23.7695514 47.7849081,25.7834973 50.2696649,25.7834973 C52.7537189,25.7834973 54.7676649,23.7695514 54.7676649,21.2854973 Z" id="Stroke-21" stroke="#4D5862" stroke-width="2" stroke-linecap="round" stroke-linejoin="round"></path>
                <path d="M61.0364054,14.1803297 L64.6012162,14.1803297" id="Stroke-23" stroke="#4D5862" stroke-width="2" stroke-linecap="round" stroke-linejoin="round"></path>
                <path d="M77.1194432,21.2854973 C77.1194432,20.6818757 76.6296595,20.1920919 76.0260378,20.1920919 C75.4217135,20.1920919 74.9326324,20.6818757 74.9326324,21.2854973 C74.9326324,21.8891189 75.4217135,22.3789027 76.0260378,22.3789027 C76.6296595,22.3789027 77.1194432,21.8891189 77.1194432,21.2854973" id="Fill-25" fill="#4D5862"></path>
                <path d="M51.3629297,21.2854973 C51.3629297,20.6818757 50.8731459,20.1920919 50.2695243,20.1920919 C49.6652,20.1920919 49.1761189,20.6818757 49.1761189,21.2854973 C49.1761189,21.8891189 49.6652,22.3789027 50.2695243,22.3789027 C50.8731459,22.3789027 51.3629297,21.8891189 51.3629297,21.2854973" id="Fill-27" fill="#4D5862"></path>
                <path d="M15.8853676,20.8480649 C15.8853676,18.3640108 13.8714216,16.3500649 11.3873676,16.3500649 C8.90261081,16.3500649 6.88866486,18.3640108 6.88866486,20.8480649 C6.88866486,23.3321189 8.90261081,25.3460649 11.3873676,25.3460649 C13.8714216,25.3460649 15.8853676,23.3321189 15.8853676,20.8480649" id="Fill-29" fill="#FFFFFF"></path>
                <path d="M15.8853676,20.8480649 C15.8853676,18.3640108 13.8714216,16.3500649 11.3873676,16.3500649 C8.90261081,16.3500649 6.88866486,18.3640108 6.88866486,20.8480649 C6.88866486,23.3321189 8.90261081,25.3460649 11.3873676,25.3460649 C13.8714216,25.3460649 15.8853676,23.3321189 15.8853676,20.8480649 Z" id="Stroke-31" stroke="#4D5862" stroke-width="2" stroke-linecap="round" stroke-linejoin="round"></path>
                <path d="M26.0042865,20.8480649 C26.0042865,18.3640108 23.9903405,16.3500649 21.5062865,16.3500649 C19.0215297,16.3500649 17.0075838,18.3640108 17.0075838,20.8480649 C17.0075838,23.3321189 19.0215297,25.3460649 21.5062865,25.3460649 C23.9903405,25.3460649 26.0042865,23.3321189 26.0042865,20.8480649" id="Fill-33" fill="#FFFFFF"></path>
                <path d="M26.0042865,20.8480649 C26.0042865,18.3640108 23.9903405,16.3500649 21.5062865,16.3500649 C19.0215297,16.3500649 17.0075838,18.3640108 17.0075838,20.8480649 C17.0075838,23.3321189 19.0215297,25.3460649 21.5062865,25.3460649 C23.9903405,25.3460649 26.0042865,23.3321189 26.0042865,20.8480649 Z" id="Stroke-35" stroke="#4D5862" stroke-width="2" stroke-linecap="round" stroke-linejoin="round"></path>
                <path d="M31.6197243,20.8503838 L6.30204865,20.8503838 C2.82156216,20.8503838 0.000210810811,18.0290324 0.000210810811,14.5485459 L0.000210810811,14.5485459 C0.000210810811,6.51384324 6.51356216,-0.000210810811 14.5482649,-0.000210810811 L31.6197243,-0.000210810811 C35.0594541,-0.000210810811 37.8477784,2.78811351 37.8477784,6.22784324 L37.8477784,14.6223297 C37.8477784,18.0620595 35.0594541,20.8503838 31.6197243,20.8503838" id="Fill-37" fill="#FFFFFF"></path>
                <path d="M31.6197243,20.8503838 L6.30204865,20.8503838 C2.82156216,20.8503838 0.000210810811,18.0290324 0.000210810811,14.5485459 L0.000210810811,14.5485459 C0.000210810811,6.51384324 6.51356216,-0.000210810811 14.5482649,-0.000210810811 L31.6197243,-0.000210810811 C35.0594541,-0.000210810811 37.8477784,2.78811351 37.8477784,6.22784324 L37.8477784,14.6223297 C37.8477784,18.0620595 35.0594541,20.8503838 31.6197243,20.8503838 Z" id="Stroke-39" stroke="#4D5862" stroke-width="2" stroke-linecap="round" stroke-linejoin="round"></path>
                <path d="M36.8059514,19.1539892 L41.9356811,19.1539892" id="Stroke-41" stroke="#4D5862" stroke-width="2" stroke-linecap="round" stroke-linejoin="round"></path>
                <path d="M14.5730703,21.2854973 C14.5730703,18.8014432 12.5591243,16.7874973 10.0750703,16.7874973 C7.59031351,16.7874973 5.57636757,18.8014432 5.57636757,21.2854973 C5.57636757,23.7695514 7.59031351,25.7834973 10.0750703,25.7834973 C12.5591243,25.7834973 14.5730703,23.7695514 14.5730703,21.2854973" id="Fill-43" fill="#FFFFFF"></path>
                <path d="M14.5730703,21.2854973 C14.5730703,18.8014432 12.5591243,16.7874973 10.0750703,16.7874973 C7.59031351,16.7874973 5.57636757,18.8014432 5.57636757,21.2854973 C5.57636757,23.7695514 7.59031351,25.7834973 10.0750703,25.7834973 C12.5591243,25.7834973 14.5730703,23.7695514 14.5730703,21.2854973 Z" id="Stroke-45" stroke="#4D5862" stroke-width="2" stroke-linecap="round" stroke-linejoin="round"></path>
                <path d="M11.1683351,21.2854973 C11.1683351,20.6818757 10.6785514,20.1920919 10.0749297,20.1920919 C9.47060541,20.1920919 8.98152432,20.6818757 8.98152432,21.2854973 C8.98152432,21.8891189 9.47060541,22.3789027 10.0749297,22.3789027 C10.6785514,22.3789027 11.1683351,21.8891189 11.1683351,21.2854973" id="Fill-47" fill="#4D5862"></path>
                <path d="M24.6919892,21.2854973 C24.6919892,18.8014432 22.6780432,16.7874973 20.1939892,16.7874973 C17.7092324,16.7874973 15.6952865,18.8014432 15.6952865,21.2854973 C15.6952865,23.7695514 17.7092324,25.7834973 20.1939892,25.7834973 C22.6780432,25.7834973 24.6919892,23.7695514 24.6919892,21.2854973" id="Fill-49" fill="#FFFFFF"></path>
                <path d="M24.6919892,21.2854973 C24.6919892,18.8014432 22.6780432,16.7874973 20.1939892,16.7874973 C17.7092324,16.7874973 15.6952865,18.8014432 15.6952865,21.2854973 C15.6952865,23.7695514 17.7092324,25.7834973 20.1939892,25.7834973 C22.6780432,25.7834973 24.6919892,23.7695514 24.6919892,21.2854973 Z" id="Stroke-51" stroke="#4D5862" stroke-width="2" stroke-linecap="round" stroke-linejoin="round"></path>
                <path d="M21.2872541,21.2854973 C21.2872541,20.6818757 20.7974703,20.1920919 20.1938486,20.1920919 C19.5895243,20.1920919 19.1004432,20.6818757 19.1004432,21.2854973 C19.1004432,21.8891189 19.5895243,22.3789027 20.1938486,22.3789027 C20.7974703,22.3789027 21.2872541,21.8891189 21.2872541,21.2854973" id="Fill-53" fill="#4D5862"></path>
            </g>
        </g>
    </g>
</svg>