<?xml version="1.0" encoding="UTF-8"?>
<svg width="110px" height="50px" viewBox="0 0 110 50" version="1.1" xmlns="http://www.w3.org/2000/svg" xmlns:xlink="http://www.w3.org/1999/xlink">
    <!-- Generator: Sketch 46 (44423) - http://www.bohemiancoding.com/sketch -->
    <title>7 eixos dupla</title>
    <desc>Created with Sketch.</desc>
    <defs></defs>
    <g id="Symbols" stroke="none" stroke-width="1" fill="none" fill-rule="evenodd">
        <g id="7-eixos-dupla">
            <g id="Group" transform="translate(13.475098, 25.000000)" stroke="#B5BDC4">
                <path d="M77.4458008,3.4802121 L3.66209133,0.5 C2.28137945,0.5 1.16209133,1.61928813 1.16209133,3 L1.16209133,14.7775039 C1.16209133,16.1582157 2.28137945,17.2775039 3.66209133,17.2775039 L74.9458008,17.2775039 C76.3265127,17.2775039 77.4458008,16.1582157 77.4458008,14.7775039 L77.4458008,3.4802121 Z" id="Rectangle-2"></path>
                <path d="M42,17.4999585 L42,24.9679375" id="Line-2"></path>
                <path d="M36,8 L36,17.5551256" id="Line-2"></path>
                <path d="M9,8 L9,17.0255885" id="Line-2-Copy" stroke-linecap="square"></path>
                <path d="M27,8 L27,17.0255885" id="Line-2-Copy" stroke-linecap="square"></path>
                <path d="M36,8 L36,17.0255885" id="Line-2-Copy" stroke-linecap="square"></path>
                <path d="M62,8 L62,17.0255885" id="Line-2-Copy-2" stroke-linecap="square"></path>
                <path d="M53,8 L53,17.0255885" id="Line-2-Copy-3" stroke-linecap="square"></path>
            </g>
            <g id="Page-1" transform="translate(8.000000, 4.000000)">
                <path d="M47.5339,23.9193 C47.5339,21.8403 45.8489,20.1543 43.7689,20.1543 C41.6899,20.1543 40.0049,21.8403 40.0049,23.9193 C40.0049,25.9983 41.6899,27.6843 43.7689,27.6843 C45.8489,27.6843 47.5339,25.9983 47.5339,23.9193" id="Fill-1" fill="#FFFFFF"></path>
                <path d="M47.5339,23.9193 C47.5339,21.8403 45.8489,20.1543 43.7689,20.1543 C41.6899,20.1543 40.0049,21.8403 40.0049,23.9193 C40.0049,25.9983 41.6899,27.6843 43.7689,27.6843 C45.8489,27.6843 47.5339,25.9983 47.5339,23.9193 Z" id="Stroke-3" stroke="#4D5862" stroke-width="2" stroke-linecap="round" stroke-linejoin="round"></path>
                <path d="M44.6845,23.9193 C44.6845,23.4143 44.2745,23.0043 43.7695,23.0043 C43.2635,23.0043 42.8545,23.4143 42.8545,23.9193 C42.8545,24.4243 43.2635,24.8343 43.7695,24.8343 C44.2745,24.8343 44.6845,24.4243 44.6845,23.9193" id="Fill-5" fill="#4D5862"></path>
                <path d="M46.4357,24.6515 C46.4357,22.5725 44.7507,20.8865 42.6707,20.8865 C40.5917,20.8865 38.9067,22.5725 38.9067,24.6515 C38.9067,26.7305 40.5917,28.4165 42.6707,28.4165 C44.7507,28.4165 46.4357,26.7305 46.4357,24.6515" id="Fill-7" fill="#FFFFFF"></path>
                <path d="M46.4357,24.6515 C46.4357,22.5725 44.7507,20.8865 42.6707,20.8865 C40.5917,20.8865 38.9067,22.5725 38.9067,24.6515 C38.9067,26.7305 40.5917,28.4165 42.6707,28.4165 C44.7507,28.4165 46.4357,26.7305 46.4357,24.6515 Z" id="Stroke-9" stroke="#4D5862" stroke-width="2" stroke-linecap="round" stroke-linejoin="round"></path>
                <path d="M43.5863,24.6515 C43.5863,24.1465 43.1763,23.7365 42.6713,23.7365 C42.1653,23.7365 41.7563,24.1465 41.7563,24.6515 C41.7563,25.1565 42.1653,25.5665 42.6713,25.5665 C43.1763,25.5665 43.5863,25.1565 43.5863,24.6515" id="Fill-11" fill="#4D5862"></path>
                <path d="M39.1143,23.9193 C39.1143,21.8403 37.4203,22.4113 35.3413,22.4113 C33.2613,22.4113 31.5853,21.8403 31.5853,23.9193 C31.5853,25.9983 33.2703,27.6843 35.3493,27.6843 C37.4293,27.6843 39.1143,25.9983 39.1143,23.9193" id="Fill-13" fill="#FFFFFF"></path>
                <path d="M39.1143,23.9193 C39.1143,21.8403 37.4203,22.4113 35.3413,22.4113 C33.2613,22.4113 31.5853,21.8403 31.5853,23.9193 C31.5853,25.9983 33.2703,27.6843 35.3493,27.6843 C37.4293,27.6843 39.1143,25.9983 39.1143,23.9193 Z" id="Stroke-15" stroke="#4D5862" stroke-width="2" stroke-linecap="round" stroke-linejoin="round"></path>
                <path d="M36.2649,23.9193 C36.2649,23.4143 35.8549,23.0043 35.3499,23.0043 C34.8439,23.0043 34.4349,23.4143 34.4349,23.9193 C34.4349,24.4243 34.8439,24.8343 35.3499,24.8343 C35.8549,24.8343 36.2649,24.4243 36.2649,23.9193" id="Fill-17" fill="#4D5862"></path>
                <path d="M38.0161,24.6515 C38.0161,22.5725 36.3311,20.8865 34.2511,20.8865 C32.1721,20.8865 30.4871,22.5725 30.4871,24.6515 C30.4871,26.7305 32.1721,28.4165 34.2511,28.4165 C36.3311,28.4165 38.0161,26.7305 38.0161,24.6515" id="Fill-19" fill="#FFFFFF"></path>
                <path d="M38.0161,24.6515 C38.0161,22.5725 36.3311,20.8865 34.2511,20.8865 C32.1721,20.8865 30.4871,22.5725 30.4871,24.6515 C30.4871,26.7305 32.1721,28.4165 34.2511,28.4165 C36.3311,28.4165 38.0161,26.7305 38.0161,24.6515 Z" id="Stroke-21" stroke="#4D5862" stroke-width="2" stroke-linecap="round" stroke-linejoin="round"></path>
                <path d="M35.1667,24.6515 C35.1667,24.1465 34.7567,23.7365 34.2517,23.7365 C33.7457,23.7365 33.3367,24.1465 33.3367,24.6515 C33.3367,25.1565 33.7457,25.5665 34.2517,25.5665 C34.7567,25.5665 35.1667,25.1565 35.1667,24.6515" id="Fill-23" fill="#4D5862"></path>
                <path d="M64.7348,23.9193 C64.7348,21.8403 63.0498,20.1543 60.9698,20.1543 C58.8908,20.1543 57.2058,21.8403 57.2058,23.9193 C57.2058,25.9983 58.8908,27.6843 60.9698,27.6843 C63.0498,27.6843 64.7348,25.9983 64.7348,23.9193" id="Fill-25" fill="#FFFFFF"></path>
                <path d="M64.7348,23.9193 C64.7348,21.8403 63.0498,20.1543 60.9698,20.1543 C58.8908,20.1543 57.2058,21.8403 57.2058,23.9193 C57.2058,25.9983 58.8908,27.6843 60.9698,27.6843 C63.0498,27.6843 64.7348,25.9983 64.7348,23.9193 Z" id="Stroke-27" stroke="#4D5862" stroke-width="2" stroke-linecap="round" stroke-linejoin="round"></path>
                <path d="M61.8855,23.9193 C61.8855,23.4143 61.4755,23.0043 60.9705,23.0043 C60.4645,23.0043 60.0555,23.4143 60.0555,23.9193 C60.0555,24.4243 60.4645,24.8343 60.9705,24.8343 C61.4755,24.8343 61.8855,24.4243 61.8855,23.9193" id="Fill-29" fill="#4D5862"></path>
                <path d="M63.6366,24.6515 C63.6366,22.5725 61.9516,20.8865 59.8716,20.8865 C57.7926,20.8865 56.1076,22.5725 56.1076,24.6515 C56.1076,26.7305 57.7926,28.4165 59.8716,28.4165 C61.9516,28.4165 63.6366,26.7305 63.6366,24.6515" id="Fill-31" fill="#FFFFFF"></path>
                <path d="M63.6366,24.6515 C63.6366,22.5725 61.9516,20.8865 59.8716,20.8865 C57.7926,20.8865 56.1076,22.5725 56.1076,24.6515 C56.1076,26.7305 57.7926,28.4165 59.8716,28.4165 C61.9516,28.4165 63.6366,26.7305 63.6366,24.6515 Z" id="Stroke-33" stroke="#4D5862" stroke-width="2" stroke-linecap="round" stroke-linejoin="round"></path>
                <path d="M60.7873,24.6515 C60.7873,24.1465 60.3773,23.7365 59.8723,23.7365 C59.3663,23.7365 58.9573,24.1465 58.9573,24.6515 C58.9573,25.1565 59.3663,25.5665 59.8723,25.5665 C60.3773,25.5665 60.7873,25.1565 60.7873,24.6515" id="Fill-35" fill="#4D5862"></path>
                <path d="M73.2359,23.9193 C73.2359,21.8403 71.5509,20.1543 69.4709,20.1543 C67.3919,20.1543 65.7069,21.8403 65.7069,23.9193 C65.7069,25.9983 67.3919,27.6843 69.4709,27.6843 C71.5509,27.6843 73.2359,25.9983 73.2359,23.9193" id="Fill-37" fill="#FFFFFF"></path>
                <path d="M73.2359,23.9193 C73.2359,21.8403 71.5509,20.1543 69.4709,20.1543 C67.3919,20.1543 65.7069,21.8403 65.7069,23.9193 C65.7069,25.9983 67.3919,27.6843 69.4709,27.6843 C71.5509,27.6843 73.2359,25.9983 73.2359,23.9193 Z" id="Stroke-39" stroke="#4D5862" stroke-width="2" stroke-linecap="round" stroke-linejoin="round"></path>
                <path d="M70.3865,23.9193 C70.3865,23.4143 69.9765,23.0043 69.4715,23.0043 C68.9655,23.0043 68.5565,23.4143 68.5565,23.9193 C68.5565,24.4243 68.9655,24.8343 69.4715,24.8343 C69.9765,24.8343 70.3865,24.4243 70.3865,23.9193" id="Fill-41" fill="#4D5862"></path>
                <path d="M72.1377,24.6515 C72.1377,22.5725 70.4527,20.8865 68.3727,20.8865 C66.2937,20.8865 64.6087,22.5725 64.6087,24.6515 C64.6087,26.7305 66.2937,28.4165 68.3727,28.4165 C70.4527,28.4165 72.1377,26.7305 72.1377,24.6515" id="Fill-43" fill="#FFFFFF"></path>
                <path d="M72.1377,24.6515 C72.1377,22.5725 70.4527,20.8865 68.3727,20.8865 C66.2937,20.8865 64.6087,22.5725 64.6087,24.6515 C64.6087,26.7305 66.2937,28.4165 68.3727,28.4165 C70.4527,28.4165 72.1377,26.7305 72.1377,24.6515 Z" id="Stroke-45" stroke="#4D5862" stroke-width="2" stroke-linecap="round" stroke-linejoin="round"></path>
                <path d="M69.2883,24.6515 C69.2883,24.1465 68.8783,23.7365 68.3733,23.7365 C67.8673,23.7365 67.4583,24.1465 67.4583,24.6515 C67.4583,25.1565 67.8673,25.5665 68.3733,25.5665 C68.8783,25.5665 69.2883,25.1565 69.2883,24.6515" id="Fill-47" fill="#4D5862"></path>
                <path d="M20.6726,23.9193 C20.6726,21.8403 18.9876,20.1543 16.9076,20.1543 C14.8286,20.1543 13.1436,21.8403 13.1436,23.9193 C13.1436,25.9983 14.8286,27.6843 16.9076,27.6843 C18.9876,27.6843 20.6726,25.9983 20.6726,23.9193" id="Fill-49" fill="#FFFFFF"></path>
                <path d="M20.6726,23.9193 C20.6726,21.8403 18.9876,20.1543 16.9076,20.1543 C14.8286,20.1543 13.1436,21.8403 13.1436,23.9193 C13.1436,25.9983 14.8286,27.6843 16.9076,27.6843 C18.9876,27.6843 20.6726,25.9983 20.6726,23.9193 Z" id="Stroke-51" stroke="#4D5862" stroke-width="2" stroke-linecap="round" stroke-linejoin="round"></path>
                <path d="M17.8233,23.9193 C17.8233,23.4143 17.4133,23.0043 16.9083,23.0043 C16.4023,23.0043 15.9933,23.4143 15.9933,23.9193 C15.9933,24.4243 16.4023,24.8343 16.9083,24.8343 C17.4133,24.8343 17.8233,24.4243 17.8233,23.9193" id="Fill-53" fill="#4D5862"></path>
                <path d="M19.5744,24.6515 C19.5744,22.5725 17.8894,20.8865 15.8094,20.8865 C13.7304,20.8865 12.0454,22.5725 12.0454,24.6515 C12.0454,26.7305 13.7304,28.4165 15.8094,28.4165 C17.8894,28.4165 19.5744,26.7305 19.5744,24.6515" id="Fill-55" fill="#FFFFFF"></path>
                <path d="M19.5744,24.6515 C19.5744,22.5725 17.8894,20.8865 15.8094,20.8865 C13.7304,20.8865 12.0454,22.5725 12.0454,24.6515 C12.0454,26.7305 13.7304,28.4165 15.8094,28.4165 C17.8894,28.4165 19.5744,26.7305 19.5744,24.6515 Z" id="Stroke-57" stroke="#4D5862" stroke-width="2" stroke-linecap="round" stroke-linejoin="round"></path>
                <path d="M16.725,24.6515 C16.725,24.1465 16.315,23.7365 15.81,23.7365 C15.304,23.7365 14.895,24.1465 14.895,24.6515 C14.895,25.1565 15.304,25.5665 15.81,25.5665 C16.315,25.5665 16.725,25.1565 16.725,24.6515" id="Fill-59" fill="#4D5862"></path>
                <path d="M12.253,23.9193 C12.253,21.8403 10.568,20.1543 8.488,20.1543 C6.409,20.1543 4.724,21.8403 4.724,23.9193 C4.724,25.9983 6.409,27.6843 8.488,27.6843 C10.568,27.6843 12.253,25.9983 12.253,23.9193" id="Fill-61" fill="#FFFFFF"></path>
                <path d="M12.253,23.9193 C12.253,21.8403 10.568,20.1543 8.488,20.1543 C6.409,20.1543 4.724,21.8403 4.724,23.9193 C4.724,25.9983 6.409,27.6843 8.488,27.6843 C10.568,27.6843 12.253,25.9983 12.253,23.9193 Z" id="Stroke-63" stroke="#4D5862" stroke-width="2" stroke-linecap="round" stroke-linejoin="round"></path>
                <path d="M9.4036,23.9193 C9.4036,23.4143 8.9936,23.0043 8.4886,23.0043 C7.9826,23.0043 7.5736,23.4143 7.5736,23.9193 C7.5736,24.4243 7.9826,24.8343 8.4886,24.8343 C8.9936,24.8343 9.4036,24.4243 9.4036,23.9193" id="Fill-65" fill="#4D5862"></path>
                <path d="M11.1548,24.6515 C11.1548,22.5725 9.4698,20.8865 7.3898,20.8865 C5.3108,20.8865 3.6258,22.5725 3.6258,24.6515 C3.6258,26.7305 5.3108,28.4165 7.3898,28.4165 C9.4698,28.4165 11.1548,26.7305 11.1548,24.6515" id="Fill-67" fill="#FFFFFF"></path>
                <path d="M11.1548,24.6515 C11.1548,22.5725 9.4698,20.8865 7.3898,20.8865 C5.3108,20.8865 3.6258,22.5725 3.6258,24.6515 C3.6258,26.7305 5.3108,28.4165 7.3898,28.4165 C9.4698,28.4165 11.1548,26.7305 11.1548,24.6515 Z" id="Stroke-69" stroke="#4D5862" stroke-width="2" stroke-linecap="round" stroke-linejoin="round"></path>
                <path d="M8.3054,24.6515 C8.3054,24.1465 7.8954,23.7365 7.3904,23.7365 C6.8844,23.7365 6.4754,24.1465 6.4754,24.6515 C6.4754,25.1565 6.8844,25.5665 7.3904,25.5665 C7.8954,25.5665 8.3054,25.1565 8.3054,24.6515" id="Fill-71" fill="#4D5862"></path>
                <path d="M87.8235,24.6515 C87.8235,22.5725 86.1385,20.8865 84.0585,20.8865 C81.9795,20.8865 80.2945,22.5725 80.2945,24.6515 C80.2945,26.7305 81.9795,28.4165 84.0585,28.4165 C86.1385,28.4165 87.8235,26.7305 87.8235,24.6515" id="Fill-73" fill="#FFFFFF"></path>
                <path d="M87.8235,24.6515 C87.8235,22.5725 86.1385,20.8865 84.0585,20.8865 C81.9795,20.8865 80.2945,22.5725 80.2945,24.6515 C80.2945,26.7305 81.9795,28.4165 84.0585,28.4165 C86.1385,28.4165 87.8235,26.7305 87.8235,24.6515 Z" id="Stroke-75" stroke="#4D5862" stroke-width="2" stroke-linecap="round" stroke-linejoin="round"></path>
                <path d="M76.7091,23.2447 L5.0761,23.2447 L1.5851,23.2447 C0.7081,23.2447 -0.0019,22.5337 0.0001,21.6567 L0.0041,18.5847 L36.5951,18.6357 L36.5951,21.8007 L39.3541,21.8037 L39.3541,18.6417 L74.1661,18.6877 L74.1661,20.3907 L76.7091,22.0687 L76.7091,23.2447 Z" id="Fill-77" fill="#FFFFFF"></path>
                <path d="M76.7091,23.2447 L5.0761,23.2447 L1.5851,23.2447 C0.7081,23.2447 -0.0019,22.5337 0.0001,21.6567 L0.0041,18.5847 L36.5951,18.6357 L36.5951,21.8007 L39.3541,21.8037 L39.3541,18.6417 L74.1661,18.6877 L74.1661,20.3907 L76.7091,22.0687 L76.7091,23.2447 Z" id="Stroke-79" stroke="#4D5862" stroke-width="2" stroke-linecap="round" stroke-linejoin="round"></path>
                <path d="M76.7098,23.2492 L76.7148,5.0132 C76.7188,3.8152 77.6918,2.8452 78.8908,2.8452 L86.8868,2.8452 C87.8378,2.8452 88.7098,3.3722 89.1528,4.2142 L93.6898,12.8492 C93.9158,13.1672 94.0368,13.5482 94.0358,13.9392 L94.0228,19.8272 C94.0188,21.7162 92.4868,23.2452 90.6278,23.2452 L76.7098,23.2492 Z" id="Fill-81" fill="#FFFFFF"></path>
                <path d="M76.7098,23.2492 L76.7148,5.0132 C76.7188,3.8152 77.6918,2.8452 78.8908,2.8452 L86.8868,2.8452 C87.8378,2.8452 88.7098,3.3722 89.1528,4.2142 L93.6898,12.8492 C93.9158,13.1672 94.0368,13.5482 94.0358,13.9392 L94.0228,19.8272 C94.0188,21.7162 92.4868,23.2452 90.6278,23.2452 L76.7098,23.2492 Z" id="Stroke-83" stroke="#4D5862" stroke-width="2" stroke-linecap="round" stroke-linejoin="round"></path>
                <path d="M84.9741,23.6947 C84.9741,23.1897 84.5641,22.7797 84.0591,22.7797 C83.5531,22.7797 83.1441,23.1897 83.1441,23.6947 C83.1441,24.1997 83.5531,24.6097 84.0591,24.6097 C84.5641,24.6097 84.9741,24.1997 84.9741,23.6947" id="Fill-85" fill="#4D5862"></path>
                <path d="M74.1482,18.9525 L39.3482,18.9525 L39.3482,4.3305 C39.3482,1.9385 41.2872,0.0005 43.6782,0.0005 L69.8182,0.0005 C72.2092,0.0005 74.1482,1.9385 74.1482,4.3305 L74.1482,18.9525 Z" id="Fill-87" fill="#FFFFFF"></path>
                <path d="M74.1482,18.9525 L39.3482,18.9525 L39.3482,4.3305 C39.3482,1.9385 41.2872,0.0005 43.6782,0.0005 L69.8182,0.0005 C72.2092,0.0005 74.1482,1.9385 74.1482,4.3305 L74.1482,18.9525 Z" id="Stroke-89" stroke="#4D5862" stroke-width="2" stroke-linecap="round" stroke-linejoin="round"></path>
                <path d="M36.5821,18.9525 L0.0001,18.9525 L0.0001,4.3305 C0.0001,1.9385 1.9391,0.0005 4.3301,0.0005 L32.2521,0.0005 C34.6431,0.0005 36.5821,1.9385 36.5821,4.3305 L36.5821,18.9525 Z" id="Fill-91" fill="#FFFFFF"></path>
                <path d="M36.5821,18.9525 L0.0001,18.9525 L0.0001,4.3305 C0.0001,1.9385 1.9391,0.0005 4.3301,0.0005 L32.2521,0.0005 C34.6431,0.0005 36.5821,1.9385 36.5821,4.3305 L36.5821,18.9525 Z" id="Stroke-93" stroke="#4D5862" stroke-width="2" stroke-linecap="round" stroke-linejoin="round"></path>
                <path d="M85.4365,15.186 L88.4195,15.186" id="Stroke-95" stroke="#4D5862" stroke-width="2" stroke-linecap="round" stroke-linejoin="round"></path>
                <path d="M93.3254,12.6211 L83.3884,12.5901 C82.3774,12.5871 81.5614,11.7641 81.5644,10.7541 L81.5764,7.4211 C81.5794,6.4101 82.4024,5.5931 83.4134,5.5971 L89.5984,5.6111" id="Stroke-97" stroke="#4D5862" stroke-width="2" stroke-linecap="round" stroke-linejoin="round"></path>
                <path d="M86.7253,25.0176 C86.7253,22.9386 85.0403,21.2526 82.9603,21.2526 C80.8813,21.2526 79.1963,22.9386 79.1963,25.0176 C79.1963,27.0966 80.8813,28.7826 82.9603,28.7826 C85.0403,28.7826 86.7253,27.0966 86.7253,25.0176" id="Fill-99" fill="#FFFFFF"></path>
                <path d="M86.7253,25.0176 C86.7253,22.9386 85.0403,21.2526 82.9603,21.2526 C80.8813,21.2526 79.1963,22.9386 79.1963,25.0176 C79.1963,27.0966 80.8813,28.7826 82.9603,28.7826 C85.0403,28.7826 86.7253,27.0966 86.7253,25.0176 Z" id="Stroke-101" stroke="#4D5862" stroke-width="2" stroke-linecap="round" stroke-linejoin="round"></path>
                <path d="M83.8759,25.0176 C83.8759,24.5126 83.4659,24.1026 82.9609,24.1026 C82.4549,24.1026 82.0459,24.5126 82.0459,25.0176 C82.0459,25.5226 82.4549,25.9326 82.9609,25.9326 C83.4659,25.9326 83.8759,25.5226 83.8759,25.0176" id="Fill-103" fill="#4D5862"></path>
                <path d="M36.9178,25.0176 C36.9178,22.9386 35.2328,21.2526 33.1528,21.2526 C31.0738,21.2526 29.3888,22.9386 29.3888,25.0176 C29.3888,27.0966 31.0738,28.7826 33.1528,28.7826 C35.2328,28.7826 36.9178,27.0966 36.9178,25.0176" id="Fill-105" fill="#FFFFFF"></path>
                <path d="M36.9178,25.0176 C36.9178,22.9386 35.2328,21.2526 33.1528,21.2526 C31.0738,21.2526 29.3888,22.9386 29.3888,25.0176 C29.3888,27.0966 31.0738,28.7826 33.1528,28.7826 C35.2328,28.7826 36.9178,27.0966 36.9178,25.0176 Z" id="Stroke-107" stroke="#4D5862" stroke-width="2" stroke-linecap="round" stroke-linejoin="round"></path>
                <path d="M34.0685,25.0176 C34.0685,24.5126 33.6585,24.1026 33.1535,24.1026 C32.6475,24.1026 32.2385,24.5126 32.2385,25.0176 C32.2385,25.5226 32.6475,25.9326 33.1535,25.9326 C33.6585,25.9326 34.0685,25.5226 34.0685,25.0176" id="Fill-109" fill="#4D5862"></path>
                <path d="M45.3375,25.0176 C45.3375,22.9386 43.6525,21.2526 41.5725,21.2526 C39.4935,21.2526 37.8085,22.9386 37.8085,25.0176 C37.8085,27.0966 39.4935,28.7826 41.5725,28.7826 C43.6525,28.7826 45.3375,27.0966 45.3375,25.0176" id="Fill-111" fill="#FFFFFF"></path>
                <path d="M45.3375,25.0176 C45.3375,22.9386 43.6525,21.2526 41.5725,21.2526 C39.4935,21.2526 37.8085,22.9386 37.8085,25.0176 C37.8085,27.0966 39.4935,28.7826 41.5725,28.7826 C43.6525,28.7826 45.3375,27.0966 45.3375,25.0176 Z" id="Stroke-113" stroke="#4D5862" stroke-width="2" stroke-linecap="round" stroke-linejoin="round"></path>
                <path d="M42.4881,25.0176 C42.4881,24.5126 42.0781,24.1026 41.5731,24.1026 C41.0671,24.1026 40.6581,24.5126 40.6581,25.0176 C40.6581,25.5226 41.0671,25.9326 41.5731,25.9326 C42.0781,25.9326 42.4881,25.5226 42.4881,25.0176" id="Fill-115" fill="#4D5862"></path>
                <path d="M71.0395,25.0176 C71.0395,22.9386 69.3545,21.2526 67.2745,21.2526 C65.1955,21.2526 63.5105,22.9386 63.5105,25.0176 C63.5105,27.0966 65.1955,28.7826 67.2745,28.7826 C69.3545,28.7826 71.0395,27.0966 71.0395,25.0176" id="Fill-117" fill="#FFFFFF"></path>
                <path d="M71.0395,25.0176 C71.0395,22.9386 69.3545,21.2526 67.2745,21.2526 C65.1955,21.2526 63.5105,22.9386 63.5105,25.0176 C63.5105,27.0966 65.1955,28.7826 67.2745,28.7826 C69.3545,28.7826 71.0395,27.0966 71.0395,25.0176 Z" id="Stroke-119" stroke="#4D5862" stroke-width="2" stroke-linecap="round" stroke-linejoin="round"></path>
                <path d="M68.1901,25.0176 C68.1901,24.5126 67.7801,24.1026 67.2751,24.1026 C66.7691,24.1026 66.3601,24.5126 66.3601,25.0176 C66.3601,25.5226 66.7691,25.9326 67.2751,25.9326 C67.7801,25.9326 68.1901,25.5226 68.1901,25.0176" id="Fill-121" fill="#4D5862"></path>
                <path d="M62.5384,25.0176 C62.5384,22.9386 60.8534,21.2526 58.7734,21.2526 C56.6944,21.2526 55.0094,22.9386 55.0094,25.0176 C55.0094,27.0966 56.6944,28.7826 58.7734,28.7826 C60.8534,28.7826 62.5384,27.0966 62.5384,25.0176" id="Fill-123" fill="#FFFFFF"></path>
                <path d="M62.5384,25.0176 C62.5384,22.9386 60.8534,21.2526 58.7734,21.2526 C56.6944,21.2526 55.0094,22.9386 55.0094,25.0176 C55.0094,27.0966 56.6944,28.7826 58.7734,28.7826 C60.8534,28.7826 62.5384,27.0966 62.5384,25.0176 Z" id="Stroke-125" stroke="#4D5862" stroke-width="2" stroke-linecap="round" stroke-linejoin="round"></path>
                <path d="M59.6891,25.0176 C59.6891,24.5126 59.2791,24.1026 58.7741,24.1026 C58.2681,24.1026 57.8591,24.5126 57.8591,25.0176 C57.8591,25.5226 58.2681,25.9326 58.7741,25.9326 C59.2791,25.9326 59.6891,25.5226 59.6891,25.0176" id="Fill-127" fill="#4D5862"></path>
                <path d="M10.0565,25.0176 C10.0565,22.9386 8.3715,21.2526 6.2915,21.2526 C4.2125,21.2526 2.5275,22.9386 2.5275,25.0176 C2.5275,27.0966 4.2125,28.7826 6.2915,28.7826 C8.3715,28.7826 10.0565,27.0966 10.0565,25.0176" id="Fill-129" fill="#FFFFFF"></path>
                <path d="M10.0565,25.0176 C10.0565,22.9386 8.3715,21.2526 6.2915,21.2526 C4.2125,21.2526 2.5275,22.9386 2.5275,25.0176 C2.5275,27.0966 4.2125,28.7826 6.2915,28.7826 C8.3715,28.7826 10.0565,27.0966 10.0565,25.0176 Z" id="Stroke-131" stroke="#4D5862" stroke-width="2" stroke-linecap="round" stroke-linejoin="round"></path>
                <path d="M7.2072,25.0176 C7.2072,24.5126 6.7972,24.1026 6.2922,24.1026 C5.7862,24.1026 5.3772,24.5126 5.3772,25.0176 C5.3772,25.5226 5.7862,25.9326 6.2922,25.9326 C6.7972,25.9326 7.2072,25.5226 7.2072,25.0176" id="Fill-133" fill="#4D5862"></path>
                <path d="M18.4762,25.0176 C18.4762,22.9386 16.7912,21.2526 14.7112,21.2526 C12.6322,21.2526 10.9472,22.9386 10.9472,25.0176 C10.9472,27.0966 12.6322,28.7826 14.7112,28.7826 C16.7912,28.7826 18.4762,27.0966 18.4762,25.0176" id="Fill-135" fill="#FFFFFF"></path>
                <path d="M18.4762,25.0176 C18.4762,22.9386 16.7912,21.2526 14.7112,21.2526 C12.6322,21.2526 10.9472,22.9386 10.9472,25.0176 C10.9472,27.0966 12.6322,28.7826 14.7112,28.7826 C16.7912,28.7826 18.4762,27.0966 18.4762,25.0176 Z" id="Stroke-137" stroke="#4D5862" stroke-width="2" stroke-linecap="round" stroke-linejoin="round"></path>
                <path d="M15.6268,25.0176 C15.6268,24.5126 15.2168,24.1026 14.7118,24.1026 C14.2058,24.1026 13.7968,24.5126 13.7968,25.0176 C13.7968,25.5226 14.2058,25.9326 14.7118,25.9326 C15.2168,25.9326 15.6268,25.5226 15.6268,25.0176" id="Fill-139" fill="#4D5862"></path>
            </g>
        </g>
    </g>
</svg>