<?xml version="1.0" encoding="UTF-8"?>
<svg width="110px" height="50px" viewBox="0 0 110 50" version="1.1" xmlns="http://www.w3.org/2000/svg" xmlns:xlink="http://www.w3.org/1999/xlink">
    <!-- Generator: Sketch 46 (44423) - http://www.bohemiancoding.com/sketch -->
    <title>8 eixos dupla</title>
    <desc>Created with Sketch.</desc>
    <defs></defs>
    <g id="Symbols" stroke="none" stroke-width="1" fill="none" fill-rule="evenodd">
        <g id="8-eixos-dupla">
            <g id="Group" transform="translate(11.508301, 24.000000)" stroke="#B5BDC4">
                <path d="M81.3766612,3.48111593 L3.96386719,0.5 C2.58315531,0.5 1.46386719,1.61928813 1.46386719,3 L1.46386719,15.7775039 C1.46386719,17.1582157 2.58315531,18.2775039 3.96386719,18.2775039 L78.8766612,18.2775039 C80.2573731,18.2775039 81.3766612,17.1582157 81.3766612,15.7775039 L81.3766612,3.48111593 Z" id="Rectangle-2"></path>
                <path d="M44.0504307,9 L44.0504307,25.9679375" id="Line-2"></path>
                <path d="M10.4538762,9 L10.4538762,18.0255885" id="Line-2-Copy" stroke-linecap="square"></path>
                <path d="M24.0504307,9 L24.0504307,18.0255885" id="Line-2-Copy" stroke-linecap="square"></path>
                <path d="M34.0504307,9 L34.0504307,18.0255885" id="Line-2-Copy" stroke-linecap="square"></path>
                <path d="M66.1267027,9 L66.1267027,18.0255885" id="Line-2-Copy-2" stroke-linecap="square"></path>
                <path d="M56.6728265,9 L56.6728265,18.0255885" id="Line-2-Copy-3" stroke-linecap="square"></path>
            </g>
            <g id="Page-1" transform="translate(7.000000, 4.000000)">
                <path d="M20.6726,23.9193 C20.6726,21.8403 18.9876,20.1543 16.9076,20.1543 C14.8286,20.1543 13.1436,21.8403 13.1436,23.9193 C13.1436,25.9983 14.8286,27.6843 16.9076,27.6843 C18.9876,27.6843 20.6726,25.9983 20.6726,23.9193" id="Fill-1" fill="#FFFFFF"></path>
                <path d="M20.6726,23.9193 C20.6726,21.8403 18.9876,20.1543 16.9076,20.1543 C14.8286,20.1543 13.1436,21.8403 13.1436,23.9193 C13.1436,25.9983 14.8286,27.6843 16.9076,27.6843 C18.9876,27.6843 20.6726,25.9983 20.6726,23.9193 Z" id="Stroke-3" stroke="#4D5862" stroke-width="2" stroke-linecap="round" stroke-linejoin="round"></path>
                <path d="M17.8233,23.9193 C17.8233,23.4143 17.4133,23.0043 16.9083,23.0043 C16.4023,23.0043 15.9933,23.4143 15.9933,23.9193 C15.9933,24.4243 16.4023,24.8343 16.9083,24.8343 C17.4133,24.8343 17.8233,24.4243 17.8233,23.9193" id="Fill-5" fill="#4D5862"></path>
                <path d="M19.5744,24.6515 C19.5744,22.5725 17.8894,20.8865 15.8094,20.8865 C13.7304,20.8865 12.0454,22.5725 12.0454,24.6515 C12.0454,26.7305 13.7304,28.4165 15.8094,28.4165 C17.8894,28.4165 19.5744,26.7305 19.5744,24.6515" id="Fill-7" fill="#FFFFFF"></path>
                <path d="M19.5744,24.6515 C19.5744,22.5725 17.8894,20.8865 15.8094,20.8865 C13.7304,20.8865 12.0454,22.5725 12.0454,24.6515 C12.0454,26.7305 13.7304,28.4165 15.8094,28.4165 C17.8894,28.4165 19.5744,26.7305 19.5744,24.6515 Z" id="Stroke-9" stroke="#4D5862" stroke-width="2" stroke-linecap="round" stroke-linejoin="round"></path>
                <path d="M16.725,24.6515 C16.725,24.1465 16.315,23.7365 15.81,23.7365 C15.304,23.7365 14.895,24.1465 14.895,24.6515 C14.895,25.1565 15.304,25.5665 15.81,25.5665 C16.315,25.5665 16.725,25.1565 16.725,24.6515" id="Fill-11" fill="#4D5862"></path>
                <path d="M12.253,23.9193 C12.253,21.8403 10.568,20.1543 8.488,20.1543 C6.409,20.1543 4.724,21.8403 4.724,23.9193 C4.724,25.9983 6.409,27.6843 8.488,27.6843 C10.568,27.6843 12.253,25.9983 12.253,23.9193" id="Fill-13" fill="#FFFFFF"></path>
                <path d="M12.253,23.9193 C12.253,21.8403 10.568,20.1543 8.488,20.1543 C6.409,20.1543 4.724,21.8403 4.724,23.9193 C4.724,25.9983 6.409,27.6843 8.488,27.6843 C10.568,27.6843 12.253,25.9983 12.253,23.9193 Z" id="Stroke-15" stroke="#4D5862" stroke-width="2" stroke-linecap="round" stroke-linejoin="round"></path>
                <path d="M9.4036,23.9193 C9.4036,23.4143 8.9936,23.0043 8.4886,23.0043 C7.9826,23.0043 7.5736,23.4143 7.5736,23.9193 C7.5736,24.4243 7.9826,24.8343 8.4886,24.8343 C8.9936,24.8343 9.4036,24.4243 9.4036,23.9193" id="Fill-17" fill="#4D5862"></path>
                <path d="M11.1548,24.6515 C11.1548,22.5725 9.4698,20.8865 7.3898,20.8865 C5.3108,20.8865 3.6258,22.5725 3.6258,24.6515 C3.6258,26.7305 5.3108,28.4165 7.3898,28.4165 C9.4698,28.4165 11.1548,26.7305 11.1548,24.6515" id="Fill-19" fill="#FFFFFF"></path>
                <path d="M11.1548,24.6515 C11.1548,22.5725 9.4698,20.8865 7.3898,20.8865 C5.3108,20.8865 3.6258,22.5725 3.6258,24.6515 C3.6258,26.7305 5.3108,28.4165 7.3898,28.4165 C9.4698,28.4165 11.1548,26.7305 11.1548,24.6515 Z" id="Stroke-21" stroke="#4D5862" stroke-width="2" stroke-linecap="round" stroke-linejoin="round"></path>
                <path d="M8.3054,24.6515 C8.3054,24.1465 7.8954,23.7365 7.3904,23.7365 C6.8844,23.7365 6.4754,24.1465 6.4754,24.6515 C6.4754,25.1565 6.8844,25.5665 7.3904,25.5665 C7.8954,25.5665 8.3054,25.1565 8.3054,24.6515" id="Fill-23" fill="#4D5862"></path>
                <path d="M35.2889,23.9193 C35.2889,21.8403 33.6799,23.1533 31.6009,23.1533 C29.5219,23.1533 27.7599,21.8403 27.7599,23.9193 C27.7599,25.9983 29.4449,27.6843 31.5239,27.6843 C33.6039,27.6843 35.2889,25.9983 35.2889,23.9193" id="Fill-25" fill="#FFFFFF"></path>
                <path d="M35.2889,23.9193 C35.2889,21.8403 33.6799,23.1533 31.6009,23.1533 C29.5219,23.1533 27.7599,21.8403 27.7599,23.9193 C27.7599,25.9983 29.4449,27.6843 31.5239,27.6843 C33.6039,27.6843 35.2889,25.9983 35.2889,23.9193 Z" id="Stroke-27" stroke="#4D5862" stroke-width="2" stroke-linecap="round" stroke-linejoin="round"></path>
                <path d="M32.4396,23.9193 C32.4396,23.4143 32.0296,23.0043 31.5246,23.0043 C31.0186,23.0043 30.6096,23.4143 30.6096,23.9193 C30.6096,24.4243 31.0186,24.8343 31.5246,24.8343 C32.0296,24.8343 32.4396,24.4243 32.4396,23.9193" id="Fill-29" fill="#4D5862"></path>
                <path d="M34.1907,24.6515 C34.1907,22.5725 32.5057,20.8865 30.4257,20.8865 C28.3467,20.8865 26.6617,22.5725 26.6617,24.6515 C26.6617,26.7305 28.3467,28.4165 30.4257,28.4165 C32.5057,28.4165 34.1907,26.7305 34.1907,24.6515" id="Fill-31" fill="#FFFFFF"></path>
                <path d="M34.1907,24.6515 C34.1907,22.5725 32.5057,20.8865 30.4257,20.8865 C28.3467,20.8865 26.6617,22.5725 26.6617,24.6515 C26.6617,26.7305 28.3467,28.4165 30.4257,28.4165 C32.5057,28.4165 34.1907,26.7305 34.1907,24.6515 Z" id="Stroke-33" stroke="#4D5862" stroke-width="2" stroke-linecap="round" stroke-linejoin="round"></path>
                <path d="M31.3413,24.6515 C31.3413,24.1465 30.9313,23.7365 30.4263,23.7365 C29.9203,23.7365 29.5113,24.1465 29.5113,24.6515 C29.5113,25.1565 29.9203,25.5665 30.4263,25.5665 C30.9313,25.5665 31.3413,25.1565 31.3413,24.6515" id="Fill-35" fill="#4D5862"></path>
                <path d="M67.1349,23.9193 C67.1349,21.8403 65.4499,20.1543 63.3699,20.1543 C61.2909,20.1543 59.6059,21.8403 59.6059,23.9193 C59.6059,25.9983 61.2909,27.6843 63.3699,27.6843 C65.4499,27.6843 67.1349,25.9983 67.1349,23.9193" id="Fill-37" fill="#FFFFFF"></path>
                <path d="M67.1349,23.9193 C67.1349,21.8403 65.4499,20.1543 63.3699,20.1543 C61.2909,20.1543 59.6059,21.8403 59.6059,23.9193 C59.6059,25.9983 61.2909,27.6843 63.3699,27.6843 C65.4499,27.6843 67.1349,25.9983 67.1349,23.9193 Z" id="Stroke-39" stroke="#4D5862" stroke-width="2" stroke-linecap="round" stroke-linejoin="round"></path>
                <path d="M64.2855,23.9193 C64.2855,23.4143 63.8755,23.0043 63.3705,23.0043 C62.8645,23.0043 62.4555,23.4143 62.4555,23.9193 C62.4555,24.4243 62.8645,24.8343 63.3705,24.8343 C63.8755,24.8343 64.2855,24.4243 64.2855,23.9193" id="Fill-41" fill="#4D5862"></path>
                <path d="M66.0366,24.6515 C66.0366,22.5725 64.3516,20.8865 62.2716,20.8865 C60.1926,20.8865 58.5076,22.5725 58.5076,24.6515 C58.5076,26.7305 60.1926,28.4165 62.2716,28.4165 C64.3516,28.4165 66.0366,26.7305 66.0366,24.6515" id="Fill-43" fill="#FFFFFF"></path>
                <path d="M66.0366,24.6515 C66.0366,22.5725 64.3516,20.8865 62.2716,20.8865 C60.1926,20.8865 58.5076,22.5725 58.5076,24.6515 C58.5076,26.7305 60.1926,28.4165 62.2716,28.4165 C64.3516,28.4165 66.0366,26.7305 66.0366,24.6515 Z" id="Stroke-45" stroke="#4D5862" stroke-width="2" stroke-linecap="round" stroke-linejoin="round"></path>
                <path d="M63.1873,24.6515 C63.1873,24.1465 62.7773,23.7365 62.2723,23.7365 C61.7663,23.7365 61.3573,24.1465 61.3573,24.6515 C61.3573,25.1565 61.7663,25.5665 62.2723,25.5665 C62.7773,25.5665 63.1873,25.1565 63.1873,24.6515" id="Fill-47" fill="#4D5862"></path>
                <path d="M52.0658,23.9193 C52.0658,21.8403 50.3808,20.1543 48.3008,20.1543 C46.2218,20.1543 44.5368,21.8403 44.5368,23.9193 C44.5368,25.9983 46.2218,27.6843 48.3008,27.6843 C50.3808,27.6843 52.0658,25.9983 52.0658,23.9193" id="Fill-49" fill="#FFFFFF"></path>
                <path d="M52.0658,23.9193 C52.0658,21.8403 50.3808,20.1543 48.3008,20.1543 C46.2218,20.1543 44.5368,21.8403 44.5368,23.9193 C44.5368,25.9983 46.2218,27.6843 48.3008,27.6843 C50.3808,27.6843 52.0658,25.9983 52.0658,23.9193 Z" id="Stroke-51" stroke="#4D5862" stroke-width="2" stroke-linecap="round" stroke-linejoin="round"></path>
                <path d="M49.2164,23.9193 C49.2164,23.4143 48.8064,23.0043 48.3014,23.0043 C47.7954,23.0043 47.3864,23.4143 47.3864,23.9193 C47.3864,24.4243 47.7954,24.8343 48.3014,24.8343 C48.8064,24.8343 49.2164,24.4243 49.2164,23.9193" id="Fill-53" fill="#4D5862"></path>
                <path d="M50.9676,24.6515 C50.9676,22.5725 49.2826,20.8865 47.2026,20.8865 C45.1236,20.8865 43.4386,22.5725 43.4386,24.6515 C43.4386,26.7305 45.1236,28.4165 47.2026,28.4165 C49.2826,28.4165 50.9676,26.7305 50.9676,24.6515" id="Fill-55" fill="#FFFFFF"></path>
                <path d="M50.9676,24.6515 C50.9676,22.5725 49.2826,20.8865 47.2026,20.8865 C45.1236,20.8865 43.4386,22.5725 43.4386,24.6515 C43.4386,26.7305 45.1236,28.4165 47.2026,28.4165 C49.2826,28.4165 50.9676,26.7305 50.9676,24.6515 Z" id="Stroke-57" stroke="#4D5862" stroke-width="2" stroke-linecap="round" stroke-linejoin="round"></path>
                <path d="M48.1182,24.6515 C48.1182,24.1465 47.7082,23.7365 47.2032,23.7365 C46.6972,23.7365 46.2882,24.1465 46.2882,24.6515 C46.2882,25.1565 46.6972,25.5665 47.2032,25.5665 C47.7082,25.5665 48.1182,25.1565 48.1182,24.6515" id="Fill-59" fill="#4D5862"></path>
                <path d="M90.2234,24.6515 C90.2234,22.5725 88.5384,20.8865 86.4584,20.8865 C84.3794,20.8865 82.6944,22.5725 82.6944,24.6515 C82.6944,26.7305 84.3794,28.4165 86.4584,28.4165 C88.5384,28.4165 90.2234,26.7305 90.2234,24.6515" id="Fill-61" fill="#FFFFFF"></path>
                <path d="M90.2234,24.6515 C90.2234,22.5725 88.5384,20.8865 86.4584,20.8865 C84.3794,20.8865 82.6944,22.5725 82.6944,24.6515 C82.6944,26.7305 84.3794,28.4165 86.4584,28.4165 C88.5384,28.4165 90.2234,26.7305 90.2234,24.6515 Z" id="Stroke-63" stroke="#4D5862" stroke-width="2" stroke-linecap="round" stroke-linejoin="round"></path>
                <path d="M43.6461,23.9193 C43.6461,21.8403 41.9611,21.1073 39.8811,21.1073 C37.8021,21.1073 36.1171,21.8403 36.1171,23.9193 C36.1171,25.9983 37.8021,27.6843 39.8811,27.6843 C41.9611,27.6843 43.6461,25.9983 43.6461,23.9193" id="Fill-65" fill="#FFFFFF"></path>
                <path d="M43.6461,23.9193 C43.6461,21.8403 41.9611,21.1073 39.8811,21.1073 C37.8021,21.1073 36.1171,21.8403 36.1171,23.9193 C36.1171,25.9983 37.8021,27.6843 39.8811,27.6843 C41.9611,27.6843 43.6461,25.9983 43.6461,23.9193 Z" id="Stroke-67" stroke="#4D5862" stroke-width="2" stroke-linecap="round" stroke-linejoin="round"></path>
                <path d="M40.7968,23.9193 C40.7968,23.4143 40.3868,23.0043 39.8818,23.0043 C39.3758,23.0043 38.9668,23.4143 38.9668,23.9193 C38.9668,24.4243 39.3758,24.8343 39.8818,24.8343 C40.3868,24.8343 40.7968,24.4243 40.7968,23.9193" id="Fill-69" fill="#4D5862"></path>
                <path d="M42.5479,24.6515 C42.5479,22.5725 40.8629,20.8865 38.7829,20.8865 C36.7039,20.8865 35.0189,22.5725 35.0189,24.6515 C35.0189,26.7305 36.7039,28.4165 38.7829,28.4165 C40.8629,28.4165 42.5479,26.7305 42.5479,24.6515" id="Fill-71" fill="#FFFFFF"></path>
                <path d="M42.5479,24.6515 C42.5479,22.5725 40.8629,20.8865 38.7829,20.8865 C36.7039,20.8865 35.0189,22.5725 35.0189,24.6515 C35.0189,26.7305 36.7039,28.4165 38.7829,28.4165 C40.8629,28.4165 42.5479,26.7305 42.5479,24.6515 Z" id="Stroke-73" stroke="#4D5862" stroke-width="2" stroke-linecap="round" stroke-linejoin="round"></path>
                <path d="M39.6986,24.6515 C39.6986,24.1465 39.2886,23.7365 38.7836,23.7365 C38.2776,23.7365 37.8686,24.1465 37.8686,24.6515 C37.8686,25.1565 38.2776,25.5665 38.7836,25.5665 C39.2886,25.5665 39.6986,25.1565 39.6986,24.6515" id="Fill-75" fill="#4D5862"></path>
                <path d="M75.6359,23.9193 C75.6359,21.8403 73.9509,20.1543 71.8709,20.1543 C69.7919,20.1543 68.1069,21.8403 68.1069,23.9193 C68.1069,25.9983 69.7919,27.6843 71.8709,27.6843 C73.9509,27.6843 75.6359,25.9983 75.6359,23.9193" id="Fill-77" fill="#FFFFFF"></path>
                <path d="M75.6359,23.9193 C75.6359,21.8403 73.9509,20.1543 71.8709,20.1543 C69.7919,20.1543 68.1069,21.8403 68.1069,23.9193 C68.1069,25.9983 69.7919,27.6843 71.8709,27.6843 C73.9509,27.6843 75.6359,25.9983 75.6359,23.9193 Z" id="Stroke-79" stroke="#4D5862" stroke-width="2" stroke-linecap="round" stroke-linejoin="round"></path>
                <path d="M72.7865,23.9193 C72.7865,23.4143 72.3765,23.0043 71.8715,23.0043 C71.3655,23.0043 70.9565,23.4143 70.9565,23.9193 C70.9565,24.4243 71.3655,24.8343 71.8715,24.8343 C72.3765,24.8343 72.7865,24.4243 72.7865,23.9193" id="Fill-81" fill="#4D5862"></path>
                <path d="M74.5377,24.6515 C74.5377,22.5725 72.8527,20.8865 70.7727,20.8865 C68.6937,20.8865 67.0087,22.5725 67.0087,24.6515 C67.0087,26.7305 68.6937,28.4165 70.7727,28.4165 C72.8527,28.4165 74.5377,26.7305 74.5377,24.6515" id="Fill-83" fill="#FFFFFF"></path>
                <path d="M74.5377,24.6515 C74.5377,22.5725 72.8527,20.8865 70.7727,20.8865 C68.6937,20.8865 67.0087,22.5725 67.0087,24.6515 C67.0087,26.7305 68.6937,28.4165 70.7727,28.4165 C72.8527,28.4165 74.5377,26.7305 74.5377,24.6515 Z" id="Stroke-85" stroke="#4D5862" stroke-width="2" stroke-linecap="round" stroke-linejoin="round"></path>
                <path d="M71.6883,24.6515 C71.6883,24.1465 71.2783,23.7365 70.7733,23.7365 C70.2673,23.7365 69.8583,24.1465 69.8583,24.6515 C69.8583,25.1565 70.2673,25.5665 70.7733,25.5665 C71.2783,25.5665 71.6883,25.1565 71.6883,24.6515" id="Fill-87" fill="#4D5862"></path>
                <path d="M79.1091,23.2447 L5.0761,23.2447 L1.5851,23.2447 C0.7081,23.2447 -0.0019,22.5337 0.0001,21.6567 L0.0041,18.5847 L37.7951,18.6357 L37.7951,21.8007 L40.5531,21.8037 L40.5531,18.6417 L76.5661,18.6877 L76.5661,20.3907 L79.1091,22.0687 L79.1091,23.2447 Z" id="Fill-89" fill="#FFFFFF"></path>
                <path d="M79.1091,23.2447 L5.0761,23.2447 L1.5851,23.2447 C0.7081,23.2447 -0.0019,22.5337 0.0001,21.6567 L0.0041,18.5847 L37.7951,18.6357 L37.7951,21.8007 L40.5531,21.8037 L40.5531,18.6417 L76.5661,18.6877 L76.5661,20.3907 L79.1091,22.0687 L79.1091,23.2447 Z" id="Stroke-91" stroke="#4D5862" stroke-width="2" stroke-linecap="round" stroke-linejoin="round"></path>
                <path d="M79.1098,23.2492 L79.1148,5.0132 C79.1188,3.8152 80.0918,2.8452 81.2908,2.8452 L89.2868,2.8452 C90.2378,2.8452 91.1098,3.3722 91.5528,4.2142 L96.0898,12.8492 C96.3158,13.1672 96.4368,13.5482 96.4358,13.9392 L96.4228,19.8272 C96.4188,21.7162 94.8868,23.2452 93.0288,23.2452 L79.1098,23.2492 Z" id="Fill-93" fill="#FFFFFF"></path>
                <path d="M79.1098,23.2492 L79.1148,5.0132 C79.1188,3.8152 80.0918,2.8452 81.2908,2.8452 L89.2868,2.8452 C90.2378,2.8452 91.1098,3.3722 91.5528,4.2142 L96.0898,12.8492 C96.3158,13.1672 96.4368,13.5482 96.4358,13.9392 L96.4228,19.8272 C96.4188,21.7162 94.8868,23.2452 93.0288,23.2452 L79.1098,23.2492 Z" id="Stroke-95" stroke="#4D5862" stroke-width="2" stroke-linecap="round" stroke-linejoin="round"></path>
                <path d="M87.3741,23.6947 C87.3741,23.1897 86.9641,22.7797 86.4591,22.7797 C85.9531,22.7797 85.5441,23.1897 85.5441,23.6947 C85.5441,24.1997 85.9531,24.6097 86.4591,24.6097 C86.9641,24.6097 87.3741,24.1997 87.3741,23.6947" id="Fill-97" fill="#4D5862"></path>
                <path d="M76.5482,18.9525 L40.5482,18.9525 L40.5482,4.3305 C40.5482,1.9385 42.4872,0.0005 44.8782,0.0005 L72.2182,0.0005 C74.6092,0.0005 76.5482,1.9385 76.5482,4.3305 L76.5482,18.9525 Z" id="Fill-99" fill="#FFFFFF"></path>
                <path d="M76.5482,18.9525 L40.5482,18.9525 L40.5482,4.3305 C40.5482,1.9385 42.4872,0.0005 44.8782,0.0005 L72.2182,0.0005 C74.6092,0.0005 76.5482,1.9385 76.5482,4.3305 L76.5482,18.9525 Z" id="Stroke-101" stroke="#4D5862" stroke-width="2" stroke-linecap="round" stroke-linejoin="round"></path>
                <path d="M37.7821,18.9525 L0.0001,18.9525 L0.0001,4.3305 C0.0001,1.9385 1.9391,0.0005 4.3301,0.0005 L33.4521,0.0005 C35.8431,0.0005 37.7821,1.9385 37.7821,4.3305 L37.7821,18.9525 Z" id="Fill-103" fill="#FFFFFF"></path>
                <path d="M37.7821,18.9525 L0.0001,18.9525 L0.0001,4.3305 C0.0001,1.9385 1.9391,0.0005 4.3301,0.0005 L33.4521,0.0005 C35.8431,0.0005 37.7821,1.9385 37.7821,4.3305 L37.7821,18.9525 Z" id="Stroke-105" stroke="#4D5862" stroke-width="2" stroke-linecap="round" stroke-linejoin="round"></path>
                <path d="M87.8365,15.186 L90.8195,15.186" id="Stroke-107" stroke="#4D5862" stroke-width="2" stroke-linecap="round" stroke-linejoin="round"></path>
                <path d="M95.7254,12.6211 L85.7884,12.5901 C84.7774,12.5871 83.9614,11.7641 83.9644,10.7541 L83.9764,7.4211 C83.9794,6.4101 84.8024,5.5931 85.8134,5.5971 L91.9984,5.6111" id="Stroke-109" stroke="#4D5862" stroke-width="2" stroke-linecap="round" stroke-linejoin="round"></path>
                <path d="M89.1252,25.0176 C89.1252,22.9386 87.4402,21.2526 85.3602,21.2526 C83.2812,21.2526 81.5962,22.9386 81.5962,25.0176 C81.5962,27.0966 83.2812,28.7826 85.3602,28.7826 C87.4402,28.7826 89.1252,27.0966 89.1252,25.0176" id="Fill-111" fill="#FFFFFF"></path>
                <path d="M89.1252,25.0176 C89.1252,22.9386 87.4402,21.2526 85.3602,21.2526 C83.2812,21.2526 81.5962,22.9386 81.5962,25.0176 C81.5962,27.0966 83.2812,28.7826 85.3602,28.7826 C87.4402,28.7826 89.1252,27.0966 89.1252,25.0176 Z" id="Stroke-113" stroke="#4D5862" stroke-width="2" stroke-linecap="round" stroke-linejoin="round"></path>
                <path d="M86.2759,25.0176 C86.2759,24.5126 85.8659,24.1026 85.3609,24.1026 C84.8549,24.1026 84.4459,24.5126 84.4459,25.0176 C84.4459,25.5226 84.8549,25.9326 85.3609,25.9326 C85.8659,25.9326 86.2759,25.5226 86.2759,25.0176" id="Fill-115" fill="#4D5862"></path>
                <path d="M73.4395,25.0176 C73.4395,22.9386 71.7545,21.2526 69.6745,21.2526 C67.5955,21.2526 65.9105,22.9386 65.9105,25.0176 C65.9105,27.0966 67.5955,28.7826 69.6745,28.7826 C71.7545,28.7826 73.4395,27.0966 73.4395,25.0176" id="Fill-117" fill="#FFFFFF"></path>
                <path d="M73.4395,25.0176 C73.4395,22.9386 71.7545,21.2526 69.6745,21.2526 C67.5955,21.2526 65.9105,22.9386 65.9105,25.0176 C65.9105,27.0966 67.5955,28.7826 69.6745,28.7826 C71.7545,28.7826 73.4395,27.0966 73.4395,25.0176 Z" id="Stroke-119" stroke="#4D5862" stroke-width="2" stroke-linecap="round" stroke-linejoin="round"></path>
                <path d="M70.5901,25.0176 C70.5901,24.5126 70.1801,24.1026 69.6751,24.1026 C69.1691,24.1026 68.7601,24.5126 68.7601,25.0176 C68.7601,25.5226 69.1691,25.9326 69.6751,25.9326 C70.1801,25.9326 70.5901,25.5226 70.5901,25.0176" id="Fill-121" fill="#4D5862"></path>
                <path d="M41.4497,25.0176 C41.4497,22.9386 39.7647,21.2526 37.6847,21.2526 C35.6057,21.2526 33.9207,22.9386 33.9207,25.0176 C33.9207,27.0966 35.6057,28.7826 37.6847,28.7826 C39.7647,28.7826 41.4497,27.0966 41.4497,25.0176" id="Fill-123" fill="#FFFFFF"></path>
                <path d="M41.4497,25.0176 C41.4497,22.9386 39.7647,21.2526 37.6847,21.2526 C35.6057,21.2526 33.9207,22.9386 33.9207,25.0176 C33.9207,27.0966 35.6057,28.7826 37.6847,28.7826 C39.7647,28.7826 41.4497,27.0966 41.4497,25.0176 Z" id="Stroke-125" stroke="#4D5862" stroke-width="2" stroke-linecap="round" stroke-linejoin="round"></path>
                <path d="M38.6004,25.0176 C38.6004,24.5126 38.1904,24.1026 37.6854,24.1026 C37.1794,24.1026 36.7704,24.5126 36.7704,25.0176 C36.7704,25.5226 37.1794,25.9326 37.6854,25.9326 C38.1904,25.9326 38.6004,25.5226 38.6004,25.0176" id="Fill-127" fill="#4D5862"></path>
                <path d="M49.8694,25.0176 C49.8694,22.9386 48.1844,21.2526 46.1044,21.2526 C44.0254,21.2526 42.3404,22.9386 42.3404,25.0176 C42.3404,27.0966 44.0254,28.7826 46.1044,28.7826 C48.1844,28.7826 49.8694,27.0966 49.8694,25.0176" id="Fill-129" fill="#FFFFFF"></path>
                <path d="M49.8694,25.0176 C49.8694,22.9386 48.1844,21.2526 46.1044,21.2526 C44.0254,21.2526 42.3404,22.9386 42.3404,25.0176 C42.3404,27.0966 44.0254,28.7826 46.1044,28.7826 C48.1844,28.7826 49.8694,27.0966 49.8694,25.0176 Z" id="Stroke-131" stroke="#4D5862" stroke-width="2" stroke-linecap="round" stroke-linejoin="round"></path>
                <path d="M47.02,25.0176 C47.02,24.5126 46.61,24.1026 46.105,24.1026 C45.599,24.1026 45.19,24.5126 45.19,25.0176 C45.19,25.5226 45.599,25.9326 46.105,25.9326 C46.61,25.9326 47.02,25.5226 47.02,25.0176" id="Fill-133" fill="#4D5862"></path>
                <path d="M64.9384,25.0176 C64.9384,22.9386 63.2534,21.2526 61.1734,21.2526 C59.0944,21.2526 57.4094,22.9386 57.4094,25.0176 C57.4094,27.0966 59.0944,28.7826 61.1734,28.7826 C63.2534,28.7826 64.9384,27.0966 64.9384,25.0176" id="Fill-135" fill="#FFFFFF"></path>
                <path d="M64.9384,25.0176 C64.9384,22.9386 63.2534,21.2526 61.1734,21.2526 C59.0944,21.2526 57.4094,22.9386 57.4094,25.0176 C57.4094,27.0966 59.0944,28.7826 61.1734,28.7826 C63.2534,28.7826 64.9384,27.0966 64.9384,25.0176 Z" id="Stroke-137" stroke="#4D5862" stroke-width="2" stroke-linecap="round" stroke-linejoin="round"></path>
                <path d="M62.0891,25.0176 C62.0891,24.5126 61.6791,24.1026 61.1741,24.1026 C60.6681,24.1026 60.2591,24.5126 60.2591,25.0176 C60.2591,25.5226 60.6681,25.9326 61.1741,25.9326 C61.6791,25.9326 62.0891,25.5226 62.0891,25.0176" id="Fill-139" fill="#4D5862"></path>
                <path d="M33.0925,25.0176 C33.0925,22.9386 31.4075,21.2526 29.3275,21.2526 C27.2485,21.2526 25.5635,22.9386 25.5635,25.0176 C25.5635,27.0966 27.2485,28.7826 29.3275,28.7826 C31.4075,28.7826 33.0925,27.0966 33.0925,25.0176" id="Fill-141" fill="#FFFFFF"></path>
                <path d="M33.0925,25.0176 C33.0925,22.9386 31.4075,21.2526 29.3275,21.2526 C27.2485,21.2526 25.5635,22.9386 25.5635,25.0176 C25.5635,27.0966 27.2485,28.7826 29.3275,28.7826 C31.4075,28.7826 33.0925,27.0966 33.0925,25.0176 Z" id="Stroke-143" stroke="#4D5862" stroke-width="2" stroke-linecap="round" stroke-linejoin="round"></path>
                <path d="M30.2431,25.0176 C30.2431,24.5126 29.8331,24.1026 29.3281,24.1026 C28.8221,24.1026 28.4131,24.5126 28.4131,25.0176 C28.4131,25.5226 28.8221,25.9326 29.3281,25.9326 C29.8331,25.9326 30.2431,25.5226 30.2431,25.0176" id="Fill-145" fill="#4D5862"></path>
                <path d="M10.0565,25.0176 C10.0565,22.9386 8.3715,21.2526 6.2915,21.2526 C4.2125,21.2526 2.5275,22.9386 2.5275,25.0176 C2.5275,27.0966 4.2125,28.7826 6.2915,28.7826 C8.3715,28.7826 10.0565,27.0966 10.0565,25.0176" id="Fill-147" fill="#FFFFFF"></path>
                <path d="M10.0565,25.0176 C10.0565,22.9386 8.3715,21.2526 6.2915,21.2526 C4.2125,21.2526 2.5275,22.9386 2.5275,25.0176 C2.5275,27.0966 4.2125,28.7826 6.2915,28.7826 C8.3715,28.7826 10.0565,27.0966 10.0565,25.0176 Z" id="Stroke-149" stroke="#4D5862" stroke-width="2" stroke-linecap="round" stroke-linejoin="round"></path>
                <path d="M7.2072,25.0176 C7.2072,24.5126 6.7972,24.1026 6.2922,24.1026 C5.7862,24.1026 5.3772,24.5126 5.3772,25.0176 C5.3772,25.5226 5.7862,25.9326 6.2922,25.9326 C6.7972,25.9326 7.2072,25.5226 7.2072,25.0176" id="Fill-151" fill="#4D5862"></path>
                <path d="M18.4762,25.0176 C18.4762,22.9386 16.7912,21.2526 14.7112,21.2526 C12.6322,21.2526 10.9472,22.9386 10.9472,25.0176 C10.9472,27.0966 12.6322,28.7826 14.7112,28.7826 C16.7912,28.7826 18.4762,27.0966 18.4762,25.0176" id="Fill-153" fill="#FFFFFF"></path>
                <path d="M18.4762,25.0176 C18.4762,22.9386 16.7912,21.2526 14.7112,21.2526 C12.6322,21.2526 10.9472,22.9386 10.9472,25.0176 C10.9472,27.0966 12.6322,28.7826 14.7112,28.7826 C16.7912,28.7826 18.4762,27.0966 18.4762,25.0176 Z" id="Stroke-155" stroke="#4D5862" stroke-width="2" stroke-linecap="round" stroke-linejoin="round"></path>
                <path d="M15.6268,25.0176 C15.6268,24.5126 15.2168,24.1026 14.7118,24.1026 C14.2058,24.1026 13.7968,24.5126 13.7968,25.0176 C13.7968,25.5226 14.2058,25.9326 14.7118,25.9326 C15.2168,25.9326 15.6268,25.5226 15.6268,25.0176" id="Fill-157" fill="#4D5862"></path>
            </g>
        </g>
    </g>
</svg>