<?xml version="1.0" encoding="UTF-8"?>
<svg width="20px" height="15px" viewBox="0 0 20 15" version="1.1" xmlns="http://www.w3.org/2000/svg" xmlns:xlink="http://www.w3.org/1999/xlink">
    <!-- Generator: Sketch 47 (45396) - http://www.bohemiancoding.com/sketch -->
    <title>ic Imagem</title>
    <desc>Created with Sketch.</desc>
    <defs></defs>
    <g id="Logada-Desktop" stroke="none" stroke-width="1" fill="none" fill-rule="evenodd">
        <g id="Perfil" transform="translate(-686.000000, -422.000000)">
            <g id="Group-6" transform="translate(680.000000, 414.000000)">
                <g id="Group-7">
                    <g id="ic-Imagem-Branco" transform="translate(6.400000, 8.000000)">
                        <g id="ic-Imagem">
                            <path d="M12.7514881,7.546875 C12.7514881,9.28391406 11.2948214,10.6914062 9.5,10.6914062 C7.70387798,10.6914062 6.2485119,9.28391406 6.2485119,7.546875 C6.2485119,5.80983594 7.70387798,4.40234375 9.5,4.40234375 C11.2948214,4.40234375 12.7514881,5.80983594 12.7514881,7.546875 Z" id="Stroke-1" stroke="#FFFFFF" stroke-linejoin="round"></path>
                            <path d="M16.3988095,3.25390625 L14.0520833,3.25390625 L11.4508929,0.62890625 L7.54910714,0.62890625 L4.94791667,3.25390625 L2.60119048,3.25390625 C1.5281994,3.25390625 0.650297619,4.13984375 0.650297619,5.22265625 L0.650297619,11.7851562 C0.650297619,12.8679687 1.5281994,13.7539062 2.60119048,13.7539062 L16.3988095,13.7539062 C17.4718006,13.7539062 18.3497024,12.8679687 18.3497024,11.7851562 L18.3497024,5.22265625 C18.3497024,4.13984375 17.4718006,3.25390625 16.3988095,3.25390625 Z" id="Stroke-3" stroke="#FFFFFF" stroke-linecap="round" stroke-linejoin="round"></path>
                            <path d="M15.0982143,5.66015625 C15.0982143,6.0073125 15.3895476,6.2890625 15.7485119,6.2890625 C16.1074762,6.2890625 16.3988095,6.0073125 16.3988095,5.66015625 C16.3988095,5.313 16.1074762,5.03125 15.7485119,5.03125 C15.3895476,5.03125 15.0982143,5.313 15.0982143,5.66015625 Z" id="Fill-5" fill="#FFFFFF"></path>
                        </g>
                    </g>
                </g>
            </g>
        </g>
    </g>
</svg>