<?xml version="1.0" encoding="UTF-8"?>
<svg width="40px" height="35px" viewBox="0 0 40 35" version="1.1" xmlns="http://www.w3.org/2000/svg" xmlns:xlink="http://www.w3.org/1999/xlink">
    <!-- Generator: Sketch 47 (45396) - http://www.bohemiancoding.com/sketch -->
    <title>ic Imagem</title>
    <desc>Created with Sketch.</desc>
    <defs></defs>
    <g id="Logada-Mobile" stroke="none" stroke-width="1" fill="none" fill-rule="evenodd">
        <g id="Logada-Perfil" transform="translate(-313.000000, -321.000000)">
            <g id="Group-2" transform="translate(0.000000, 181.000000)">
                <g id="ic-Imagem-Branco" transform="translate(321.000000, 148.000000)">
                    <g id="ic-Imagem">
                        <path d="M16.1071429,9.703125 C16.1071429,11.9364609 14.2671429,13.7460938 12,13.7460938 C9.73121429,13.7460938 7.89285714,11.9364609 7.89285714,9.703125 C7.89285714,7.46978906 9.73121429,5.66015625 12,5.66015625 C14.2671429,5.66015625 16.1071429,7.46978906 16.1071429,9.703125 Z" id="Stroke-1" stroke="#FFFFFF" stroke-linejoin="round"></path>
                        <path d="M20.7142857,4.18359375 L17.75,4.18359375 L14.4642857,0.80859375 L9.53571429,0.80859375 L6.25,4.18359375 L3.28571429,4.18359375 C1.93035714,4.18359375 0.821428571,5.32265625 0.821428571,6.71484375 L0.821428571,15.1523438 C0.821428571,16.5445312 1.93035714,17.6835938 3.28571429,17.6835938 L20.7142857,17.6835938 C22.0696429,17.6835938 23.1785714,16.5445312 23.1785714,15.1523438 L23.1785714,6.71484375 C23.1785714,5.32265625 22.0696429,4.18359375 20.7142857,4.18359375 Z" id="Stroke-3" stroke="#FFFFFF" stroke-linecap="round" stroke-linejoin="round"></path>
                        <path d="M19.0714286,7.27734375 C19.0714286,7.7236875 19.4394286,8.0859375 19.8928571,8.0859375 C20.3462857,8.0859375 20.7142857,7.7236875 20.7142857,7.27734375 C20.7142857,6.831 20.3462857,6.46875 19.8928571,6.46875 C19.4394286,6.46875 19.0714286,6.831 19.0714286,7.27734375 Z" id="Fill-5" fill="#FFFFFF"></path>
                    </g>
                </g>
            </g>
        </g>
    </g>
</svg>