<?xml version="1.0" encoding="UTF-8"?>
<svg width="110px" height="35px" viewBox="0 0 110 35" version="1.1" xmlns="http://www.w3.org/2000/svg" xmlns:xlink="http://www.w3.org/1999/xlink">
    <!-- Generator: Sketch 46 (44423) - http://www.bohemiancoding.com/sketch -->
    <title>5 eixos dupla</title>
    <desc>Created with Sketch.</desc>
    <defs></defs>
    <g id="Symbols" stroke="none" stroke-width="1" fill="none" fill-rule="evenodd">
        <g id="5-eixos-dupla">
            <g id="Page-1" transform="translate(16.000000, 3.000000)">
                <path d="M29.6707,23.9193 C29.6707,21.8403 27.9857,20.1543 25.9057,20.1543 C23.8267,20.1543 22.1417,21.8403 22.1417,23.9193 C22.1417,25.9983 23.8267,27.6843 25.9057,27.6843 C27.9857,27.6843 29.6707,25.9983 29.6707,23.9193" id="Fill-1" fill="#FFFFFF"></path>
                <path d="M29.6707,23.9193 C29.6707,21.8403 27.9857,20.1543 25.9057,20.1543 C23.8267,20.1543 22.1417,21.8403 22.1417,23.9193 C22.1417,25.9983 23.8267,27.6843 25.9057,27.6843 C27.9857,27.6843 29.6707,25.9983 29.6707,23.9193 Z" id="Stroke-3" stroke="#4D5862" stroke-width="2" stroke-linecap="round" stroke-linejoin="round"></path>
                <path d="M26.8213,23.9193 C26.8213,23.4143 26.4113,23.0043 25.9063,23.0043 C25.4003,23.0043 24.9913,23.4143 24.9913,23.9193 C24.9913,24.4243 25.4003,24.8343 25.9063,24.8343 C26.4113,24.8343 26.8213,24.4243 26.8213,23.9193" id="Fill-5" fill="#4D5862"></path>
                <path d="M28.5725,24.6515 C28.5725,22.5725 26.8875,20.8865 24.8075,20.8865 C22.7285,20.8865 21.0435,22.5725 21.0435,24.6515 C21.0435,26.7305 22.7285,28.4165 24.8075,28.4165 C26.8875,28.4165 28.5725,26.7305 28.5725,24.6515" id="Fill-7" fill="#FFFFFF"></path>
                <path d="M28.5725,24.6515 C28.5725,22.5725 26.8875,20.8865 24.8075,20.8865 C22.7285,20.8865 21.0435,22.5725 21.0435,24.6515 C21.0435,26.7305 22.7285,28.4165 24.8075,28.4165 C26.8875,28.4165 28.5725,26.7305 28.5725,24.6515 Z" id="Stroke-9" stroke="#4D5862" stroke-width="2" stroke-linecap="round" stroke-linejoin="round"></path>
                <path d="M25.7231,24.6515 C25.7231,24.1465 25.3131,23.7365 24.8081,23.7365 C24.3021,23.7365 23.8931,24.1465 23.8931,24.6515 C23.8931,25.1565 24.3021,25.5665 24.8081,25.5665 C25.3131,25.5665 25.7231,25.1565 25.7231,24.6515" id="Fill-11" fill="#4D5862"></path>
                <path d="M21.2511,23.9193 C21.2511,21.8403 19.5571,22.4113 17.4781,22.4113 C15.3981,22.4113 13.7221,21.8403 13.7221,23.9193 C13.7221,25.9983 15.4071,27.6843 17.4861,27.6843 C19.5661,27.6843 21.2511,25.9983 21.2511,23.9193" id="Fill-13" fill="#FFFFFF"></path>
                <path d="M21.2511,23.9193 C21.2511,21.8403 19.5571,22.4113 17.4781,22.4113 C15.3981,22.4113 13.7221,21.8403 13.7221,23.9193 C13.7221,25.9983 15.4071,27.6843 17.4861,27.6843 C19.5661,27.6843 21.2511,25.9983 21.2511,23.9193 Z" id="Stroke-15" stroke="#4D5862" stroke-width="2" stroke-linecap="round" stroke-linejoin="round"></path>
                <path d="M18.4017,23.9193 C18.4017,23.4143 17.9917,23.0043 17.4867,23.0043 C16.9807,23.0043 16.5717,23.4143 16.5717,23.9193 C16.5717,24.4243 16.9807,24.8343 17.4867,24.8343 C17.9917,24.8343 18.4017,24.4243 18.4017,23.9193" id="Fill-17" fill="#4D5862"></path>
                <path d="M20.1528,24.6515 C20.1528,22.5725 18.4678,20.8865 16.3878,20.8865 C14.3088,20.8865 12.6238,22.5725 12.6238,24.6515 C12.6238,26.7305 14.3088,28.4165 16.3878,28.4165 C18.4678,28.4165 20.1528,26.7305 20.1528,24.6515" id="Fill-19" fill="#FFFFFF"></path>
                <path d="M20.1528,24.6515 C20.1528,22.5725 18.4678,20.8865 16.3878,20.8865 C14.3088,20.8865 12.6238,22.5725 12.6238,24.6515 C12.6238,26.7305 14.3088,28.4165 16.3878,28.4165 C18.4678,28.4165 20.1528,26.7305 20.1528,24.6515 Z" id="Stroke-21" stroke="#4D5862" stroke-width="2" stroke-linecap="round" stroke-linejoin="round"></path>
                <path d="M17.3035,24.6515 C17.3035,24.1465 16.8935,23.7365 16.3885,23.7365 C15.8825,23.7365 15.4735,24.1465 15.4735,24.6515 C15.4735,25.1565 15.8825,25.5665 16.3885,25.5665 C16.8935,25.5665 17.3035,25.1565 17.3035,24.6515" id="Fill-23" fill="#4D5862"></path>
                <path d="M52.2716,23.9193 C52.2716,21.8403 50.5866,20.1543 48.5066,20.1543 C46.4276,20.1543 44.7426,21.8403 44.7426,23.9193 C44.7426,25.9983 46.4276,27.6843 48.5066,27.6843 C50.5866,27.6843 52.2716,25.9983 52.2716,23.9193" id="Fill-25" fill="#FFFFFF"></path>
                <path d="M52.2716,23.9193 C52.2716,21.8403 50.5866,20.1543 48.5066,20.1543 C46.4276,20.1543 44.7426,21.8403 44.7426,23.9193 C44.7426,25.9983 46.4276,27.6843 48.5066,27.6843 C50.5866,27.6843 52.2716,25.9983 52.2716,23.9193 Z" id="Stroke-27" stroke="#4D5862" stroke-width="2" stroke-linecap="round" stroke-linejoin="round"></path>
                <path d="M49.4223,23.9193 C49.4223,23.4143 49.0123,23.0043 48.5073,23.0043 C48.0013,23.0043 47.5923,23.4143 47.5923,23.9193 C47.5923,24.4243 48.0013,24.8343 48.5073,24.8343 C49.0123,24.8343 49.4223,24.4243 49.4223,23.9193" id="Fill-29" fill="#4D5862"></path>
                <path d="M51.1734,24.6515 C51.1734,22.5725 49.4884,20.8865 47.4084,20.8865 C45.3294,20.8865 43.6444,22.5725 43.6444,24.6515 C43.6444,26.7305 45.3294,28.4165 47.4084,28.4165 C49.4884,28.4165 51.1734,26.7305 51.1734,24.6515" id="Fill-31" fill="#FFFFFF"></path>
                <path d="M51.1734,24.6515 C51.1734,22.5725 49.4884,20.8865 47.4084,20.8865 C45.3294,20.8865 43.6444,22.5725 43.6444,24.6515 C43.6444,26.7305 45.3294,28.4165 47.4084,28.4165 C49.4884,28.4165 51.1734,26.7305 51.1734,24.6515 Z" id="Stroke-33" stroke="#4D5862" stroke-width="2" stroke-linecap="round" stroke-linejoin="round"></path>
                <path d="M48.3241,24.6515 C48.3241,24.1465 47.9141,23.7365 47.4091,23.7365 C46.9031,23.7365 46.4941,24.1465 46.4941,24.6515 C46.4941,25.1565 46.9031,25.5665 47.4091,25.5665 C47.9141,25.5665 48.3241,25.1565 48.3241,24.6515" id="Fill-35" fill="#4D5862"></path>
                <path d="M12.8594,23.9193 C12.8594,21.8403 11.1744,20.1543 9.0944,20.1543 C7.0154,20.1543 5.3304,21.8403 5.3304,23.9193 C5.3304,25.9983 7.0154,27.6843 9.0944,27.6843 C11.1744,27.6843 12.8594,25.9983 12.8594,23.9193" id="Fill-37" fill="#FFFFFF"></path>
                <path d="M12.8594,23.9193 C12.8594,21.8403 11.1744,20.1543 9.0944,20.1543 C7.0154,20.1543 5.3304,21.8403 5.3304,23.9193 C5.3304,25.9983 7.0154,27.6843 9.0944,27.6843 C11.1744,27.6843 12.8594,25.9983 12.8594,23.9193 Z" id="Stroke-39" stroke="#4D5862" stroke-width="2" stroke-linecap="round" stroke-linejoin="round"></path>
                <path d="M10.01,23.9193 C10.01,23.4143 9.6,23.0043 9.095,23.0043 C8.589,23.0043 8.18,23.4143 8.18,23.9193 C8.18,24.4243 8.589,24.8343 9.095,24.8343 C9.6,24.8343 10.01,24.4243 10.01,23.9193" id="Fill-41" fill="#4D5862"></path>
                <path d="M11.7612,24.6515 C11.7612,22.5725 10.0762,20.8865 7.9962,20.8865 C5.9172,20.8865 4.2322,22.5725 4.2322,24.6515 C4.2322,26.7305 5.9172,28.4165 7.9962,28.4165 C10.0762,28.4165 11.7612,26.7305 11.7612,24.6515" id="Fill-43" fill="#FFFFFF"></path>
                <path d="M11.7612,24.6515 C11.7612,22.5725 10.0762,20.8865 7.9962,20.8865 C5.9172,20.8865 4.2322,22.5725 4.2322,24.6515 C4.2322,26.7305 5.9172,28.4165 7.9962,28.4165 C10.0762,28.4165 11.7612,26.7305 11.7612,24.6515 Z" id="Stroke-45" stroke="#4D5862" stroke-width="2" stroke-linecap="round" stroke-linejoin="round"></path>
                <path d="M8.9118,24.6515 C8.9118,24.1465 8.5018,23.7365 7.9968,23.7365 C7.4908,23.7365 7.0818,24.1465 7.0818,24.6515 C7.0818,25.1565 7.4908,25.5665 7.9968,25.5665 C8.5018,25.5665 8.9118,25.1565 8.9118,24.6515" id="Fill-47" fill="#4D5862"></path>
                <path d="M73.5602,24.6515 C73.5602,22.5725 71.8752,20.8865 69.7952,20.8865 C67.7162,20.8865 66.0312,22.5725 66.0312,24.6515 C66.0312,26.7305 67.7162,28.4165 69.7952,28.4165 C71.8752,28.4165 73.5602,26.7305 73.5602,24.6515" id="Fill-49" fill="#FFFFFF"></path>
                <path d="M73.5602,24.6515 C73.5602,22.5725 71.8752,20.8865 69.7952,20.8865 C67.7162,20.8865 66.0312,22.5725 66.0312,24.6515 C66.0312,26.7305 67.7162,28.4165 69.7952,28.4165 C71.8752,28.4165 73.5602,26.7305 73.5602,24.6515 Z" id="Stroke-51" stroke="#4D5862" stroke-width="2" stroke-linecap="round" stroke-linejoin="round"></path>
                <path d="M62.4459,23.2447 L1.5849,23.2447 C0.7089,23.2447 -0.0011,22.5337 -0.0001,21.6567 L0.0049,18.5847 L59.9029,18.6877 L59.9029,20.3907 L62.4459,22.0687 L62.4459,23.2447 Z" id="Fill-53" fill="#FFFFFF"></path>
                <path d="M62.4459,23.2447 L1.5849,23.2447 C0.7089,23.2447 -0.0011,22.5337 -0.0001,21.6567 L0.0049,18.5847 L59.9029,18.6877 L59.9029,20.3907 L62.4459,22.0687 L62.4459,23.2447 Z" id="Stroke-55" stroke="#4D5862" stroke-width="2" stroke-linecap="round" stroke-linejoin="round"></path>
                <path d="M62.4466,23.2492 L62.4516,5.0132 C62.4556,3.8152 63.4286,2.8452 64.6276,2.8452 L72.6236,2.8452 C73.5746,2.8452 74.4466,3.3722 74.8896,4.2142 L79.4266,12.8492 C79.6526,13.1672 79.7736,13.5482 79.7726,13.9392 L79.7596,19.8272 C79.7556,21.7162 78.2236,23.2452 76.3646,23.2452 L62.4466,23.2492 Z" id="Fill-57" fill="#FFFFFF"></path>
                <path d="M62.4466,23.2492 L62.4516,5.0132 C62.4556,3.8152 63.4286,2.8452 64.6276,2.8452 L72.6236,2.8452 C73.5746,2.8452 74.4466,3.3722 74.8896,4.2142 L79.4266,12.8492 C79.6526,13.1672 79.7736,13.5482 79.7726,13.9392 L79.7596,19.8272 C79.7556,21.7162 78.2236,23.2452 76.3646,23.2452 L62.4466,23.2492 Z" id="Stroke-59" stroke="#4D5862" stroke-width="2" stroke-linecap="round" stroke-linejoin="round"></path>
                <path d="M70.7109,23.6947 C70.7109,23.1897 70.3009,22.7797 69.7959,22.7797 C69.2899,22.7797 68.8809,23.1897 68.8809,23.6947 C68.8809,24.1997 69.2899,24.6097 69.7959,24.6097 C70.3009,24.6097 70.7109,24.1997 70.7109,23.6947" id="Fill-61" fill="#4D5862"></path>
                <path d="M59.885,18.9525 L0.011,18.9525 L0.011,4.3305 C0.011,1.9385 1.95,0.0005 4.341,0.0005 L55.555,0.0005 C57.946,0.0005 59.885,1.9385 59.885,4.3305 L59.885,18.9525 Z" id="Fill-63" fill="#FFFFFF"></path>
                <path d="M59.885,18.9525 L0.011,18.9525 L0.011,4.3305 C0.011,1.9385 1.95,0.0005 4.341,0.0005 L55.555,0.0005 C57.946,0.0005 59.885,1.9385 59.885,4.3305 L59.885,18.9525 Z" id="Stroke-65" stroke="#4D5862" stroke-width="2" stroke-linecap="round" stroke-linejoin="round"></path>
                <path d="M71.1733,15.186 L74.1563,15.186" id="Stroke-67" stroke="#4D5862" stroke-width="2" stroke-linecap="round" stroke-linejoin="round"></path>
                <path d="M79.0622,12.6211 L69.1252,12.5901 C68.1142,12.5871 67.2982,11.7641 67.3012,10.7541 L67.3132,7.4211 C67.3162,6.4101 68.1392,5.5931 69.1502,5.5971 L75.3352,5.6111" id="Stroke-69" stroke="#4D5862" stroke-width="2" stroke-linecap="round" stroke-linejoin="round"></path>
                <path d="M72.462,25.0176 C72.462,22.9386 70.777,21.2526 68.697,21.2526 C66.618,21.2526 64.933,22.9386 64.933,25.0176 C64.933,27.0966 66.618,28.7826 68.697,28.7826 C70.777,28.7826 72.462,27.0966 72.462,25.0176" id="Fill-71" fill="#FFFFFF"></path>
                <path d="M72.462,25.0176 C72.462,22.9386 70.777,21.2526 68.697,21.2526 C66.618,21.2526 64.933,22.9386 64.933,25.0176 C64.933,27.0966 66.618,28.7826 68.697,28.7826 C70.777,28.7826 72.462,27.0966 72.462,25.0176 Z" id="Stroke-73" stroke="#4D5862" stroke-width="2" stroke-linecap="round" stroke-linejoin="round"></path>
                <path d="M69.6127,25.0176 C69.6127,24.5126 69.2027,24.1026 68.6977,24.1026 C68.1917,24.1026 67.7827,24.5126 67.7827,25.0176 C67.7827,25.5226 68.1917,25.9326 68.6977,25.9326 C69.2027,25.9326 69.6127,25.5226 69.6127,25.0176" id="Fill-75" fill="#4D5862"></path>
                <path d="M19.0546,25.0176 C19.0546,22.9386 17.3696,21.2526 15.2896,21.2526 C13.2106,21.2526 11.5256,22.9386 11.5256,25.0176 C11.5256,27.0966 13.2106,28.7826 15.2896,28.7826 C17.3696,28.7826 19.0546,27.0966 19.0546,25.0176" id="Fill-77" fill="#FFFFFF"></path>
                <path d="M19.0546,25.0176 C19.0546,22.9386 17.3696,21.2526 15.2896,21.2526 C13.2106,21.2526 11.5256,22.9386 11.5256,25.0176 C11.5256,27.0966 13.2106,28.7826 15.2896,28.7826 C17.3696,28.7826 19.0546,27.0966 19.0546,25.0176 Z" id="Stroke-79" stroke="#4D5862" stroke-width="2" stroke-linecap="round" stroke-linejoin="round"></path>
                <path d="M16.2053,25.0176 C16.2053,24.5126 15.7953,24.1026 15.2903,24.1026 C14.7843,24.1026 14.3753,24.5126 14.3753,25.0176 C14.3753,25.5226 14.7843,25.9326 15.2903,25.9326 C15.7953,25.9326 16.2053,25.5226 16.2053,25.0176" id="Fill-81" fill="#4D5862"></path>
                <path d="M27.4743,25.0176 C27.4743,22.9386 25.7893,21.2526 23.7093,21.2526 C21.6303,21.2526 19.9453,22.9386 19.9453,25.0176 C19.9453,27.0966 21.6303,28.7826 23.7093,28.7826 C25.7893,28.7826 27.4743,27.0966 27.4743,25.0176" id="Fill-83" fill="#FFFFFF"></path>
                <path d="M27.4743,25.0176 C27.4743,22.9386 25.7893,21.2526 23.7093,21.2526 C21.6303,21.2526 19.9453,22.9386 19.9453,25.0176 C19.9453,27.0966 21.6303,28.7826 23.7093,28.7826 C25.7893,28.7826 27.4743,27.0966 27.4743,25.0176 Z" id="Stroke-85" stroke="#4D5862" stroke-width="2" stroke-linecap="round" stroke-linejoin="round"></path>
                <path d="M24.6249,25.0176 C24.6249,24.5126 24.2149,24.1026 23.7099,24.1026 C23.2039,24.1026 22.7949,24.5126 22.7949,25.0176 C22.7949,25.5226 23.2039,25.9326 23.7099,25.9326 C24.2149,25.9326 24.6249,25.5226 24.6249,25.0176" id="Fill-87" fill="#4D5862"></path>
                <path d="M50.0752,25.0176 C50.0752,22.9386 48.3902,21.2526 46.3102,21.2526 C44.2312,21.2526 42.5462,22.9386 42.5462,25.0176 C42.5462,27.0966 44.2312,28.7826 46.3102,28.7826 C48.3902,28.7826 50.0752,27.0966 50.0752,25.0176" id="Fill-89" fill="#FFFFFF"></path>
                <path d="M50.0752,25.0176 C50.0752,22.9386 48.3902,21.2526 46.3102,21.2526 C44.2312,21.2526 42.5462,22.9386 42.5462,25.0176 C42.5462,27.0966 44.2312,28.7826 46.3102,28.7826 C48.3902,28.7826 50.0752,27.0966 50.0752,25.0176 Z" id="Stroke-91" stroke="#4D5862" stroke-width="2" stroke-linecap="round" stroke-linejoin="round"></path>
                <path d="M47.2258,25.0176 C47.2258,24.5126 46.8158,24.1026 46.3108,24.1026 C45.8048,24.1026 45.3958,24.5126 45.3958,25.0176 C45.3958,25.5226 45.8048,25.9326 46.3108,25.9326 C46.8158,25.9326 47.2258,25.5226 47.2258,25.0176" id="Fill-93" fill="#4D5862"></path>
                <path d="M10.663,25.0176 C10.663,22.9386 8.978,21.2526 6.898,21.2526 C4.819,21.2526 3.134,22.9386 3.134,25.0176 C3.134,27.0966 4.819,28.7826 6.898,28.7826 C8.978,28.7826 10.663,27.0966 10.663,25.0176" id="Fill-95" fill="#FFFFFF"></path>
                <path d="M10.663,25.0176 C10.663,22.9386 8.978,21.2526 6.898,21.2526 C4.819,21.2526 3.134,22.9386 3.134,25.0176 C3.134,27.0966 4.819,28.7826 6.898,28.7826 C8.978,28.7826 10.663,27.0966 10.663,25.0176 Z" id="Stroke-97" stroke="#4D5862" stroke-width="2" stroke-linecap="round" stroke-linejoin="round"></path>
                <path d="M7.8136,25.0176 C7.8136,24.5126 7.4036,24.1026 6.8986,24.1026 C6.3926,24.1026 5.9836,24.5126 5.9836,25.0176 C5.9836,25.5226 6.3926,25.9326 6.8986,25.9326 C7.4036,25.9326 7.8136,25.5226 7.8136,25.0176" id="Fill-99" fill="#4D5862"></path>
            </g>
        </g>
    </g>
</svg>