<?xml version="1.0" encoding="UTF-8"?>
<svg width="110px" height="35px" viewBox="0 0 110 35" version="1.1" xmlns="http://www.w3.org/2000/svg" xmlns:xlink="http://www.w3.org/1999/xlink">
    <!-- Generator: Sketch 46 (44423) - http://www.bohemiancoding.com/sketch -->
    <title>6 eixos dupla</title>
    <desc>Created with Sketch.</desc>
    <defs></defs>
    <g id="Symbols" stroke="none" stroke-width="1" fill="none" fill-rule="evenodd">
        <g id="6-eixos-dupla">
            <g id="Page-1" transform="translate(14.000000, 3.000000)">
                <path d="M29.6707,23.9193 C29.6707,21.8403 27.9857,20.1543 25.9057,20.1543 C23.8267,20.1543 22.1417,21.8403 22.1417,23.9193 C22.1417,25.9983 23.8267,27.6843 25.9057,27.6843 C27.9857,27.6843 29.6707,25.9983 29.6707,23.9193" id="Fill-1" fill="#FFFFFF"></path>
                <path d="M29.6707,23.9193 C29.6707,21.8403 27.9857,20.1543 25.9057,20.1543 C23.8267,20.1543 22.1417,21.8403 22.1417,23.9193 C22.1417,25.9983 23.8267,27.6843 25.9057,27.6843 C27.9857,27.6843 29.6707,25.9983 29.6707,23.9193 Z" id="Stroke-3" stroke="#4D5862" stroke-width="2" stroke-linecap="round" stroke-linejoin="round"></path>
                <path d="M26.8213,23.9193 C26.8213,23.4143 26.4113,23.0043 25.9063,23.0043 C25.4003,23.0043 24.9913,23.4143 24.9913,23.9193 C24.9913,24.4243 25.4003,24.8343 25.9063,24.8343 C26.4113,24.8343 26.8213,24.4243 26.8213,23.9193" id="Fill-5" fill="#4D5862"></path>
                <path d="M28.5725,24.6515 C28.5725,22.5725 26.8875,20.8865 24.8075,20.8865 C22.7285,20.8865 21.0435,22.5725 21.0435,24.6515 C21.0435,26.7305 22.7285,28.4165 24.8075,28.4165 C26.8875,28.4165 28.5725,26.7305 28.5725,24.6515" id="Fill-7" fill="#FFFFFF"></path>
                <path d="M28.5725,24.6515 C28.5725,22.5725 26.8875,20.8865 24.8075,20.8865 C22.7285,20.8865 21.0435,22.5725 21.0435,24.6515 C21.0435,26.7305 22.7285,28.4165 24.8075,28.4165 C26.8875,28.4165 28.5725,26.7305 28.5725,24.6515 Z" id="Stroke-9" stroke="#4D5862" stroke-width="2" stroke-linecap="round" stroke-linejoin="round"></path>
                <path d="M25.7231,24.6515 C25.7231,24.1465 25.3131,23.7365 24.8081,23.7365 C24.3021,23.7365 23.8931,24.1465 23.8931,24.6515 C23.8931,25.1565 24.3021,25.5665 24.8081,25.5665 C25.3131,25.5665 25.7231,25.1565 25.7231,24.6515" id="Fill-11" fill="#4D5862"></path>
                <path d="M21.2511,23.9193 C21.2511,21.8403 19.5571,22.4113 17.4781,22.4113 C15.3981,22.4113 13.7221,21.8403 13.7221,23.9193 C13.7221,25.9983 15.4071,27.6843 17.4861,27.6843 C19.5661,27.6843 21.2511,25.9983 21.2511,23.9193" id="Fill-13" fill="#FFFFFF"></path>
                <path d="M21.2511,23.9193 C21.2511,21.8403 19.5571,22.4113 17.4781,22.4113 C15.3981,22.4113 13.7221,21.8403 13.7221,23.9193 C13.7221,25.9983 15.4071,27.6843 17.4861,27.6843 C19.5661,27.6843 21.2511,25.9983 21.2511,23.9193 Z" id="Stroke-15" stroke="#4D5862" stroke-width="2" stroke-linecap="round" stroke-linejoin="round"></path>
                <path d="M18.4017,23.9193 C18.4017,23.4143 17.9917,23.0043 17.4867,23.0043 C16.9807,23.0043 16.5717,23.4143 16.5717,23.9193 C16.5717,24.4243 16.9807,24.8343 17.4867,24.8343 C17.9917,24.8343 18.4017,24.4243 18.4017,23.9193" id="Fill-17" fill="#4D5862"></path>
                <path d="M20.1528,24.6515 C20.1528,22.5725 18.4678,20.8865 16.3878,20.8865 C14.3088,20.8865 12.6238,22.5725 12.6238,24.6515 C12.6238,26.7305 14.3088,28.4165 16.3878,28.4165 C18.4678,28.4165 20.1528,26.7305 20.1528,24.6515" id="Fill-19" fill="#FFFFFF"></path>
                <path d="M20.1528,24.6515 C20.1528,22.5725 18.4678,20.8865 16.3878,20.8865 C14.3088,20.8865 12.6238,22.5725 12.6238,24.6515 C12.6238,26.7305 14.3088,28.4165 16.3878,28.4165 C18.4678,28.4165 20.1528,26.7305 20.1528,24.6515 Z" id="Stroke-21" stroke="#4D5862" stroke-width="2" stroke-linecap="round" stroke-linejoin="round"></path>
                <path d="M17.3035,24.6515 C17.3035,24.1465 16.8935,23.7365 16.3885,23.7365 C15.8825,23.7365 15.4735,24.1465 15.4735,24.6515 C15.4735,25.1565 15.8825,25.5665 16.3885,25.5665 C16.8935,25.5665 17.3035,25.1565 17.3035,24.6515" id="Fill-23" fill="#4D5862"></path>
                <path d="M54.0716,23.9193 C54.0716,21.8403 52.3866,20.1543 50.3066,20.1543 C48.2276,20.1543 46.5426,21.8403 46.5426,23.9193 C46.5426,25.9983 48.2276,27.6843 50.3066,27.6843 C52.3866,27.6843 54.0716,25.9983 54.0716,23.9193" id="Fill-25" fill="#FFFFFF"></path>
                <path d="M54.0716,23.9193 C54.0716,21.8403 52.3866,20.1543 50.3066,20.1543 C48.2276,20.1543 46.5426,21.8403 46.5426,23.9193 C46.5426,25.9983 48.2276,27.6843 50.3066,27.6843 C52.3866,27.6843 54.0716,25.9983 54.0716,23.9193 Z" id="Stroke-27" stroke="#4D5862" stroke-width="2" stroke-linecap="round" stroke-linejoin="round"></path>
                <path d="M51.2223,23.9193 C51.2223,23.4143 50.8123,23.0043 50.3073,23.0043 C49.8013,23.0043 49.3923,23.4143 49.3923,23.9193 C49.3923,24.4243 49.8013,24.8343 50.3073,24.8343 C50.8123,24.8343 51.2223,24.4243 51.2223,23.9193" id="Fill-29" fill="#4D5862"></path>
                <path d="M52.9734,24.6515 C52.9734,22.5725 51.2884,20.8865 49.2084,20.8865 C47.1294,20.8865 45.4444,22.5725 45.4444,24.6515 C45.4444,26.7305 47.1294,28.4165 49.2084,28.4165 C51.2884,28.4165 52.9734,26.7305 52.9734,24.6515" id="Fill-31" fill="#FFFFFF"></path>
                <path d="M52.9734,24.6515 C52.9734,22.5725 51.2884,20.8865 49.2084,20.8865 C47.1294,20.8865 45.4444,22.5725 45.4444,24.6515 C45.4444,26.7305 47.1294,28.4165 49.2084,28.4165 C51.2884,28.4165 52.9734,26.7305 52.9734,24.6515 Z" id="Stroke-33" stroke="#4D5862" stroke-width="2" stroke-linecap="round" stroke-linejoin="round"></path>
                <path d="M50.1241,24.6515 C50.1241,24.1465 49.7141,23.7365 49.2091,23.7365 C48.7031,23.7365 48.2941,24.1465 48.2941,24.6515 C48.2941,25.1565 48.7031,25.5665 49.2091,25.5665 C49.7141,25.5665 50.1241,25.1565 50.1241,24.6515" id="Fill-35" fill="#4D5862"></path>
                <path d="M62.5727,23.9193 C62.5727,21.8403 60.8877,20.1543 58.8077,20.1543 C56.7287,20.1543 55.0437,21.8403 55.0437,23.9193 C55.0437,25.9983 56.7287,27.6843 58.8077,27.6843 C60.8877,27.6843 62.5727,25.9983 62.5727,23.9193" id="Fill-37" fill="#FFFFFF"></path>
                <path d="M62.5727,23.9193 C62.5727,21.8403 60.8877,20.1543 58.8077,20.1543 C56.7287,20.1543 55.0437,21.8403 55.0437,23.9193 C55.0437,25.9983 56.7287,27.6843 58.8077,27.6843 C60.8877,27.6843 62.5727,25.9983 62.5727,23.9193 Z" id="Stroke-39" stroke="#4D5862" stroke-width="2" stroke-linecap="round" stroke-linejoin="round"></path>
                <path d="M59.7233,23.9193 C59.7233,23.4143 59.3133,23.0043 58.8083,23.0043 C58.3023,23.0043 57.8933,23.4143 57.8933,23.9193 C57.8933,24.4243 58.3023,24.8343 58.8083,24.8343 C59.3133,24.8343 59.7233,24.4243 59.7233,23.9193" id="Fill-41" fill="#4D5862"></path>
                <path d="M61.4745,24.6515 C61.4745,22.5725 59.7895,20.8865 57.7095,20.8865 C55.6305,20.8865 53.9455,22.5725 53.9455,24.6515 C53.9455,26.7305 55.6305,28.4165 57.7095,28.4165 C59.7895,28.4165 61.4745,26.7305 61.4745,24.6515" id="Fill-43" fill="#FFFFFF"></path>
                <path d="M61.4745,24.6515 C61.4745,22.5725 59.7895,20.8865 57.7095,20.8865 C55.6305,20.8865 53.9455,22.5725 53.9455,24.6515 C53.9455,26.7305 55.6305,28.4165 57.7095,28.4165 C59.7895,28.4165 61.4745,26.7305 61.4745,24.6515 Z" id="Stroke-45" stroke="#4D5862" stroke-width="2" stroke-linecap="round" stroke-linejoin="round"></path>
                <path d="M58.6251,24.6515 C58.6251,24.1465 58.2151,23.7365 57.7101,23.7365 C57.2041,23.7365 56.7951,24.1465 56.7951,24.6515 C56.7951,25.1565 57.2041,25.5665 57.7101,25.5665 C58.2151,25.5665 58.6251,25.1565 58.6251,24.6515" id="Fill-47" fill="#4D5862"></path>
                <path d="M12.8594,23.9193 C12.8594,21.8403 11.1744,20.1543 9.0944,20.1543 C7.0154,20.1543 5.3304,21.8403 5.3304,23.9193 C5.3304,25.9983 7.0154,27.6843 9.0944,27.6843 C11.1744,27.6843 12.8594,25.9983 12.8594,23.9193" id="Fill-49" fill="#FFFFFF"></path>
                <path d="M12.8594,23.9193 C12.8594,21.8403 11.1744,20.1543 9.0944,20.1543 C7.0154,20.1543 5.3304,21.8403 5.3304,23.9193 C5.3304,25.9983 7.0154,27.6843 9.0944,27.6843 C11.1744,27.6843 12.8594,25.9983 12.8594,23.9193 Z" id="Stroke-51" stroke="#4D5862" stroke-width="2" stroke-linecap="round" stroke-linejoin="round"></path>
                <path d="M10.01,23.9193 C10.01,23.4143 9.6,23.0043 9.095,23.0043 C8.589,23.0043 8.18,23.4143 8.18,23.9193 C8.18,24.4243 8.589,24.8343 9.095,24.8343 C9.6,24.8343 10.01,24.4243 10.01,23.9193" id="Fill-53" fill="#4D5862"></path>
                <path d="M11.7612,24.6515 C11.7612,22.5725 10.0762,20.8865 7.9962,20.8865 C5.9172,20.8865 4.2322,22.5725 4.2322,24.6515 C4.2322,26.7305 5.9172,28.4165 7.9962,28.4165 C10.0762,28.4165 11.7612,26.7305 11.7612,24.6515" id="Fill-55" fill="#FFFFFF"></path>
                <path d="M11.7612,24.6515 C11.7612,22.5725 10.0762,20.8865 7.9962,20.8865 C5.9172,20.8865 4.2322,22.5725 4.2322,24.6515 C4.2322,26.7305 5.9172,28.4165 7.9962,28.4165 C10.0762,28.4165 11.7612,26.7305 11.7612,24.6515 Z" id="Stroke-57" stroke="#4D5862" stroke-width="2" stroke-linecap="round" stroke-linejoin="round"></path>
                <path d="M8.9118,24.6515 C8.9118,24.1465 8.5018,23.7365 7.9968,23.7365 C7.4908,23.7365 7.0818,24.1465 7.0818,24.6515 C7.0818,25.1565 7.4908,25.5665 7.9968,25.5665 C8.5018,25.5665 8.9118,25.1565 8.9118,24.6515" id="Fill-59" fill="#4D5862"></path>
                <path d="M77.1602,24.6515 C77.1602,22.5725 75.4752,20.8865 73.3952,20.8865 C71.3162,20.8865 69.6312,22.5725 69.6312,24.6515 C69.6312,26.7305 71.3162,28.4165 73.3952,28.4165 C75.4752,28.4165 77.1602,26.7305 77.1602,24.6515" id="Fill-61" fill="#FFFFFF"></path>
                <path d="M77.1602,24.6515 C77.1602,22.5725 75.4752,20.8865 73.3952,20.8865 C71.3162,20.8865 69.6312,22.5725 69.6312,24.6515 C69.6312,26.7305 71.3162,28.4165 73.3952,28.4165 C75.4752,28.4165 77.1602,26.7305 77.1602,24.6515 Z" id="Stroke-63" stroke="#4D5862" stroke-width="2" stroke-linecap="round" stroke-linejoin="round"></path>
                <path d="M66.0459,23.2447 L1.5849,23.2447 C0.7089,23.2447 -0.0011,22.5337 -0.0001,21.6567 L0.0049,18.5847 L63.5029,18.6877 L63.5029,20.3907 L66.0459,22.0687 L66.0459,23.2447 Z" id="Fill-65" fill="#FFFFFF"></path>
                <path d="M66.0459,23.2447 L1.5849,23.2447 C0.7089,23.2447 -0.0011,22.5337 -0.0001,21.6567 L0.0049,18.5847 L63.5029,18.6877 L63.5029,20.3907 L66.0459,22.0687 L66.0459,23.2447 Z" id="Stroke-67" stroke="#4D5862" stroke-width="2" stroke-linecap="round" stroke-linejoin="round"></path>
                <path d="M66.0466,23.2492 L66.0516,5.0132 C66.0556,3.8152 67.0286,2.8452 68.2276,2.8452 L76.2236,2.8452 C77.1746,2.8452 78.0466,3.3722 78.4896,4.2142 L83.0266,12.8492 C83.2526,13.1672 83.3736,13.5482 83.3726,13.9392 L83.3596,19.8272 C83.3556,21.7162 81.8236,23.2452 79.9646,23.2452 L66.0466,23.2492 Z" id="Fill-69" fill="#FFFFFF"></path>
                <path d="M66.0466,23.2492 L66.0516,5.0132 C66.0556,3.8152 67.0286,2.8452 68.2276,2.8452 L76.2236,2.8452 C77.1746,2.8452 78.0466,3.3722 78.4896,4.2142 L83.0266,12.8492 C83.2526,13.1672 83.3736,13.5482 83.3726,13.9392 L83.3596,19.8272 C83.3556,21.7162 81.8236,23.2452 79.9646,23.2452 L66.0466,23.2492 Z" id="Stroke-71" stroke="#4D5862" stroke-width="2" stroke-linecap="round" stroke-linejoin="round"></path>
                <path d="M74.3109,23.6947 C74.3109,23.1897 73.9009,22.7797 73.3959,22.7797 C72.8899,22.7797 72.4809,23.1897 72.4809,23.6947 C72.4809,24.1997 72.8899,24.6097 73.3959,24.6097 C73.9009,24.6097 74.3109,24.1997 74.3109,23.6947" id="Fill-73" fill="#4D5862"></path>
                <path d="M63.485,18.9525 L0.011,18.9525 L0.011,4.3305 C0.011,1.9385 1.95,0.0005 4.341,0.0005 L59.155,0.0005 C61.546,0.0005 63.485,1.9385 63.485,4.3305 L63.485,18.9525 Z" id="Fill-75" fill="#FFFFFF"></path>
                <path d="M63.485,18.9525 L0.011,18.9525 L0.011,4.3305 C0.011,1.9385 1.95,0.0005 4.341,0.0005 L59.155,0.0005 C61.546,0.0005 63.485,1.9385 63.485,4.3305 L63.485,18.9525 Z" id="Stroke-77" stroke="#4D5862" stroke-width="2" stroke-linecap="round" stroke-linejoin="round"></path>
                <path d="M74.7733,15.186 L77.7563,15.186" id="Stroke-79" stroke="#4D5862" stroke-width="2" stroke-linecap="round" stroke-linejoin="round"></path>
                <path d="M82.6622,12.6211 L72.7252,12.5901 C71.7142,12.5871 70.8982,11.7641 70.9012,10.7541 L70.9132,7.4211 C70.9162,6.4101 71.7392,5.5931 72.7502,5.5971 L78.9352,5.6111" id="Stroke-81" stroke="#4D5862" stroke-width="2" stroke-linecap="round" stroke-linejoin="round"></path>
                <path d="M76.062,25.0176 C76.062,22.9386 74.377,21.2526 72.297,21.2526 C70.218,21.2526 68.533,22.9386 68.533,25.0176 C68.533,27.0966 70.218,28.7826 72.297,28.7826 C74.377,28.7826 76.062,27.0966 76.062,25.0176" id="Fill-83" fill="#FFFFFF"></path>
                <path d="M76.062,25.0176 C76.062,22.9386 74.377,21.2526 72.297,21.2526 C70.218,21.2526 68.533,22.9386 68.533,25.0176 C68.533,27.0966 70.218,28.7826 72.297,28.7826 C74.377,28.7826 76.062,27.0966 76.062,25.0176 Z" id="Stroke-85" stroke="#4D5862" stroke-width="2" stroke-linecap="round" stroke-linejoin="round"></path>
                <path d="M73.2127,25.0176 C73.2127,24.5126 72.8027,24.1026 72.2977,24.1026 C71.7917,24.1026 71.3827,24.5126 71.3827,25.0176 C71.3827,25.5226 71.7917,25.9326 72.2977,25.9326 C72.8027,25.9326 73.2127,25.5226 73.2127,25.0176" id="Fill-87" fill="#4D5862"></path>
                <path d="M19.0546,25.0176 C19.0546,22.9386 17.3696,21.2526 15.2896,21.2526 C13.2106,21.2526 11.5256,22.9386 11.5256,25.0176 C11.5256,27.0966 13.2106,28.7826 15.2896,28.7826 C17.3696,28.7826 19.0546,27.0966 19.0546,25.0176" id="Fill-89" fill="#FFFFFF"></path>
                <path d="M19.0546,25.0176 C19.0546,22.9386 17.3696,21.2526 15.2896,21.2526 C13.2106,21.2526 11.5256,22.9386 11.5256,25.0176 C11.5256,27.0966 13.2106,28.7826 15.2896,28.7826 C17.3696,28.7826 19.0546,27.0966 19.0546,25.0176 Z" id="Stroke-91" stroke="#4D5862" stroke-width="2" stroke-linecap="round" stroke-linejoin="round"></path>
                <path d="M16.2053,25.0176 C16.2053,24.5126 15.7953,24.1026 15.2903,24.1026 C14.7843,24.1026 14.3753,24.5126 14.3753,25.0176 C14.3753,25.5226 14.7843,25.9326 15.2903,25.9326 C15.7953,25.9326 16.2053,25.5226 16.2053,25.0176" id="Fill-93" fill="#4D5862"></path>
                <path d="M27.4743,25.0176 C27.4743,22.9386 25.7893,21.2526 23.7093,21.2526 C21.6303,21.2526 19.9453,22.9386 19.9453,25.0176 C19.9453,27.0966 21.6303,28.7826 23.7093,28.7826 C25.7893,28.7826 27.4743,27.0966 27.4743,25.0176" id="Fill-95" fill="#FFFFFF"></path>
                <path d="M27.4743,25.0176 C27.4743,22.9386 25.7893,21.2526 23.7093,21.2526 C21.6303,21.2526 19.9453,22.9386 19.9453,25.0176 C19.9453,27.0966 21.6303,28.7826 23.7093,28.7826 C25.7893,28.7826 27.4743,27.0966 27.4743,25.0176 Z" id="Stroke-97" stroke="#4D5862" stroke-width="2" stroke-linecap="round" stroke-linejoin="round"></path>
                <path d="M24.6249,25.0176 C24.6249,24.5126 24.2149,24.1026 23.7099,24.1026 C23.2039,24.1026 22.7949,24.5126 22.7949,25.0176 C22.7949,25.5226 23.2039,25.9326 23.7099,25.9326 C24.2149,25.9326 24.6249,25.5226 24.6249,25.0176" id="Fill-99" fill="#4D5862"></path>
                <path d="M60.3763,25.0176 C60.3763,22.9386 58.6913,21.2526 56.6113,21.2526 C54.5323,21.2526 52.8473,22.9386 52.8473,25.0176 C52.8473,27.0966 54.5323,28.7826 56.6113,28.7826 C58.6913,28.7826 60.3763,27.0966 60.3763,25.0176" id="Fill-101" fill="#FFFFFF"></path>
                <path d="M60.3763,25.0176 C60.3763,22.9386 58.6913,21.2526 56.6113,21.2526 C54.5323,21.2526 52.8473,22.9386 52.8473,25.0176 C52.8473,27.0966 54.5323,28.7826 56.6113,28.7826 C58.6913,28.7826 60.3763,27.0966 60.3763,25.0176 Z" id="Stroke-103" stroke="#4D5862" stroke-width="2" stroke-linecap="round" stroke-linejoin="round"></path>
                <path d="M57.5269,25.0176 C57.5269,24.5126 57.1169,24.1026 56.6119,24.1026 C56.1059,24.1026 55.6969,24.5126 55.6969,25.0176 C55.6969,25.5226 56.1059,25.9326 56.6119,25.9326 C57.1169,25.9326 57.5269,25.5226 57.5269,25.0176" id="Fill-105" fill="#4D5862"></path>
                <path d="M51.8752,25.0176 C51.8752,22.9386 50.1902,21.2526 48.1102,21.2526 C46.0312,21.2526 44.3462,22.9386 44.3462,25.0176 C44.3462,27.0966 46.0312,28.7826 48.1102,28.7826 C50.1902,28.7826 51.8752,27.0966 51.8752,25.0176" id="Fill-107" fill="#FFFFFF"></path>
                <path d="M51.8752,25.0176 C51.8752,22.9386 50.1902,21.2526 48.1102,21.2526 C46.0312,21.2526 44.3462,22.9386 44.3462,25.0176 C44.3462,27.0966 46.0312,28.7826 48.1102,28.7826 C50.1902,28.7826 51.8752,27.0966 51.8752,25.0176 Z" id="Stroke-109" stroke="#4D5862" stroke-width="2" stroke-linecap="round" stroke-linejoin="round"></path>
                <path d="M49.0258,25.0176 C49.0258,24.5126 48.6158,24.1026 48.1108,24.1026 C47.6048,24.1026 47.1958,24.5126 47.1958,25.0176 C47.1958,25.5226 47.6048,25.9326 48.1108,25.9326 C48.6158,25.9326 49.0258,25.5226 49.0258,25.0176" id="Fill-111" fill="#4D5862"></path>
                <path d="M10.663,25.0176 C10.663,22.9386 8.978,21.2526 6.898,21.2526 C4.819,21.2526 3.134,22.9386 3.134,25.0176 C3.134,27.0966 4.819,28.7826 6.898,28.7826 C8.978,28.7826 10.663,27.0966 10.663,25.0176" id="Fill-113" fill="#FFFFFF"></path>
                <path d="M10.663,25.0176 C10.663,22.9386 8.978,21.2526 6.898,21.2526 C4.819,21.2526 3.134,22.9386 3.134,25.0176 C3.134,27.0966 4.819,28.7826 6.898,28.7826 C8.978,28.7826 10.663,27.0966 10.663,25.0176 Z" id="Stroke-115" stroke="#4D5862" stroke-width="2" stroke-linecap="round" stroke-linejoin="round"></path>
                <path d="M7.8136,25.0176 C7.8136,24.5126 7.4036,24.1026 6.8986,24.1026 C6.3926,24.1026 5.9836,24.5126 5.9836,25.0176 C5.9836,25.5226 6.3926,25.9326 6.8986,25.9326 C7.4036,25.9326 7.8136,25.5226 7.8136,25.0176" id="Fill-117" fill="#4D5862"></path>
            </g>
        </g>
    </g>
</svg>