<?xml version="1.0" encoding="UTF-8"?>
<svg width="110px" height="35px" viewBox="0 0 110 35" version="1.1" xmlns="http://www.w3.org/2000/svg" xmlns:xlink="http://www.w3.org/1999/xlink">
    <!-- Generator: Sketch 46 (44423) - http://www.bohemiancoding.com/sketch -->
    <title>9 eixos dupla </title>
    <desc>Created with Sketch.</desc>
    <defs></defs>
    <g id="Symbols" stroke="none" stroke-width="1" fill="none" fill-rule="evenodd">
        <g id="9-eixos-dupla-">
            <g id="Page-1" transform="translate(6.000000, 3.000000)">
                <path d="M28.739,23.9193 C28.739,21.8403 27.054,20.1543 24.974,20.1543 C22.895,20.1543 21.21,21.8403 21.21,23.9193 C21.21,25.9983 22.895,27.6843 24.974,27.6843 C27.054,27.6843 28.739,25.9983 28.739,23.9193" id="Fill-1" fill="#FFFFFF"></path>
                <path d="M28.739,23.9193 C28.739,21.8403 27.054,20.1543 24.974,20.1543 C22.895,20.1543 21.21,21.8403 21.21,23.9193 C21.21,25.9983 22.895,27.6843 24.974,27.6843 C27.054,27.6843 28.739,25.9983 28.739,23.9193 Z" id="Stroke-3" stroke="#4D5862" stroke-width="2" stroke-linecap="round" stroke-linejoin="round"></path>
                <path d="M25.8896,23.9193 C25.8896,23.4143 25.4796,23.0043 24.9746,23.0043 C24.4686,23.0043 24.0596,23.4143 24.0596,23.9193 C24.0596,24.4243 24.4686,24.8343 24.9746,24.8343 C25.4796,24.8343 25.8896,24.4243 25.8896,23.9193" id="Fill-5" fill="#4D5862"></path>
                <path d="M27.6407,24.6515 C27.6407,22.5725 25.9557,20.8865 23.8757,20.8865 C21.7967,20.8865 20.1117,22.5725 20.1117,24.6515 C20.1117,26.7305 21.7967,28.4165 23.8757,28.4165 C25.9557,28.4165 27.6407,26.7305 27.6407,24.6515" id="Fill-7" fill="#FFFFFF"></path>
                <path d="M27.6407,24.6515 C27.6407,22.5725 25.9557,20.8865 23.8757,20.8865 C21.7967,20.8865 20.1117,22.5725 20.1117,24.6515 C20.1117,26.7305 21.7967,28.4165 23.8757,28.4165 C25.9557,28.4165 27.6407,26.7305 27.6407,24.6515 Z" id="Stroke-9" stroke="#4D5862" stroke-width="2" stroke-linecap="round" stroke-linejoin="round"></path>
                <path d="M24.7914,24.6515 C24.7914,24.1465 24.3814,23.7365 23.8764,23.7365 C23.3704,23.7365 22.9614,24.1465 22.9614,24.6515 C22.9614,25.1565 23.3704,25.5665 23.8764,25.5665 C24.3814,25.5665 24.7914,25.1565 24.7914,24.6515" id="Fill-11" fill="#4D5862"></path>
                <path d="M20.2422,23.9193 C20.2422,21.8403 18.5572,20.1543 16.4772,20.1543 C14.3982,20.1543 12.7132,21.8403 12.7132,23.9193 C12.7132,25.9983 14.3982,27.6843 16.4772,27.6843 C18.5572,27.6843 20.2422,25.9983 20.2422,23.9193" id="Fill-13" fill="#FFFFFF"></path>
                <path d="M20.2422,23.9193 C20.2422,21.8403 18.5572,20.1543 16.4772,20.1543 C14.3982,20.1543 12.7132,21.8403 12.7132,23.9193 C12.7132,25.9983 14.3982,27.6843 16.4772,27.6843 C18.5572,27.6843 20.2422,25.9983 20.2422,23.9193 Z" id="Stroke-15" stroke="#4D5862" stroke-width="2" stroke-linecap="round" stroke-linejoin="round"></path>
                <path d="M17.3928,23.9193 C17.3928,23.4143 16.9828,23.0043 16.4778,23.0043 C15.9718,23.0043 15.5628,23.4143 15.5628,23.9193 C15.5628,24.4243 15.9718,24.8343 16.4778,24.8343 C16.9828,24.8343 17.3928,24.4243 17.3928,23.9193" id="Fill-17" fill="#4D5862"></path>
                <path d="M19.144,24.6515 C19.144,22.5725 17.459,20.8865 15.379,20.8865 C13.3,20.8865 11.615,22.5725 11.615,24.6515 C11.615,26.7305 13.3,28.4165 15.379,28.4165 C17.459,28.4165 19.144,26.7305 19.144,24.6515" id="Fill-19" fill="#FFFFFF"></path>
                <path d="M19.144,24.6515 C19.144,22.5725 17.459,20.8865 15.379,20.8865 C13.3,20.8865 11.615,22.5725 11.615,24.6515 C11.615,26.7305 13.3,28.4165 15.379,28.4165 C17.459,28.4165 19.144,26.7305 19.144,24.6515 Z" id="Stroke-21" stroke="#4D5862" stroke-width="2" stroke-linecap="round" stroke-linejoin="round"></path>
                <path d="M16.2946,24.6515 C16.2946,24.1465 15.8846,23.7365 15.3796,23.7365 C14.8736,23.7365 14.4646,24.1465 14.4646,24.6515 C14.4646,25.1565 14.8736,25.5665 15.3796,25.5665 C15.8846,25.5665 16.2946,25.1565 16.2946,24.6515" id="Fill-23" fill="#4D5862"></path>
                <path d="M11.8225,23.9193 C11.8225,21.8403 10.1375,20.1543 8.0575,20.1543 C5.9785,20.1543 4.2935,21.8403 4.2935,23.9193 C4.2935,25.9983 5.9785,27.6843 8.0575,27.6843 C10.1375,27.6843 11.8225,25.9983 11.8225,23.9193" id="Fill-25" fill="#FFFFFF"></path>
                <path d="M11.8225,23.9193 C11.8225,21.8403 10.1375,20.1543 8.0575,20.1543 C5.9785,20.1543 4.2935,21.8403 4.2935,23.9193 C4.2935,25.9983 5.9785,27.6843 8.0575,27.6843 C10.1375,27.6843 11.8225,25.9983 11.8225,23.9193 Z" id="Stroke-27" stroke="#4D5862" stroke-width="2" stroke-linecap="round" stroke-linejoin="round"></path>
                <path d="M8.9732,23.9193 C8.9732,23.4143 8.5632,23.0043 8.0582,23.0043 C7.5522,23.0043 7.1432,23.4143 7.1432,23.9193 C7.1432,24.4243 7.5522,24.8343 8.0582,24.8343 C8.5632,24.8343 8.9732,24.4243 8.9732,23.9193" id="Fill-29" fill="#4D5862"></path>
                <path d="M10.7243,24.6515 C10.7243,22.5725 9.0393,20.8865 6.9593,20.8865 C4.8803,20.8865 3.1953,22.5725 3.1953,24.6515 C3.1953,26.7305 4.8803,28.4165 6.9593,28.4165 C9.0393,28.4165 10.7243,26.7305 10.7243,24.6515" id="Fill-31" fill="#FFFFFF"></path>
                <path d="M10.7243,24.6515 C10.7243,22.5725 9.0393,20.8865 6.9593,20.8865 C4.8803,20.8865 3.1953,22.5725 3.1953,24.6515 C3.1953,26.7305 4.8803,28.4165 6.9593,28.4165 C9.0393,28.4165 10.7243,26.7305 10.7243,24.6515 Z" id="Stroke-33" stroke="#4D5862" stroke-width="2" stroke-linecap="round" stroke-linejoin="round"></path>
                <path d="M7.875,24.6515 C7.875,24.1465 7.465,23.7365 6.96,23.7365 C6.454,23.7365 6.045,24.1465 6.045,24.6515 C6.045,25.1565 6.454,25.5665 6.96,25.5665 C7.465,25.5665 7.875,25.1565 7.875,24.6515" id="Fill-35" fill="#4D5862"></path>
                <path d="M42.0585,23.9193 C42.0585,21.8403 40.4495,23.1533 38.3705,23.1533 C36.2915,23.1533 34.5295,21.8403 34.5295,23.9193 C34.5295,25.9983 36.2145,27.6843 38.2935,27.6843 C40.3735,27.6843 42.0585,25.9983 42.0585,23.9193" id="Fill-37" fill="#FFFFFF"></path>
                <path d="M42.0585,23.9193 C42.0585,21.8403 40.4495,23.1533 38.3705,23.1533 C36.2915,23.1533 34.5295,21.8403 34.5295,23.9193 C34.5295,25.9983 36.2145,27.6843 38.2935,27.6843 C40.3735,27.6843 42.0585,25.9983 42.0585,23.9193 Z" id="Stroke-39" stroke="#4D5862" stroke-width="2" stroke-linecap="round" stroke-linejoin="round"></path>
                <path d="M39.2091,23.9193 C39.2091,23.4143 38.7991,23.0043 38.2941,23.0043 C37.7881,23.0043 37.3791,23.4143 37.3791,23.9193 C37.3791,24.4243 37.7881,24.8343 38.2941,24.8343 C38.7991,24.8343 39.2091,24.4243 39.2091,23.9193" id="Fill-41" fill="#4D5862"></path>
                <path d="M40.9603,24.6515 C40.9603,22.5725 39.2753,20.8865 37.1953,20.8865 C35.1163,20.8865 33.4313,22.5725 33.4313,24.6515 C33.4313,26.7305 35.1163,28.4165 37.1953,28.4165 C39.2753,28.4165 40.9603,26.7305 40.9603,24.6515" id="Fill-43" fill="#FFFFFF"></path>
                <path d="M40.9603,24.6515 C40.9603,22.5725 39.2753,20.8865 37.1953,20.8865 C35.1163,20.8865 33.4313,22.5725 33.4313,24.6515 C33.4313,26.7305 35.1163,28.4165 37.1953,28.4165 C39.2753,28.4165 40.9603,26.7305 40.9603,24.6515 Z" id="Stroke-45" stroke="#4D5862" stroke-width="2" stroke-linecap="round" stroke-linejoin="round"></path>
                <path d="M38.1109,24.6515 C38.1109,24.1465 37.7009,23.7365 37.1959,23.7365 C36.6899,23.7365 36.2809,24.1465 36.2809,24.6515 C36.2809,25.1565 36.6899,25.5665 37.1959,25.5665 C37.7009,25.5665 38.1109,25.1565 38.1109,24.6515" id="Fill-47" fill="#4D5862"></path>
                <path d="M70.9044,23.9193 C70.9044,21.8403 69.2194,20.1543 67.1394,20.1543 C65.0604,20.1543 63.3754,21.8403 63.3754,23.9193 C63.3754,25.9983 65.0604,27.6843 67.1394,27.6843 C69.2194,27.6843 70.9044,25.9983 70.9044,23.9193" id="Fill-49" fill="#FFFFFF"></path>
                <path d="M70.9044,23.9193 C70.9044,21.8403 69.2194,20.1543 67.1394,20.1543 C65.0604,20.1543 63.3754,21.8403 63.3754,23.9193 C63.3754,25.9983 65.0604,27.6843 67.1394,27.6843 C69.2194,27.6843 70.9044,25.9983 70.9044,23.9193 Z" id="Stroke-51" stroke="#4D5862" stroke-width="2" stroke-linecap="round" stroke-linejoin="round"></path>
                <path d="M68.0551,23.9193 C68.0551,23.4143 67.6451,23.0043 67.1401,23.0043 C66.6341,23.0043 66.2251,23.4143 66.2251,23.9193 C66.2251,24.4243 66.6341,24.8343 67.1401,24.8343 C67.6451,24.8343 68.0551,24.4243 68.0551,23.9193" id="Fill-53" fill="#4D5862"></path>
                <path d="M69.8062,24.6515 C69.8062,22.5725 68.1212,20.8865 66.0412,20.8865 C63.9622,20.8865 62.2772,22.5725 62.2772,24.6515 C62.2772,26.7305 63.9622,28.4165 66.0412,28.4165 C68.1212,28.4165 69.8062,26.7305 69.8062,24.6515" id="Fill-55" fill="#FFFFFF"></path>
                <path d="M69.8062,24.6515 C69.8062,22.5725 68.1212,20.8865 66.0412,20.8865 C63.9622,20.8865 62.2772,22.5725 62.2772,24.6515 C62.2772,26.7305 63.9622,28.4165 66.0412,28.4165 C68.1212,28.4165 69.8062,26.7305 69.8062,24.6515 Z" id="Stroke-57" stroke="#4D5862" stroke-width="2" stroke-linecap="round" stroke-linejoin="round"></path>
                <path d="M66.9568,24.6515 C66.9568,24.1465 66.5468,23.7365 66.0418,23.7365 C65.5358,23.7365 65.1268,24.1465 65.1268,24.6515 C65.1268,25.1565 65.5358,25.5665 66.0418,25.5665 C66.5468,25.5665 66.9568,25.1565 66.9568,24.6515" id="Fill-59" fill="#4D5862"></path>
                <path d="M58.8353,23.9193 C58.8353,21.8403 57.1503,20.1543 55.0703,20.1543 C52.9913,20.1543 51.3063,21.8403 51.3063,23.9193 C51.3063,25.9983 52.9913,27.6843 55.0703,27.6843 C57.1503,27.6843 58.8353,25.9983 58.8353,23.9193" id="Fill-61" fill="#FFFFFF"></path>
                <path d="M58.8353,23.9193 C58.8353,21.8403 57.1503,20.1543 55.0703,20.1543 C52.9913,20.1543 51.3063,21.8403 51.3063,23.9193 C51.3063,25.9983 52.9913,27.6843 55.0703,27.6843 C57.1503,27.6843 58.8353,25.9983 58.8353,23.9193 Z" id="Stroke-63" stroke="#4D5862" stroke-width="2" stroke-linecap="round" stroke-linejoin="round"></path>
                <path d="M55.986,23.9193 C55.986,23.4143 55.576,23.0043 55.071,23.0043 C54.565,23.0043 54.156,23.4143 54.156,23.9193 C54.156,24.4243 54.565,24.8343 55.071,24.8343 C55.576,24.8343 55.986,24.4243 55.986,23.9193" id="Fill-65" fill="#4D5862"></path>
                <path d="M57.7371,24.6515 C57.7371,22.5725 56.0521,20.8865 53.9721,20.8865 C51.8931,20.8865 50.2081,22.5725 50.2081,24.6515 C50.2081,26.7305 51.8931,28.4165 53.9721,28.4165 C56.0521,28.4165 57.7371,26.7305 57.7371,24.6515" id="Fill-67" fill="#FFFFFF"></path>
                <path d="M57.7371,24.6515 C57.7371,22.5725 56.0521,20.8865 53.9721,20.8865 C51.8931,20.8865 50.2081,22.5725 50.2081,24.6515 C50.2081,26.7305 51.8931,28.4165 53.9721,28.4165 C56.0521,28.4165 57.7371,26.7305 57.7371,24.6515 Z" id="Stroke-69" stroke="#4D5862" stroke-width="2" stroke-linecap="round" stroke-linejoin="round"></path>
                <path d="M54.8878,24.6515 C54.8878,24.1465 54.4778,23.7365 53.9728,23.7365 C53.4668,23.7365 53.0578,24.1465 53.0578,24.6515 C53.0578,25.1565 53.4668,25.5665 53.9728,25.5665 C54.4778,25.5665 54.8878,25.1565 54.8878,24.6515" id="Fill-71" fill="#4D5862"></path>
                <path d="M92.793,24.6515 C92.793,22.5725 91.108,20.8865 89.028,20.8865 C86.949,20.8865 85.264,22.5725 85.264,24.6515 C85.264,26.7305 86.949,28.4165 89.028,28.4165 C91.108,28.4165 92.793,26.7305 92.793,24.6515" id="Fill-73" fill="#FFFFFF"></path>
                <path d="M92.793,24.6515 C92.793,22.5725 91.108,20.8865 89.028,20.8865 C86.949,20.8865 85.264,22.5725 85.264,24.6515 C85.264,26.7305 86.949,28.4165 89.028,28.4165 C91.108,28.4165 92.793,26.7305 92.793,24.6515 Z" id="Stroke-75" stroke="#4D5862" stroke-width="2" stroke-linecap="round" stroke-linejoin="round"></path>
                <path d="M50.4157,23.9193 C50.4157,21.8403 48.7307,20.1543 46.6507,20.1543 C44.5717,20.1543 42.8867,21.8403 42.8867,23.9193 C42.8867,25.9983 44.5717,27.6843 46.6507,27.6843 C48.7307,27.6843 50.4157,25.9983 50.4157,23.9193" id="Fill-77" fill="#FFFFFF"></path>
                <path d="M50.4157,23.9193 C50.4157,21.8403 48.7307,20.1543 46.6507,20.1543 C44.5717,20.1543 42.8867,21.8403 42.8867,23.9193 C42.8867,25.9983 44.5717,27.6843 46.6507,27.6843 C48.7307,27.6843 50.4157,25.9983 50.4157,23.9193 Z" id="Stroke-79" stroke="#4D5862" stroke-width="2" stroke-linecap="round" stroke-linejoin="round"></path>
                <path d="M47.5663,23.9193 C47.5663,23.4143 47.1563,23.0043 46.6513,23.0043 C46.1453,23.0043 45.7363,23.4143 45.7363,23.9193 C45.7363,24.4243 46.1453,24.8343 46.6513,24.8343 C47.1563,24.8343 47.5663,24.4243 47.5663,23.9193" id="Fill-81" fill="#4D5862"></path>
                <path d="M49.3175,24.6515 C49.3175,22.5725 47.6325,20.8865 45.5525,20.8865 C43.4735,20.8865 41.7885,22.5725 41.7885,24.6515 C41.7885,26.7305 43.4735,28.4165 45.5525,28.4165 C47.6325,28.4165 49.3175,26.7305 49.3175,24.6515" id="Fill-83" fill="#FFFFFF"></path>
                <path d="M49.3175,24.6515 C49.3175,22.5725 47.6325,20.8865 45.5525,20.8865 C43.4735,20.8865 41.7885,22.5725 41.7885,24.6515 C41.7885,26.7305 43.4735,28.4165 45.5525,28.4165 C47.6325,28.4165 49.3175,26.7305 49.3175,24.6515 Z" id="Stroke-85" stroke="#4D5862" stroke-width="2" stroke-linecap="round" stroke-linejoin="round"></path>
                <path d="M46.4681,24.6515 C46.4681,24.1465 46.0581,23.7365 45.5531,23.7365 C45.0471,23.7365 44.6381,24.1465 44.6381,24.6515 C44.6381,25.1565 45.0471,25.5665 45.5531,25.5665 C46.0581,25.5665 46.4681,25.1565 46.4681,24.6515" id="Fill-87" fill="#4D5862"></path>
                <path d="M79.4055,23.9193 C79.4055,21.8403 77.7205,20.1543 75.6405,20.1543 C73.5615,20.1543 71.8765,21.8403 71.8765,23.9193 C71.8765,25.9983 73.5615,27.6843 75.6405,27.6843 C77.7205,27.6843 79.4055,25.9983 79.4055,23.9193" id="Fill-89" fill="#FFFFFF"></path>
                <path d="M79.4055,23.9193 C79.4055,21.8403 77.7205,20.1543 75.6405,20.1543 C73.5615,20.1543 71.8765,21.8403 71.8765,23.9193 C71.8765,25.9983 73.5615,27.6843 75.6405,27.6843 C77.7205,27.6843 79.4055,25.9983 79.4055,23.9193 Z" id="Stroke-91" stroke="#4D5862" stroke-width="2" stroke-linecap="round" stroke-linejoin="round"></path>
                <path d="M76.5561,23.9193 C76.5561,23.4143 76.1461,23.0043 75.6411,23.0043 C75.1351,23.0043 74.7261,23.4143 74.7261,23.9193 C74.7261,24.4243 75.1351,24.8343 75.6411,24.8343 C76.1461,24.8343 76.5561,24.4243 76.5561,23.9193" id="Fill-93" fill="#4D5862"></path>
                <path d="M78.3073,24.6515 C78.3073,22.5725 76.6223,20.8865 74.5423,20.8865 C72.4633,20.8865 70.7783,22.5725 70.7783,24.6515 C70.7783,26.7305 72.4633,28.4165 74.5423,28.4165 C76.6223,28.4165 78.3073,26.7305 78.3073,24.6515" id="Fill-95" fill="#FFFFFF"></path>
                <path d="M78.3073,24.6515 C78.3073,22.5725 76.6223,20.8865 74.5423,20.8865 C72.4633,20.8865 70.7783,22.5725 70.7783,24.6515 C70.7783,26.7305 72.4633,28.4165 74.5423,28.4165 C76.6223,28.4165 78.3073,26.7305 78.3073,24.6515 Z" id="Stroke-97" stroke="#4D5862" stroke-width="2" stroke-linecap="round" stroke-linejoin="round"></path>
                <path d="M75.4579,24.6515 C75.4579,24.1465 75.0479,23.7365 74.5429,23.7365 C74.0369,23.7365 73.6279,24.1465 73.6279,24.6515 C73.6279,25.1565 74.0369,25.5665 74.5429,25.5665 C75.0479,25.5665 75.4579,25.1565 75.4579,24.6515" id="Fill-99" fill="#4D5862"></path>
                <path d="M81.6787,23.2447 L5.2457,23.2447 L1.5847,23.2447 C0.7087,23.2447 -0.0013,22.5337 -0.0003,21.6567 L0.0047,18.5847 L39.1647,18.6357 L39.1647,21.8007 L41.9227,21.8037 L41.9227,18.6417 L79.1357,18.6877 L79.1357,20.3907 L81.6787,22.0687 L81.6787,23.2447 Z" id="Fill-101" fill="#FFFFFF"></path>
                <path d="M81.6787,23.2447 L5.2457,23.2447 L1.5847,23.2447 C0.7087,23.2447 -0.0013,22.5337 -0.0003,21.6567 L0.0047,18.5847 L39.1647,18.6357 L39.1647,21.8007 L41.9227,21.8037 L41.9227,18.6417 L79.1357,18.6877 L79.1357,20.3907 L81.6787,22.0687 L81.6787,23.2447 Z" id="Stroke-103" stroke="#4D5862" stroke-width="2" stroke-linecap="round" stroke-linejoin="round"></path>
                <path d="M81.6794,23.2492 L81.6844,5.0132 C81.6884,3.8152 82.6614,2.8452 83.8604,2.8452 L91.8564,2.8452 C92.8074,2.8452 93.6794,3.3722 94.1224,4.2142 L98.6594,12.8492 C98.8854,13.1672 99.0064,13.5482 99.0054,13.9392 L98.9924,19.8272 C98.9884,21.7162 97.4564,23.2452 95.5984,23.2452 L81.6794,23.2492 Z" id="Fill-105" fill="#FFFFFF"></path>
                <path d="M81.6794,23.2492 L81.6844,5.0132 C81.6884,3.8152 82.6614,2.8452 83.8604,2.8452 L91.8564,2.8452 C92.8074,2.8452 93.6794,3.3722 94.1224,4.2142 L98.6594,12.8492 C98.8854,13.1672 99.0064,13.5482 99.0054,13.9392 L98.9924,19.8272 C98.9884,21.7162 97.4564,23.2452 95.5984,23.2452 L81.6794,23.2492 Z" id="Stroke-107" stroke="#4D5862" stroke-width="2" stroke-linecap="round" stroke-linejoin="round"></path>
                <path d="M89.9436,23.6947 C89.9436,23.1897 89.5336,22.7797 89.0286,22.7797 C88.5226,22.7797 88.1136,23.1897 88.1136,23.6947 C88.1136,24.1997 88.5226,24.6097 89.0286,24.6097 C89.5336,24.6097 89.9436,24.1997 89.9436,23.6947" id="Fill-109" fill="#4D5862"></path>
                <path d="M79.1291,18.9525 L41.9291,18.9525 L41.9291,4.3305 C41.9291,1.9385 43.8681,0.0005 46.2591,0.0005 L74.7991,0.0005 C77.1901,0.0005 79.1291,1.9385 79.1291,4.3305 L79.1291,18.9525 Z" id="Fill-111" fill="#FFFFFF"></path>
                <path d="M79.1291,18.9525 L41.9291,18.9525 L41.9291,4.3305 C41.9291,1.9385 43.8681,0.0005 46.2591,0.0005 L74.7991,0.0005 C77.1901,0.0005 79.1291,1.9385 79.1291,4.3305 L79.1291,18.9525 Z" id="Stroke-113" stroke="#4D5862" stroke-width="2" stroke-linecap="round" stroke-linejoin="round"></path>
                <path d="M39.17,18.9525 L0.02,18.9525 L0.02,4.3305 C0.02,1.9385 1.958,0.0005 4.35,0.0005 L34.84,0.0005 C37.231,0.0005 39.17,1.9385 39.17,4.3305 L39.17,18.9525 Z" id="Fill-115" fill="#FFFFFF"></path>
                <path d="M39.17,18.9525 L0.02,18.9525 L0.02,4.3305 C0.02,1.9385 1.958,0.0005 4.35,0.0005 L34.84,0.0005 C37.231,0.0005 39.17,1.9385 39.17,4.3305 L39.17,18.9525 Z" id="Stroke-117" stroke="#4D5862" stroke-width="2" stroke-linecap="round" stroke-linejoin="round"></path>
                <path d="M90.4061,15.186 L93.3891,15.186" id="Stroke-119" stroke="#4D5862" stroke-width="2" stroke-linecap="round" stroke-linejoin="round"></path>
                <path d="M98.295,12.6211 L88.358,12.5901 C87.347,12.5871 86.531,11.7641 86.534,10.7541 L86.546,7.4211 C86.549,6.4101 87.372,5.5931 88.383,5.5971 L94.568,5.6111" id="Stroke-121" stroke="#4D5862" stroke-width="2" stroke-linecap="round" stroke-linejoin="round"></path>
                <path d="M91.6948,25.0176 C91.6948,22.9386 90.0098,21.2526 87.9298,21.2526 C85.8508,21.2526 84.1658,22.9386 84.1658,25.0176 C84.1658,27.0966 85.8508,28.7826 87.9298,28.7826 C90.0098,28.7826 91.6948,27.0966 91.6948,25.0176" id="Fill-123" fill="#FFFFFF"></path>
                <path d="M91.6948,25.0176 C91.6948,22.9386 90.0098,21.2526 87.9298,21.2526 C85.8508,21.2526 84.1658,22.9386 84.1658,25.0176 C84.1658,27.0966 85.8508,28.7826 87.9298,28.7826 C90.0098,28.7826 91.6948,27.0966 91.6948,25.0176 Z" id="Stroke-125" stroke="#4D5862" stroke-width="2" stroke-linecap="round" stroke-linejoin="round"></path>
                <path d="M88.8454,25.0176 C88.8454,24.5126 88.4354,24.1026 87.9304,24.1026 C87.4244,24.1026 87.0154,24.5126 87.0154,25.0176 C87.0154,25.5226 87.4244,25.9326 87.9304,25.9326 C88.4354,25.9326 88.8454,25.5226 88.8454,25.0176" id="Fill-127" fill="#4D5862"></path>
                <path d="M77.209,25.0176 C77.209,22.9386 75.524,21.2526 73.444,21.2526 C71.365,21.2526 69.68,22.9386 69.68,25.0176 C69.68,27.0966 71.365,28.7826 73.444,28.7826 C75.524,28.7826 77.209,27.0966 77.209,25.0176" id="Fill-129" fill="#FFFFFF"></path>
                <path d="M77.209,25.0176 C77.209,22.9386 75.524,21.2526 73.444,21.2526 C71.365,21.2526 69.68,22.9386 69.68,25.0176 C69.68,27.0966 71.365,28.7826 73.444,28.7826 C75.524,28.7826 77.209,27.0966 77.209,25.0176 Z" id="Stroke-131" stroke="#4D5862" stroke-width="2" stroke-linecap="round" stroke-linejoin="round"></path>
                <path d="M74.3597,25.0176 C74.3597,24.5126 73.9497,24.1026 73.4447,24.1026 C72.9387,24.1026 72.5297,24.5126 72.5297,25.0176 C72.5297,25.5226 72.9387,25.9326 73.4447,25.9326 C73.9497,25.9326 74.3597,25.5226 74.3597,25.0176" id="Fill-133" fill="#4D5862"></path>
                <path d="M48.2193,25.0176 C48.2193,22.9386 46.5343,21.2526 44.4543,21.2526 C42.3753,21.2526 40.6903,22.9386 40.6903,25.0176 C40.6903,27.0966 42.3753,28.7826 44.4543,28.7826 C46.5343,28.7826 48.2193,27.0966 48.2193,25.0176" id="Fill-135" fill="#FFFFFF"></path>
                <path d="M48.2193,25.0176 C48.2193,22.9386 46.5343,21.2526 44.4543,21.2526 C42.3753,21.2526 40.6903,22.9386 40.6903,25.0176 C40.6903,27.0966 42.3753,28.7826 44.4543,28.7826 C46.5343,28.7826 48.2193,27.0966 48.2193,25.0176 Z" id="Stroke-137" stroke="#4D5862" stroke-width="2" stroke-linecap="round" stroke-linejoin="round"></path>
                <path d="M45.3699,25.0176 C45.3699,24.5126 44.9599,24.1026 44.4549,24.1026 C43.9489,24.1026 43.5399,24.5126 43.5399,25.0176 C43.5399,25.5226 43.9489,25.9326 44.4549,25.9326 C44.9599,25.9326 45.3699,25.5226 45.3699,25.0176" id="Fill-139" fill="#4D5862"></path>
                <path d="M56.6389,25.0176 C56.6389,22.9386 54.9539,21.2526 52.8739,21.2526 C50.7949,21.2526 49.1099,22.9386 49.1099,25.0176 C49.1099,27.0966 50.7949,28.7826 52.8739,28.7826 C54.9539,28.7826 56.6389,27.0966 56.6389,25.0176" id="Fill-141" fill="#FFFFFF"></path>
                <path d="M56.6389,25.0176 C56.6389,22.9386 54.9539,21.2526 52.8739,21.2526 C50.7949,21.2526 49.1099,22.9386 49.1099,25.0176 C49.1099,27.0966 50.7949,28.7826 52.8739,28.7826 C54.9539,28.7826 56.6389,27.0966 56.6389,25.0176 Z" id="Stroke-143" stroke="#4D5862" stroke-width="2" stroke-linecap="round" stroke-linejoin="round"></path>
                <path d="M53.7896,25.0176 C53.7896,24.5126 53.3796,24.1026 52.8746,24.1026 C52.3686,24.1026 51.9596,24.5126 51.9596,25.0176 C51.9596,25.5226 52.3686,25.9326 52.8746,25.9326 C53.3796,25.9326 53.7896,25.5226 53.7896,25.0176" id="Fill-145" fill="#4D5862"></path>
                <path d="M68.708,25.0176 C68.708,22.9386 67.023,21.2526 64.943,21.2526 C62.864,21.2526 61.179,22.9386 61.179,25.0176 C61.179,27.0966 62.864,28.7826 64.943,28.7826 C67.023,28.7826 68.708,27.0966 68.708,25.0176" id="Fill-147" fill="#FFFFFF"></path>
                <path d="M68.708,25.0176 C68.708,22.9386 67.023,21.2526 64.943,21.2526 C62.864,21.2526 61.179,22.9386 61.179,25.0176 C61.179,27.0966 62.864,28.7826 64.943,28.7826 C67.023,28.7826 68.708,27.0966 68.708,25.0176 Z" id="Stroke-149" stroke="#4D5862" stroke-width="2" stroke-linecap="round" stroke-linejoin="round"></path>
                <path d="M65.8586,25.0176 C65.8586,24.5126 65.4486,24.1026 64.9436,24.1026 C64.4376,24.1026 64.0286,24.5126 64.0286,25.0176 C64.0286,25.5226 64.4376,25.9326 64.9436,25.9326 C65.4486,25.9326 65.8586,25.5226 65.8586,25.0176" id="Fill-151" fill="#4D5862"></path>
                <path d="M39.8621,25.0176 C39.8621,22.9386 38.1771,21.2526 36.0971,21.2526 C34.0181,21.2526 32.3331,22.9386 32.3331,25.0176 C32.3331,27.0966 34.0181,28.7826 36.0971,28.7826 C38.1771,28.7826 39.8621,27.0966 39.8621,25.0176" id="Fill-153" fill="#FFFFFF"></path>
                <path d="M39.8621,25.0176 C39.8621,22.9386 38.1771,21.2526 36.0971,21.2526 C34.0181,21.2526 32.3331,22.9386 32.3331,25.0176 C32.3331,27.0966 34.0181,28.7826 36.0971,28.7826 C38.1771,28.7826 39.8621,27.0966 39.8621,25.0176 Z" id="Stroke-155" stroke="#4D5862" stroke-width="2" stroke-linecap="round" stroke-linejoin="round"></path>
                <path d="M37.0127,25.0176 C37.0127,24.5126 36.6027,24.1026 36.0977,24.1026 C35.5917,24.1026 35.1827,24.5126 35.1827,25.0176 C35.1827,25.5226 35.5917,25.9326 36.0977,25.9326 C36.6027,25.9326 37.0127,25.5226 37.0127,25.0176" id="Fill-157" fill="#4D5862"></path>
                <path d="M9.6261,25.0176 C9.6261,22.9386 7.9411,21.2526 5.8611,21.2526 C3.7821,21.2526 2.0971,22.9386 2.0971,25.0176 C2.0971,27.0966 3.7821,28.7826 5.8611,28.7826 C7.9411,28.7826 9.6261,27.0966 9.6261,25.0176" id="Fill-159" fill="#FFFFFF"></path>
                <path d="M9.6261,25.0176 C9.6261,22.9386 7.9411,21.2526 5.8611,21.2526 C3.7821,21.2526 2.0971,22.9386 2.0971,25.0176 C2.0971,27.0966 3.7821,28.7826 5.8611,28.7826 C7.9411,28.7826 9.6261,27.0966 9.6261,25.0176 Z" id="Stroke-161" stroke="#4D5862" stroke-width="2" stroke-linecap="round" stroke-linejoin="round"></path>
                <path d="M6.7767,25.0176 C6.7767,24.5126 6.3667,24.1026 5.8617,24.1026 C5.3557,24.1026 4.9467,24.5126 4.9467,25.0176 C4.9467,25.5226 5.3557,25.9326 5.8617,25.9326 C6.3667,25.9326 6.7767,25.5226 6.7767,25.0176" id="Fill-163" fill="#4D5862"></path>
                <path d="M18.0457,25.0176 C18.0457,22.9386 16.3607,21.2526 14.2807,21.2526 C12.2017,21.2526 10.5167,22.9386 10.5167,25.0176 C10.5167,27.0966 12.2017,28.7826 14.2807,28.7826 C16.3607,28.7826 18.0457,27.0966 18.0457,25.0176" id="Fill-165" fill="#FFFFFF"></path>
                <path d="M18.0457,25.0176 C18.0457,22.9386 16.3607,21.2526 14.2807,21.2526 C12.2017,21.2526 10.5167,22.9386 10.5167,25.0176 C10.5167,27.0966 12.2017,28.7826 14.2807,28.7826 C16.3607,28.7826 18.0457,27.0966 18.0457,25.0176 Z" id="Stroke-167" stroke="#4D5862" stroke-width="2" stroke-linecap="round" stroke-linejoin="round"></path>
                <path d="M15.1964,25.0176 C15.1964,24.5126 14.7864,24.1026 14.2814,24.1026 C13.7754,24.1026 13.3664,24.5126 13.3664,25.0176 C13.3664,25.5226 13.7754,25.9326 14.2814,25.9326 C14.7864,25.9326 15.1964,25.5226 15.1964,25.0176" id="Fill-169" fill="#4D5862"></path>
                <path d="M26.5425,25.0176 C26.5425,22.9386 24.8575,21.2526 22.7775,21.2526 C20.6985,21.2526 19.0135,22.9386 19.0135,25.0176 C19.0135,27.0966 20.6985,28.7826 22.7775,28.7826 C24.8575,28.7826 26.5425,27.0966 26.5425,25.0176" id="Fill-171" fill="#FFFFFF"></path>
                <path d="M26.5425,25.0176 C26.5425,22.9386 24.8575,21.2526 22.7775,21.2526 C20.6985,21.2526 19.0135,22.9386 19.0135,25.0176 C19.0135,27.0966 20.6985,28.7826 22.7775,28.7826 C24.8575,28.7826 26.5425,27.0966 26.5425,25.0176 Z" id="Stroke-173" stroke="#4D5862" stroke-width="2" stroke-linecap="round" stroke-linejoin="round"></path>
                <path d="M23.6932,25.0176 C23.6932,24.5126 23.2832,24.1026 22.7782,24.1026 C22.2722,24.1026 21.8632,24.5126 21.8632,25.0176 C21.8632,25.5226 22.2722,25.9326 22.7782,25.9326 C23.2832,25.9326 23.6932,25.5226 23.6932,25.0176" id="Fill-175" fill="#4D5862"></path>
            </g>
        </g>
    </g>
</svg>