<?xml version="1.0" encoding="UTF-8"?>
<svg width="233px" height="100px" viewBox="0 0 233 100" version="1.1" xmlns="http://www.w3.org/2000/svg" xmlns:xlink="http://www.w3.org/1999/xlink">
    <!-- Generator: Sketch 45.2 (43514) - http://www.bohemiancoding.com/sketch -->
    <title>Adesivo</title>
    <desc>Created with Sketch.</desc>
    <defs></defs>
    <g id="Ativação-Android" stroke="none" stroke-width="1" fill="none" fill-rule="evenodd">
        <g id="Ativação-2o-Veículo" transform="translate(-63.000000, -376.000000)" stroke="#DADBDE">
            <g id="Adesivo" transform="translate(64.000000, 377.000000)">
                <g>
                    <path d="M229.089444,98.0874747 L2.61190095,98.0874747 C1.3860425,98.0874747 0.391256417,97.0934719 0.391256417,95.8668302 L0.391256417,2.6115093 C0.391256417,1.38565086 1.3860425,0.391648065 2.61190095,0.391648065 L229.089444,0.391648065 C230.316086,0.391648065 231.310089,1.38565086 231.310089,2.6115093 L231.310089,95.8668302 C231.310089,97.0934719 230.316086,98.0874747 229.089444,98.0874747 Z" id="Stroke-1"></path>
                    <path d="M206.133228,88.620166 L157.492105,88.620166 C156.270946,88.620166 155.27146,87.6206802 155.27146,86.3995215 L155.27146,73.1586837 C155.27146,71.937525 156.270946,70.9388225 157.492105,70.9388225 L206.133228,70.9388225 C207.354387,70.9388225 208.353873,71.937525 208.353873,73.1586837 L208.353873,86.3995215 C208.353873,87.6206802 207.354387,88.620166 206.133228,88.620166" id="Fill-3"></path>
                    <path d="M178.14288,64.2178283 C170.165008,64.2178283 163.281416,64.2178283 157.492105,64.2178283 C156.270946,64.2178283 155.27146,63.2183425 155.27146,61.9971838 L155.27146,13.3560607 C155.27146,12.134902 156.270946,11.1354161 157.492105,11.1354161 L206.133228,11.1354161 C207.354387,11.1354161 208.353873,12.134902 208.353873,13.3560607 L208.353873,61.9971838 C208.353873,63.2183425 207.354387,64.2178283 206.133228,64.2178283" id="Fill-5" stroke-linecap="round" transform="translate(181.812667, 37.676622) rotate(90.000000) translate(-181.812667, -37.676622) "></path>
                </g>
            </g>
        </g>
    </g>
</svg>
