<?xml version="1.0" encoding="UTF-8"?>
<svg width="49px" height="16px" viewBox="0 0 49 16" version="1.1" xmlns="http://www.w3.org/2000/svg" xmlns:xlink="http://www.w3.org/1999/xlink">
    <!-- Generator: Sketch 45.2 (43514) - http://www.bohemiancoding.com/sketch -->
    <title>Bandeira VISA</title>
    <desc>Created with Sketch.</desc>
    <defs></defs>
    <g id="Symbols" stroke="none" stroke-width="1" fill="none" fill-rule="evenodd">
        <g id="Cartão-de-crédito-Preenchido" transform="translate(-245.000000, -21.000000)" fill="#FFFFFF">
            <g id="Cartao">
                <g id="Bandeira-VISA" transform="translate(244.000000, 21.000000)">
                    <path d="M26.2265944,5.22192518 C26.2008804,7.43200445 28.1857736,8.66322837 29.6815337,9.39789287 C31.2181337,10.1496736 31.733737,10.6321597 31.7278757,11.3044452 C31.7163422,12.3342687 30.5015453,12.7880377 29.365781,12.8057244 C27.3824005,12.8369139 26.2309431,12.2667549 25.3133696,11.8365682 L24.5990501,15.1987566 C25.520216,15.6241888 27.2222553,15.9952296 28.9868778,16.0138672 C33.1325024,16.0138672 35.8432486,13.9547907 35.8564837,10.7641444 C35.8738785,6.71540702 30.2899721,6.49194578 30.328354,4.6827655 C30.3410219,4.13276556 30.8615411,3.54777255 32.0018432,3.39753052 C32.5667946,3.32393094 34.1260834,3.26649665 35.8920295,4.08426972 L36.5853619,0.830864156 C35.6352678,0.484166411 34.4144205,0.15078125 32.8937026,0.15078125 C28.9938735,0.15078125 26.248716,2.23629276 26.2265944,5.22192518 L26.2265944,5.22192518 Z M43.2519029,0.431296431 C42.4940965,0.431296431 41.8554063,0.874225147 41.5721743,1.55659021 L35.6511499,15.7738603 L39.7939384,15.7738603 L40.6171643,13.4816234 L45.6788497,13.4816234 L46.155693,15.7738603 L49.8049998,15.7738603 L46.6194902,0.431296431 L43.2519029,0.431296431 Z M43.8299004,4.57683536 L45.0254119,10.3375712 L41.7527394,10.3375712 L43.8299004,4.57683536 Z M21.2066942,0.431296431 L17.94253,15.7738603 L21.8884931,15.7738603 L25.1515228,0.431296431 L21.2066942,0.431296431 Z M15.3686731,0.431296431 L11.2616195,10.873688 L9.60042007,1.99514479 C9.40586348,1.00392776 8.63576729,0.431296431 7.78058805,0.431296431 L1.06621148,0.431296431 L0.973187335,0.876126945 C2.35115468,1.17775208 3.91743919,1.66385161 4.86602072,2.18190134 C5.44685438,2.49912122 5.61229365,2.7758328 5.80325785,3.52951529 L8.94944016,15.7738603 L13.1200225,15.7738603 L19.5129742,0.431296431 L15.3686731,0.431296431 L15.3686731,0.431296431 Z" id="Bandeira"></path>
                </g>
            </g>
        </g>
    </g>
</svg>