<?xml version="1.0" encoding="UTF-8"?>
<svg width="50px" height="17px" viewBox="0 0 50 17" version="1.1" xmlns="http://www.w3.org/2000/svg" xmlns:xlink="http://www.w3.org/1999/xlink">
    <!-- Generator: Sketch 46.2 (44496) - http://www.bohemiancoding.com/sketch -->
    <title>Bandeira VISA Color</title>
    <desc>Created with Sketch.</desc>
    <defs></defs>
    <g id="Symbols" stroke="none" stroke-width="1" fill="none" fill-rule="evenodd">
        <g id="Bandeira-VISA-Color" fill="#004A99">
            <g id="Group-12">
                <path d="M32.6225757,0.000135517619 C28.6621701,0.0218183367 25.8799933,2.13860355 25.8575361,5.16219523 C25.831207,7.41198131 27.8635841,8.66532569 29.3951268,9.41318935 C30.9684863,10.1786703 31.4962307,10.6696313 31.4904228,11.3539953 C31.4784198,12.4023208 30.2347552,12.8642423 29.0720141,12.8822468 C27.0409921,12.9139966 25.8619889,12.333594 24.922271,11.8956785 L24.1910566,15.3182728 C25.1342592,15.7513484 26.8770158,16.1290554 28.6838529,16.1480278 C32.9286519,16.1480278 35.7042463,14.0519575 35.7176045,10.8039873 C35.7354154,6.68250932 30.0183142,6.45503332 30.0572272,4.61334887 C30.0703917,4.05346751 30.6033632,3.45796437 31.7709442,3.30521665 C32.3494109,3.23010117 33.946002,3.171635 35.7541943,4.00410038 L36.464113,0.692243359 C35.5034867,0.343769481 34.2724059,0.00846017137 32.742412,0.000135517619 L32.6225757,0.000135517619 Z M43.2901355,0.285690501 C42.5142003,0.285690501 41.860231,0.736383383 41.5704169,1.43100798 L41.5704169,1.43100798 L35.5075522,15.9039025 L39.7496409,15.9039025 L40.5923669,13.5702891 L45.7749478,13.5702891 L46.263392,15.9039025 L50,15.9039025 L46.7382845,0.285690501 L43.2901355,0.285690501 Z M43.8821539,4.50551557 L45.1060716,10.3697501 L41.755108,10.3697501 L43.8821539,4.50551557 Z M20.7175464,0.285690501 L17.3752948,15.9039025 L21.4156558,15.9039025 L24.7567459,0.285690501 L20.7175464,0.285690501 Z M14.7396707,0.285690501 L10.5345589,10.915499 L8.83361921,1.87763533 C8.63440831,0.868416264 7.84588936,0.285690501 6.97025195,0.285690501 L6.97025195,0.285690501 L0.0952495267,0.285690501 L0,0.738512946 C1.41093201,1.04555715 3.01487983,1.54019646 3.98576678,2.0675536 L3.98576678,2.0675536 C4.58049553,2.39047272 4.75008615,2.67215578 4.94561872,3.43957269 L4.94561872,3.43957269 L8.16706612,15.9039025 L12.4376135,15.9039025 L18.9835017,0.285690501 L14.7396707,0.285690501 Z" id="Page-1"></path>
            </g>
        </g>
    </g>
</svg>