<?xml version="1.0" encoding="UTF-8"?>
<svg width="16px" height="20px" viewBox="0 0 16 20" version="1.1" xmlns="http://www.w3.org/2000/svg" xmlns:xlink="http://www.w3.org/1999/xlink">
    <!-- Generator: Sketch 45.2 (43514) - http://www.bohemiancoding.com/sketch -->
    <title>Group 2</title>
    <desc>Created with Sketch.</desc>
    <defs></defs>
    <g id="Symbols" stroke="none" stroke-width="1" fill="none" fill-rule="evenodd" stroke-linejoin="round">
        <g id="Footer" transform="translate(-246.000000, -176.000000)" stroke="#FFFFFF">
            <g id="Group-3" transform="translate(198.000000, 76.000000)">
                <g id="Baixe-o-App" transform="translate(2.000000, 100.000000)">
                    <g id="Group-2" transform="translate(47.024306, 0.000000)">
                        <path d="M12.0167158,10.6704234 C11.9948252,8.4401204 13.8409346,7.37022141 13.9244432,7.31688808 C12.8858547,5.80416081 11.2683807,5.59648404 10.6927384,5.57224161 C9.31687206,5.43325171 8.00910991,6.37951434 7.30942067,6.37951434 C6.61378526,6.37951434 5.53546928,5.59244363 4.39553526,5.61264565 C2.8948113,5.63608 1.5116481,6.4821406 0.738990116,7.8211305 C-0.818487314,10.5152719 0.341715811,14.5088073 1.86027657,16.6954739 C2.60131477,17.7637568 3.48666894,18.966181 4.64849359,18.9217366 C5.76815852,18.8781002 6.19056651,18.2009285 7.54292067,18.2009285 C8.8960856,18.2009285 9.2755231,18.9217366 10.4600491,18.8999184 C11.6632228,18.8781002 12.4269623,17.8106255 13.1631359,16.7374941 C14.0160596,15.4954739 14.3663096,14.2938578 14.3873894,14.2324436 C14.3606342,14.2203224 12.040228,13.3338578 12.0167158,10.6704234 Z" id="Stroke-81"></path>
                        <path d="M10.0862932,3.67789899 C10.7373366,2.89082828 11.1767706,1.79911111 11.0567775,0.709818182 C10.1187237,0.74779798 8.9828435,1.33123232 8.30990948,2.11668687 C7.70589038,2.81406061 7.17889385,3.92517172 7.31996677,4.99345455 C8.36666295,5.07426263 9.43362823,4.46254545 10.0862932,3.67789899 Z" id="Stroke-83"></path>
                    </g>
                </g>
            </g>
        </g>
    </g>
</svg>