<?xml version="1.0" encoding="UTF-8"?>
<svg width="155px" height="45px" viewBox="0 0 155 45" version="1.1" xmlns="http://www.w3.org/2000/svg" xmlns:xlink="http://www.w3.org/1999/xlink">
    <!-- Generator: Sketch 46.2 (44496) - http://www.bohemiancoding.com/sketch -->
    <title>bt App Store</title>
    <desc>Created with Sketch.</desc>
    <defs></defs>
    <g id="Symbols" stroke="none" stroke-width="1" fill="none" fill-rule="evenodd">
        <g id="bt-App-Store">
            <g id="Group">
                <rect id="Rectangle-5-Copy" stroke="#4D5862" x="0.5" y="0.5" width="154" height="44" rx="22"></rect>
                <g id="Group-2" transform="translate(21.000000, 7.000000)" stroke="#4D5862" stroke-linejoin="round">
                    <path d="M16.0222877,14.2272312 C15.9931002,11.2534939 18.4545794,9.82696188 18.5659243,9.75585077 C17.1811396,7.73888107 15.0245077,7.46197872 14.2569845,7.42965548 C12.4224961,7.24433562 10.6788132,8.50601912 9.74589423,8.50601912 C8.81838034,8.50601912 7.38062571,7.45659151 5.86071367,7.48352754 C3.8597484,7.51477333 2.0155308,8.64285414 0.985320155,10.428174 C-1.09131642,14.0203626 0.455621081,19.3450764 2.48036877,22.2606319 C3.46841969,23.685009 4.64889191,25.2882413 6.19799145,25.2289821 C7.69087803,25.1708003 8.25408867,24.2679046 10.0572276,24.2679046 C11.8614475,24.2679046 12.3673641,25.2289821 13.9467322,25.1998912 C15.5509637,25.1708003 16.5692831,23.7475006 17.5508479,22.3166589 C18.6880794,20.6606319 19.1550794,19.058477 19.1831859,18.9765915 C19.1475123,18.9604299 16.0536373,17.778477 16.0222877,14.2272312 Z" id="Stroke-81"></path>
                    <path d="M13.4483909,4.90386532 C14.3164487,3.85443771 14.9023608,2.39881481 14.74237,0.946424242 C13.4916316,0.997063973 11.9771247,1.77497643 11.0798793,2.82224916 C10.2745205,3.75208081 9.57185847,5.23356229 9.75995569,6.65793939 C11.1555506,6.7656835 12.578171,5.95006061 13.4483909,4.90386532 Z" id="Stroke-83"></path>
                </g>
                <g id="Page-1" transform="translate(49.000000, 9.000000)" fill="#4D5862">
                    <path d="M7.3447,19.2637 L6.2187,15.7887 C6.1007,15.4337 5.8767,14.5977 5.5477,13.2817 L5.5087,13.2817 C5.3767,13.8487 5.1657,14.6837 4.8767,15.7887 L3.7707,19.2637 L7.3447,19.2637 Z M11.2347,24.8127 L8.9637,24.8127 L7.7197,20.9037 L3.3957,20.9037 L2.2107,24.8127 L-0.0003,24.8127 L4.2837,11.5047 L6.9307,11.5047 L11.2347,24.8127 Z" id="Fill-1"></path>
                    <path d="M20.0796,19.9746 C20.0796,19.0406 19.8696,18.2706 19.4476,17.6646 C18.9866,17.0336 18.3686,16.7166 17.5916,16.7166 C17.0656,16.7166 16.5876,16.8926 16.1606,17.2406 C15.7326,17.5896 15.4526,18.0466 15.3216,18.6136 C15.2556,18.8766 15.2226,19.0936 15.2226,19.2636 L15.2226,20.8636 C15.2226,21.5616 15.4366,22.1506 15.8646,22.6306 C16.2916,23.1116 16.8486,23.3516 17.5326,23.3516 C18.3356,23.3516 18.9606,23.0416 19.4086,22.4236 C19.8556,21.8046 20.0796,20.9886 20.0796,19.9746 M22.2516,19.8966 C22.2516,21.5286 21.8106,22.8186 20.9286,23.7656 C20.1386,24.6086 19.1586,25.0296 17.9866,25.0296 C16.7236,25.0296 15.8146,24.5756 15.2626,23.6666 L15.2226,23.6666 L15.2226,28.7216 L13.0906,28.7216 L13.0906,18.3756 C13.0906,17.3496 13.0636,16.2966 13.0116,15.2166 L14.8866,15.2166 L15.0056,16.7376 L15.0446,16.7376 C15.7556,15.5916 16.8346,15.0196 18.2826,15.0196 C19.4146,15.0196 20.3596,15.4666 21.1166,16.3616 C21.8736,17.2576 22.2516,18.4356 22.2516,19.8966" id="Fill-4"></path>
                    <path d="M31.1167,19.9746 C31.1167,19.0406 30.9057,18.2706 30.4837,17.6646 C30.0227,17.0336 29.4057,16.7166 28.6287,16.7166 C28.1007,16.7166 27.6247,16.8926 27.1967,17.2406 C26.7687,17.5896 26.4907,18.0466 26.3587,18.6136 C26.2927,18.8766 26.2597,19.0936 26.2597,19.2636 L26.2597,20.8636 C26.2597,21.5616 26.4737,22.1506 26.8997,22.6306 C27.3277,23.1116 27.8847,23.3516 28.5697,23.3516 C29.3727,23.3516 29.9977,23.0416 30.4447,22.4236 C30.8917,21.8046 31.1167,20.9886 31.1167,19.9746 M33.2887,19.8966 C33.2887,21.5286 32.8467,22.8186 31.9647,23.7656 C31.1757,24.6086 30.1947,25.0296 29.0227,25.0296 C27.7597,25.0296 26.8507,24.5756 26.2987,23.6666 L26.2597,23.6666 L26.2597,28.7216 L24.1277,28.7216 L24.1277,18.3756 C24.1277,17.3496 24.1007,16.2966 24.0487,15.2166 L25.9237,15.2166 L26.0427,16.7376 L26.0817,16.7376 C26.7927,15.5916 27.8707,15.0196 29.3197,15.0196 C30.4507,15.0196 31.3957,15.4666 32.1537,16.3616 C32.9097,17.2576 33.2887,18.4356 33.2887,19.8966" id="Fill-6"></path>
                    <path d="M45.6284,21.0811 C45.6284,22.2131 45.2354,23.1341 44.4464,23.8451 C43.5794,24.6221 42.3724,25.0101 40.8214,25.0101 C39.3904,25.0101 38.2414,24.7331 37.3724,24.1811 L37.8664,22.4031 C38.8024,22.9701 39.8294,23.2531 40.9484,23.2531 C41.7514,23.2531 42.3764,23.0711 42.8254,22.7091 C43.2734,22.3471 43.4954,21.8611 43.4954,21.2551 C43.4954,20.7151 43.3124,20.2601 42.9424,19.8901 C42.5754,19.5211 41.9624,19.1791 41.1074,18.8611 C38.7764,17.9921 37.6124,16.7201 37.6124,15.0451 C37.6124,13.9511 38.0214,13.0541 38.8374,12.3551 C39.6514,11.6571 40.7374,11.3071 42.0954,11.3071 C43.3064,11.3071 44.3124,11.5181 45.1144,11.9391 L44.5814,13.6771 C43.8314,13.2691 42.9834,13.0641 42.0344,13.0641 C41.2844,13.0641 40.6984,13.2491 40.2784,13.6181 C39.9234,13.9471 39.7454,14.3481 39.7454,14.8221 C39.7454,15.3481 39.9484,15.7831 40.3574,16.1251 C40.7124,16.4411 41.3574,16.7831 42.2924,17.1521 C43.4374,17.6131 44.2784,18.1521 44.8194,18.7701 C45.3584,19.3901 45.6284,20.1601 45.6284,21.0811" id="Fill-8"></path>
                    <path d="M52.6773,16.8164 L50.3273,16.8164 L50.3273,21.4754 C50.3273,22.6604 50.7413,23.2534 51.5723,23.2534 C51.9523,23.2534 52.2693,23.2194 52.5193,23.1544 L52.5773,24.7734 C52.1573,24.9304 51.6053,25.0094 50.9193,25.0094 C50.0773,25.0094 49.4193,24.7534 48.9443,24.2404 C48.4723,23.7264 48.2343,22.8644 48.2343,21.6534 L48.2343,16.8164 L46.8333,16.8164 L46.8333,15.2164 L48.2343,15.2164 L48.2343,13.4594 L50.3273,12.8274 L50.3273,15.2164 L52.6773,15.2164 L52.6773,16.8164 Z" id="Fill-10"></path>
                    <path d="M61.0679,20.0049 C61.0679,19.1199 60.8789,18.3609 60.4959,17.7279 C60.0479,16.9619 59.4099,16.5789 58.5819,16.5789 C57.7239,16.5789 57.0739,16.9619 56.6269,17.7279 C56.2439,18.3609 56.0539,19.1329 56.0539,20.0449 C56.0539,20.9299 56.2439,21.6889 56.6269,22.3209 C57.0879,23.0869 57.7319,23.4699 58.5619,23.4699 C59.3769,23.4699 60.0149,23.0799 60.4759,22.3019 C60.8709,21.6549 61.0679,20.8889 61.0679,20.0049 M63.2809,19.9359 C63.2809,21.4099 62.8589,22.6209 62.0169,23.5679 C61.1339,24.5429 59.9629,25.0289 58.5019,25.0289 C57.0929,25.0289 55.9719,24.5629 55.1359,23.6279 C54.2999,22.6929 53.8819,21.5149 53.8819,20.0939 C53.8819,18.6069 54.3119,17.3889 55.1749,16.4409 C56.0369,15.4929 57.1989,15.0199 58.6599,15.0199 C60.0679,15.0199 61.2009,15.4859 62.0559,16.4219 C62.8729,17.3299 63.2809,18.5009 63.2809,19.9359" id="Fill-12"></path>
                    <path d="M70.2105,17.0918 C69.9995,17.0528 69.7745,17.0328 69.5385,17.0328 C68.7885,17.0328 68.2085,17.3168 67.8005,17.8828 C67.4445,18.3828 67.2675,19.0148 67.2675,19.7778 L67.2675,24.8128 L65.1365,24.8128 L65.1555,18.2378 C65.1555,17.1318 65.1285,16.1248 65.0755,15.2168 L66.9335,15.2168 L67.0115,17.0528 L67.0695,17.0528 C67.2945,16.4218 67.6495,15.9138 68.1365,15.5328 C68.6105,15.1908 69.1245,15.0198 69.6775,15.0198 C69.8745,15.0198 70.0525,15.0328 70.2105,15.0588 L70.2105,17.0918 Z" id="Fill-14"></path>
                    <path d="M77.7124,19.0078 C77.7264,18.3758 77.5874,17.8298 77.2984,17.3688 C76.9294,16.7768 76.3624,16.4808 75.5994,16.4808 C74.9014,16.4808 74.3354,16.7698 73.9014,17.3498 C73.5464,17.8108 73.3354,18.3628 73.2714,19.0078 L77.7124,19.0078 Z M79.7454,19.5608 C79.7454,19.9428 79.7204,20.2648 79.6674,20.5278 L73.2714,20.5278 C73.2964,21.4758 73.6054,22.1998 74.1984,22.6998 C74.7374,23.1478 75.4354,23.3708 76.2904,23.3708 C77.2374,23.3708 78.1014,23.2198 78.8784,22.9168 L79.2124,24.3978 C78.3044,24.7928 77.2324,24.9898 75.9954,24.9898 C74.5074,24.9898 73.3394,24.5528 72.4894,23.6768 C71.6424,22.8018 71.2164,21.6268 71.2164,20.1528 C71.2164,18.7048 71.6104,17.4998 72.4014,16.5388 C73.2304,15.5128 74.3494,14.9998 75.7574,14.9998 C77.1404,14.9998 78.1874,15.5128 78.8984,16.5388 C79.4624,17.3558 79.7454,18.3628 79.7454,19.5608 L79.7454,19.5608 Z" id="Fill-16"></path>
                    <path d="M4.4668,4.8403 C4.4668,4.4523 4.3158,4.1583 4.0128,3.9583 C3.7418,3.7773 3.3818,3.6863 2.9318,3.6863 L2.3138,3.6863 L2.3138,5.9653 C2.4428,5.9913 2.6548,6.0043 2.9508,6.0043 C3.3948,6.0043 3.7458,5.9173 4.0028,5.7423 C4.3128,5.5423 4.4668,5.2413 4.4668,4.8403 M4.2728,1.9013 C4.2728,1.2613 3.8478,0.9413 2.9988,0.9413 C2.7018,0.9413 2.4748,0.9603 2.3138,0.9993 L2.3138,2.9203 L2.9598,2.9203 C3.3648,2.9203 3.6858,2.8263 3.9198,2.6383 C4.1558,2.4513 4.2728,2.2053 4.2728,1.9013 M5.5628,4.8693 C5.5628,5.4003 5.3648,5.8393 4.9708,6.1893 C4.5188,6.5963 3.7418,6.7993 2.6438,6.7993 C2.1388,6.7993 1.6798,6.7743 1.2658,6.7223 L1.2658,0.2913 C1.7038,0.2003 2.2458,0.1553 2.8918,0.1553 C3.6918,0.1553 4.2958,0.3003 4.7058,0.5913 C5.1148,0.8823 5.3208,1.2833 5.3208,1.7953 C5.3208,2.1053 5.2258,2.3883 5.0368,2.6433 C4.8478,2.8993 4.5828,3.0883 4.2438,3.2113 L4.2438,3.2403 C4.6128,3.3303 4.9158,3.5053 5.1558,3.7633 C5.4268,4.0683 5.5628,4.4363 5.5628,4.8693" id="Fill-18"></path>
                    <path d="M9.5977,5.1216 L9.5977,4.3946 C8.4407,4.3746 7.8627,4.6916 7.8627,5.3446 C7.8627,5.5906 7.9297,5.7746 8.0647,5.8976 C8.1997,6.0206 8.3697,6.0816 8.5747,6.0816 C8.8067,6.0816 9.0207,6.0096 9.2167,5.8636 C9.4127,5.7186 9.5337,5.5326 9.5787,5.3066 C9.5917,5.2546 9.5977,5.1926 9.5977,5.1216 M10.6847,6.7416 L9.7427,6.7416 L9.6657,6.1986 L9.6367,6.1986 C9.3137,6.6316 8.8547,6.8486 8.2597,6.8486 C7.8137,6.8486 7.4537,6.7066 7.1827,6.4216 C6.9367,6.1636 6.8147,5.8426 6.8147,5.4616 C6.8147,4.8856 7.0547,4.4466 7.5367,4.1416 C8.0187,3.8386 8.6967,3.6896 9.5697,3.6956 L9.5697,3.6086 C9.5697,2.9876 9.2427,2.6776 8.5917,2.6776 C8.1267,2.6776 7.7167,2.7936 7.3627,3.0266 L7.1497,2.3376 C7.5877,2.0666 8.1277,1.9306 8.7667,1.9306 C9.9997,1.9306 10.6157,2.5806 10.6157,3.8806 L10.6157,5.6166 C10.6157,6.0886 10.6397,6.4636 10.6847,6.7416" id="Fill-20"></path>
                    <path d="M12.449,6.7417 L13.497,6.7417 L13.497,2.0277 L12.449,2.0277 L12.449,6.7417 Z M13.613,0.6207 C13.613,0.8087 13.552,0.9607 13.43,1.0767 C13.307,1.1937 13.148,1.2517 12.954,1.2517 C12.779,1.2517 12.632,1.1917 12.513,1.0727 C12.393,0.9527 12.333,0.8027 12.333,0.6207 C12.333,0.4397 12.395,0.2907 12.518,0.1747 C12.641,0.0587 12.792,-0.0003 12.974,-0.0003 C13.154,-0.0003 13.307,0.0587 13.43,0.1747 C13.552,0.2907 13.613,0.4397 13.613,0.6207 L13.613,0.6207 Z" id="Fill-22"></path>
                    <path d="M19.2012,6.7417 L18.0172,6.7417 L17.4062,5.7527 C17.2702,5.5327 17.1222,5.2707 16.9602,4.9667 L16.9402,4.9667 C16.8442,5.1547 16.6952,5.4157 16.4952,5.7527 L15.9132,6.7417 L14.7682,6.7417 L16.3782,4.3357 L14.8262,2.0277 L15.9902,2.0277 L16.5822,2.9687 C16.6982,3.1497 16.8442,3.3987 17.0182,3.7157 L17.0482,3.7157 C17.1892,3.4377 17.3322,3.1817 17.4742,2.9487 L18.0272,2.0277 L19.1722,2.0277 L17.6102,4.2977 L19.2012,6.7417 Z" id="Fill-24"></path>
                    <path d="M22.9443,5.1216 L22.9443,4.3946 C21.7873,4.3746 21.2093,4.6916 21.2093,5.3446 C21.2093,5.5906 21.2763,5.7746 21.4113,5.8976 C21.5463,6.0206 21.7163,6.0816 21.9223,6.0816 C22.1533,6.0816 22.3673,6.0096 22.5633,5.8636 C22.7593,5.7186 22.8813,5.5326 22.9253,5.3066 C22.9383,5.2546 22.9443,5.1926 22.9443,5.1216 M24.0313,6.7416 L23.0903,6.7416 L23.0123,6.1986 L22.9833,6.1986 C22.6603,6.6316 22.2013,6.8486 21.6063,6.8486 C21.1603,6.8486 20.8003,6.7066 20.5293,6.4216 C20.2833,6.1636 20.1613,5.8426 20.1613,5.4616 C20.1613,4.8856 20.4013,4.4466 20.8833,4.1416 C21.3653,3.8386 22.0433,3.6896 22.9163,3.6956 L22.9163,3.6086 C22.9163,2.9876 22.5903,2.6776 21.9383,2.6776 C21.4733,2.6776 21.0633,2.7936 20.7093,3.0266 L20.4963,2.3376 C20.9343,2.0666 21.4743,1.9306 22.1133,1.9306 C23.3463,1.9306 23.9633,2.5806 23.9633,3.8806 L23.9633,5.6166 C23.9633,6.0886 23.9863,6.4636 24.0313,6.7416" id="Fill-25"></path>
                    <path d="M28.2886,2.9492 C28.1846,2.9292 28.0756,2.9202 27.9586,2.9202 C27.5916,2.9202 27.3066,3.0592 27.1046,3.3372 C26.9316,3.5832 26.8436,3.8932 26.8436,4.2682 L26.8436,6.7422 L25.7956,6.7422 L25.8056,3.5112 C25.8056,2.9682 25.7926,2.4732 25.7676,2.0272 L26.6796,2.0272 L26.7186,2.9292 L26.7476,2.9292 C26.8566,2.6192 27.0306,2.3702 27.2706,2.1822 C27.5036,2.0152 27.7556,1.9312 28.0266,1.9312 C28.1246,1.9312 28.2126,1.9372 28.2886,1.9502 L28.2886,2.9492 Z" id="Fill-26"></path>
                    <path d="M36.5542,6.7417 L35.5052,6.7417 L35.5052,4.0417 C35.5052,3.2097 35.1892,2.7937 34.5562,2.7937 C34.2452,2.7937 33.9932,2.9077 33.7982,3.1367 C33.6052,3.3657 33.5072,3.6357 33.5072,3.9457 L33.5072,6.7417 L32.4602,6.7417 L32.4602,3.3757 C32.4602,2.9617 32.4472,2.5127 32.4212,2.0277 L33.3432,2.0277 L33.3922,2.7637 L33.4212,2.7637 C33.5422,2.5357 33.7242,2.3457 33.9642,2.1957 C34.2472,2.0187 34.5662,1.9307 34.9132,1.9307 C35.3552,1.9307 35.7202,2.0727 36.0112,2.3577 C36.3722,2.7067 36.5542,3.2267 36.5542,3.9187 L36.5542,6.7417 Z" id="Fill-27"></path>
                    <path d="M40.8413,5.1216 L40.8413,4.3946 C39.6833,4.3746 39.1053,4.6916 39.1053,5.3446 C39.1053,5.5906 39.1733,5.7746 39.3083,5.8976 C39.4433,6.0206 39.6133,6.0816 39.8183,6.0816 C40.0503,6.0816 40.2633,6.0096 40.4603,5.8636 C40.6563,5.7186 40.7773,5.5326 40.8223,5.3066 C40.8353,5.2546 40.8413,5.1926 40.8413,5.1216 M41.9273,6.7416 L40.9863,6.7416 L40.9093,6.1986 L40.8803,6.1986 C40.5563,6.6316 40.0973,6.8486 39.5033,6.8486 C39.0563,6.8486 38.6973,6.7066 38.4253,6.4216 C38.1793,6.1636 38.0583,5.8426 38.0583,5.4616 C38.0583,4.8856 38.2983,4.4466 38.7813,4.1416 C39.2613,3.8386 39.9393,3.6896 40.8123,3.6956 L40.8123,3.6086 C40.8123,2.9876 40.4863,2.6776 39.8353,2.6776 C39.3703,2.6776 38.9603,2.7936 38.6053,3.0266 L38.3923,2.3376 C38.8313,2.0666 39.3703,1.9306 40.0093,1.9306 C41.2433,1.9306 41.8593,2.5806 41.8593,3.8806 L41.8593,5.6166 C41.8593,6.0886 41.8823,6.4636 41.9273,6.7416" id="Fill-28"></path>
                </g>
            </g>
        </g>
    </g>
</svg>