<?xml version="1.0" encoding="UTF-8"?>
<svg width="154px" height="45px" viewBox="0 0 154 45" version="1.1" xmlns="http://www.w3.org/2000/svg" xmlns:xlink="http://www.w3.org/1999/xlink">
    <!-- Generator: Sketch 46.2 (44496) - http://www.bohemiancoding.com/sketch -->
    <title>bt Google Play</title>
    <desc>Created with Sketch.</desc>
    <defs></defs>
    <g id="Symbols" stroke="none" stroke-width="1" fill="none" fill-rule="evenodd">
        <g id="bt-Google-Play">
            <g id="Group-2">
                <rect id="Rectangle-5-Copy" stroke="#4D5862" x="0.5" y="0.5" width="154" height="44" rx="22"></rect>
                <g id="Group-7" transform="translate(20.762593, 11.693848)" stroke="#4D5862" stroke-linejoin="round">
                    <path d="M2.54053089,0.193812035 C1.98874541,-0.103390666 1.34157859,-0.0564101703 0.827232515,0.318412481 C0.311995022,0.693235131 0,1.34483418 0,2.04341373 L0,19.1024403 C0,19.8010198 0.311995022,20.4515975 0.827232515,20.8264202 C1.34157859,21.2012428 1.98874541,21.2482233 2.54053089,20.9510206 L18.4014664,12.422018 C19.0272393,12.084984 19.4265929,11.3649569 19.4265929,10.5724163 C19.4265929,9.78191843 19.0272393,9.05984863 18.4014664,8.72383596 L2.54053089,0.193812035 Z" id="Stroke-960"></path>
                    <path d="M2.62831081,0.217722642 L15.3064758,14.3995219" id="Stroke-961"></path>
                    <path d="M2.86470054,20.822227 L15.0470742,7.14920587" id="Stroke-962"></path>
                </g>
                <g id="Page-1" transform="translate(48.000000, 9.000000)">
                    <path d="M65.895,24.6421 L67.761,24.6421 L67.761,12.1411 L65.895,12.1411 L65.895,24.6421 Z M82.702,16.6441 L80.563,22.0641 L80.498,22.0641 L78.279,16.6441 L76.268,16.6441 L79.598,24.2191 L77.7,28.4331 L79.646,28.4331 L84.776,16.6441 L82.702,16.6441 Z M72.119,23.2221 C71.508,23.2221 70.655,22.9161 70.655,22.1601 C70.655,21.1951 71.717,20.8251 72.634,20.8251 C73.454,20.8251 73.84,21.0031 74.338,21.2441 C74.194,22.4021 73.197,23.2221 72.119,23.2221 L72.119,23.2221 Z M72.344,16.3701 C70.993,16.3701 69.594,16.9661 69.015,18.2841 L70.671,18.9761 C71.025,18.2841 71.685,18.0591 72.376,18.0591 C73.341,18.0591 74.322,18.6381 74.338,19.6671 L74.338,19.7961 C74.001,19.6031 73.277,19.3141 72.392,19.3141 C70.607,19.3141 68.79,20.2951 68.79,22.1281 C68.79,23.8011 70.253,24.8791 71.894,24.8791 C73.148,24.8791 73.84,24.3161 74.274,23.6561 L74.338,23.6561 L74.338,24.6211 L76.14,24.6211 L76.14,19.8281 C76.14,17.6091 74.483,16.3701 72.344,16.3701 L72.344,16.3701 Z M60.812,18.1661 L58.159,18.1661 L58.159,13.8811 L60.812,13.8811 C62.208,13.8811 63,15.0361 63,16.0231 C63,16.9921 62.208,18.1661 60.812,18.1661 L60.812,18.1661 Z M60.764,12.1411 L56.293,12.1411 L56.293,24.6421 L58.159,24.6421 L58.159,19.9061 L60.764,19.9061 C62.833,19.9061 64.865,18.4081 64.865,16.0231 C64.865,13.6381 62.833,12.1411 60.764,12.1411 L60.764,12.1411 Z M36.383,23.2241 C35.094,23.2241 34.015,22.1451 34.015,20.6631 C34.015,19.1651 35.094,18.0691 36.383,18.0691 C37.656,18.0691 38.655,19.1651 38.655,20.6631 C38.655,22.1451 37.656,23.2241 36.383,23.2241 L36.383,23.2241 Z M38.526,17.3441 L38.461,17.3441 C38.042,16.8451 37.237,16.3941 36.222,16.3941 C34.096,16.3941 32.146,18.2621 32.146,20.6631 C32.146,23.0471 34.096,24.9001 36.222,24.9001 C37.237,24.9001 38.042,24.4491 38.461,23.9331 L38.526,23.9331 L38.526,24.5451 C38.526,26.1731 37.656,27.0421 36.254,27.0421 C35.111,27.0421 34.402,26.2211 34.112,25.5281 L32.484,26.2051 C32.952,27.3331 34.192,28.7181 36.254,28.7181 C38.445,28.7181 40.298,27.4291 40.298,24.2881 L40.298,16.6511 L38.526,16.6511 L38.526,17.3441 Z M41.587,24.6421 L43.456,24.6421 L43.456,12.1401 L41.587,12.1401 L41.587,24.6421 Z M46.211,20.5181 C46.162,18.8741 47.483,18.0371 48.434,18.0371 C49.175,18.0371 49.803,18.4071 50.013,18.9391 L46.211,20.5181 Z M52.01,19.1001 C51.656,18.1501 50.576,16.3941 48.369,16.3941 C46.178,16.3941 44.358,18.1171 44.358,20.6471 C44.358,23.0311 46.162,24.9001 48.579,24.9001 C50.528,24.9001 51.656,23.7081 52.123,23.0151 L50.673,22.0481 C50.19,22.7571 49.529,23.2241 48.579,23.2241 C47.628,23.2241 46.952,22.7891 46.517,21.9351 L52.204,19.5831 L52.01,19.1001 Z M6.702,17.6981 L6.702,19.5031 L11.02,19.5031 C10.891,20.5181 10.553,21.2591 10.037,21.7741 C9.409,22.4031 8.426,23.0951 6.702,23.0951 C4.044,23.0951 1.966,20.9531 1.966,18.2941 C1.966,15.6361 4.044,13.4941 6.702,13.4941 C8.136,13.4941 9.183,14.0571 9.956,14.7821 L11.229,13.5101 C10.15,12.4791 8.716,11.6891 6.702,11.6891 C3.061,11.6891 0,14.6541 0,18.2941 C0,21.9351 3.061,24.9001 6.702,24.9001 C8.667,24.9001 10.15,24.2551 11.31,23.0471 C12.502,21.8551 12.872,20.1801 12.872,18.8261 C12.872,18.4071 12.84,18.0211 12.776,17.6981 L6.702,17.6981 Z M17.781,23.2241 C16.492,23.2241 15.38,22.1611 15.38,20.6471 C15.38,19.1161 16.492,18.0691 17.781,18.0691 C19.07,18.0691 20.181,19.1161 20.181,20.6471 C20.181,22.1611 19.07,23.2241 17.781,23.2241 L17.781,23.2241 Z M17.781,16.3941 C15.429,16.3941 13.512,18.1821 13.512,20.6471 C13.512,23.0951 15.429,24.9001 17.781,24.9001 C20.133,24.9001 22.05,23.0951 22.05,20.6471 C22.05,18.1821 20.133,16.3941 17.781,16.3941 L17.781,16.3941 Z M27.094,23.2241 C25.805,23.2241 24.694,22.1611 24.694,20.6471 C24.694,19.1161 25.805,18.0691 27.094,18.0691 C28.383,18.0691 29.495,19.1161 29.495,20.6471 C29.495,22.1611 28.383,23.2241 27.094,23.2241 L27.094,23.2241 Z M27.094,16.3941 C24.742,16.3941 22.825,18.1821 22.825,20.6471 C22.825,23.0951 24.742,24.9001 27.094,24.9001 C29.446,24.9001 31.363,23.0951 31.363,20.6471 C31.363,18.1821 29.446,16.3941 27.094,16.3941 L27.094,16.3941 Z" id="Fill-1" fill="#4D5862"></path>
                    <g id="Group">
                        <path d="M1.0667,6.9047 L2.1307,6.9047 C2.8237,6.9047 3.3727,6.7067 3.7777,6.3097 C4.1827,5.9127 4.3847,5.3567 4.3847,4.6417 C4.3847,3.9327 4.1827,3.3787 3.7777,2.9787 C3.3727,2.5797 2.8237,2.3797 2.1307,2.3797 L1.0667,2.3797 L1.0667,6.9047 Z M0.2967,7.6417 L0.2967,1.6417 L2.1307,1.6417 C3.0527,1.6417 3.7907,1.9197 4.3437,2.4757 C4.8967,3.0317 5.1727,3.7537 5.1727,4.6417 C5.1727,5.5307 4.8967,6.2527 4.3437,6.8077 C3.7907,7.3647 3.0527,7.6417 2.1307,7.6417 L0.2967,7.6417 Z" id="Fill-3" fill="#4D5862"></path>
                        <path d="M1.0667,6.9047 L2.1307,6.9047 C2.8237,6.9047 3.3727,6.7067 3.7777,6.3097 C4.1827,5.9127 4.3847,5.3567 4.3847,4.6417 C4.3847,3.9327 4.1827,3.3787 3.7777,2.9787 C3.3727,2.5797 2.8237,2.3797 2.1307,2.3797 L1.0667,2.3797 L1.0667,6.9047 Z M0.2967,7.6417 L0.2967,1.6417 L2.1307,1.6417 C3.0527,1.6417 3.7907,1.9197 4.3437,2.4757 C4.8967,3.0317 5.1727,3.7537 5.1727,4.6417 C5.1727,5.5307 4.8967,6.2527 4.3437,6.8077 C3.7907,7.3647 3.0527,7.6417 2.1307,7.6417 L0.2967,7.6417 Z" id="Stroke-4" stroke="#4D5862" stroke-width="0.2"></path>
                        <polygon id="Fill-5" fill="#4D5862" points="6.255 7.6421 7.026 7.6421 7.026 1.6421 6.255 1.6421"></polygon>
                        <polygon id="Stroke-6" stroke="#4D5862" stroke-width="0.2" points="6.255 7.6421 7.026 7.6421 7.026 1.6421 6.255 1.6421"></polygon>
                        <path d="M10.0921,7.7758 C9.6561,7.7758 9.2311,7.6338 8.8151,7.3488 C8.3981,7.0638 8.1251,6.6648 7.9971,6.1508 L8.7011,5.8658 C8.7851,6.1948 8.9561,6.4728 9.2161,6.6988 C9.4771,6.9248 9.7681,7.0388 10.0921,7.0388 C10.4271,7.0388 10.7141,6.9508 10.9511,6.7748 C11.1891,6.5988 11.3071,6.3598 11.3071,6.0578 C11.3071,5.7228 11.1891,5.4648 10.9511,5.2828 C10.7141,5.1018 10.3381,4.9328 9.8241,4.7758 C9.2931,4.6088 8.8911,4.3918 8.6171,4.1268 C8.3441,3.8608 8.2061,3.5218 8.2061,3.1088 C8.2061,2.6778 8.3771,2.3038 8.7181,1.9858 C9.0591,1.6678 9.5031,1.5078 10.0501,1.5078 C10.5591,1.5078 10.9721,1.6348 11.2901,1.8888 C11.6091,2.1438 11.8161,2.4218 11.9101,2.7228 L11.2071,3.0158 C11.1561,2.8268 11.0321,2.6508 10.8341,2.4878 C10.6361,2.3268 10.3801,2.2458 10.0671,2.2458 C9.7711,2.2458 9.5181,2.3278 9.3091,2.4928 C9.0991,2.6578 8.9941,2.8628 8.9941,3.1088 C8.9941,3.3318 9.0911,3.5208 9.2831,3.6738 C9.4771,3.8278 9.7601,3.9658 10.1341,4.0888 C10.4301,4.1838 10.6771,4.2758 10.8761,4.3658 C11.0741,4.4548 11.2761,4.5738 11.4791,4.7218 C11.6831,4.8698 11.8361,5.0538 11.9401,5.2748 C12.0431,5.4958 12.0951,5.7508 12.0951,6.0418 C12.0951,6.3318 12.0351,6.5918 11.9151,6.8208 C11.7951,7.0498 11.6351,7.2318 11.4371,7.3658 C11.2381,7.4998 11.0261,7.6018 10.7961,7.6718 C10.5671,7.7408 10.3321,7.7758 10.0921,7.7758" id="Fill-7" fill="#4D5862"></path>
                        <path d="M10.0921,7.7758 C9.6561,7.7758 9.2311,7.6338 8.8151,7.3488 C8.3981,7.0638 8.1251,6.6648 7.9971,6.1508 L8.7011,5.8658 C8.7851,6.1948 8.9561,6.4728 9.2161,6.6988 C9.4771,6.9248 9.7681,7.0388 10.0921,7.0388 C10.4271,7.0388 10.7141,6.9508 10.9511,6.7748 C11.1891,6.5988 11.3071,6.3598 11.3071,6.0578 C11.3071,5.7228 11.1891,5.4648 10.9511,5.2828 C10.7141,5.1018 10.3381,4.9328 9.8241,4.7758 C9.2931,4.6088 8.8911,4.3918 8.6171,4.1268 C8.3441,3.8608 8.2061,3.5218 8.2061,3.1088 C8.2061,2.6778 8.3771,2.3038 8.7181,1.9858 C9.0591,1.6678 9.5031,1.5078 10.0501,1.5078 C10.5591,1.5078 10.9721,1.6348 11.2901,1.8888 C11.6091,2.1438 11.8161,2.4218 11.9101,2.7228 L11.2071,3.0158 C11.1561,2.8268 11.0321,2.6508 10.8341,2.4878 C10.6361,2.3268 10.3801,2.2458 10.0671,2.2458 C9.7711,2.2458 9.5181,2.3278 9.3091,2.4928 C9.0991,2.6578 8.9941,2.8628 8.9941,3.1088 C8.9941,3.3318 9.0911,3.5208 9.2831,3.6738 C9.4771,3.8278 9.7601,3.9658 10.1341,4.0888 C10.4301,4.1838 10.6771,4.2758 10.8761,4.3658 C11.0741,4.4548 11.2761,4.5738 11.4791,4.7218 C11.6831,4.8698 11.8361,5.0538 11.9401,5.2748 C12.0431,5.4958 12.0951,5.7508 12.0951,6.0418 C12.0951,6.3318 12.0351,6.5918 11.9151,6.8208 C11.7951,7.0498 11.6351,7.2318 11.4371,7.3658 C11.2381,7.4998 11.0261,7.6018 10.7961,7.6718 C10.5671,7.7408 10.3321,7.7758 10.0921,7.7758 Z" id="Stroke-8" stroke="#4D5862" stroke-width="0.2"></path>
                        <path d="M13.972,4.474 L15.263,4.474 C15.587,4.474 15.847,4.366 16.042,4.148 C16.238,3.93 16.335,3.69 16.335,3.427 C16.335,3.164 16.238,2.924 16.042,2.706 C15.847,2.488 15.587,2.379 15.263,2.379 L13.972,2.379 L13.972,4.474 Z M13.972,7.642 L13.202,7.642 L13.202,1.642 L15.246,1.642 C15.754,1.642 16.195,1.811 16.566,2.149 C16.938,2.487 17.123,2.913 17.123,3.427 C17.123,3.941 16.938,4.367 16.566,4.704 C16.195,5.043 15.754,5.212 15.246,5.212 L13.972,5.212 L13.972,7.642 Z" id="Fill-9" fill="#4D5862"></path>
                        <path d="M13.972,4.474 L15.263,4.474 C15.587,4.474 15.847,4.366 16.042,4.148 C16.238,3.93 16.335,3.69 16.335,3.427 C16.335,3.164 16.238,2.924 16.042,2.706 C15.847,2.488 15.587,2.379 15.263,2.379 L13.972,2.379 L13.972,4.474 Z M13.972,7.642 L13.202,7.642 L13.202,1.642 L15.246,1.642 C15.754,1.642 16.195,1.811 16.566,2.149 C16.938,2.487 17.123,2.913 17.123,3.427 C17.123,3.941 16.938,4.367 16.566,4.704 C16.195,5.043 15.754,5.212 15.246,5.212 L13.972,5.212 L13.972,7.642 Z" id="Stroke-10" stroke="#4D5862" stroke-width="0.2"></path>
                        <path d="M19.1712,6.3642 C19.6152,6.8142 20.1582,7.0382 20.8012,7.0382 C21.4432,7.0382 21.9872,6.8142 22.4312,6.3642 C22.8752,5.9142 23.0982,5.3402 23.0982,4.6422 C23.0982,3.9442 22.8752,3.3692 22.4312,2.9202 C21.9872,2.4702 21.4432,2.2452 20.8012,2.2452 C20.1582,2.2452 19.6152,2.4702 19.1712,2.9202 C18.7282,3.3692 18.5052,3.9442 18.5052,4.6422 C18.5052,5.3402 18.7282,5.9142 19.1712,6.3642 M23.0012,6.8662 C22.4112,7.4732 21.6782,7.7762 20.8012,7.7762 C19.9242,7.7762 19.1912,7.4732 18.6022,6.8662 C18.0122,6.2602 17.7182,5.5192 17.7182,4.6422 C17.7182,3.7652 18.0122,3.0232 18.6022,2.4172 C19.1912,1.8112 19.9242,1.5072 20.8012,1.5072 C21.6732,1.5072 22.4042,1.8122 22.9972,2.4212 C23.5892,3.0302 23.8852,3.7702 23.8852,4.6422 C23.8852,5.5192 23.5902,6.2602 23.0012,6.8662" id="Fill-11" fill="#4D5862"></path>
                        <path d="M19.1712,6.3642 C19.6152,6.8142 20.1582,7.0382 20.8012,7.0382 C21.4432,7.0382 21.9872,6.8142 22.4312,6.3642 C22.8752,5.9142 23.0982,5.3402 23.0982,4.6422 C23.0982,3.9442 22.8752,3.3692 22.4312,2.9202 C21.9872,2.4702 21.4432,2.2452 20.8012,2.2452 C20.1582,2.2452 19.6152,2.4702 19.1712,2.9202 C18.7282,3.3692 18.5052,3.9442 18.5052,4.6422 C18.5052,5.3402 18.7282,5.9142 19.1712,6.3642 Z M23.0012,6.8662 C22.4112,7.4732 21.6782,7.7762 20.8012,7.7762 C19.9242,7.7762 19.1912,7.4732 18.6022,6.8662 C18.0122,6.2602 17.7182,5.5192 17.7182,4.6422 C17.7182,3.7652 18.0122,3.0232 18.6022,2.4172 C19.1912,1.8112 19.9242,1.5072 20.8012,1.5072 C21.6732,1.5072 22.4042,1.8122 22.9972,2.4212 C23.5892,3.0302 23.8852,3.7702 23.8852,4.6422 C23.8852,5.5192 23.5902,6.2602 23.0012,6.8662 Z" id="Stroke-12" stroke="#4D5862" stroke-width="0.2"></path>
                        <polygon id="Fill-13" fill="#4D5862" points="24.9671 7.642 24.9671 1.642 25.9051 1.642 28.8211 6.309 28.8551 6.309 28.8211 5.153 28.8211 1.642 29.5931 1.642 29.5931 7.642 28.7881 7.642 25.7371 2.748 25.7041 2.748 25.7371 3.905 25.7371 7.642"></polygon>
                        <polygon id="Stroke-14" stroke="#4D5862" stroke-width="0.2" points="24.9671 7.642 24.9671 1.642 25.9051 1.642 28.8211 6.309 28.8551 6.309 28.8211 5.153 28.8211 1.642 29.5931 1.642 29.5931 7.642 28.7881 7.642 25.7371 2.748 25.7041 2.748 25.7371 3.905 25.7371 7.642"></polygon>
                        <path d="M31.6878,1.1728 L31.0168,1.1728 L31.4538,0.0998 L32.2918,0.0998 L31.6878,1.1728 Z M30.9668,7.6418 L31.7378,7.6418 L31.7378,1.6418 L30.9668,1.6418 L30.9668,7.6418 Z" id="Fill-15" fill="#4D5862"></path>
                        <path d="M31.6878,1.1728 L31.0168,1.1728 L31.4538,0.0998 L32.2918,0.0998 L31.6878,1.1728 Z M30.9668,7.6418 L31.7378,7.6418 L31.7378,1.6418 L30.9668,1.6418 L30.9668,7.6418 Z" id="Stroke-16" stroke="#4D5862" stroke-width="0.2"></path>
                        <polygon id="Fill-17" fill="#4D5862" points="34.595 7.642 32.484 1.642 33.338 1.642 34.981 6.511 35.014 6.511 36.724 1.642 37.578 1.642 35.4 7.642"></polygon>
                        <polygon id="Stroke-18" stroke="#4D5862" stroke-width="0.2" points="34.595 7.642 32.484 1.642 33.338 1.642 34.981 6.511 35.014 6.511 36.724 1.642 37.578 1.642 35.4 7.642"></polygon>
                        <polygon id="Fill-19" fill="#4D5862" points="41.9534 2.3793 39.2214 2.3793 39.2214 4.2813 41.6854 4.2813 41.6854 5.0023 39.2214 5.0023 39.2214 6.9043 41.9534 6.9043 41.9534 7.6423 38.4504 7.6423 38.4504 1.6423 41.9534 1.6423"></polygon>
                        <polygon id="Stroke-20" stroke="#4D5862" stroke-width="0.2" points="41.9534 2.3793 39.2214 2.3793 39.2214 4.2813 41.6854 4.2813 41.6854 5.0023 39.2214 5.0023 39.2214 6.9043 41.9534 6.9043 41.9534 7.6423 38.4504 7.6423 38.4504 1.6423 41.9534 1.6423"></polygon>
                        <polygon id="Fill-21" fill="#4D5862" points="43.1604 7.642 43.1604 1.642 43.9314 1.642 43.9314 6.905 46.5284 6.905 46.5284 7.642"></polygon>
                        <polygon id="Stroke-22" stroke="#4D5862" stroke-width="0.2" points="43.1604 7.642 43.1604 1.642 43.9314 1.642 43.9314 6.905 46.5284 6.905 46.5284 7.642"></polygon>
                        <polygon id="Fill-23" fill="#4D5862" points="49.512 7.642 49.512 1.642 50.451 1.642 53.367 6.309 53.4 6.309 53.367 5.153 53.367 1.642 54.138 1.642 54.138 7.642 53.333 7.642 50.283 2.748 50.249 2.748 50.283 3.905 50.283 7.642"></polygon>
                        <polygon id="Stroke-24" stroke="#4D5862" stroke-width="0.2" points="49.512 7.642 49.512 1.642 50.451 1.642 53.367 6.309 53.4 6.309 53.367 5.153 53.367 1.642 54.138 1.642 54.138 7.642 53.333 7.642 50.283 2.748 50.249 2.748 50.283 3.905 50.283 7.642"></polygon>
                        <path d="M56.5872,6.3642 C57.0312,6.8142 57.5742,7.0382 58.2172,7.0382 C58.8592,7.0382 59.4032,6.8142 59.8472,6.3642 C60.2912,5.9142 60.5142,5.3402 60.5142,4.6422 C60.5142,3.9442 60.2912,3.3692 59.8472,2.9202 C59.4032,2.4702 58.8592,2.2452 58.2172,2.2452 C57.5742,2.2452 57.0312,2.4702 56.5872,2.9202 C56.1442,3.3692 55.9212,3.9442 55.9212,4.6422 C55.9212,5.3402 56.1442,5.9142 56.5872,6.3642 M60.4172,6.8662 C59.8272,7.4732 59.0942,7.7762 58.2172,7.7762 C57.3402,7.7762 56.6072,7.4732 56.0182,6.8662 C55.4282,6.2602 55.1342,5.5192 55.1342,4.6422 C55.1342,3.7652 55.4282,3.0232 56.0182,2.4172 C56.6072,1.8112 57.3402,1.5072 58.2172,1.5072 C59.0892,1.5072 59.8202,1.8122 60.4132,2.4212 C61.0052,3.0302 61.3012,3.7702 61.3012,4.6422 C61.3012,5.5192 61.0062,6.2602 60.4172,6.8662" id="Fill-25" fill="#4D5862"></path>
                        <path d="M56.5872,6.3642 C57.0312,6.8142 57.5742,7.0382 58.2172,7.0382 C58.8592,7.0382 59.4032,6.8142 59.8472,6.3642 C60.2912,5.9142 60.5142,5.3402 60.5142,4.6422 C60.5142,3.9442 60.2912,3.3692 59.8472,2.9202 C59.4032,2.4702 58.8592,2.2452 58.2172,2.2452 C57.5742,2.2452 57.0312,2.4702 56.5872,2.9202 C56.1442,3.3692 55.9212,3.9442 55.9212,4.6422 C55.9212,5.3402 56.1442,5.9142 56.5872,6.3642 Z M60.4172,6.8662 C59.8272,7.4732 59.0942,7.7762 58.2172,7.7762 C57.3402,7.7762 56.6072,7.4732 56.0182,6.8662 C55.4282,6.2602 55.1342,5.5192 55.1342,4.6422 C55.1342,3.7652 55.4282,3.0232 56.0182,2.4172 C56.6072,1.8112 57.3402,1.5072 58.2172,1.5072 C59.0892,1.5072 59.8202,1.8122 60.4132,2.4212 C61.0052,3.0302 61.3012,3.7702 61.3012,4.6422 C61.3012,5.5192 61.0062,6.2602 60.4172,6.8662 Z" id="Stroke-26" stroke="#4D5862" stroke-width="0.2"></path>
                    </g>
                </g>
            </g>
        </g>
    </g>
</svg>