<?xml version="1.0" encoding="UTF-8"?>
<svg width="227px" height="88px" viewBox="0 0 227 88" version="1.1" xmlns="http://www.w3.org/2000/svg" xmlns:xlink="http://www.w3.org/1999/xlink">
    <!-- Generator: Sketch 46.2 (44496) - http://www.bohemiancoding.com/sketch -->
    <title>Group 12</title>
    <desc>Created with Sketch.</desc>
    <defs></defs>
    <g id="Planos-Desktop" stroke="none" stroke-width="1" fill="none" fill-rule="evenodd">
        <g id="Planos-Como-funciona-2" transform="translate(-384.000000, -317.000000)">
            <g id="Group-12" transform="translate(385.000000, 317.000000)">
                <g id="Group-11">
                    <g id="Group-3" transform="translate(160.000000, 0.000000)">
                        <g id="Page-1">
                            <path d="M60,80.5 C60,76.9100387 57.0899613,74 53.5,74 C49.9100387,74 47,76.9100387 47,80.5 C47,84.0899613 49.9100387,87 53.5,87 C57.0899613,87 60,84.0899613 60,80.5" id="Fill-1" fill="#FFFFFF"></path>
                            <path d="M22,80.5 C22,76.9100387 19.0899613,74 15.5,74 C11.9100387,74 9,76.9100387 9,80.5 C9,84.0899613 11.9100387,87 15.5,87 C19.0899613,87 22,84.0899613 22,80.5" id="Fill-5" fill="#FFFFFF"></path>
                            <path d="M57.3852306,80 L7.70575884,80 C3.45013941,80 0,76.6025955 0,72.4111166 L0,67.7157199 C0,66.2157199 1.23506936,65 2.75727743,65 L57.3852306,65 C61.5908804,65 65,68.3577375 65,72.5 L65,72.5 C65,76.6422625 61.5908804,80 57.3852306,80" id="Fill-9" fill="#FFFFFF"></path>
                            <path d="M57.3852306,80 L7.70575884,80 C3.45013941,80 0,76.6025955 0,72.4111166 L0,67.7157199 C0,66.2157199 1.23506936,65 2.75727743,65 L57.3852306,65 C61.5908804,65 65,68.3577375 65,72.5 L65,72.5 C65,76.6422625 61.5908804,80 57.3852306,80 Z" id="Stroke-11" stroke="#4D5862" stroke-linecap="round" stroke-linejoin="round"></path>
                            <path d="M52,65 L10,65 L10,56.7762563 C10,54.6904793 11.6380315,53 13.6590966,53 L38.6426451,53 C42.6359572,53 46.3348593,55.1710373 48.3762026,58.7124403 L52,65 Z" id="Stroke-13" stroke="#4D5862" stroke-linecap="round" stroke-linejoin="round"></path>
                            <path d="M59,80.5 C59,76.9100387 56.0899613,74 52.5,74 C48.9100387,74 46,76.9100387 46,80.5 C46,84.0899613 48.9100387,87 52.5,87 C56.0899613,87 59,84.0899613 59,80.5" id="Fill-15" fill="#FFFFFF"></path>
                            <path d="M59,80.5 C59,76.9100387 56.0899613,74 52.5,74 C48.9100387,74 46,76.9100387 46,80.5 C46,84.0899613 48.9100387,87 52.5,87 C56.0899613,87 59,84.0899613 59,80.5 Z" id="Stroke-17" stroke="#4D5862" stroke-linecap="round" stroke-linejoin="round"></path>
                            <path d="M20,80.5 C20,76.9100387 17.0899613,74 13.5,74 C9.91003874,74 7,76.9100387 7,80.5 C7,84.0899613 9.91003874,87 13.5,87 C17.0899613,87 20,84.0899613 20,80.5" id="Fill-19" fill="#FFFFFF"></path>
                            <path d="M20,80.5 C20,76.9100387 17.0899613,74 13.5,74 C9.91003874,74 7,76.9100387 7,80.5 C7,84.0899613 9.91003874,87 13.5,87 C17.0899613,87 20,84.0899613 20,80.5 Z" id="Stroke-21" stroke="#4D5862" stroke-linecap="round" stroke-linejoin="round"></path>
                            <path d="M31,69 L36,69" id="Stroke-23" stroke="#4D5862" stroke-linecap="round" stroke-linejoin="round"></path>
                            <path d="M53,81 C53,80.4477262 52.5523787,80 52.0002344,80 C51.4476213,80 51,80.4477262 51,81 C51,81.5522738 51.4476213,82 52.0002344,82 C52.5523787,82 53,81.5522738 53,81" id="Fill-25" fill="#4D5862"></path>
                            <path d="M15,81 C15,80.4477262 14.5523787,80 14.0002344,80 C13.4476213,80 13,80.4477262 13,81 C13,81.5522738 13.4476213,82 14.0002344,82 C14.5523787,82 15,81.5522738 15,81" id="Fill-27" fill="#4D5862"></path>
                            <g id="Group-10" transform="translate(24.000000, 0.000000)">
                                <rect id="Rectangle" stroke="#FF6A38" x="0.5" y="0.5" width="7" height="45" rx="3.5"></rect>
                                <path d="M0,39 L8,39 L8,42 L8,42 C8,44.209139 6.209139,46 4,46 L4,46 L4,46 C1.790861,46 2.705415e-16,44.209139 0,42 L0,39 Z" id="Rectangle" fill="#FF6A38"></path>
                                <rect id="Rectangle" fill="#FF6A38" x="1" y="4" width="6" height="35.0526316"></rect>
                            </g>
                        </g>
                        <g id="Group-2" transform="translate(35.000000, 0.000000)"></g>
                    </g>
                    <g id="Group-7">
                        <g id="Page-1-Copy" transform="translate(0.000000, 53.000000)">
                            <path d="M60,27.5 C60,23.9100387 57.0899613,21 53.5,21 C49.9100387,21 47,23.9100387 47,27.5 C47,31.0899613 49.9100387,34 53.5,34 C57.0899613,34 60,31.0899613 60,27.5" id="Fill-1" fill="#FFFFFF"></path>
                            <path d="M22,27.5 C22,23.9100387 19.0899613,21 15.5,21 C11.9100387,21 9,23.9100387 9,27.5 C9,31.0899613 11.9100387,34 15.5,34 C19.0899613,34 22,31.0899613 22,27.5" id="Fill-5" fill="#FFFFFF"></path>
                            <path d="M57.3852306,27 L7.70575884,27 C3.45013941,27 0,23.6025955 0,19.4111166 L0,14.7157199 C0,13.2157199 1.23506936,12 2.75727743,12 L57.3852306,12 C61.5908804,12 65,15.3577375 65,19.5 L65,19.5 C65,23.6422625 61.5908804,27 57.3852306,27" id="Fill-9" fill="#FFFFFF"></path>
                            <path d="M57.3852306,27 L7.70575884,27 C3.45013941,27 0,23.6025955 0,19.4111166 L0,14.7157199 C0,13.2157199 1.23506936,12 2.75727743,12 L57.3852306,12 C61.5908804,12 65,15.3577375 65,19.5 L65,19.5 C65,23.6422625 61.5908804,27 57.3852306,27 Z" id="Stroke-11" stroke="#4D5862" stroke-linecap="round" stroke-linejoin="round"></path>
                            <path d="M52,12 L10,12 L10,3.7762563 C10,1.69047927 11.6380315,0 13.6590966,0 L38.6426451,0 C42.6359572,0 46.3348593,2.17103733 48.3762026,5.71244025 L52,12 Z" id="Stroke-13" stroke="#4D5862" stroke-linecap="round" stroke-linejoin="round"></path>
                            <path d="M59,27.5 C59,23.9100387 56.0899613,21 52.5,21 C48.9100387,21 46,23.9100387 46,27.5 C46,31.0899613 48.9100387,34 52.5,34 C56.0899613,34 59,31.0899613 59,27.5" id="Fill-15" fill="#FFFFFF"></path>
                            <path d="M59,27.5 C59,23.9100387 56.0899613,21 52.5,21 C48.9100387,21 46,23.9100387 46,27.5 C46,31.0899613 48.9100387,34 52.5,34 C56.0899613,34 59,31.0899613 59,27.5 Z" id="Stroke-17" stroke="#4D5862" stroke-linecap="round" stroke-linejoin="round"></path>
                            <path d="M20,27.5 C20,23.9100387 17.0899613,21 13.5,21 C9.91003874,21 7,23.9100387 7,27.5 C7,31.0899613 9.91003874,34 13.5,34 C17.0899613,34 20,31.0899613 20,27.5" id="Fill-19" fill="#FFFFFF"></path>
                            <path d="M20,27.5 C20,23.9100387 17.0899613,21 13.5,21 C9.91003874,21 7,23.9100387 7,27.5 C7,31.0899613 9.91003874,34 13.5,34 C17.0899613,34 20,31.0899613 20,27.5 Z" id="Stroke-21" stroke="#4D5862" stroke-linecap="round" stroke-linejoin="round"></path>
                            <path d="M31,16 L36,16" id="Stroke-23" stroke="#4D5862" stroke-linecap="round" stroke-linejoin="round"></path>
                            <path d="M53,28 C53,27.4477262 52.5523787,27 52.0002344,27 C51.4476213,27 51,27.4477262 51,28 C51,28.5522738 51.4476213,29 52.0002344,29 C52.5523787,29 53,28.5522738 53,28" id="Fill-25" fill="#4D5862"></path>
                            <path d="M15,28 C15,27.4477262 14.5523787,27 14.0002344,27 C13.4476213,27 13,27.4477262 13,28 C13,28.5522738 13.4476213,29 14.0002344,29 C14.5523787,29 15,28.5522738 15,28" id="Fill-27" fill="#4D5862"></path>
                        </g>
                        <g id="Group-7-Copy" transform="translate(25.000000, 0.000000)">
                            <rect id="Rectangle" stroke="#FF6A38" x="0.5" y="0.5" width="7" height="45" rx="3.5"></rect>
                            <path d="M0,39.9473684 L8,39.9473684 L8,42 L8,42 C8,44.209139 6.209139,46 4,46 L4,46 L4,46 C1.790861,46 2.705415e-16,44.209139 0,42 L0,39.9473684 Z" id="Rectangle" fill="#FF6A38"></path>
                        </g>
                    </g>
                </g>
                <g id="Page-1" transform="translate(90.000000, 7.000000)" stroke="#35D282">
                    <path d="M36.5149314,11.4375731 C41.9328024,15.5429908 45.4321926,22.047055 45.4321926,29.3688562 C45.4321926,41.7869628 35.3654435,51.8537119 22.947337,51.8537119 C10.5292304,51.8537119 0.462481318,41.7869628 0.462481318,29.3688562 C0.462481318,16.9507497 10.5292304,6.88400056 22.947337,6.88400056 C23.7286977,6.88400056 24.4998731,6.92401437 25.2608632,7.00185944 L26.8497755,7.155367" id="Stroke-1" stroke-linecap="round" stroke-linejoin="round"></path>
                    <polyline id="Stroke-3" stroke-linecap="round" stroke-linejoin="round" points="20.0647998 14.0525614 27.0097594 7.1076018 20.0647998 0.163320162"></polyline>
                    <path d="M28.6702697,23.9860691 C27.5943542,22.5403804 26.1952755,21.3751289 22.9978253,21.3751289 C19.8003751,21.3751289 17.0907769,22.6623434 17.0907769,25.2756141 C17.0907769,28.0753251 19.1796845,28.7876822 22.2046774,29.1760994 C26.0158268,29.665505 28.8862297,29.8845723 29.3422315,33.4486883 C29.6747166,36.0471992 26.7235229,37.9558812 23.2246609,37.9558812 C19.6318021,37.9558812 17.5273578,36.5070852 16.3465696,34.7188125" id="Stroke-5"></path>
                    <path d="M23.2082697,41.0451961 L23.2082697,37.9557259" id="Stroke-7"></path>
                    <path d="M23.2082697,21.3753619 L23.2082697,18.4878686" id="Stroke-9"></path>
                </g>
                <path d="M85.003,71.838 L85.003,74.827 L87.852,74.827 L87.852,75.772 L85.003,75.772 L85.003,78.782 L83.981,78.782 L83.981,75.772 L81.146,75.772 L81.146,74.827 L83.981,74.827 L83.981,71.838 L85.003,71.838 Z M93.977,75.814 L93.977,80 L92.626,80 L92.626,69.969 L95.461,69.969 C96.0956698,69.969 96.6439977,70.033166 97.106,70.1615 C97.5680023,70.289834 97.9494985,70.4753321 98.2505,70.718 C98.5515015,70.9606679 98.7743326,71.2534983 98.919,71.5965 C99.0636674,71.9395017 99.136,72.3233312 99.136,72.748 C99.136,73.1026684 99.0800006,73.4339985 98.968,73.742 C98.8559994,74.0500015 98.6938344,74.3264988 98.4815,74.5715 C98.2691656,74.8165012 98.0101682,75.0253325 97.7045,75.198 C97.3988318,75.3706675 97.0523353,75.5013329 96.665,75.59 C96.8330008,75.6880005 96.9823327,75.8303324 97.113,76.017 L100.039,80 L98.835,80 C98.5876654,80 98.4056672,79.9043343 98.289,79.713 L95.685,76.129 C95.6056663,76.0169994 95.5193338,75.9365002 95.426,75.8875 C95.3326662,75.8384998 95.1926676,75.814 95.006,75.814 L93.977,75.814 Z M93.977,74.827 L95.398,74.827 C95.7946686,74.827 96.1434985,74.7791671 96.4445,74.6835 C96.7455015,74.5878329 96.997499,74.4525009 97.2005,74.2775 C97.403501,74.1024991 97.5563328,73.8936679 97.659,73.651 C97.7616672,73.4083321 97.813,73.1400015 97.813,72.846 C97.813,72.2486637 97.6158353,71.7983349 97.2215,71.495 C96.8271647,71.1916652 96.2403372,71.04 95.461,71.04 L93.977,71.04 L93.977,74.827 Z M103.77,80.084 C103.205331,80.0326664 102.690836,79.8938345 102.2265,79.6675 C101.762164,79.4411655 101.362002,79.1530018 101.026,78.803 L101.397,78.229 C101.429667,78.1776664 101.476333,78.1356668 101.537,78.103 C101.597667,78.0703332 101.660666,78.054 101.726,78.054 C101.814667,78.054 101.914999,78.0983329 102.027,78.187 C102.139001,78.2756671 102.276666,78.3771661 102.44,78.4915 C102.603334,78.6058339 102.798166,78.7166661 103.0245,78.824 C103.250834,78.9313339 103.522665,79.0036665 103.84,79.041 L104.099,75.324 C103.772332,75.2259995 103.451502,75.1151673 103.1365,74.9915 C102.821498,74.8678327 102.539168,74.7068343 102.2895,74.5085 C102.039832,74.3101657 101.839167,74.0605015 101.6875,73.7595 C101.535833,73.4584985 101.46,73.0816689 101.46,72.629 C101.46,72.2883316 101.526499,71.955835 101.6595,71.6315 C101.792501,71.307165 101.986165,71.0190013 102.2405,70.767 C102.494835,70.5149987 102.808665,70.3085008 103.182,70.1475 C103.555335,69.9864992 103.984664,69.8966668 104.47,69.878 L104.54,68.87 C104.549333,68.7813329 104.584333,68.7020004 104.645,68.632 C104.705667,68.5619997 104.787333,68.527 104.89,68.527 L105.352,68.527 L105.254,69.913 C105.744002,69.973667 106.166332,70.0996657 106.521,70.291 C106.875668,70.4823343 107.192999,70.713332 107.473,70.984 L107.172,71.446 C107.078666,71.5860007 106.971334,71.656 106.85,71.656 C106.784666,71.656 106.704167,71.6268336 106.6085,71.5685 C106.512833,71.5101664 106.397334,71.4425004 106.262,71.3655 C106.126666,71.2884996 105.970334,71.2115004 105.793,71.1345 C105.615666,71.0574996 105.412668,71.0026668 105.184,70.97 L104.953,74.358 C105.289002,74.4606672 105.620332,74.5726661 105.947,74.694 C106.273668,74.8153339 106.567665,74.9716657 106.829,75.163 C107.090335,75.3543343 107.301499,75.5934986 107.4625,75.8805 C107.623501,76.1675014 107.704,76.5256645 107.704,76.955 C107.704,77.3750021 107.634001,77.7693315 107.494,78.138 C107.353999,78.5066685 107.149835,78.8309986 106.8815,79.111 C106.613165,79.3910014 106.284169,79.6184991 105.8945,79.7935 C105.504831,79.9685009 105.060336,80.0699999 104.561,80.098 L104.477,81.33 C104.467667,81.4186671 104.4315,81.496833 104.3685,81.5645 C104.3055,81.632167 104.225,81.666 104.127,81.666 L103.665,81.666 L103.77,80.084 Z M106.521,77.151 C106.521,76.9176655 106.477834,76.7170008 106.3915,76.549 C106.305166,76.3809992 106.187334,76.2363339 106.038,76.115 C105.888666,75.9936661 105.713668,75.8886671 105.513,75.8 C105.312332,75.7113329 105.097668,75.629667 104.869,75.555 L104.631,79.041 C104.934335,79.0129999 105.203832,78.9465005 105.4395,78.8415 C105.675168,78.7364995 105.873499,78.6023342 106.0345,78.439 C106.195501,78.2756658 106.316833,78.0855011 106.3985,77.8685 C106.480167,77.6514989 106.521,77.4123346 106.521,77.151 Z M102.636,72.503 C102.636,72.7270011 102.675666,72.9218325 102.755,73.0875 C102.834334,73.2531675 102.943999,73.3989994 103.084,73.525 C103.224001,73.6510006 103.387332,73.7606662 103.574,73.854 C103.760668,73.9473338 103.963666,74.031333 104.183,74.106 L104.393,70.949 C104.089665,70.9770001 103.827168,71.0376662 103.6055,71.131 C103.383832,71.2243338 103.201834,71.3409993 103.0595,71.481 C102.917166,71.6210007 102.811,71.7784991 102.741,71.9535 C102.671,72.1285009 102.636,72.3116657 102.636,72.503 Z M117.952,70.515 C117.952,70.6923342 117.896001,70.8381661 117.784,70.9525 C117.671999,71.0668339 117.483001,71.124 117.217,71.124 L114.067,71.124 L113.605,73.756 C114.127669,73.6439994 114.610664,73.588 115.054,73.588 C115.576669,73.588 116.037498,73.6649992 116.4365,73.819 C116.835502,73.9730008 117.170332,74.185332 117.441,74.456 C117.711668,74.726668 117.915833,75.0463315 118.0535,75.415 C118.191167,75.7836685 118.26,76.1849978 118.26,76.619 C118.26,77.1510027 118.166668,77.6316645 117.98,78.061 C117.793332,78.4903355 117.537835,78.8578318 117.2135,79.1635 C116.889165,79.4691682 116.507669,79.7036658 116.069,79.867 C115.630331,80.0303342 115.156669,80.112 114.648,80.112 C114.353999,80.112 114.071668,80.0828336 113.801,80.0245 C113.530332,79.9661664 113.278334,79.8880005 113.045,79.79 C112.811666,79.6919995 112.594668,79.5800006 112.394,79.454 C112.193332,79.3279994 112.016001,79.1950007 111.862,79.055 L112.24,78.523 C112.324,78.4016661 112.435999,78.341 112.576,78.341 C112.664667,78.341 112.768499,78.3771663 112.8875,78.4495 C113.006501,78.5218337 113.149999,78.6023329 113.318,78.691 C113.486001,78.7796671 113.683166,78.8601663 113.9095,78.9325 C114.135834,79.0048337 114.405332,79.041 114.718,79.041 C115.068002,79.041 115.382999,78.9850006 115.663,78.873 C115.943001,78.7609994 116.182166,78.6011677 116.3805,78.3935 C116.578834,78.1858323 116.731666,77.9373348 116.839,77.648 C116.946334,77.3586652 117,77.0343351 117,76.675 C117,76.3623318 116.9545,76.0800013 116.8635,75.828 C116.7725,75.5759987 116.634834,75.3613342 116.4505,75.184 C116.266166,75.0066658 116.036335,74.8690005 115.761,74.771 C115.485665,74.6729995 115.163669,74.624 114.795,74.624 C114.542999,74.624 114.281668,74.6449998 114.011,74.687 C113.740332,74.7290002 113.460335,74.7966662 113.171,74.89 L112.387,74.659 L113.199,69.969 L117.952,69.969 L117.952,70.515 Z M126.926,74.988 C126.926,75.8653377 126.831501,76.6248301 126.6425,77.2665 C126.453499,77.9081699 126.195668,78.4389979 125.869,78.859 C125.542332,79.2790021 125.156169,79.5916656 124.7105,79.797 C124.264831,80.0023344 123.787669,80.105 123.279,80.105 C122.765664,80.105 122.288502,80.0023344 121.8475,79.797 C121.406498,79.5916656 121.022668,79.2790021 120.696,78.859 C120.369332,78.4389979 120.112668,77.9081699 119.926,77.2665 C119.739332,76.6248301 119.646,75.8653377 119.646,74.988 C119.646,74.1106623 119.739332,73.3500032 119.926,72.706 C120.112668,72.0619968 120.369332,71.5288354 120.696,71.1065 C121.022668,70.6841646 121.406498,70.3703344 121.8475,70.165 C122.288502,69.9596656 122.765664,69.857 123.279,69.857 C123.787669,69.857 124.264831,69.9596656 124.7105,70.165 C125.156169,70.3703344 125.542332,70.6841646 125.869,71.1065 C126.195668,71.5288354 126.453499,72.0619968 126.6425,72.706 C126.831501,73.3500032 126.926,74.1106623 126.926,74.988 Z M125.631,74.988 C125.631,74.2226628 125.566834,73.5798359 125.4385,73.0595 C125.310166,72.5391641 125.137501,72.1203349 124.9205,71.803 C124.703499,71.4856651 124.452668,71.2581674 124.168,71.1205 C123.883332,70.9828326 123.587002,70.914 123.279,70.914 C122.970998,70.914 122.674668,70.9828326 122.39,71.1205 C122.105332,71.2581674 121.855668,71.4856651 121.641,71.803 C121.426332,72.1203349 121.254834,72.5391641 121.1265,73.0595 C120.998166,73.5798359 120.934,74.2226628 120.934,74.988 C120.934,75.7533372 120.998166,76.3949974 121.1265,76.913 C121.254834,77.4310026 121.426332,77.8486651 121.641,78.166 C121.855668,78.4833349 122.105332,78.7108326 122.39,78.8485 C122.674668,78.9861674 122.970998,79.055 123.279,79.055 C123.587002,79.055 123.883332,78.9861674 124.168,78.8485 C124.452668,78.7108326 124.703499,78.4833349 124.9205,78.166 C125.137501,77.8486651 125.310166,77.4310026 125.4385,76.913 C125.566834,76.3949974 125.631,75.7533372 125.631,74.988 Z M128.004,79.139 C128.004,79.0316661 128.023833,78.9301671 128.0635,78.8345 C128.103167,78.7388329 128.159166,78.6548337 128.2315,78.5825 C128.303834,78.5101663 128.391333,78.4530002 128.494,78.411 C128.596667,78.3689998 128.708666,78.348 128.83,78.348 C128.970001,78.348 129.094833,78.3736664 129.2045,78.425 C129.314167,78.4763336 129.405166,78.5474995 129.4775,78.6385 C129.549834,78.7295005 129.604666,78.8344994 129.642,78.9535 C129.679334,79.0725006 129.698,79.2019993 129.698,79.342 C129.698,79.5520011 129.667667,79.7701655 129.607,79.9965 C129.546333,80.2228345 129.460001,80.4468322 129.348,80.6685 C129.235999,80.8901678 129.097167,81.105999 128.9315,81.316 C128.765833,81.5260011 128.578001,81.7196658 128.368,81.897 L128.158,81.694 C128.097333,81.6379997 128.067,81.572667 128.067,81.498 C128.067,81.437333 128.099666,81.3743337 128.165,81.309 C128.211667,81.2576664 128.271166,81.1888338 128.3435,81.1025 C128.415834,81.0161662 128.489333,80.9170006 128.564,80.805 C128.638667,80.6929994 128.7075,80.569334 128.7705,80.434 C128.8335,80.298666 128.879,80.1540008 128.907,80 L128.816,80 C128.694666,80 128.585,79.9790002 128.487,79.937 C128.389,79.8949998 128.303834,79.8355004 128.2315,79.7585 C128.159166,79.6814996 128.103167,79.5905005 128.0635,79.4855 C128.023833,79.3804995 128.004,79.2650006 128.004,79.139 Z M138.014,74.988 C138.014,75.8653377 137.919501,76.6248301 137.7305,77.2665 C137.541499,77.9081699 137.283668,78.4389979 136.957,78.859 C136.630332,79.2790021 136.244169,79.5916656 135.7985,79.797 C135.352831,80.0023344 134.875669,80.105 134.367,80.105 C133.853664,80.105 133.376502,80.0023344 132.9355,79.797 C132.494498,79.5916656 132.110668,79.2790021 131.784,78.859 C131.457332,78.4389979 131.200668,77.9081699 131.014,77.2665 C130.827332,76.6248301 130.734,75.8653377 130.734,74.988 C130.734,74.1106623 130.827332,73.3500032 131.014,72.706 C131.200668,72.0619968 131.457332,71.5288354 131.784,71.1065 C132.110668,70.6841646 132.494498,70.3703344 132.9355,70.165 C133.376502,69.9596656 133.853664,69.857 134.367,69.857 C134.875669,69.857 135.352831,69.9596656 135.7985,70.165 C136.244169,70.3703344 136.630332,70.6841646 136.957,71.1065 C137.283668,71.5288354 137.541499,72.0619968 137.7305,72.706 C137.919501,73.3500032 138.014,74.1106623 138.014,74.988 Z M136.719,74.988 C136.719,74.2226628 136.654834,73.5798359 136.5265,73.0595 C136.398166,72.5391641 136.225501,72.1203349 136.0085,71.803 C135.791499,71.4856651 135.540668,71.2581674 135.256,71.1205 C134.971332,70.9828326 134.675002,70.914 134.367,70.914 C134.058998,70.914 133.762668,70.9828326 133.478,71.1205 C133.193332,71.2581674 132.943668,71.4856651 132.729,71.803 C132.514332,72.1203349 132.342834,72.5391641 132.2145,73.0595 C132.086166,73.5798359 132.022,74.2226628 132.022,74.988 C132.022,75.7533372 132.086166,76.3949974 132.2145,76.913 C132.342834,77.4310026 132.514332,77.8486651 132.729,78.166 C132.943668,78.4833349 133.193332,78.7108326 133.478,78.8485 C133.762668,78.9861674 134.058998,79.055 134.367,79.055 C134.675002,79.055 134.971332,78.9861674 135.256,78.8485 C135.540668,78.7108326 135.791499,78.4833349 136.0085,78.166 C136.225501,77.8486651 136.398166,77.4310026 136.5265,76.913 C136.654834,76.3949974 136.719,75.7533372 136.719,74.988 Z M146.134,74.988 C146.134,75.8653377 146.039501,76.6248301 145.8505,77.2665 C145.661499,77.9081699 145.403668,78.4389979 145.077,78.859 C144.750332,79.2790021 144.364169,79.5916656 143.9185,79.797 C143.472831,80.0023344 142.995669,80.105 142.487,80.105 C141.973664,80.105 141.496502,80.0023344 141.0555,79.797 C140.614498,79.5916656 140.230668,79.2790021 139.904,78.859 C139.577332,78.4389979 139.320668,77.9081699 139.134,77.2665 C138.947332,76.6248301 138.854,75.8653377 138.854,74.988 C138.854,74.1106623 138.947332,73.3500032 139.134,72.706 C139.320668,72.0619968 139.577332,71.5288354 139.904,71.1065 C140.230668,70.6841646 140.614498,70.3703344 141.0555,70.165 C141.496502,69.9596656 141.973664,69.857 142.487,69.857 C142.995669,69.857 143.472831,69.9596656 143.9185,70.165 C144.364169,70.3703344 144.750332,70.6841646 145.077,71.1065 C145.403668,71.5288354 145.661499,72.0619968 145.8505,72.706 C146.039501,73.3500032 146.134,74.1106623 146.134,74.988 Z M144.839,74.988 C144.839,74.2226628 144.774834,73.5798359 144.6465,73.0595 C144.518166,72.5391641 144.345501,72.1203349 144.1285,71.803 C143.911499,71.4856651 143.660668,71.2581674 143.376,71.1205 C143.091332,70.9828326 142.795002,70.914 142.487,70.914 C142.178998,70.914 141.882668,70.9828326 141.598,71.1205 C141.313332,71.2581674 141.063668,71.4856651 140.849,71.803 C140.634332,72.1203349 140.462834,72.5391641 140.3345,73.0595 C140.206166,73.5798359 140.142,74.2226628 140.142,74.988 C140.142,75.7533372 140.206166,76.3949974 140.3345,76.913 C140.462834,77.4310026 140.634332,77.8486651 140.849,78.166 C141.063668,78.4833349 141.313332,78.7108326 141.598,78.8485 C141.882668,78.9861674 142.178998,79.055 142.487,79.055 C142.795002,79.055 143.091332,78.9861674 143.376,78.8485 C143.660668,78.7108326 143.911499,78.4833349 144.1285,78.166 C144.345501,77.8486651 144.518166,77.4310026 144.6465,76.913 C144.774834,76.3949974 144.839,75.7533372 144.839,74.988 Z" id="+-R$-50,00" fill="#35D282"></path>
            </g>
        </g>
    </g>
</svg>