<?xml version="1.0" encoding="UTF-8"?>
<svg width="110px" height="18px" viewBox="0 0 110 18" version="1.1" xmlns="http://www.w3.org/2000/svg" xmlns:xlink="http://www.w3.org/1999/xlink">
    <!-- Generator: Sketch 46.2 (44496) - http://www.bohemiancoding.com/sketch -->
    <title>Logo_Branco</title>
    <desc>Created with Sketch.</desc>
    <defs></defs>
    <g id="Page-1" stroke="none" stroke-width="1" fill="none" fill-rule="evenodd">
        <g id="02-Trabalhe-Conosco-Desktop" transform="translate(-57.000000, -489.000000)" fill="#FFFFFF">
            <g id="Group-17" transform="translate(57.000000, 489.000000)">
                <g id="Logo_Branco">
                    <g transform="translate(0.319427, 0.471366)" id="Shape">
                        <path d="M12.0162332,15.9611146 C11.1624482,16.3601424 9.67622989,16.6363925 7.62082158,16.6363925 C3.0989233,16.6363925 0,14.0273641 0,9.73014099 C0,5.8319457 1.86567831,3.06944511 4.49027662,1.5040281 C6.22946827,0.460416766 8.19001158,0 10.5300149,0 C12.3008282,0 13.6921815,0.368333413 14.1981282,0.613889022 L13.1229915,3.95958419 C12.6802882,3.80611193 11.6051515,3.49916742 10.2137982,3.49916742 C8.9173099,3.49916742 7.71568658,3.83680638 6.79865826,4.51208431 C5.50216994,5.46361229 4.61676328,7.12111265 4.61676328,9.26972422 C4.61676328,11.7252803 6.16622493,13.1372251 8.75920157,13.1372251 C9.89758156,13.1372251 10.9410965,12.9837528 11.7632599,12.6461138 L12.0162332,15.9611146 Z" fill-rule="nonzero"></path>
                        <path d="M17.9927281,16.605698 C14.8938048,16.605698 12.6486665,14.7947254 12.6486665,11.7252803 C12.6486665,7.58152942 15.6527248,4.29722315 20.1430014,4.29722315 C23.4000331,4.29722315 25.4870631,6.35375137 25.4870631,9.14694642 C25.4870631,13.7204196 22.2932748,16.605698 17.9927281,16.605698 L17.9927281,16.605698 Z M18.5935398,13.5055585 C20.3327314,13.5055585 21.1232731,10.8351412 21.1232731,9.17764087 C21.1232731,8.19541844 20.7121914,7.36666826 19.6054331,7.36666826 C17.7713765,7.36666826 17.0440781,10.1905578 17.0440781,11.633197 C17.0440781,12.7995861 17.5816465,13.5055585 18.5935398,13.5055585 L18.5935398,13.5055585 Z" fill-rule="nonzero"></path>
                        <path d="M25.6135497,16.6670869 L27.1313897,8.90139081 C27.4476064,7.30527936 27.6373364,5.98541796 27.8270664,4.88041772 L31.5268013,4.88041772 L31.3370713,6.69139033 L31.4003147,6.69139033 C32.5703163,5.21805668 34.024913,4.60416766 35.5427529,4.60416766 C37.7562696,4.60416766 38.6732979,5.95472351 38.6732979,7.82708502 C38.6732979,8.34889069 38.5784329,9.30041868 38.4835679,9.8529188 L37.1238363,16.6977814 L32.9181546,16.6977814 L34.1513996,10.2826411 C34.214643,9.9143077 34.2778863,9.45389093 34.2778863,9.05486307 C34.2778863,8.34889069 34.0565346,7.91916838 33.360858,7.91916838 C32.3489646,7.91916838 31.3054497,9.20833532 30.8311247,11.6638914 L29.850853,16.6977814 L25.6135497,16.6977814 L25.6135497,16.6670869 Z" fill-rule="nonzero"></path>
                        <path d="M50.1203411,15.6848645 C48.5076361,16.4522258 46.5787145,16.605698 45.3770912,16.605698 C41.8038429,16.605698 39.8432996,14.7947254 39.8432996,11.5104192 C39.8432996,7.91916838 42.4995195,4.29722315 47.0846612,4.29722315 C49.6143945,4.29722315 51.6065594,5.647779 51.6065594,8.04194618 C51.6065594,10.9886135 48.8554745,12.2163915 43.8592512,12.0629193 C43.9224945,12.3391693 44.0489812,12.6154194 44.2703329,12.8302805 C44.7446578,13.2293084 45.4719562,13.4441696 46.4522278,13.4441696 C47.6854728,13.4441696 48.8554745,13.198614 49.8989895,12.7381972 L50.1203411,15.6848645 Z M47.6854728,8.04194618 C47.6854728,7.64291832 47.2743912,7.2745849 46.6103362,7.2745849 C45.0924962,7.2745849 44.3651978,8.37958514 44.2387112,9.14694642 C46.8000662,9.14694642 47.6854728,8.80930746 47.6854728,8.04194618 L47.6854728,8.04194618 Z" fill-rule="nonzero"></path>
                        <path d="M61.219546,16.2987535 C60.365761,16.6670869 59.1641377,16.8819481 57.804406,16.8819481 C54.8635911,16.8819481 52.4919661,15.1937533 52.4919661,11.909447 C52.4919661,7.70430722 55.9071061,4.60416766 60.6187343,4.60416766 C61.599006,4.60416766 62.452791,4.75763992 63.0536026,4.94180662 L62.0417093,8.07264063 C61.6306277,7.91916838 61.219546,7.85777948 60.5871127,7.85777948 C58.3103527,7.85777948 56.9189994,9.54597428 56.9189994,11.5104192 C56.9189994,13.0144473 57.994136,13.6283363 59.0060294,13.6283363 C59.9546793,13.6283363 60.650356,13.4441696 61.2511677,13.2293084 L61.219546,16.2987535 Z" fill-rule="nonzero"></path>
                        <path d="M70.3898292,1.22777804 L69.7573959,4.57347321 L72.2238859,4.57347321 L71.5914526,7.67361277 L69.1249626,7.67361277 L68.4292859,10.8965301 C68.3660426,11.2648635 68.2711776,11.909447 68.2711776,12.247086 C68.2711776,12.7381972 68.4925293,13.1679195 69.2514492,13.1679195 C69.5360442,13.1679195 69.8838826,13.1679195 70.2317209,13.1372251 L69.6941526,16.329448 C69.1882059,16.5136147 68.1763126,16.605698 67.3857709,16.605698 C65.0773893,16.605698 63.9390093,15.5620867 63.9390093,13.9659752 C63.9390093,13.3213918 64.0022526,12.7075027 64.1919826,11.7866692 L65.0457676,7.67361277 L63.5595493,7.67361277 L64.160361,4.57347321 L65.6465793,4.57347321 L66.0576609,2.36347273 L70.3898292,1.22777804 Z" fill-rule="nonzero"></path>
                        <path d="M85.0622824,15.9611146 C84.2084974,16.3601424 82.7222791,16.6363925 80.6668708,16.6363925 C76.1449725,16.6363925 73.0460492,14.0273641 73.0460492,9.73014099 C73.0460492,5.8319457 74.9117275,3.06944511 77.5363258,1.5040281 C79.2755175,0.460416766 81.2360608,0 83.5760641,0 C85.3468774,0 86.7382307,0.368333413 87.2441774,0.613889022 L86.1690407,3.95958419 C85.7263374,3.80611193 84.6512007,3.49916742 83.2598474,3.49916742 C81.9633591,3.49916742 80.7617358,3.83680638 79.8447075,4.51208431 C78.5482191,5.46361229 77.6628125,7.12111265 77.6628125,9.26972422 C77.6628125,11.7252803 79.2122741,13.1372251 81.8052508,13.1372251 C82.9436308,13.1372251 84.0187674,12.9837528 84.7776874,12.6461138 L85.0622824,15.9611146 Z" fill-rule="nonzero"></path>
                        <path d="M93.2206723,16.6670869 C93.2839156,15.991809 93.3155373,15.2858366 93.347159,14.6412532 L93.2839156,14.6412532 C92.2404007,16.3908369 90.7541823,16.943337 89.457694,16.943337 C87.275799,16.943337 85.6947157,15.3165311 85.6947157,12.7381972 C85.6947157,8.80930746 88.2560707,4.60416766 94.5487823,4.60416766 C96.098244,4.60416766 97.7741923,4.91111217 98.8809506,5.24875113 L97.5844623,11.4183358 C97.3314889,12.6768083 97.0785156,15.1016699 97.1101373,16.6363925 L93.2206723,16.6363925 L93.2206723,16.6670869 Z M94.1377006,7.73500167 C93.8531056,7.67361277 93.5685106,7.67361277 93.347159,7.67361277 C91.3866157,7.67361277 90.0901274,10.2519467 90.0901274,11.9708359 C90.0901274,13.0758362 90.596074,13.6590307 91.2917507,13.6590307 C92.0506707,13.6590307 93.0941857,12.9223639 93.6001323,10.1291689 L94.1377006,7.73500167 Z" fill-rule="nonzero"></path>
                        <path d="M99.2920323,16.6363925 L100.620142,9.88361325 C100.967981,7.98055728 101.126089,5.8319457 101.220954,4.84972327 L104.857446,4.84972327 C104.794202,5.647779 104.762581,6.44583473 104.667716,7.213196 L104.730959,7.213196 C105.616366,5.67847345 107.007719,4.60416766 108.683667,4.60416766 C108.905019,4.60416766 109.157992,4.60416766 109.379344,4.63486211 L108.55718,8.5944463 L107.98799,8.5944463 C105.521501,8.5944463 104.667716,10.4975023 104.225012,12.6461138 L103.466092,16.6670869 L99.2920323,16.6670869 L99.2920323,16.6363925 Z" fill-rule="nonzero"></path>
                    </g>
                </g>
            </g>
        </g>
    </g>
</svg>