<?xml version="1.0" encoding="UTF-8"?>
<svg width="177px" height="115px" viewBox="0 0 177 115" version="1.1" xmlns="http://www.w3.org/2000/svg" xmlns:xlink="http://www.w3.org/1999/xlink">
    <!-- Generator: Sketch 47.1 (45422) - http://www.bohemiancoding.com/sketch -->
    <title>Group 2</title>
    <desc>Created with Sketch.</desc>
    <defs></defs>
    <g id="Erros" stroke="none" stroke-width="1" fill="none" fill-rule="evenodd">
        <g id="Erro-Area-Indisponível" transform="translate(-567.000000, -252.000000)">
            <g id="Group-2" transform="translate(567.000000, 252.000000)">
                <path d="M90,69 L144,112" id="Line" stroke="#4D5862" stroke-width="3" stroke-linecap="round" stroke-linejoin="round"></path>
                <path d="M11,69 L65,112" id="Line-Copy" stroke="#4D5862" stroke-width="3" stroke-linecap="round" stroke-linejoin="round" transform="translate(38.000000, 90.500000) scale(-1, 1) translate(-38.000000, -90.500000) "></path>
                <rect id="Rectangle-Copy-2" fill="#FFEAE1" transform="translate(150.139087, 60.639087) rotate(45.000000) translate(-150.139087, -60.639087) " x="130.693651" y="41.1936508" width="38.890873" height="38.890873" rx="3"></rect>
                <rect id="Rectangle-2" stroke="#4D5862" stroke-width="3" fill="#FFFFFF" stroke-linecap="round" stroke-linejoin="round" x="97" y="60" width="13" height="23"></rect>
                <rect id="Rectangle-2-Copy" stroke="#4D5862" stroke-width="3" fill="#FFFFFF" stroke-linecap="round" stroke-linejoin="round" x="44" y="60" width="13" height="23"></rect>
                <path d="M77.5,74.9967534 L77.5,113.5" id="Line-2" stroke="#4D5862" stroke-width="3" stroke-linecap="round" stroke-linejoin="round" stroke-dasharray="8,8"></path>
                <path d="M144.5,38.9982765 L144.5,111.526662" id="Line-3" stroke="#4D5862" stroke-width="3" stroke-linecap="round" stroke-linejoin="round"></path>
                <rect id="Rectangle" stroke="#4D5862" stroke-width="3" fill="#FFFFFF" stroke-linecap="round" stroke-linejoin="round" transform="translate(144.278175, 49.278175) rotate(45.000000) translate(-144.278175, -49.278175) " x="129.93934" y="34.9393398" width="28.6776695" height="28.6776695"></rect>
                <g id="Group" transform="translate(43.000000, 65.000000)" stroke="#4D5862" stroke-width="3">
                    <rect id="Rectangle-4" fill="#FFFFFF" stroke-linecap="round" stroke-linejoin="round" x="0" y="0" width="69" height="5"></rect>
                    <path d="M6.5,0.625 L3.5,4.375" id="Line-4" stroke-linecap="square"></path>
                    <path d="M13.5,0.625 L10.5,4.375" id="Line-4-Copy" stroke-linecap="square"></path>
                    <path d="M19.5,0.625 L16.5,4.375" id="Line-4-Copy-2" stroke-linecap="square"></path>
                    <path d="M26.5,0.625 L23.5,4.375" id="Line-4-Copy-3" stroke-linecap="square"></path>
                    <path d="M32.5,0.625 L29.5,4.375" id="Line-4-Copy-4" stroke-linecap="square"></path>
                    <path d="M39.5,0.625 L36.5,4.375" id="Line-4-Copy-5" stroke-linecap="square"></path>
                    <path d="M45.5,0.625 L42.5,4.375" id="Line-4-Copy-6" stroke-linecap="square"></path>
                    <path d="M52.5,0.625 L49.5,4.375" id="Line-4-Copy-7" stroke-linecap="square"></path>
                    <path d="M58.5,0.625 L55.5,4.375" id="Line-4-Copy-8" stroke-linecap="square"></path>
                    <path d="M64.5,0.625 L61.5,4.375" id="Line-4-Copy-9" stroke-linecap="square"></path>
                </g>
                <g id="Group-22" transform="translate(20.000000, 20.500000) scale(-1, 1) translate(-20.000000, -20.500000) ">
                    <path d="M17.4853075,41 C29.8981872,41 40,30.7213546 40,18.0836758 C40,10.9088443 36.649284,4.25300016 31.2457578,0 C31.3450873,0.977313825 31.3914411,1.94788756 31.3914411,2.91846129 C31.3914411,19.2699326 18.3229865,32.5748808 2.25809122,32.5748808 C1.5296747,32.5748808 0.771459316,32.5614006 0,32.51422 C4.16190713,37.818675 10.4858869,41 17.4853075,41 Z" id="Path" fill="#E4E8F8"></path>
                    <path d="M5.50485995,24.3952836 L5.50498261,24.3956183 C7.31101699,29.3256524 11.8547487,32.5 17.1045512,32.5 C23.9385944,32.5 29.5,26.9384475 29.5,20.1052741 C29.5,14.9465773 26.2410207,10.2803431 21.3975955,8.50512196 C21.3678416,8.49424298 21.3346037,8.50129935 21.3157958,8.51955549 C21.291968,8.54277552 21.2835966,8.5769252 21.2922945,8.60309246 C21.8313705,10.218503 22.0784134,11.5862164 22.0784134,13.0000165 C22.0784134,19.7492305 16.5910654,25.2368502 9.8426002,25.2368502 C7.98175707,25.2368502 6.75868997,25.0138669 5.62239778,24.3022834 C5.59082457,24.2825946 5.55810454,24.284608 5.52870858,24.3086489 C5.50295692,24.3295129 5.49342194,24.3640836 5.50485995,24.3952836 Z" id="Fill-150" stroke="#4D5862" stroke-width="3"></path>
                </g>
                <path d="M144.123853,56.2240181 L135.5,56.2240181 L135.5,43.0710637 L136.265374,43.0710637 L136.265374,47.6805294 C136.260353,47.8206884 136.317094,47.9559899 136.420586,48.0506427 C136.524078,48.1452955 136.663894,48.189763 136.803049,48.1722823 C136.925509,48.1722823 137.436397,48.1722823 137.887967,48.1722823 C138.015072,48.1722879 138.137202,48.1228869 138.228559,48.0345149 C138.319389,47.9444777 138.370383,47.8218174 138.370153,47.6939235 L138.370153,41.1518881 L139.135527,41.1518881 L139.135527,47.6977503 C139.135527,47.9619406 139.349696,48.1761092 139.613886,48.1761092 L140.761947,48.1761092 C140.888816,48.1761092 141.010488,48.1257108 141.100198,48.0360011 C141.189908,47.9462914 141.240306,47.824619 141.240306,47.6977503 L141.240306,40 L142.00568,40 L142.00568,47.6977503 C142.00568,47.9619406 142.219849,48.1761092 142.484039,48.1761092 L143.6321,48.1761092 C143.758969,48.1761092 143.880641,48.1257108 143.970351,48.0360011 C144.060061,47.9462914 144.110459,47.824619 144.110459,47.6977503 L144.110459,41.5364886 L144.875833,41.5364886 L144.875833,51.3658058 C144.875924,51.5671349 145.002062,51.7468588 145.19137,51.8153864 C145.380677,51.8839141 145.59263,51.8265762 145.721572,51.6719555 L147.793822,49.2342389 L148.995459,50.4358763 L144.123853,56.2240181 Z" id="Shape" stroke="#4D5862" fill="#4D5862" fill-rule="nonzero" stroke-linecap="round" stroke-linejoin="round" transform="translate(142.247730, 48.112009) scale(-1, 1) translate(-142.247730, -48.112009) "></path>
            </g>
        </g>
    </g>
</svg>