<?xml version="1.0" encoding="UTF-8"?>
<svg width="108px" height="82px" viewBox="0 0 108 82" version="1.1" xmlns="http://www.w3.org/2000/svg" xmlns:xlink="http://www.w3.org/1999/xlink">
    <!-- Generator: Sketch 47.1 (45422) - http://www.bohemiancoding.com/sketch -->
    <title>ic ativacao realizada</title>
    <desc>Created with Sketch.</desc>
    <defs></defs>
    <g id="Logada-Desktop" stroke="none" stroke-width="1" fill="none" fill-rule="evenodd">
        <g id="Logada-Ativação-5" transform="translate(-582.000000, -340.000000)">
            <g id="ic-ativacao-realizada" transform="translate(582.000000, 340.000000)">
                <g id="Group-2" stroke-width="1" fill-rule="evenodd" transform="translate(1.000000, 1.000000)">
                    <g id="Group-3-Copy">
                        <circle id="Oval-3-Copy-2" stroke="#7A8BDB" stroke-width="2" cx="57" cy="40" r="40"></circle>
                        <g id="Group-5" transform="translate(0.000000, 18.000000)" stroke="#D8DBDE" stroke-width="1.5">
                            <g id="Group" transform="translate(45.913043, 0.000000)">
                                <path d="M58.5075424,27.7264796 L1.5,27.7264796 L1.5,27.7264796 C0.671572875,27.7264796 6.9288062e-13,27.0549068 6.92779167e-13,26.2264796 L6.8567374e-13,1.5 L6.85451695e-13,1.5 C6.85350242e-13,0.671572875 0.671572875,-6.98650109e-17 1.5,-2.22044605e-16 L58.5073252,0 L58.5073252,1.17517077e-05 C59.3357477,1.17517077e-05 60.0073187,0.671577465 60.0073252,1.5 L60.0075307,26.2264796 L60.0075424,26.2264796 C60.0075489,27.0549068 59.3359813,27.7264849 58.5075542,27.7264914 C58.5075503,27.7264914 58.5075463,27.7264914 58.5075424,27.7264914 Z" id="Stroke-1" fill="#FFFFFF"></path>
                                <path d="M40.9322919,5.04117811 L51.4793235,5.04117811 L51.4793235,5.04117811 C52.0316082,5.04117811 52.4793235,5.48889336 52.4793235,6.04117811 L52.4793235,16.6441234 L52.4793235,16.6441234 C52.4793235,17.1964082 52.0316082,17.6441234 51.4793235,17.6441234 L40.9322919,17.6441234 L40.9322919,17.6441234 C40.3800071,17.6441234 39.9322919,17.1964082 39.9322919,16.6441234 L39.9322919,6.04117811 L39.9322919,6.04117811 C39.9322919,5.48889336 40.3800071,5.04117811 40.9322919,5.04117811 Z" id="Rectangle-3" stroke-linejoin="round"></path>
                                <path d="M39.9322919,20.75 L52.4793235,20.75" id="Line" stroke-linecap="round"></path>
                            </g>
                            <g id="Group-4" transform="translate(0.223517, 11.181818)" stroke-linecap="round" stroke-linejoin="round">
                                <g id="Group-7">
                                    <path d="M62.6231249,29.6871002 L8.40910969,29.6871002 C3.76505434,29.6871002 0,25.6527367 0,20.6754225 L0,15.099714 C0,13.318488 1.34780155,11.8748401 3.00895069,11.8748401 L62.6231249,11.8748401 C67.2126496,11.8748401 70.93294,15.8620997 70.93294,20.7809701 L70.93294,20.7809701 C70.93294,25.6998406 67.2126496,29.6871002 62.6231249,29.6871002 Z" id="Stroke-11" fill="#FFFFFF"></path>
                                    <path d="M56.1552442,11.8748401 L9.23387385,11.8748401 L9.23387385,3.73686997 C9.23387385,1.67284758 10.9628976,0 13.0962322,0 L42.0558922,0 C46.2710316,0 50.1754066,2.14839343 52.3301459,5.65285954 L56.1552442,11.8748401 Z" id="Stroke-13" fill="#FFFFFF"></path>
                                    <path d="M62.0663225,30.0803164 C62.0663225,25.9812572 58.7583481,22.6585413 54.6774746,22.6585413 C50.5966011,22.6585413 47.2886267,25.9812572 47.2886267,30.0803164 C47.2886267,34.1793756 50.5966011,37.5020914 54.6774746,37.5020914 C58.7583481,37.5020914 62.0663225,34.1793756 62.0663225,30.0803164 Z" id="Stroke-17" fill="#FFFFFF"></path>
                                    <path d="M23.6443133,30.0803164 C23.6443133,25.9812572 20.3363389,22.6585413 16.2554654,22.6585413 C12.1745919,22.6585413 8.8666175,25.9812572 8.8666175,30.0803164 C8.8666175,34.1793756 12.1745919,37.5020914 16.2554654,37.5020914 C20.3363389,37.5020914 23.6443133,34.1793756 23.6443133,30.0803164 Z" id="Stroke-21" fill="#FFFFFF"></path>
                                    <path d="M32.5109308,17.4582214 L38.4220092,17.4582214" id="Stroke-23"></path>
                                </g>
                            </g>
                        </g>
                        <polyline id="Path-2" stroke="#7A8BDB" stroke-width="2" stroke-linecap="round" stroke-linejoin="round" points="58 30.0836054 61.1958008 33.2112909 70.4070917 24"></polyline>
                    </g>
                </g>
                <rect id="Rectangle" x="0" y="0" width="116" height="82"></rect>
            </g>
        </g>
    </g>
</svg>