<?xml version="1.0" encoding="UTF-8"?>
<svg width="94px" height="92px" viewBox="0 0 94 92" version="1.1" xmlns="http://www.w3.org/2000/svg" xmlns:xlink="http://www.w3.org/1999/xlink">
    <!-- Generator: Sketch 46.2 (44496) - http://www.bohemiancoding.com/sketch -->
    <title>Group 5</title>
    <desc>Created with Sketch.</desc>
    <defs></defs>
    <g id="Symbols" stroke="none" stroke-width="1" fill="none" fill-rule="evenodd">
        <g id="ic-Voce-nao-possui-adesivos-a-caminho" transform="translate(1.000000, 1.000000)" fill-rule="nonzero" fill="#B5BDC4">
            <g id="Group-5" transform="translate(0.358108, 0.358108)">
                <path d="M48.1295407,38.2563052 C48.5070491,38.4092311 48.7540846,38.7758385 48.7540846,39.1831454 L48.7540846,89.3963124 C48.7540846,90.1056502 48.0360713,90.5894778 47.3786285,90.3231526 L-0.296290511,71.010396 C-0.67379893,70.8574702 -0.920834419,70.4908628 -0.920834419,70.0835559 L-0.920834419,19.8703888 C-0.920834419,19.1610511 -0.20282108,18.6772235 0.454621673,18.9435486 L48.1295407,38.2563052 Z M46.7540846,39.8569874 L1.07916558,21.3544161 L1.07916558,69.4097138 L46.7540846,87.9122851 L46.7540846,39.8569874 Z" id="Stroke-25"></path>
                <path d="M48.7857254,87.8907516 L90.3085584,69.4922354 L90.3085584,21.4666079 L48.7857254,39.865124 L48.7857254,87.8907516 Z M47.3806183,38.300179 L90.9034512,19.015475 C91.5646248,18.722513 92.3085584,19.2065726 92.3085584,19.9297442 L92.3085584,70.1429112 C92.3085584,70.5385091 92.0753485,70.8969209 91.7136656,71.0571804 L48.1908326,90.3418845 C47.5296591,90.6348465 46.7857254,90.1507868 46.7857254,89.4276153 L46.7857254,39.2144482 C46.7857254,38.8188503 47.0189353,38.4604386 47.3806183,38.300179 Z" id="Stroke-26"></path>
                <path d="M90.870521,20.5578669 C91.3778503,20.7761223 91.9660529,20.5417816 92.1843083,20.0344523 C92.4025637,19.5271229 92.168223,18.9389203 91.6608936,18.720665 L46.0183916,-0.914946641 C45.7645048,-1.02416986 45.4767351,-1.02344579 45.2234012,-0.912946305 L-0.289486292,18.9389213 C-0.795710854,19.1597269 -1.02708859,19.7491014 -0.806282937,20.255326 C-0.585477281,20.7615505 0.00389716001,20.9929283 0.510121722,20.7721226 L45.6259473,1.09344595 L90.870521,20.5578669 Z" id="Stroke-27"></path>
                <polygon id="Stroke-28" points="24.2160005 10.1342468 69.6813936 29.8104541 70.4757429 27.974968 25.0103498 8.29876069"></polygon>
                <path d="M35.1137221,47.9885103 C35.4958387,48.1391391 35.746991,48.5081037 35.746991,48.9188373 L35.746991,68.2315939 C35.746991,68.9369182 35.0364423,69.4205852 34.38026,69.1619209 L10.5176482,59.7553793 C10.1355315,59.6047506 9.88437918,59.235786 9.88437918,58.8250523 L9.88437918,39.5122958 C9.88437918,38.8069714 10.5949279,38.3233044 11.2511102,38.5819687 L35.1137221,47.9885103 Z M11.8843792,40.9813824 L11.8843792,58.1443573 L33.746991,66.7625072 L33.746991,49.5995324 L11.8843792,40.9813824 Z" id="Stroke-29"></path>
            </g>
        </g>
    </g>
</svg>