<?xml version="1.0" encoding="UTF-8"?>
<svg width="62px" height="45px" viewBox="0 0 62 45" version="1.1" xmlns="http://www.w3.org/2000/svg" xmlns:xlink="http://www.w3.org/1999/xlink">
    <!-- Generator: Sketch 46.2 (44496) - http://www.bohemiancoding.com/sketch -->
    <title>Group 8</title>
    <desc>Created with Sketch.</desc>
    <defs></defs>
    <g id="Logada-Desktop" stroke="none" stroke-width="1" fill="none" fill-rule="evenodd">
        <g id="Logada-Ativação-Adesivo-Pendente" transform="translate(-916.000000, -354.000000)">
            <g id="Group-2" transform="translate(776.000000, 355.000000)">
                <g id="Group-8" transform="translate(141.000000, 0.000000)">
                    <rect id="Rectangle-3" stroke="#495862" stroke-linejoin="round" x="41.0526316" y="22.1052632" width="11.4154717" height="11.4154717"></rect>
                    <path d="M41.0526316,37.7247379 L52.460039,37.7247379" id="Line" stroke="#495862" stroke-linecap="round"></path>
                    <path d="M59.0276922,42.5839221 L0.573153086,42.5839221 C0.256756409,42.5839221 0,42.3273679 0,42.010769 L0,17.941372 C0,17.6249753 0.256756409,17.3684211 0.573153086,17.3684211 L59.0274898,17.3684211 C59.3440886,17.3684211 59.6006428,17.6249753 59.6006428,17.941372 L59.6006428,42.0109714 C59.6006428,42.3275703 59.344291,42.5839221 59.0276922,42.5839221 Z" id="Stroke-1" stroke="#495862"></path>
                    <g id="Group-3" transform="translate(18.947368, 0.000000)" stroke="#7A8BDB" stroke-linecap="round">
                        <path d="M23.0466212,3.95248012 L19.3713267,7.62777466" id="Line-2" transform="translate(21.208974, 5.790127) scale(-1, 1) rotate(90.000000) translate(-21.208974, -5.790127) "></path>
                        <path d="M4.67014854,3.95248012 L0.994854009,7.62777466" id="Line-2" transform="translate(2.832501, 5.790127) scale(-1, -1) rotate(-90.000000) translate(-2.832501, -5.790127) "></path>
                        <path d="M11.7524198,0.128519353 L11.7524198,5.64146115" id="Line-3"></path>
                    </g>
                </g>
            </g>
        </g>
    </g>
</svg>