<?xml version="1.0" encoding="UTF-8"?>
<svg width="260px" height="118px" viewBox="0 0 260 118" version="1.1" xmlns="http://www.w3.org/2000/svg" xmlns:xlink="http://www.w3.org/1999/xlink">
    <!-- Generator: Sketch 47 (45396) - http://www.bohemiancoding.com/sketch -->
    <title>ic Como instalar 2</title>
    <desc>Created with Sketch.</desc>
    <defs>
        <path d="M23.15524,36.6741837 L186.231633,36.6741837 L186.231633,36.6741837 C194.582607,36.6741837 201.696951,42.7397103 203.017682,50.9855843 L208.42302,84.7333716 L208.42302,84.7333716 C209.907893,94.0040503 203.59625,102.723147 194.325571,104.20802 C193.436452,104.350429 192.537423,104.421971 191.636972,104.421971 L17.7499012,104.421971 L17.7499012,104.421971 C8.36106045,104.421971 0.749901199,96.8108118 0.749901199,87.421971 C0.749901199,86.5215193 0.821443374,85.6224908 0.963852432,84.7333716 L6.36919126,50.9855843 L6.36919126,50.9855843 C7.68992207,42.7397103 14.804266,36.6741837 23.15524,36.6741837 Z" id="path-1"></path>
    </defs>
    <g id="Ativação-Offline-(posto)-Desktop" stroke="none" stroke-width="1" fill="none" fill-rule="evenodd">
        <g id="Ativação-realizada-como-instalar" transform="translate(-857.000000, -336.000000)">
            <g id="ic-Como-instalar-2" transform="translate(804.000000, 337.000000)">
                <g id="Group-2" transform="translate(212.000000, 28.000000)" stroke-width="2">
                    <g id="adesivo" transform="translate(53.333333, 6.800000)" stroke="#7C878F">
                        <rect id="Rectangle-3" stroke-linejoin="round" x="0" y="0" width="14.677035" height="14.9705757"></rect>
                        <path d="M0,20.4 L14.6666667,20.4" id="Line" stroke-linecap="round"></path>
                    </g>
                    <path d="M76.2925649,33.7628017 L1.13672895,33.7628017 C0.729933223,33.7628017 0.39981784,33.4263492 0.39981784,33.0111524 L0.39981784,1.44585737 C0.39981784,1.03092573 0.729933223,0.694473172 1.13672895,0.694473172 L76.2923047,0.694473172 C76.6993603,0.694473172 77.0292158,1.03092573 77.0292158,1.44585737 L77.0292158,33.0114178 C77.0292158,33.4266146 76.6996206,33.7628017 76.2925649,33.7628017 Z" id="Stroke-1" stroke="#7C878F"></path>
                    <g id="Group" transform="translate(93.239789, 17.203276) rotate(90.000000) translate(-93.239789, -17.203276) translate(78.739789, 10.703276)" stroke="#7A8BDB" stroke-linecap="round">
                        <path d="M28.3522721,7.22982939 L23.6268934,12.0497157" id="Line-2"></path>
                        <path d="M4.72537869,7.22982939 L-2.84217094e-14,12.0497157" id="Line-2" transform="translate(2.362689, 9.639773) scale(1, -1) translate(-2.362689, -9.639773) "></path>
                        <path d="M14.1761361,0 L14.1761361,7.22982939" id="Line-3"></path>
                    </g>
                </g>
                <g id="Page-1" transform="translate(53.000000, 0.000000)">
                    <polygon id="Stroke-3" stroke="#D8DBDE" stroke-width="2" fill="#FFFFFF" points="87.9227413 37.967169 119.840159 37.967169 119.840159 0.0624046488 87.9227413 0.0624046488"></polygon>
                    <path d="M119.866348,103.447802 L87.9489299,103.447802 L87.9489299,108.481534 C87.9489299,112.476874 90.8870628,115.717319 94.8546434,115.717319 L112.935606,115.717319 C116.903186,115.717319 119.866348,112.476874 119.866348,108.481534 L119.866348,103.447802 Z" id="Stroke-5" stroke="#D8DBDE" stroke-width="2"></path>
                    <g id="Rectangle-2">
                        <use fill="#FFFFFF" fill-rule="evenodd" xlink:href="#path-1"></use>
                        <path stroke="#D8DBDE" stroke-width="2" d="M23.15524,37.6741837 C15.2954998,37.6741837 8.59964665,43.3829147 7.35660589,51.1437372 L1.95126707,84.8915245 C1.81723501,85.7283426 1.7499012,86.574487 1.7499012,87.421971 C1.7499012,96.258527 8.9133452,103.421971 17.7499012,103.421971 L191.636972,103.421971 C192.484456,103.421971 193.3306,103.354637 194.167418,103.220605 C202.892763,101.823078 208.833133,93.6168692 207.435606,84.8915245 L202.030267,51.1437372 C200.787226,43.3829147 194.091373,37.6741837 186.231633,37.6741837 L23.15524,37.6741837 Z"></path>
                    </g>
                    <path d="M99.668351,59.2850504 L89.0292118,69.9986264" id="Stroke-6" stroke="#D8DBDE" stroke-width="2" stroke-linecap="round"></path>
                    <path d="M120.357385,58.1972103 L96.127001,81.3671856" id="Stroke-7" stroke="#D8DBDE" stroke-width="2" stroke-linecap="round"></path>
                    <path d="M29.4064932,0 L178.354443,0" id="Stroke-8" stroke="#D8DBDE" stroke-width="2" stroke-linecap="round"></path>
                </g>
                <rect id="Rectangle" x="0" y="0" width="156" height="51"></rect>
            </g>
        </g>
    </g>
</svg>