<?xml version="1.0" encoding="UTF-8"?>
<svg width="28px" height="25px" viewBox="0 0 28 25" version="1.1" xmlns="http://www.w3.org/2000/svg" xmlns:xlink="http://www.w3.org/1999/xlink">
    <!-- Generator: Sketch 47.1 (45422) - http://www.bohemiancoding.com/sketch -->
    <title>Group 2</title>
    <desc>Created with Sketch.</desc>
    <defs></defs>
    <g id="Symbols" stroke="none" stroke-width="1" fill="none" fill-rule="evenodd" stroke-linejoin="round">
        <g id="Em-caso-de-dúvidas-Desk" transform="translate(0.000000, -92.000000)" stroke="#7C878F">
            <g id="Group-9">
                <g id="Group-2" transform="translate(14.000000, 104.500000) scale(-1, 1) translate(-14.000000, -104.500000) translate(0.000000, 92.000000)">
                    <g id="Page-1">
                        <path d="M19.5285167,0.598387503 L2.63962778,0.598387503 C1.47851667,0.598387503 0.539072222,1.67548501 0.539072222,2.99193752 L0.528516667,11.372512 L3.58407222,9.23091459 L19.5285167,9.23091459 C20.6896278,9.23091459 21.6396278,8.15381708 21.6396278,6.83736458 L21.6396278,2.99193752 C21.6396278,1.67548501 20.6896278,0.598387503 19.5285167,0.598387503 Z" id="Stroke-4"></path>
                    </g>
                    <g id="Page-1-Copy" transform="translate(17.000000, 18.404762) scale(-1, 1) translate(-17.000000, -18.404762) translate(6.000000, 11.904762)">
                        <path d="M19.5285167,0.592403628 L2.63962778,0.592403628 C1.47851667,0.592403628 0.539072222,1.65873016 0.539072222,2.96201814 L0.528516667,12.5683107 L3.58407222,9.13860544 L19.5285167,9.13860544 C20.6896278,9.13860544 21.6396278,8.07227891 21.6396278,6.76899093 L21.6396278,2.96201814 C21.6396278,1.65873016 20.6896278,0.592403628 19.5285167,0.592403628 Z" id="Stroke-4"></path>
                    </g>
                </g>
            </g>
        </g>
    </g>
</svg>