<?xml version="1.0" encoding="UTF-8"?>
<svg width="100px" height="47px" viewBox="0 0 100 47" version="1.1" xmlns="http://www.w3.org/2000/svg" xmlns:xlink="http://www.w3.org/1999/xlink">
    <!-- Generator: Sketch 47.1 (45422) - http://www.bohemiancoding.com/sketch -->
    <title>ic enviamos um link</title>
    <desc>Created with Sketch.</desc>
    <defs></defs>
    <g id="Logada-Mobile" stroke="none" stroke-width="1" fill="none" fill-rule="evenodd">
        <g id="Esqueci-minha-senha-3" transform="translate(-118.000000, -264.000000)">
            <g id="ic-enviamos-um-link" transform="translate(111.000000, 255.000000)">
                <g id="Group" stroke-width="1" fill-rule="evenodd" transform="translate(7.000000, 2.000000)">
                    <path d="M30.0853384,18.1164539 L61.1628933,37.1510933 C65.1212279,39.5396859 69.7423053,38.5973013 72.4657637,34.8434257 L93.5251431,5.78500505" id="Stroke-9" stroke="#4D5862" transform="translate(61.805241, 22.122862) rotate(11.000000) translate(-61.805241, -22.122862) "></path>
                    <path d="M47.2043386,27.1556517 L32.7384347,49.6977893" id="Stroke-11" stroke="#4D5862" transform="translate(39.971387, 38.426720) rotate(11.000000) translate(-39.971387, -38.426720) "></path>
                    <path d="M76.7506559,30.3779939 L98.9474757,45.9767924" id="Stroke-13" stroke="#4D5862" transform="translate(87.849066, 38.177393) rotate(11.000000) translate(-87.849066, -38.177393) "></path>
                    <path d="M6.48148148,30.5555556 L17.5925926,30.5555556" id="Line" stroke="#7A8BDB" stroke-linecap="square"></path>
                    <path d="M12.037037,43.5185185 L17.5925926,43.5185185" id="Line-Copy-2" stroke="#7A8BDB" stroke-linecap="square"></path>
                    <path d="M0.925925926,17.5925926 L17.5925926,17.5925926" id="Line-Copy" stroke="#7A8BDB" stroke-linecap="square"></path>
                    <rect id="Rectangle" stroke="#4D5862" x="29.1850948" y="8.03580729" width="69.4630534" height="45.1678964" rx="11"></rect>
                </g>
                <rect id="Rectangle-2" x="0" y="0" width="139" height="60"></rect>
            </g>
        </g>
    </g>
</svg>