<?xml version="1.0" encoding="UTF-8"?>
<svg width="30px" height="30px" viewBox="0 0 30 30" version="1.1" xmlns="http://www.w3.org/2000/svg" xmlns:xlink="http://www.w3.org/1999/xlink">
    <!-- Generator: Sketch 46.2 (44496) - http://www.bohemiancoding.com/sketch -->
    <title>Logo Itaú</title>
    <desc>Created with Sketch.</desc>
    <defs></defs>
    <g id="Page-1" stroke="none" stroke-width="1" fill="none" fill-rule="evenodd">
        <g id="Logo-Itaú" transform="translate(1.000000, 1.000000)">
            <g id="Page-1" transform="translate(2.367816, 14.417910)">
                <g id="Stroke-4">
                    <g id="path-1-link" fill="#A0A7AE">
                        <path d="M18.7155097,1.82539102 L20.2005743,1.82539102 L22.0357523,0 L20.0264901,0 L18.7155097,1.82539102 Z M18.1738063,2.29012312 L16.0420044,2.29012312 L16.0420044,6.19866379 C16.0420044,7.24886251 16.3211226,8.02405482 16.8278146,8.54053028 C17.3004677,8.98801459 17.8937156,9.19402985 18.6629926,9.19402985 C19.7288936,9.19402985 20.5156764,8.78104112 21.0048627,7.97231145 L21.0223684,7.97231145 L21.0223684,9.03975796 L22.9090909,9.03975796 L22.9090909,2.29012312 L20.7772889,2.29012312 L20.7772889,6.23315937 C20.7772889,6.40467905 20.7597833,6.55990916 20.7247719,6.6461481 C20.480665,7.21436694 20.0615014,7.52386893 19.414764,7.52386893 C18.5929699,7.52386893 18.1738063,6.95660831 18.1738063,5.83741843 L18.1738063,2.29012312 Z M12.704256,4.52850287 C11.3057472,4.52850287 10.2398462,4.73547634 9.50655305,5.18296065 C8.75478164,5.63044496 8.3531237,6.30215053 8.3531237,7.16262357 C8.3531237,7.69634682 8.57972491,8.17832671 8.96484972,8.57406765 C9.41902468,8.98801459 9.99573936,9.19402985 10.6949937,9.19402985 C11.638355,9.19402985 12.3376094,8.90177564 12.8267957,8.33355681 L12.8793127,8.33355681 L12.8793127,9.03975796 L14.836058,9.03975796 L14.836058,5.06222613 C14.836058,4.16725751 14.5919511,3.47830415 14.1368036,2.97907648 C13.5775946,2.41085765 12.756773,2.10039744 11.6733664,2.10039744 C10.5549484,2.10039744 9.61158709,2.30737091 8.87732135,2.75485522 L9.2789793,4.08101857 C9.87319965,3.71881499 10.5549484,3.54729531 11.3057472,3.54729531 C12.250081,3.54729531 12.704256,3.83954952 12.704256,4.45951172 L12.704256,4.52850287 Z M7.51382392,2.29012312 L6.20381605,2.29012312 L6.20381605,0 L4.14203677,0 L4.14203677,2.29012312 L3.16269161,2.29012312 L3.16269161,3.83954952 L4.14203677,3.83954952 L4.14203677,6.55990916 C4.14203677,7.49033156 4.31612097,8.17832671 4.71777891,8.57406765 C5.10290372,8.98801459 5.67961839,9.19402985 6.37790025,9.19402985 C6.83304775,9.19402985 7.19969435,9.14324469 7.5313296,9.02251017 L7.51382392,7.4385882 C7.44380123,7.49033156 7.32223406,7.52386893 7.11216598,7.52386893 C6.78053073,7.52386893 6.5354513,7.40409262 6.37790025,7.16262357 C6.25633307,6.99014568 6.20381605,6.68064368 6.20381605,6.23315937 L6.20381605,3.83954952 L7.51382392,3.83954952 L7.51382392,2.29012312 Z M10.3273746,6.99014568 C10.3273746,6.181416 11.1491687,5.82017064 12.756773,5.83741843 L12.756773,6.55990916 L12.7392674,6.95660831 C12.651739,7.21436694 12.4591766,7.4385882 12.2150697,7.5756123 C11.9699903,7.78258577 11.6733664,7.8860725 11.3407586,7.8860725 C10.6774881,7.8860725 10.3273746,7.5756123 10.3273746,6.99014568 Z M0,9.03975796 L2.16681332,9.03975796 L2.16681332,0.000958210511 L0,0.000958210511 L0,9.03975796 Z" id="path-1"></path>
                    </g>
                    <path d="M19.4952574,1.42539102 L20.2316846,0.4 L21.0664037,0.4 L20.035515,1.42539102 L19.4952574,1.42539102 Z M17.7738063,2.69012312 L17.7738063,5.83741843 C17.7738063,7.15478357 18.3403275,7.92386893 19.414764,7.92386893 C20.2086757,7.92386893 20.7796145,7.53187105 21.0922929,6.80403517 C21.1531844,6.65426407 21.1772889,6.4586607 21.1772889,6.23315937 L21.1772889,2.69012312 L22.5090909,2.69012312 L22.5090909,8.63975796 L21.4223684,8.63975796 L21.4223684,7.57231145 L20.7793317,7.57231145 L20.6626049,7.76528577 C20.2476788,8.45124742 19.5916303,8.79402985 18.6629926,8.79402985 C17.9854658,8.79402985 17.4934427,8.61988363 17.1028177,8.25005951 C16.6757277,7.81433402 16.4420044,7.13022288 16.4420044,6.19866379 L16.4420044,2.69012312 L17.7738063,2.69012312 Z M9.52202262,3.50354549 L9.35427482,2.94968871 C9.96841581,2.6503537 10.742155,2.50039744 11.6733664,2.50039744 C12.637419,2.50039744 13.3630672,2.76313457 13.8517096,3.2596499 C14.2324959,3.67774692 14.436058,4.27592172 14.436058,5.06222613 L14.436058,8.63975796 L13.2793127,8.63975796 L13.2793127,7.93355681 L12.643347,7.93355681 L12.5236583,8.07258225 C12.1099544,8.55312388 11.518298,8.79402985 10.6949937,8.79402985 C10.091346,8.79402985 9.61148386,8.62221382 9.23429661,8.27843549 C8.92411202,7.9586719 8.7531237,7.57248214 8.7531237,7.16262357 C8.7531237,6.45181095 9.07291452,5.90657898 9.71114704,5.52667754 C10.3645039,5.12800189 11.3519127,4.92850287 12.704256,4.92850287 L13.104256,4.92850287 L13.104256,4.45951172 C13.104256,3.57497926 12.4464043,3.14729531 11.3057472,3.14729531 C10.6587156,3.14729531 10.0613716,3.26516944 9.52202262,3.50354549 Z M7.11382392,2.69012312 L7.11382392,3.43954952 L5.80381605,3.43954952 L5.80381605,6.23315937 C5.80381605,6.76835576 5.87150973,7.13847815 6.05095071,7.39306662 C6.27751365,7.74077637 6.65028439,7.92386893 7.11216598,7.92386893 C7.11450314,7.92386893 7.11683539,7.92386553 7.11916276,7.92385871 L7.12800523,8.72393041 C6.91394935,8.77153304 6.67084628,8.79402985 6.37790025,8.79402985 C5.77429562,8.79402985 5.3088779,8.622169 5.01063318,8.30160412 C4.7007169,7.99572279 4.54203677,7.42388626 4.54203677,6.55990916 L4.54203677,3.43954952 L3.56269161,3.43954952 L3.56269161,2.69012312 L4.54203677,2.69012312 L4.54203677,0.4 L5.80381605,0.4 L5.80381605,2.69012312 L7.11382392,2.69012312 Z M9.92737461,6.99014568 C9.92737461,5.88745157 10.935806,5.41785848 12.7610643,5.43744145 L13.156773,5.44168696 L13.156773,5.83741843 L13.1563841,6.57754333 L13.1388785,6.97424248 L13.1180255,7.08522507 C12.9988906,7.43606054 12.7415709,7.73878165 12.4731548,7.8812135 C12.1560871,8.14898221 11.7682987,8.2860725 11.3407586,8.2860725 C10.467125,8.2860725 9.92737461,7.80851541 9.92737461,6.99014568 Z M0.4,8.63975796 L1.76681332,8.63975796 L1.76681332,0.400958211 L0.4,0.400958211 L0.4,8.63975796 Z" id="Shape" stroke="#A0A7AE" stroke-width="0.8"></path>
                </g>
            </g>
            <rect id="Rectangle-5" stroke="#A0A7AE" stroke-width="1.2" x="0" y="0.208955224" width="28" height="27.5820896" rx="5"></rect>
        </g>
    </g>
</svg>