<?xml version="1.0" encoding="UTF-8"?>
<svg width="51px" height="51px" viewBox="0 0 51 51" version="1.1" xmlns="http://www.w3.org/2000/svg" xmlns:xlink="http://www.w3.org/1999/xlink">
    <!-- Generator: Sketch 46.2 (44496) - http://www.bohemiancoding.com/sketch -->
    <title>ic Recebeu adesivo</title>
    <desc>Created with Sketch.</desc>
    <defs></defs>
    <g id="Logada-Desktop" stroke="none" stroke-width="1" fill="none" fill-rule="evenodd" stroke-linejoin="round">
        <g id="Logada-Ativação-Adesivo-Pendente" transform="translate(-307.000000, -356.000000)">
            <g id="Group-4" transform="translate(162.000000, 357.000000)">
                <g id="ic-Recebeu-adesivo" transform="translate(146.000000, 0.000000)">
                    <g id="Group" transform="translate(18.674680, 18.674680)">
                        <path d="M30.6356951,15.7880885 C30.6356951,23.9903306 23.9860884,30.6356951 15.7880885,30.6356951 C7.58584633,30.6356951 0.940481822,23.9903306 0.940481822,15.7880885 C0.940481822,7.58796742 7.58584633,0.940481822 15.7880885,0.940481822 C23.9860884,0.940481822 30.6356951,7.58796742 30.6356951,15.7880885 Z" id="Stroke-1" stroke="#4D5862"></path>
                        <polyline id="Stroke-3" stroke="#7A8BDB" stroke-linecap="round" points="23.1136051 10.1548841 13.5687151 20.7603174 8.85913631 15.9077103"></polyline>
                    </g>
                    <polyline id="Stroke-5" stroke="#4D5862" stroke-linecap="round" points="14.2065603 35.3501773 0.110815603 35.3501773 0.110815603 9.50797872 33.0008865 9.50797872 33.0008865 14.2065603"></polyline>
                    <polygon id="Stroke-7" stroke="#4D5862" stroke-linecap="round" points="33.0008865 9.50797872 0.110815603 9.50797872 9.50797872 0.110815603 23.6037234 0.110815603"></polygon>
                    <path d="M16.5558511,0.110815603 L16.5558511,9.50797872" id="Stroke-9" stroke="#4D5862" stroke-linecap="round"></path>
                </g>
            </g>
        </g>
    </g>
</svg>