<?xml version="1.0" encoding="UTF-8"?>
<svg width="47px" height="108px" viewBox="0 0 47 108" version="1.1" xmlns="http://www.w3.org/2000/svg" xmlns:xlink="http://www.w3.org/1999/xlink">
    <!-- Generator: Sketch 46 (44423) - http://www.bohemiancoding.com/sketch -->
    <title>ilu 1. Conta ConectCar</title>
    <desc>Created with Sketch.</desc>
    <defs></defs>
    <g id="Cadastro-Mobile" stroke="none" stroke-width="1" fill="none" fill-rule="evenodd">
        <g id="Como-funciona-1" transform="translate(-157.000000, -197.000000)">
            <g id="ilu-1.-Conta-ConectCar" transform="translate(158.000000, 198.000000)">
                <g id="Group" transform="translate(0.000000, 63.000000)" stroke="#495862" stroke-linecap="round" stroke-linejoin="round">
                    <path d="M1.60824788,1.9950713 L27.8475728,8.62630808 C31.0761758,9.43824342 33.7195945,12.8233271 33.7195945,16.1579173 L33.7195945,38.4102044 C33.7195945,41.7427748 31.0681043,43.8433041 27.827394,43.0778227 L5.89220051,37.8482853 C2.65350811,37.0868434 0,33.7340756 0,30.4015051 L0,6.12947838 C0,2.7948882 2.7241338,0.0702594052 6.05363066,0.0702594052 L38.9463693,0 C42.2778841,0 45,2.7246288 45,6.05921898 L45,28.2763552 C45,31.6089257 42.2778841,34.3355742 38.9463693,34.3355742 L33.7195945,34.3355742" id="Stroke-39"></path>
                    <path d="M21.1764706,6.61764706 L38.8235294,6.61764706" id="Stroke-41"></path>
                    <path d="M34.6920292,16.3235294 L39.5252012,16.3235294" id="Stroke-45"></path>
                    <path d="M26.0294118,30 C23.8323529,30 22.0588235,28.2264706 22.0588235,26.0294118 C22.0588235,23.8323529 23.8323529,22.0588235 26.0294118,22.0588235 C28.2264706,22.0588235 30,23.8323529 30,26.0294118 C30,28.2264706 28.2264706,30 26.0294118,30 Z" id="Stroke-9"></path>
                </g>
                <g id="Group-2" transform="translate(1.000000, 0.000000)">
                    <g id="Page-1" transform="translate(14.000000, 10.000000)" stroke="#35D282">
                        <path d="M12.3792172,5.90595109 C11.3517513,4.52536326 10.0156746,3.41258424 6.96220896,3.41258424 C3.90874334,3.41258424 1.32116119,4.64183413 1.32116119,7.13742654 C1.32116119,9.81106359 3.31600305,10.4913425 6.20477738,10.8622688 C9.84430662,11.329636 12.5854523,11.5388385 13.0209198,14.9424586 C13.3384327,17.4239558 10.5201344,19.2466878 7.17882994,19.2466878 C3.74776131,19.2466878 1.7380824,17.8631326 0.610466328,16.1553877" id="Stroke-5"></path>
                        <path d="M7.16317685,22.1968875 L7.16317685,19.2465394" id="Stroke-7"></path>
                        <path d="M7.16317685,3.4128068 L7.16317685,0.655340391" id="Stroke-9"></path>
                    </g>
                    <path d="M21,42 C32.5979797,42 42,32.5979797 42,21 C42,9.40202025 32.5979797,0 21,0 C9.40202025,0 0,9.40202025 0,21 C0,32.5979797 9.40202025,42 21,42 Z" id="Oval" stroke="#00D587"></path>
                </g>
            </g>
        </g>
    </g>
</svg>