<?xml version="1.0" encoding="UTF-8"?>
<svg width="42px" height="42px" viewBox="0 0 42 42" version="1.1" xmlns="http://www.w3.org/2000/svg" xmlns:xlink="http://www.w3.org/1999/xlink">
    <!-- Generator: Sketch 45.2 (43514) - http://www.bohemiancoding.com/sketch -->
    <title>Pagamento</title>
    <desc>Created with Sketch.</desc>
    <defs></defs>
    <g id="Symbols" stroke="none" stroke-width="1" fill="none" fill-rule="evenodd">
        <g id="Pagamento">
            <g id="Group-3" transform="translate(-0.260870, 0.000000)">
                <rect id="Path" x="0" y="0" width="42" height="42"></rect>
                <g id="Group" transform="translate(11.228155, 11.000000)" stroke="#D8DBDE" stroke-linecap="round" stroke-linejoin="round">
                    <path d="M1.2439782,1.39617428 L12.9146807,4.31336099 C14.3506958,4.67054428 15.5264331,6.15969652 15.5264331,7.62663586 L15.5264331,17.4157715 C15.5264331,18.8818223 14.3471057,19.8058786 12.9057056,19.4691312 L3.14939067,17.1685743 C1.70888807,16.8336039 0.528663206,15.3586679 0.528663206,13.8926171 L0.528663206,3.21496582 C0.528663206,1.74802647 1.7403009,0.549418857 3.22119142,0.549418857 L17.8511931,0.518510625 C19.3329812,0.518510625 20.5437214,1.71711824 20.5437214,3.18405759 L20.5437214,12.9577298 C20.5437214,14.4237806 19.3329812,15.6232768 17.8511931,15.6232768 L15.5264331,15.6232768" id="Stroke-39"></path>
                    <path d="M9.69790976,3.4956665 L17.6018801,3.4956665" id="Stroke-41"></path>
                    <path d="M15.5225919,7.50927734 L17.5796867,7.50927734" id="Stroke-45"></path>
                    <path d="M11.767142,13.5 C10.797396,13.5 10.0145889,12.7183333 10.0145889,11.75 C10.0145889,10.7816667 10.797396,10 11.767142,10 C12.736888,10 13.519695,10.7816667 13.519695,11.75 C13.519695,12.7183333 12.736888,13.5 11.767142,13.5 Z" id="Stroke-9"></path>
                </g>
            </g>
        </g>
    </g>
</svg>