<?xml version="1.0" encoding="UTF-8"?>
<svg width="62px" height="57px" viewBox="0 0 62 57" version="1.1" xmlns="http://www.w3.org/2000/svg" xmlns:xlink="http://www.w3.org/1999/xlink">
    <!-- Generator: Sketch 46.2 (44496) - http://www.bohemiancoding.com/sketch -->
    <title>ic Ainda não recebeu</title>
    <desc>Created with Sketch.</desc>
    <defs></defs>
    <g id="Logada-Desktop" stroke="none" stroke-width="1" fill="none" fill-rule="evenodd" stroke-linejoin="round">
        <g id="Logada-Ativação-Adesivo-Pendente" transform="translate(-609.000000, -351.000000)">
            <g id="Group-5" transform="translate(469.000000, 352.000000)">
                <g id="ic-Ainda-não-recebeu" transform="translate(141.000000, 0.000000)">
                    <path d="M26.1111111,13.1481481 C26.1111111,20.3088889 20.3062963,26.1111111 13.1481481,26.1111111 C5.98740741,26.1111111 0.185185185,20.3088889 0.185185185,13.1481481 C0.185185185,5.98740741 5.98740741,0.185185185 13.1481481,0.185185185 C20.3062963,0.185185185 26.1111111,5.98740741 26.1111111,13.1481481 Z" id="Stroke-1" stroke="#4D5862"></path>
                    <polyline id="Stroke-3" stroke="#7A8BDB" stroke-linecap="round" points="18.3333333 15.7407407 13.1481481 15.7407407 13.1481481 6.66666667"></polyline>
                    <polyline id="Stroke-5" stroke="#4D5862" stroke-linecap="round" points="41.6666667 31.2962963 53.3333333 31.2962963 59.8148148 41.6666667 59.8148148 49.4444444 53.1077778 49.4444444"></polyline>
                    <polyline id="Stroke-7" stroke="#4D5862" stroke-linecap="round" points="27.1821111 49.4444444 41.6954444 49.4444444 41.6669259 23.5185185 28.703963 23.5185185"></polyline>
                    <polyline id="Stroke-9" stroke="#4D5862" stroke-linecap="round" points="13.1481481 31.2962963 13.1481481 49.4444444 19.8551852 49.4444444"></polyline>
                    <path d="M53.3333333,50.7407407 C53.3333333,52.8874074 51.5937037,54.6296296 49.4444444,54.6296296 C47.2977778,54.6296296 45.5555556,52.8874074 45.5555556,50.7407407 C45.5555556,48.5914815 47.2977778,46.8518519 49.4444444,46.8518519 C51.5937037,46.8518519 53.3333333,48.5914815 53.3333333,50.7407407 Z" id="Stroke-11" stroke="#4D5862" stroke-linecap="round"></path>
                    <path d="M27.4074074,50.7407407 C27.4074074,52.8874074 25.6677778,54.6296296 23.5185185,54.6296296 C21.3718519,54.6296296 19.6296296,52.8874074 19.6296296,50.7407407 C19.6296296,48.5914815 21.3718519,46.8518519 23.5185185,46.8518519 C25.6677778,46.8518519 27.4074074,48.5914815 27.4074074,50.7407407 Z" id="Stroke-13" stroke="#4D5862" stroke-linecap="round"></path>
                    <path d="M0.185185185,36.4814815 L7.96296296,36.4944444" id="Stroke-15" stroke="#7A8BDB" stroke-linecap="round"></path>
                    <path d="M4.07407407,41.6666667 L7.96296296,41.6796296" id="Stroke-17" stroke="#7A8BDB" stroke-linecap="round"></path>
                    <path d="M6.66666667,46.8518519 L7.96296296,46.8648148" id="Stroke-19" stroke="#7A8BDB" stroke-linecap="round"></path>
                    <path d="M59.8148148,41.6666667 L41.6666667,41.6666667" id="Stroke-21" stroke="#4D5862" stroke-linecap="round"></path>
                    <path d="M41.6944074,49.4444444 L45.7958889,49.4444444" id="Stroke-23" stroke="#4D5862" stroke-linecap="round"></path>
                </g>
            </g>
        </g>
    </g>
</svg>