<?xml version="1.0" encoding="UTF-8"?>
<svg width="107px" height="89px" viewBox="0 0 107 89" version="1.1" xmlns="http://www.w3.org/2000/svg" xmlns:xlink="http://www.w3.org/1999/xlink">
    <!-- Generator: Sketch 46.2 (44496) - http://www.bohemiancoding.com/sketch -->
    <title>ic policia</title>
    <desc>Created with Sketch.</desc>
    <defs></defs>
    <g id="Logada-Desktop" stroke="none" stroke-width="1" fill="none" fill-rule="evenodd">
        <g id="1.1-Confirm-desktop" transform="translate(-587.000000, -375.000000)">
            <g id="ic-policia" transform="translate(588.000000, 376.000000)">
                <g id="Page-1" transform="translate(50.244189, 16.000000) scale(-1, 1) translate(-50.244189, -16.000000) translate(28.244189, 0.000000)" stroke="#7A8BDB" stroke-width="2" stroke-linecap="round">
                    <path d="M32.6979166,26.9197564 C32.6979166,21.461427 28.2769167,17.0404271 22.8185872,17.0404271 C17.370137,17.0404271 12.9392578,21.461427 12.9392578,26.9197564 L12.9392578,31.8594211 L32.6979166,31.8594211 L32.6979166,26.9197564 Z" id="Stroke-1" stroke-linejoin="round"></path>
                    <path d="M43.2975127,10.394158 L36.8278838,15.7855155" id="Line-2"></path>
                    <path d="M7.00876465,10.2435791 L0.539135742,15.6349365" id="Line-2" transform="translate(3.773950, 12.939258) scale(1, -1) translate(-3.773950, -12.939258) "></path>
                    <path d="M22.6437012,0 L22.6437012,8.62617187" id="Line-3"></path>
                </g>
                <path d="M95.5313311,74.5869608 C95.5313311,68.8184898 90.8553825,64.1425412 85.0869115,64.1425412 C79.3184404,64.1425412 74.6424919,68.8184898 74.6424919,74.5869608 C74.6424919,80.3554319 79.3184404,85.0313804 85.0869115,85.0313804 C90.8553825,85.0313804 95.5313311,80.3554319 95.5313311,74.5869608" id="Fill-1" fill="#FFFFFF"></path>
                <path d="M35.7288171,74.5869608 C35.7288171,68.8184898 31.0528685,64.1425412 25.2843975,64.1425412 C19.5159264,64.1425412 14.8399779,68.8184898 14.8399779,74.5869608 C14.8399779,80.3554319 19.5159264,85.0313804 25.2843975,85.0313804 C31.0528685,85.0313804 35.7288171,80.3554319 35.7288171,74.5869608" id="Fill-5" fill="#FFFFFF"></path>
                <path d="M92.1652193,74.5923163 L12.890694,74.5923163 C6.09991712,74.5923163 0.594460756,69.0880501 0.594460756,62.2972732 L0.594460756,54.6900797 C0.594460756,52.2598717 2.5652856,50.290237 4.99430342,50.290237 L92.1652193,50.290237 C98.8762588,50.290237 104.316259,55.7302372 104.316259,62.4412767 L104.316259,62.4412767 C104.316259,69.1523161 98.8762588,74.5923163 92.1652193,74.5923163" id="Fill-9" fill="#FFFFFF"></path>
                <path d="M92.1652193,74.5923163 L12.890694,74.5923163 C6.09991712,74.5923163 0.594460756,69.0880501 0.594460756,62.2972732 L0.594460756,54.6900797 C0.594460756,52.2598717 2.5652856,50.290237 4.99430342,50.290237 L92.1652193,50.290237 C98.8762588,50.290237 104.316259,55.7302372 104.316259,62.4412767 L104.316259,62.4412767 C104.316259,69.1523161 98.8762588,74.5923163 92.1652193,74.5923163 Z" id="Stroke-11" stroke="#7C878F" stroke-width="2" stroke-linecap="round" stroke-linejoin="round"></path>
                <path d="M83.0320647,50.290118 L16.4786426,50.290118 L16.4786426,37.6630337 C16.4786426,34.4604433 19.074276,31.8648098 22.2768664,31.8648098 L61.8659295,31.8648098 C68.193753,31.8648098 74.0550528,35.1983125 77.2897761,40.6359325 L83.0320647,50.290118 Z" id="Stroke-13" stroke="#7C878F" stroke-width="2" stroke-linecap="round" stroke-linejoin="round"></path>
                <path d="M92.4844073,75.6026021 C92.4844073,69.8341311 87.8084587,65.1581825 82.0399877,65.1581825 C76.2715166,65.1581825 71.5955681,69.8341311 71.5955681,75.6026021 C71.5955681,81.3710731 76.2715166,86.0470217 82.0399877,86.0470217 C87.8084587,86.0470217 92.4844073,81.3710731 92.4844073,75.6026021" id="Fill-15" fill="#FFFFFF"></path>
                <path d="M92.4844073,75.6026021 C92.4844073,69.8341311 87.8084587,65.1581825 82.0399877,65.1581825 C76.2715166,65.1581825 71.5955681,69.8341311 71.5955681,75.6026021 C71.5955681,81.3710731 76.2715166,86.0470217 82.0399877,86.0470217 C87.8084587,86.0470217 92.4844073,81.3710731 92.4844073,75.6026021 Z" id="Stroke-17" stroke="#7C878F" stroke-width="2" stroke-linecap="round" stroke-linejoin="round"></path>
                <path d="M32.6818933,75.6026021 C32.6818933,69.8341311 28.0059447,65.1581825 22.2374737,65.1581825 C16.4690027,65.1581825 11.7930541,69.8341311 11.7930541,75.6026021 C11.7930541,81.3710731 16.4690027,86.0470217 22.2374737,86.0470217 C28.0059447,86.0470217 32.6818933,81.3710731 32.6818933,75.6026021" id="Fill-19" fill="#FFFFFF"></path>
                <path d="M32.6818933,75.6026021 C32.6818933,69.8341311 28.0059447,65.1581825 22.2374737,65.1581825 C16.4690027,65.1581825 11.7930541,69.8341311 11.7930541,75.6026021 C11.7930541,81.3710731 16.4690027,86.0470217 22.2374737,86.0470217 C28.0059447,86.0470217 32.6818933,81.3710731 32.6818933,75.6026021 Z" id="Stroke-21" stroke="#7C878F" stroke-width="2" stroke-linecap="round" stroke-linejoin="round"></path>
                <path d="M47.2369584,58.3899924 L55.5129947,58.3899924" id="Stroke-23" stroke="#7C878F" stroke-width="2" stroke-linecap="round" stroke-linejoin="round"></path>
            </g>
        </g>
    </g>
</svg>