<?xml version="1.0" encoding="UTF-8"?>
<svg width="22px" height="22px" viewBox="0 0 22 22" version="1.1" xmlns="http://www.w3.org/2000/svg" xmlns:xlink="http://www.w3.org/1999/xlink">
    <!-- Generator: Sketch 46.2 (44496) - http://www.bohemiancoding.com/sketch -->
    <title>Page 1</title>
    <desc>Created with Sketch.</desc>
    <defs></defs>
    <g id="Symbols" stroke="none" stroke-width="1" fill="none" fill-rule="evenodd" stroke-linecap="round" stroke-linejoin="round">
        <g id="números" transform="translate(1.000000, -14.000000)" stroke="#78878F">
            <g id="Group-6">
                <g id="Group-3">
                    <path d="M7.35093754,20.8204043 C8.17093569,19.9994702 8.17093569,18.6676115 7.35093754,17.8475866 L5.12003346,15.6157005 C4.29912622,14.7947665 2.96731103,14.7947665 2.1454947,15.6157005 L0.923679264,16.8393741 C-0.13813653,17.9012246 -0.302681614,19.5558204 0.524589252,20.8076766 C4.07821762,26.1805673 8.81911605,30.9216205 14.1918312,34.4762741 C15.4418284,35.3026628 17.1027338,35.1372032 18.1609132,34.0780801 L19.3836377,32.8544066 C20.2054541,32.0334725 20.2054541,30.7016138 19.3836377,29.8815889 L17.1536428,27.6515211 C16.3336446,26.8287688 15.0018294,26.8287688 14.1800131,27.6515211 L13.4363784,28.3942709 C10.9909294,26.3905736 8.6109347,24.0095921 6.60730285,21.5631541 L7.35093754,20.8204043 Z" id="Page-1"></path>
                </g>
            </g>
        </g>
    </g>
</svg>