<?xml version="1.0" encoding="UTF-8"?>
<svg width="248px" height="88px" viewBox="0 0 248 88" version="1.1" xmlns="http://www.w3.org/2000/svg" xmlns:xlink="http://www.w3.org/1999/xlink">
    <!-- Generator: Sketch 46 (44423) - http://www.bohemiancoding.com/sketch -->
    <title>ic 2. Crédito Automático</title>
    <desc>Created with Sketch.</desc>
    <defs></defs>
    <g id="Cadastro-Mobile" stroke="none" stroke-width="1" fill="none" fill-rule="evenodd">
        <g id="Como-funciona-2" transform="translate(-57.000000, -166.000000)">
            <g id="ic-2.-Crédito-Automático" transform="translate(58.000000, 166.000000)">
                <g id="Group-11">
                    <g id="Group-3" transform="translate(181.000000, 0.000000)">
                        <g id="Page-1">
                            <path d="M60,80.5 C60,76.9100387 57.0899613,74 53.5,74 C49.9100387,74 47,76.9100387 47,80.5 C47,84.0899613 49.9100387,87 53.5,87 C57.0899613,87 60,84.0899613 60,80.5" id="Fill-1" fill="#FFFFFF"></path>
                            <path d="M22,80.5 C22,76.9100387 19.0899613,74 15.5,74 C11.9100387,74 9,76.9100387 9,80.5 C9,84.0899613 11.9100387,87 15.5,87 C19.0899613,87 22,84.0899613 22,80.5" id="Fill-5" fill="#FFFFFF"></path>
                            <path d="M57.3852306,80 L7.70575884,80 C3.45013941,80 0,76.6025955 0,72.4111166 L0,67.7157199 C0,66.2157199 1.23506936,65 2.75727743,65 L57.3852306,65 C61.5908804,65 65,68.3577375 65,72.5 L65,72.5 C65,76.6422625 61.5908804,80 57.3852306,80" id="Fill-9" fill="#FFFFFF"></path>
                            <path d="M57.3852306,80 L7.70575884,80 C3.45013941,80 0,76.6025955 0,72.4111166 L0,67.7157199 C0,66.2157199 1.23506936,65 2.75727743,65 L57.3852306,65 C61.5908804,65 65,68.3577375 65,72.5 L65,72.5 C65,76.6422625 61.5908804,80 57.3852306,80 Z" id="Stroke-11" stroke="#4D5862" stroke-linecap="round" stroke-linejoin="round"></path>
                            <path d="M52,65 L10,65 L10,56.7762563 C10,54.6904793 11.6380315,53 13.6590966,53 L38.6426451,53 C42.6359572,53 46.3348593,55.1710373 48.3762026,58.7124403 L52,65 Z" id="Stroke-13" stroke="#4D5862" stroke-linecap="round" stroke-linejoin="round"></path>
                            <path d="M59,80.5 C59,76.9100387 56.0899613,74 52.5,74 C48.9100387,74 46,76.9100387 46,80.5 C46,84.0899613 48.9100387,87 52.5,87 C56.0899613,87 59,84.0899613 59,80.5" id="Fill-15" fill="#FFFFFF"></path>
                            <path d="M59,80.5 C59,76.9100387 56.0899613,74 52.5,74 C48.9100387,74 46,76.9100387 46,80.5 C46,84.0899613 48.9100387,87 52.5,87 C56.0899613,87 59,84.0899613 59,80.5 Z" id="Stroke-17" stroke="#4D5862" stroke-linecap="round" stroke-linejoin="round"></path>
                            <path d="M20,80.5 C20,76.9100387 17.0899613,74 13.5,74 C9.91003874,74 7,76.9100387 7,80.5 C7,84.0899613 9.91003874,87 13.5,87 C17.0899613,87 20,84.0899613 20,80.5" id="Fill-19" fill="#FFFFFF"></path>
                            <path d="M20,80.5 C20,76.9100387 17.0899613,74 13.5,74 C9.91003874,74 7,76.9100387 7,80.5 C7,84.0899613 9.91003874,87 13.5,87 C17.0899613,87 20,84.0899613 20,80.5 Z" id="Stroke-21" stroke="#4D5862" stroke-linecap="round" stroke-linejoin="round"></path>
                            <path d="M31,69 L36,69" id="Stroke-23" stroke="#4D5862" stroke-linecap="round" stroke-linejoin="round"></path>
                            <path d="M53,81 C53,80.4477262 52.5523787,80 52.0002344,80 C51.4476213,80 51,80.4477262 51,81 C51,81.5522738 51.4476213,82 52.0002344,82 C52.5523787,82 53,81.5522738 53,81" id="Fill-25" fill="#4D5862"></path>
                            <path d="M15,81 C15,80.4477262 14.5523787,80 14.0002344,80 C13.4476213,80 13,80.4477262 13,81 C13,81.5522738 13.4476213,82 14.0002344,82 C14.5523787,82 15,81.5522738 15,81" id="Fill-27" fill="#4D5862"></path>
                            <g id="Group-10" transform="translate(24.000000, 0.000000)">
                                <rect id="Rectangle" stroke="#FF6A38" x="0.5" y="0.5" width="7" height="45" rx="3.5"></rect>
                                <path d="M0,39 L8,39 L8,42 L8,42 C8,44.209139 6.209139,46 4,46 L4,46 L4,46 C1.790861,46 2.705415e-16,44.209139 0,42 L0,39 Z" id="Rectangle" fill="#FF6A38"></path>
                                <rect id="Rectangle" fill="#FF6A38" x="1" y="4" width="6" height="35.0526316"></rect>
                            </g>
                        </g>
                        <g id="Group-2" transform="translate(35.000000, 0.000000)"></g>
                    </g>
                    <g id="Group-7">
                        <g id="Page-1-Copy" transform="translate(0.000000, 53.000000)">
                            <path d="M60,27.5 C60,23.9100387 57.0899613,21 53.5,21 C49.9100387,21 47,23.9100387 47,27.5 C47,31.0899613 49.9100387,34 53.5,34 C57.0899613,34 60,31.0899613 60,27.5" id="Fill-1" fill="#FFFFFF"></path>
                            <path d="M22,27.5 C22,23.9100387 19.0899613,21 15.5,21 C11.9100387,21 9,23.9100387 9,27.5 C9,31.0899613 11.9100387,34 15.5,34 C19.0899613,34 22,31.0899613 22,27.5" id="Fill-5" fill="#FFFFFF"></path>
                            <path d="M57.3852306,27 L7.70575884,27 C3.45013941,27 0,23.6025955 0,19.4111166 L0,14.7157199 C0,13.2157199 1.23506936,12 2.75727743,12 L57.3852306,12 C61.5908804,12 65,15.3577375 65,19.5 L65,19.5 C65,23.6422625 61.5908804,27 57.3852306,27" id="Fill-9" fill="#FFFFFF"></path>
                            <path d="M57.3852306,27 L7.70575884,27 C3.45013941,27 0,23.6025955 0,19.4111166 L0,14.7157199 C0,13.2157199 1.23506936,12 2.75727743,12 L57.3852306,12 C61.5908804,12 65,15.3577375 65,19.5 L65,19.5 C65,23.6422625 61.5908804,27 57.3852306,27 Z" id="Stroke-11" stroke="#4D5862" stroke-linecap="round" stroke-linejoin="round"></path>
                            <path d="M52,12 L10,12 L10,3.7762563 C10,1.69047927 11.6380315,0 13.6590966,0 L38.6426451,0 C42.6359572,0 46.3348593,2.17103733 48.3762026,5.71244025 L52,12 Z" id="Stroke-13" stroke="#4D5862" stroke-linecap="round" stroke-linejoin="round"></path>
                            <path d="M59,27.5 C59,23.9100387 56.0899613,21 52.5,21 C48.9100387,21 46,23.9100387 46,27.5 C46,31.0899613 48.9100387,34 52.5,34 C56.0899613,34 59,31.0899613 59,27.5" id="Fill-15" fill="#FFFFFF"></path>
                            <path d="M59,27.5 C59,23.9100387 56.0899613,21 52.5,21 C48.9100387,21 46,23.9100387 46,27.5 C46,31.0899613 48.9100387,34 52.5,34 C56.0899613,34 59,31.0899613 59,27.5 Z" id="Stroke-17" stroke="#4D5862" stroke-linecap="round" stroke-linejoin="round"></path>
                            <path d="M20,27.5 C20,23.9100387 17.0899613,21 13.5,21 C9.91003874,21 7,23.9100387 7,27.5 C7,31.0899613 9.91003874,34 13.5,34 C17.0899613,34 20,31.0899613 20,27.5" id="Fill-19" fill="#FFFFFF"></path>
                            <path d="M20,27.5 C20,23.9100387 17.0899613,21 13.5,21 C9.91003874,21 7,23.9100387 7,27.5 C7,31.0899613 9.91003874,34 13.5,34 C17.0899613,34 20,31.0899613 20,27.5 Z" id="Stroke-21" stroke="#4D5862" stroke-linecap="round" stroke-linejoin="round"></path>
                            <path d="M31,16 L36,16" id="Stroke-23" stroke="#4D5862" stroke-linecap="round" stroke-linejoin="round"></path>
                            <path d="M53,28 C53,27.4477262 52.5523787,27 52.0002344,27 C51.4476213,27 51,27.4477262 51,28 C51,28.5522738 51.4476213,29 52.0002344,29 C52.5523787,29 53,28.5522738 53,28" id="Fill-25" fill="#4D5862"></path>
                            <path d="M15,28 C15,27.4477262 14.5523787,27 14.0002344,27 C13.4476213,27 13,27.4477262 13,28 C13,28.5522738 13.4476213,29 14.0002344,29 C14.5523787,29 15,28.5522738 15,28" id="Fill-27" fill="#4D5862"></path>
                        </g>
                        <g id="Group-7-Copy" transform="translate(25.000000, 0.000000)">
                            <rect id="Rectangle" stroke="#FF6A38" x="0.5" y="0.5" width="7" height="45" rx="3.5"></rect>
                            <path d="M0,39.9473684 L8,39.9473684 L8,42 L8,42 C8,44.209139 6.209139,46 4,46 L4,46 L4,46 C1.790861,46 2.705415e-16,44.209139 0,42 L0,39.9473684 Z" id="Rectangle" fill="#FF6A38"></path>
                        </g>
                    </g>
                </g>
                <g id="Page-1" transform="translate(99.000000, 7.000000)" stroke="#35D282">
                    <path d="M36.5149314,11.4375731 C41.9328024,15.5429908 45.4321926,22.047055 45.4321926,29.3688562 C45.4321926,41.7869628 35.3654435,51.8537119 22.947337,51.8537119 C10.5292304,51.8537119 0.462481318,41.7869628 0.462481318,29.3688562 C0.462481318,16.9507497 10.5292304,6.88400056 22.947337,6.88400056 C23.7286977,6.88400056 24.4998731,6.92401437 25.2608632,7.00185944 L26.8497755,7.155367" id="Stroke-1" stroke-linecap="round" stroke-linejoin="round"></path>
                    <polyline id="Stroke-3" stroke-linecap="round" stroke-linejoin="round" points="20.0647998 14.0525614 27.0097594 7.1076018 20.0647998 0.163320162"></polyline>
                    <path d="M28.6702697,23.9860691 C27.5943542,22.5403804 26.1952755,21.3751289 22.9978253,21.3751289 C19.8003751,21.3751289 17.0907769,22.6623434 17.0907769,25.2756141 C17.0907769,28.0753251 19.1796845,28.7876822 22.2046774,29.1760994 C26.0158268,29.665505 28.8862297,29.8845723 29.3422315,33.4486883 C29.6747166,36.0471992 26.7235229,37.9558812 23.2246609,37.9558812 C19.6318021,37.9558812 17.5273578,36.5070852 16.3465696,34.7188125" id="Stroke-5"></path>
                    <path d="M23.2082697,41.0451961 L23.2082697,37.9557259" id="Stroke-7"></path>
                    <path d="M23.2082697,21.3753619 L23.2082697,18.4878686" id="Stroke-9"></path>
                </g>
                <text id="+-R$-50,00" font-family="Lato-Regular, Lato" font-size="14" font-weight="normal" fill="#35D282">
                    <tspan x="89.446" y="80">+ R$ 50,00</tspan>
                </text>
            </g>
        </g>
    </g>
</svg>