<?xml version="1.0" encoding="UTF-8"?>
<svg width="227px" height="88px" viewBox="0 0 227 88" version="1.1" xmlns="http://www.w3.org/2000/svg" xmlns:xlink="http://www.w3.org/1999/xlink">
    <!-- Generator: Sketch 46 (44423) - http://www.bohemiancoding.com/sketch -->
    <title>ilu 3. Saldo da Conta ConectCar</title>
    <desc>Created with Sketch.</desc>
    <defs>
        <polygon id="path-1" points="0.258608259 0.155406995 8.35490151 0.155406995 8.35490151 4.98018547 0.258608259 4.98018547 0.258608259 0.155406995"></polygon>
        <polygon id="path-3" points="0.0647439818 0.155406995 9.14259817 0.155406995 9.14259817 4.98018547 0.0647439818 4.98018547 0.0647439818 0.155406995"></polygon>
        <polygon id="path-5" points="0.352870002 0.155406995 10.4704486 0.155406995 10.4704486 4.98018547 0.352870002 4.98018547 0.352870002 0.155406995"></polygon>
        <polygon id="path-7" points="0.376202949 0.155406995 10.2170561 0.155406995 10.2170561 4.98018547 0.376202949 4.98018547 0.376202949 0.155406995"></polygon>
    </defs>
    <g id="Cadastro-Mobile" stroke="none" stroke-width="1" fill="none" fill-rule="evenodd">
        <g id="Como-funciona-3" transform="translate(-66.000000, -166.000000)">
            <g id="ilu-3.-Saldo-da-Conta-ConectCar" transform="translate(67.000000, 164.000000)">
                <g id="Group-5" opacity="0.550101902" transform="translate(89.000000, 78.000000)" stroke="#A0A7AE" stroke-linecap="round">
                    <polyline id="Stroke-3" stroke-linejoin="round" points="40.4120132 6.50448897 43.4167129 3.49978926 40.4120132 0.49538287"></polyline>
                    <path d="M0.487806691,3.5 L41.5,3.5" id="Line-4" stroke-dasharray="3"></path>
                </g>
                <g id="Page-1" transform="translate(96.000000, 24.000000)">
                    <g id="Group-4" transform="translate(0.000000, 23.000000)" stroke-linecap="round" stroke="#4D5862" stroke-linejoin="round">
                        <polygon id="Stroke-1" points="0 23 13 23 13 -5.5067062e-14 0 2.71631456e-14"></polygon>
                    </g>
                    <g id="Group" transform="translate(8.000000, 0.000000)">
                        <g id="Group-20" transform="translate(18.038070, 16.017295) rotate(-40.000000) translate(-18.038070, -16.017295) translate(-1.961930, 13.017295)">
                            <g id="Group-8" transform="translate(30.823524, 0.771930)">
                                <mask id="mask-2" fill="white">
                                    <use xlink:href="#path-1"></use>
                                </mask>
                                <g id="Clip-7"></g>
                                <path d="M0.418311045,-1.12683893 L8.5146043,6.98941673" id="Stroke-6" stroke="#4D5862" stroke-linecap="round" stroke-linejoin="round" mask="url(#mask-2)"></path>
                            </g>
                            <g id="Group-11" transform="translate(22.068485, 0.944160)">
                                <mask id="mask-4" fill="white">
                                    <use xlink:href="#path-3"></use>
                                </mask>
                                <g id="Clip-10"></g>
                                <path d="M-0.477546934,-1.12683893 L7.61874632,6.98941673" id="Stroke-9" stroke="#4D5862" stroke-linecap="round" stroke-linejoin="round" mask="url(#mask-4)"></path>
                            </g>
                            <g id="Group-14" transform="translate(11.000000, 1.000000)">
                                <mask id="mask-6" fill="white">
                                    <use xlink:href="#path-5"></use>
                                </mask>
                                <g id="Clip-13"></g>
                                <path d="M0.850303548,-1.12683893 L8.9465968,6.98941673" id="Stroke-12" stroke="#4D5862" stroke-linecap="round" stroke-linejoin="round" mask="url(#mask-6)"></path>
                            </g>
                            <g id="Group-17" transform="translate(1.000000, 1.000000)">
                                <mask id="mask-8" fill="white">
                                    <use xlink:href="#path-7"></use>
                                </mask>
                                <g id="Clip-16"></g>
                                <path d="M1.69923727,-1.82297703 L9.79553052,6.29327863" id="Stroke-15" stroke="#4D5862" stroke-linecap="round" stroke-linejoin="round" mask="url(#mask-8)"></path>
                            </g>
                        </g>
                        <polygon id="Stroke-21" stroke="#4D5862" stroke-linejoin="round" transform="translate(19.238728, 16.052163) rotate(-40.000000) translate(-19.238728, -16.052163) " points="-1.55521664 18.7200638 40.0326725 18.2090398 40.0326725 13.3842613 2.87311304 13.4295738"></polygon>
                    </g>
                </g>
                <g id="Group-9" transform="translate(91.663672, 43.092605) rotate(-45.000000) translate(-91.663672, -43.092605) translate(83.163672, 39.592605)" stroke="#7A8BDB" stroke-linecap="round">
                    <path d="M8.39685196,0.58131264 L8.39685196,5.26625143" id="Line-Copy-4"></path>
                    <path d="M16.0102273,2.69738971 L13.4949984,6.47023294" id="Line-Copy-5"></path>
                    <path d="M3.37490981,2.69738971 L0.859680993,6.47023294" id="Line-Copy-6" transform="translate(2.117295, 4.583811) scale(-1, 1) translate(-2.117295, -4.583811) "></path>
                </g>
                <g id="Group-3" transform="translate(160.000000, 2.000000)">
                    <g id="Page-1" transform="translate(0.000000, 53.000000)">
                        <path d="M60,27.5 C60,23.9100387 57.0899613,21 53.5,21 C49.9100387,21 47,23.9100387 47,27.5 C47,31.0899613 49.9100387,34 53.5,34 C57.0899613,34 60,31.0899613 60,27.5" id="Fill-1" fill="#FFFFFF"></path>
                        <path d="M22,27.5 C22,23.9100387 19.0899613,21 15.5,21 C11.9100387,21 9,23.9100387 9,27.5 C9,31.0899613 11.9100387,34 15.5,34 C19.0899613,34 22,31.0899613 22,27.5" id="Fill-5" fill="#FFFFFF"></path>
                        <path d="M57.3852306,27 L7.70575884,27 C3.45013941,27 0,23.6025955 0,19.4111166 L0,14.7157199 C0,13.2157199 1.23506936,12 2.75727743,12 L57.3852306,12 C61.5908804,12 65,15.3577375 65,19.5 L65,19.5 C65,23.6422625 61.5908804,27 57.3852306,27" id="Fill-9" fill="#FFFFFF"></path>
                        <path d="M57.3852306,27 L7.70575884,27 C3.45013941,27 0,23.6025955 0,19.4111166 L0,14.7157199 C0,13.2157199 1.23506936,12 2.75727743,12 L57.3852306,12 C61.5908804,12 65,15.3577375 65,19.5 L65,19.5 C65,23.6422625 61.5908804,27 57.3852306,27 Z" id="Stroke-11" stroke="#4D5862" stroke-linecap="round" stroke-linejoin="round"></path>
                        <path d="M52,12 L10,12 L10,3.7762563 C10,1.69047927 11.6380315,0 13.6590966,0 L38.6426451,0 C42.6359572,0 46.3348593,2.17103733 48.3762026,5.71244025 L52,12 Z" id="Stroke-13" stroke="#4D5862" stroke-linecap="round" stroke-linejoin="round"></path>
                        <path d="M59,27.5 C59,23.9100387 56.0899613,21 52.5,21 C48.9100387,21 46,23.9100387 46,27.5 C46,31.0899613 48.9100387,34 52.5,34 C56.0899613,34 59,31.0899613 59,27.5" id="Fill-15" fill="#FFFFFF"></path>
                        <path d="M59,27.5 C59,23.9100387 56.0899613,21 52.5,21 C48.9100387,21 46,23.9100387 46,27.5 C46,31.0899613 48.9100387,34 52.5,34 C56.0899613,34 59,31.0899613 59,27.5 Z" id="Stroke-17" stroke="#4D5862" stroke-linecap="round" stroke-linejoin="round"></path>
                        <path d="M20,27.5 C20,23.9100387 17.0899613,21 13.5,21 C9.91003874,21 7,23.9100387 7,27.5 C7,31.0899613 9.91003874,34 13.5,34 C17.0899613,34 20,31.0899613 20,27.5" id="Fill-19" fill="#FFFFFF"></path>
                        <path d="M20,27.5 C20,23.9100387 17.0899613,21 13.5,21 C9.91003874,21 7,23.9100387 7,27.5 C7,31.0899613 9.91003874,34 13.5,34 C17.0899613,34 20,31.0899613 20,27.5 Z" id="Stroke-21" stroke="#4D5862" stroke-linecap="round" stroke-linejoin="round"></path>
                        <path d="M31,16 L36,16" id="Stroke-23" stroke="#4D5862" stroke-linecap="round" stroke-linejoin="round"></path>
                        <path d="M53,28 C53,27.4477262 52.5523787,27 52.0002344,27 C51.4476213,27 51,27.4477262 51,28 C51,28.5522738 51.4476213,29 52.0002344,29 C52.5523787,29 53,28.5522738 53,28" id="Fill-25" fill="#4D5862"></path>
                        <path d="M15,28 C15,27.4477262 14.5523787,27 14.0002344,27 C13.4476213,27 13,27.4477262 13,28 C13,28.5522738 13.4476213,29 14.0002344,29 C14.5523787,29 15,28.5522738 15,28" id="Fill-27" fill="#4D5862"></path>
                    </g>
                    <g id="Group-2" transform="translate(24.000000, 0.000000)">
                        <rect id="Rectangle" stroke="#FF6A38" x="0.5" y="0.5" width="7" height="45" rx="3.5"></rect>
                        <path d="M0,19 L8,19 L8,42 L8,42 C8,44.209139 6.209139,46 4,46 L4,46 L4,46 C1.790861,46 2.705415e-16,44.209139 0,42 L0,19 Z" id="Rectangle" fill="#FF6A38"></path>
                    </g>
                </g>
                <text id="--R$-7,00" font-family="Lato-Bold, Lato" font-size="14" font-weight="bold" fill="#FF9268">
                    <tspan x="77.77" y="14">- R$ 7,00</tspan>
                </text>
                <g id="Group-10" transform="translate(0.000000, 2.000000)">
                    <g id="Group-9-Copy" transform="translate(51.318530, 50.259356) rotate(45.000000) translate(-51.318530, -50.259356) translate(43.318530, 46.759356)" stroke="#7A8BDB" stroke-linecap="round">
                        <path d="M8.10755452,0.561284627 L8.10755452,5.08481283" id="Line-Copy-4"></path>
                        <path d="M15.4342636,2.58009431 L13.0056921,6.22295145" id="Line-Copy-5"></path>
                        <path d="M3.28299577,2.58009431 L0.854424341,6.22295145" id="Line-Copy-6" transform="translate(2.068710, 4.401523) scale(-1, 1) translate(-2.068710, -4.401523) "></path>
                    </g>
                    <g id="Group-7">
                        <g id="Page-1-Copy" transform="translate(0.000000, 53.000000)">
                            <path d="M60,27.5 C60,23.9100387 57.0899613,21 53.5,21 C49.9100387,21 47,23.9100387 47,27.5 C47,31.0899613 49.9100387,34 53.5,34 C57.0899613,34 60,31.0899613 60,27.5" id="Fill-1" fill="#FFFFFF"></path>
                            <path d="M22,27.5 C22,23.9100387 19.0899613,21 15.5,21 C11.9100387,21 9,23.9100387 9,27.5 C9,31.0899613 11.9100387,34 15.5,34 C19.0899613,34 22,31.0899613 22,27.5" id="Fill-5" fill="#FFFFFF"></path>
                            <path d="M57.3852306,27 L7.70575884,27 C3.45013941,27 0,23.6025955 0,19.4111166 L0,14.7157199 C0,13.2157199 1.23506936,12 2.75727743,12 L57.3852306,12 C61.5908804,12 65,15.3577375 65,19.5 L65,19.5 C65,23.6422625 61.5908804,27 57.3852306,27" id="Fill-9" fill="#FFFFFF"></path>
                            <path d="M57.3852306,27 L7.70575884,27 C3.45013941,27 0,23.6025955 0,19.4111166 L0,14.7157199 C0,13.2157199 1.23506936,12 2.75727743,12 L57.3852306,12 C61.5908804,12 65,15.3577375 65,19.5 L65,19.5 C65,23.6422625 61.5908804,27 57.3852306,27 Z" id="Stroke-11" stroke="#4D5862" stroke-linecap="round" stroke-linejoin="round"></path>
                            <path d="M52,12 L10,12 L10,3.7762563 C10,1.69047927 11.6380315,0 13.6590966,0 L38.6426451,0 C42.6359572,0 46.3348593,2.17103733 48.3762026,5.71244025 L52,12 Z" id="Stroke-13" stroke="#4D5862" stroke-linecap="round" stroke-linejoin="round"></path>
                            <path d="M59,27.5 C59,23.9100387 56.0899613,21 52.5,21 C48.9100387,21 46,23.9100387 46,27.5 C46,31.0899613 48.9100387,34 52.5,34 C56.0899613,34 59,31.0899613 59,27.5" id="Fill-15" fill="#FFFFFF"></path>
                            <path d="M59,27.5 C59,23.9100387 56.0899613,21 52.5,21 C48.9100387,21 46,23.9100387 46,27.5 C46,31.0899613 48.9100387,34 52.5,34 C56.0899613,34 59,31.0899613 59,27.5 Z" id="Stroke-17" stroke="#4D5862" stroke-linecap="round" stroke-linejoin="round"></path>
                            <path d="M20,27.5 C20,23.9100387 17.0899613,21 13.5,21 C9.91003874,21 7,23.9100387 7,27.5 C7,31.0899613 9.91003874,34 13.5,34 C17.0899613,34 20,31.0899613 20,27.5" id="Fill-19" fill="#FFFFFF"></path>
                            <path d="M20,27.5 C20,23.9100387 17.0899613,21 13.5,21 C9.91003874,21 7,23.9100387 7,27.5 C7,31.0899613 9.91003874,34 13.5,34 C17.0899613,34 20,31.0899613 20,27.5 Z" id="Stroke-21" stroke="#4D5862" stroke-linecap="round" stroke-linejoin="round"></path>
                            <path d="M31,16 L36,16" id="Stroke-23" stroke="#4D5862" stroke-linecap="round" stroke-linejoin="round"></path>
                            <path d="M53,28 C53,27.4477262 52.5523787,27 52.0002344,27 C51.4476213,27 51,27.4477262 51,28 C51,28.5522738 51.4476213,29 52.0002344,29 C52.5523787,29 53,28.5522738 53,28" id="Fill-25" fill="#4D5862"></path>
                            <path d="M15,28 C15,27.4477262 14.5523787,27 14.0002344,27 C13.4476213,27 13,27.4477262 13,28 C13,28.5522738 13.4476213,29 14.0002344,29 C14.5523787,29 15,28.5522738 15,28" id="Fill-27" fill="#4D5862"></path>
                        </g>
                        <g id="Group-7-Copy" transform="translate(24.000000, 0.000000)">
                            <rect id="Rectangle" stroke="#FF6A38" x="0.5" y="0.5" width="7" height="45" rx="3.5"></rect>
                            <path d="M0,12.1052632 L8,12.1052632 L8,42 L8,42 C8,44.209139 6.209139,46 4,46 L4,46 L4,46 C1.790861,46 7.37596886e-15,44.209139 7.10542736e-15,42 L0,12.1052632 Z" id="Rectangle" fill="#FF6A38"></path>
                            <rect id="Rectangle" fill="#FF9268" x="1" y="10.8947368" width="6" height="6.05263158"></rect>
                        </g>
                    </g>
                </g>
            </g>
        </g>
    </g>
</svg>