<?xml version="1.0" encoding="UTF-8"?>
<svg width="42px" height="42px" viewBox="0 0 42 42" version="1.1" xmlns="http://www.w3.org/2000/svg" xmlns:xlink="http://www.w3.org/1999/xlink">
    <!-- Generator: Sketch 45.2 (43514) - http://www.bohemiancoding.com/sketch -->
    <title>Veiculo</title>
    <desc>Created with Sketch.</desc>
    <defs></defs>
    <g id="Symbols" stroke="none" stroke-width="1" fill="none" fill-rule="evenodd">
        <g id="Veiculo">
            <g id="Page-1" transform="translate(9.000000, 10.000000)" stroke="#D8DBDE" stroke-linecap="round" stroke-linejoin="round">
                <path d="M19.6314977,17.1053225 L19.6314977,18.3671875 C19.6314977,18.9978245 20.1330358,19.5138002 20.7460268,19.5138002 L21.3998752,19.5138002 C22.0128662,19.5138002 22.5144043,18.9978245 22.5144043,18.3671875 L22.5144043,10.9606249 C22.5144043,9.67985844 22.3059874,8.40941153 21.8980697,7.19973509 L20.1961838,1.66534205 C19.973278,0.988840534 19.3491417,0.507263184 18.6135525,0.507263184 L6.35373264,0.507263184 C5.61814345,0.507263184 5.00515245,0.988840534 4.77110135,1.66534205 L3.06921544,7.19973509 C2.6612978,8.40941153 2.45288086,9.67985844 2.45288086,10.9606249 L2.45288086,18.3671875 C2.45288086,18.9978245 2.95441895,19.5138002 3.56740994,19.5138002 L4.21490327,19.5138002 C4.82789427,19.5138002 5.32943235,18.9978245 5.32943235,18.3671875 L5.32943235,17.2629994" id="Stroke-1"></path>
                <path d="M21.5552063,6.32333984 C21.5371327,7.28488769 20.8509783,7.50320435 20.4322787,7.50320435 L4.45308593,7.50320435 C3.98713743,7.50320435 3.36517324,7.3333496 3.34954834,6.32333984" id="Stroke-3"></path>
                <path d="M22.5129395,15.5874831 C22.5129395,16.481841 21.7526032,16.7673476 21.3006316,16.7673476 L3.61919461,16.7673476 C3.16610988,16.7673476 2.45141602,16.3522738 2.45141602,15.6012424" id="Stroke-5"></path>
                <path d="M5.74572754,12.2566074 C5.05406087,12.2566074 4.49572754,11.6982741 4.49572754,11.0066074 C4.49572754,10.3149407 5.05406087,9.75660741 5.74572754,9.75660741 C6.43739421,9.75660741 6.99572754,10.3149407 6.99572754,11.0066074 C6.99572754,11.6982741 6.43739421,12.2566074 5.74572754,12.2566074 Z" id="Stroke-7"></path>
                <path d="M19.2914429,12.2527622 C18.6006205,12.2527622 18.0429688,11.6951104 18.0429688,11.0042881 C18.0429688,10.3134657 18.6006205,9.75581395 19.2914429,9.75581395 C19.9822652,9.75581395 20.539917,10.3134657 20.539917,11.0042881 C20.539917,11.6951104 19.9822652,12.2527622 19.2914429,12.2527622 Z" id="Stroke-9"></path>
                <path d="M0.520233154,5.51132202 C0.520233154,5.51132202 1.09211222,5.51132202 2.23587036,5.51132202" id="Stroke-13"></path>
                <path d="M22.7942502,5.5015564 L24.5154114,5.5015564" id="Stroke-13-Copy"></path>
            </g>
            <rect id="Rectangle" x="0" y="0" width="42" height="42"></rect>
        </g>
    </g>
</svg>