<?xml version="1.0" encoding="UTF-8"?>
<svg width="110px" height="19px" viewBox="0 0 110 19" version="1.1" xmlns="http://www.w3.org/2000/svg" xmlns:xlink="http://www.w3.org/1999/xlink">
    <!-- Generator: Sketch 46.2 (44496) - http://www.bohemiancoding.com/sketch -->
    <title>Logo_Branco</title>
    <desc>Created with Sketch.</desc>
    <defs></defs>
    <g id="Symbols" stroke="none" stroke-width="1" fill="none" fill-rule="evenodd">
        <g id="Menu-Scroll-Branco-Logado" transform="translate(-32.000000, -17.000000)" fill="#FF6A38">
            <g id="Logo_Laranja" transform="translate(32.000000, 17.000000)">
                <g transform="translate(0.319427, 0.502047)" id="Shape">
                    <path d="M12.0162332,17.0000172 C11.1624482,17.4250176 9.67622989,17.7192487 7.62082158,17.7192487 C3.0989233,17.7192487 0,14.9403997 0,10.363472 C0,6.21154475 1.86567831,3.26923408 4.49027662,1.6019247 C6.22946827,0.490385112 8.19001158,0 10.5300149,0 C12.3008282,0 13.6921815,0.39230809 14.1981282,0.653846816 L13.1229915,4.21731196 C12.6802882,4.05385026 11.6051515,3.72692685 10.2137982,3.72692685 C8.9173099,3.72692685 7.71568658,4.0865426 6.79865826,4.8057741 C5.50216994,5.81923666 4.61676328,7.58462306 4.61676328,9.87308692 C4.61676328,12.4884742 6.16622493,13.9923219 8.75920157,13.9923219 C9.89758156,13.9923219 10.9410965,13.8288602 11.7632599,13.4692444 L12.0162332,17.0000172 Z" fill-rule="nonzero"></path>
                    <path d="M17.9927281,17.6865564 C14.8938048,17.6865564 12.6486665,15.7577083 12.6486665,12.4884742 C12.6486665,8.07500818 15.6527248,4.57692771 20.1430014,4.57692771 C23.4000331,4.57692771 25.4870631,6.76731454 25.4870631,9.74231756 C25.4870631,14.6134763 22.2932748,17.6865564 17.9927281,17.6865564 L17.9927281,17.6865564 Z M18.5935398,14.3846299 C20.3327314,14.3846299 21.1232731,11.5403963 21.1232731,9.7750099 C21.1232731,8.72885499 20.7121914,7.84616179 19.6054331,7.84616179 C17.7713765,7.84616179 17.0440781,10.8538571 17.0440781,12.3903972 C17.0440781,13.6327061 17.5816465,14.3846299 18.5935398,14.3846299 L18.5935398,14.3846299 Z" fill-rule="nonzero"></path>
                    <path d="M25.6135497,17.7519411 L27.1313897,9.48077883 C27.4476064,7.78077711 27.6373364,6.37500645 27.8270664,5.19808219 L31.5268013,5.19808219 L31.3370713,7.12693029 L31.4003147,7.12693029 C32.5703163,5.55769794 34.024913,4.90385112 35.5427529,4.90385112 C37.7562696,4.90385112 38.6732979,6.34231411 38.6732979,8.3365469 C38.6732979,8.8923167 38.5784329,9.90577926 38.4835679,10.4942414 L37.1238363,17.7846334 L32.9181546,17.7846334 L34.1513996,10.9519342 C34.214643,10.5596261 34.2778863,10.069241 34.2778863,9.64424053 C34.2778863,8.8923167 34.0565346,8.43462393 33.360858,8.43462393 C32.3489646,8.43462393 31.3054497,9.80770224 30.8311247,12.4230895 L29.850853,17.7846334 L25.6135497,17.7846334 L25.6135497,17.7519411 Z" fill-rule="nonzero"></path>
                    <path d="M50.1203411,16.7057861 C48.5076361,17.5230947 46.5787145,17.6865564 45.3770912,17.6865564 C41.8038429,17.6865564 39.8432996,15.7577083 39.8432996,12.2596278 C39.8432996,8.43462393 42.4995195,4.57692771 47.0846612,4.57692771 C49.6143945,4.57692771 51.6065594,6.01539071 51.6065594,8.56539329 C51.6065594,11.703858 48.8554745,13.0115516 43.8592512,12.8480899 C43.9224945,13.142321 44.0489812,13.4365521 44.2703329,13.6653985 C44.7446578,14.0903989 45.4719562,14.3192453 46.4522278,14.3192453 C47.6854728,14.3192453 48.8554745,14.0577065 49.8989895,13.5673214 L50.1203411,16.7057861 Z M47.6854728,8.56539329 C47.6854728,8.14039286 47.2743912,7.74808477 46.6103362,7.74808477 C45.0924962,7.74808477 44.3651978,8.92500904 44.2387112,9.74231756 C46.8000662,9.74231756 47.6854728,9.38270181 47.6854728,8.56539329 L47.6854728,8.56539329 Z" fill-rule="nonzero"></path>
                    <path d="M61.219546,17.359633 C60.365761,17.7519411 59.1641377,17.9807874 57.804406,17.9807874 C54.8635911,17.9807874 52.4919661,16.1827087 52.4919661,12.6846282 C52.4919661,8.20577754 55.9071061,4.90385112 60.6187343,4.90385112 C61.599006,4.90385112 62.452791,5.06731282 63.0536026,5.26346687 L62.0417093,8.59808563 C61.6306277,8.43462393 61.219546,8.36923924 60.5871127,8.36923924 C58.3103527,8.36923924 56.9189994,10.167318 56.9189994,12.2596278 C56.9189994,13.8615525 57.994136,14.5153993 59.0060294,14.5153993 C59.9546793,14.5153993 60.650356,14.3192453 61.2511677,14.0903989 L61.219546,17.359633 Z" fill-rule="nonzero"></path>
                    <path d="M70.3898292,1.30769363 L69.7573959,4.87115878 L72.2238859,4.87115878 L71.5914526,8.1730852 L69.1249626,8.1730852 L68.4292859,11.605781 C68.3660426,11.9980891 68.2711776,12.6846282 68.2711776,13.044244 C68.2711776,13.5673214 68.4925293,14.0250142 69.2514492,14.0250142 C69.5360442,14.0250142 69.8838826,14.0250142 70.2317209,13.9923219 L69.6941526,17.3923253 C69.1882059,17.5884793 68.1763126,17.6865564 67.3857709,17.6865564 C65.0773893,17.6865564 63.9390093,16.5750168 63.9390093,14.8750151 C63.9390093,14.1884759 64.0022526,13.5346291 64.1919826,12.5538589 L65.0457676,8.1730852 L63.5595493,8.1730852 L64.160361,4.87115878 L65.6465793,4.87115878 L66.0576609,2.51731024 L70.3898292,1.30769363 Z" fill-rule="nonzero"></path>
                    <path d="M85.0622824,17.0000172 C84.2084974,17.4250176 82.7222791,17.7192487 80.6668708,17.7192487 C76.1449725,17.7192487 73.0460492,14.9403997 73.0460492,10.363472 C73.0460492,6.21154475 74.9117275,3.26923408 77.5363258,1.6019247 C79.2755175,0.490385112 81.2360608,0 83.5760641,0 C85.3468774,0 86.7382307,0.39230809 87.2441774,0.653846816 L86.1690407,4.21731196 C85.7263374,4.05385026 84.6512007,3.72692685 83.2598474,3.72692685 C81.9633591,3.72692685 80.7617358,4.0865426 79.8447075,4.8057741 C78.5482191,5.81923666 77.6628125,7.58462306 77.6628125,9.87308692 C77.6628125,12.4884742 79.2122741,13.9923219 81.8052508,13.9923219 C82.9436308,13.9923219 84.0187674,13.8288602 84.7776874,13.4692444 L85.0622824,17.0000172 Z" fill-rule="nonzero"></path>
                    <path d="M93.2206723,17.7519411 C93.2839156,17.0327096 93.3155373,16.2807857 93.347159,15.5942466 L93.2839156,15.5942466 C92.2404007,17.45771 90.7541823,18.0461721 89.457694,18.0461721 C87.275799,18.0461721 85.6947157,16.3134781 85.6947157,13.5673214 C85.6947157,9.38270181 88.2560707,4.90385112 94.5487823,4.90385112 C96.098244,4.90385112 97.7741923,5.23077453 98.8809506,5.59039028 L97.5844623,12.1615508 C97.3314889,13.5019367 97.0785156,16.0846317 97.1101373,17.7192487 L93.2206723,17.7192487 L93.2206723,17.7519411 Z M94.1377006,8.23846988 C93.8531056,8.1730852 93.5685106,8.1730852 93.347159,8.1730852 C91.3866157,8.1730852 90.0901274,10.9192418 90.0901274,12.7500129 C90.0901274,13.9269372 90.596074,14.5480917 91.2917507,14.5480917 C92.0506707,14.5480917 93.0941857,13.7634755 93.6001323,10.7884725 L94.1377006,8.23846988 Z" fill-rule="nonzero"></path>
                    <path d="M99.2920323,17.7192487 L100.620142,10.5269337 C100.967981,8.50000861 101.126089,6.21154475 101.220954,5.16538985 L104.857446,5.16538985 C104.794202,6.01539071 104.762581,6.86539157 104.667716,7.68270009 L104.730959,7.68270009 C105.616366,6.04808305 107.007719,4.90385112 108.683667,4.90385112 C108.905019,4.90385112 109.157992,4.90385112 109.379344,4.93654346 L108.55718,9.15385542 L107.98799,9.15385542 C105.521501,9.15385542 104.667716,11.1807806 104.225012,13.4692444 L103.466092,17.7519411 L99.2920323,17.7519411 L99.2920323,17.7192487 Z" fill-rule="nonzero"></path>
                </g>
            </g>
        </g>
    </g>
</svg>