<?xml version="1.0" encoding="UTF-8"?>
<svg width="93px" height="15px" viewBox="0 0 93 15" version="1.1" xmlns="http://www.w3.org/2000/svg" xmlns:xlink="http://www.w3.org/1999/xlink">
    <!-- Generator: Sketch 46.1 (44463) - http://www.bohemiancoding.com/sketch -->
    <title>Logo</title>
    <desc>Created with Sketch.</desc>
    <defs></defs>
    <g id="Symbols" stroke="none" stroke-width="1" fill="none" fill-rule="evenodd">
        <g id="Header-Mobile-Cinza" transform="translate(-134.000000, -14.000000)" fill-rule="nonzero" fill="#B5BDC4">
            <g id="Logo" transform="translate(134.000000, 14.000000)">
                <path d="M10.2067102,13.9285714 C9.48149661,14.2767857 8.21908771,14.5178571 6.47320307,14.5178571 C2.63225685,14.5178571 0,12.2410714 0,8.49107143 C0,5.08928571 1.58472606,2.67857143 3.81408645,1.3125 C5.29137346,0.401785714 6.95667881,0 8.94430133,0 C10.4484481,0 11.6302777,0.321428571 12.0600339,0.535714286 L11.146802,3.45535714 C10.7707653,3.32142857 9.8575333,3.05357143 8.67570369,3.05357143 C7.57445338,3.05357143 6.55378236,3.34821429 5.77484921,3.9375 C4.67359889,4.76785714 3.92152551,6.21428571 3.92152551,8.08928571 C3.92152551,10.2321429 5.23765393,11.4642857 7.44015456,11.4642857 C8.40710606,11.4642857 9.29347826,11.3303571 9.99183212,11.0357143 L10.2067102,13.9285714 Z" id="Shape"></path>
                <path d="M15.2832056,14.4910714 C12.6509487,14.4910714 10.7439055,12.9107143 10.7439055,10.2321429 C10.7439055,6.61607143 13.2955831,3.75 17.1096695,3.75 C19.8762252,3.75 21.6489696,5.54464286 21.6489696,7.98214286 C21.6489696,11.9732143 18.9361335,14.4910714 15.2832056,14.4910714 L15.2832056,14.4910714 Z M15.7935411,11.7857143 C17.2708281,11.7857143 17.9423222,9.45535714 17.9423222,8.00892857 C17.9423222,7.15178571 17.5931453,6.42857143 16.6530535,6.42857143 C15.0951872,6.42857143 14.4774127,8.89285714 14.4774127,10.1517857 C14.4774127,11.1696429 14.9340287,11.7857143 15.7935411,11.7857143 L15.7935411,11.7857143 Z" id="Shape"></path>
                <path d="M21.7564086,14.5446429 L23.0456773,7.76785714 C23.3142749,6.375 23.4754335,5.22321429 23.6365921,4.25892857 L26.7791845,4.25892857 L26.6180259,5.83928571 L26.6717454,5.83928571 C27.6655567,4.55357143 28.9011058,4.01785714 30.1903745,4.01785714 C32.0705579,4.01785714 32.8494911,5.19642857 32.8494911,6.83035714 C32.8494911,7.28571429 32.7689118,8.11607143 32.6883325,8.59821429 L31.5333627,14.5714286 L27.9610141,14.5714286 L29.0085449,8.97321429 C29.0622644,8.65178571 29.1159839,8.25 29.1159839,7.90178571 C29.1159839,7.28571429 28.9279656,6.91071429 28.3370508,6.91071429 C27.4775383,6.91071429 26.5911661,8.03571429 26.1882697,10.1785714 L25.355617,14.5714286 L21.7564086,14.5714286 L21.7564086,14.5446429 Z" id="Shape"></path>
                <path d="M42.5727256,13.6875 C41.2028776,14.3571429 39.564432,14.4910714 38.543761,14.4910714 C35.5086077,14.4910714 33.8433023,12.9107143 33.8433023,10.0446429 C33.8433023,6.91071429 36.0995225,3.75 39.9941882,3.75 C42.1429693,3.75 43.8351345,4.92857143 43.8351345,7.01785714 C43.8351345,9.58928571 41.498335,10.6607143 37.2544923,10.5267857 C37.3082119,10.7678571 37.4156509,11.0089286 37.6036693,11.1964286 C38.0065657,11.5446429 38.6243403,11.7321429 39.456993,11.7321429 C40.5045237,11.7321429 41.498335,11.5178571 42.3847072,11.1160714 L42.5727256,13.6875 Z M40.5045237,7.01785714 C40.5045237,6.66964286 40.1553468,6.34821429 39.5912918,6.34821429 C38.3020231,6.34821429 37.6842486,7.3125 37.5768095,7.98214286 C39.7524504,7.98214286 40.5045237,7.6875 40.5045237,7.01785714 L40.5045237,7.01785714 Z" id="Shape"></path>
                <path d="M52.0005026,14.2232143 C51.275289,14.5446429 50.254618,14.7321429 49.0996482,14.7321429 C46.6016901,14.7321429 44.5872078,13.2589286 44.5872078,10.3928571 C44.5872078,6.72321429 47.4880623,4.01785714 51.4901671,4.01785714 C52.3228198,4.01785714 53.0480334,4.15178571 53.5583689,4.3125 L52.6988565,7.04464286 C52.3496796,6.91071429 52.0005026,6.85714286 51.4633074,6.85714286 C49.5294044,6.85714286 48.3475748,8.33035714 48.3475748,10.0446429 C48.3475748,11.3571429 49.2608067,11.8928571 50.1203192,11.8928571 C50.9261121,11.8928571 51.5170269,11.7321429 52.0273624,11.5446429 L52.0005026,14.2232143 Z" id="Shape"></path>
                <path d="M59.7898341,1.07142857 L59.2526389,3.99107143 L61.3477004,3.99107143 L60.8105052,6.69642857 L58.7154436,6.69642857 L58.1245288,9.50892857 C58.0708092,9.83035714 57.99023,10.3928571 57.99023,10.6875 C57.99023,11.1160714 58.1782483,11.4910714 58.8228826,11.4910714 C59.0646205,11.4910714 59.3600779,11.4910714 59.6555353,11.4642857 L59.1989193,14.25 C58.7691631,14.4107143 57.9096507,14.4910714 57.2381566,14.4910714 C55.2773938,14.4910714 54.3104423,13.5803571 54.3104423,12.1875 C54.3104423,11.625 54.3641618,11.0892857 54.5253204,10.2857143 L55.2505341,6.69642857 L53.9881252,6.69642857 L54.4984607,3.99107143 L55.7608696,3.99107143 L56.1100465,2.0625 L59.7898341,1.07142857 Z" id="Shape"></path>
                <path d="M72.2527645,13.9285714 C71.5275509,14.2767857 70.265142,14.5178571 68.5192574,14.5178571 C64.6783111,14.5178571 62.0460543,12.2410714 62.0460543,8.49107143 C62.0460543,5.08928571 63.6307803,2.67857143 65.8601407,1.3125 C67.3374277,0.401785714 69.0027331,0 70.9903556,0 C72.4945024,0 73.676332,0.321428571 74.1060882,0.535714286 L73.1928562,3.45535714 C72.8168196,3.32142857 71.9035876,3.05357143 70.721758,3.05357143 C69.6205077,3.05357143 68.5998366,3.34821429 67.8209035,3.9375 C66.7196532,4.76785714 65.9675798,6.21428571 65.9675798,8.08928571 C65.9675798,10.2321429 67.2837082,11.4642857 69.4862088,11.4642857 C70.4531603,11.4642857 71.3663923,11.3303571 72.0110266,11.0357143 L72.2527645,13.9285714 Z" id="Shape"></path>
                <path d="M79.1825836,14.5446429 C79.2363031,13.9553571 79.2631629,13.3392857 79.2900226,12.7767857 L79.2363031,12.7767857 C78.3499309,14.3035714 77.087522,14.7857143 75.9862717,14.7857143 C74.132948,14.7857143 72.7899598,13.3660714 72.7899598,11.1160714 C72.7899598,7.6875 74.9656007,4.01785714 80.3106936,4.01785714 C81.6268221,4.01785714 83.0503895,4.28571429 83.9904813,4.58035714 L82.889231,9.96428571 C82.6743529,11.0625 82.4594747,13.1785714 82.4863345,14.5178571 L79.1825836,14.5178571 L79.1825836,14.5446429 Z M79.9615167,6.75 C79.7197788,6.69642857 79.478041,6.69642857 79.2900226,6.69642857 C77.6247173,6.69642857 76.523467,8.94642857 76.523467,10.4464286 C76.523467,11.4107143 76.9532232,11.9196429 77.544138,11.9196429 C78.1887723,11.9196429 79.0751445,11.2767857 79.5049007,8.83928571 L79.9615167,6.75 Z" id="Shape"></path>
                <path d="M84.3396582,14.5178571 L85.4677683,8.625 C85.7632257,6.96428571 85.8975245,5.08928571 85.9781038,4.23214286 L89.0669766,4.23214286 C89.0132571,4.92857143 88.9863973,5.625 88.905818,6.29464286 L88.9595376,6.29464286 C89.711611,4.95535714 90.8934406,4.01785714 92.317008,4.01785714 C92.5050264,4.01785714 92.7199045,4.01785714 92.9079228,4.04464286 L92.209569,7.5 L91.7260932,7.5 C89.6310317,7.5 88.905818,9.16071429 88.5297814,11.0357143 L87.885147,14.5446429 L84.3396582,14.5446429 L84.3396582,14.5178571 Z" id="Shape"></path>
            </g>
        </g>
    </g>
</svg>