<?xml version="1.0" encoding="UTF-8"?>
<svg width="110px" height="19px" viewBox="0 0 110 19" version="1.1" xmlns="http://www.w3.org/2000/svg" xmlns:xlink="http://www.w3.org/1999/xlink">
    <!-- Generator: Sketch 45.1 (43504) - http://www.bohemiancoding.com/sketch -->
    <title>Logo_Branco</title>
    <desc>Created with Sketch.</desc>
    <defs></defs>
    <g id="Planos-Desktop" stroke="none" stroke-width="1" fill="none" fill-rule="evenodd">
        <g id="1-Planos" transform="translate(-32.000000, -135.000000)" fill="#FFFFFF">
            <g id="Group-17" transform="translate(32.000000, 135.000000)">
                <g id="Logo_Branco">
                    <g transform="translate(0.319427, 0.497553)" id="Shape">
                        <path d="M12.0162332,16.8478431 C11.1624482,17.2690392 9.67622989,17.5606365 7.62082158,17.5606365 C3.0989233,17.5606365 0,14.8066621 0,10.2707044 C0,6.15594269 1.86567831,3.23996984 4.49027662,1.58758522 C6.22946827,0.485995475 8.19001158,0 10.5300149,0 C12.3008282,0 13.6921815,0.38879638 14.1981282,0.647993967 L13.1229915,4.17956109 C12.6802882,4.0175626 11.6051515,3.69356561 10.2137982,3.69356561 C8.9173099,3.69356561 7.71568658,4.04996229 6.79865826,4.76275566 C5.50216994,5.76714631 4.61676328,7.51673002 4.61676328,9.7847089 C4.61676328,12.3766848 6.16622493,13.8670709 8.75920157,13.8670709 C9.89758156,13.8670709 10.9410965,13.7050724 11.7632599,13.3486757 L12.0162332,16.8478431 Z" fill-rule="nonzero"></path>
                        <path d="M17.9927281,17.5282368 C14.8938048,17.5282368 12.6486665,15.6166546 12.6486665,12.3766848 C12.6486665,8.00272549 15.6527248,4.53595777 20.1430014,4.53595777 C23.4000331,4.53595777 25.4870631,6.70673756 25.4870631,9.65511011 C25.4870631,14.4826652 22.2932748,17.5282368 17.9927281,17.5282368 L17.9927281,17.5282368 Z M18.5935398,14.2558673 C20.3327314,14.2558673 21.1232731,11.4370935 21.1232731,9.68750981 C21.1232731,8.65071946 20.7121914,7.77592761 19.6054331,7.77592761 C17.7713765,7.77592761 17.0440781,10.7566999 17.0440781,12.2794857 C17.0440781,13.5106742 17.5816465,14.2558673 18.5935398,14.2558673 L18.5935398,14.2558673 Z" fill-rule="nonzero"></path>
                        <path d="M25.6135497,17.5930362 L27.1313897,9.39591252 C27.4476064,7.71112821 27.6373364,6.31794118 27.8270664,5.15155204 L31.5268013,5.15155204 L31.3370713,7.06313424 L31.4003147,7.06313424 C32.5703163,5.50794872 34.024913,4.85995475 35.5427529,4.85995475 C37.7562696,4.85995475 38.6732979,6.28554148 38.6732979,8.26192308 C38.6732979,8.81271795 38.5784329,9.8171086 38.4835679,10.4003032 L37.1238363,17.6254359 L32.9181546,17.6254359 L34.1513996,10.8538989 C34.214643,10.4651026 34.2778863,9.97910709 34.2778863,9.55791102 C34.2778863,8.81271795 34.0565346,8.35912218 33.360858,8.35912218 C32.3489646,8.35912218 31.3054497,9.71990951 30.8311247,12.3118854 L29.850853,17.6254359 L25.6135497,17.6254359 L25.6135497,17.5930362 Z" fill-rule="nonzero"></path>
                        <path d="M50.1203411,16.5562459 C48.5076361,17.3662383 46.5787145,17.5282368 45.3770912,17.5282368 C41.8038429,17.5282368 39.8432996,15.6166546 39.8432996,12.1498869 C39.8432996,8.35912218 42.4995195,4.53595777 47.0846612,4.53595777 C49.6143945,4.53595777 51.6065594,5.9615445 51.6065594,8.48872097 C51.6065594,11.599092 48.8554745,12.8950799 43.8592512,12.7330815 C43.9224945,13.0246787 44.0489812,13.316276 44.2703329,13.5430739 C44.7446578,13.96427 45.4719562,14.1910679 46.4522278,14.1910679 C47.6854728,14.1910679 48.8554745,13.9318703 49.8989895,13.4458748 L50.1203411,16.5562459 Z M47.6854728,8.48872097 C47.6854728,8.06752489 47.2743912,7.67872851 46.6103362,7.67872851 C45.0924962,7.67872851 44.3651978,8.84511765 44.2387112,9.65511011 C46.8000662,9.65511011 47.6854728,9.29871343 47.6854728,8.48872097 L47.6854728,8.48872097 Z" fill-rule="nonzero"></path>
                        <path d="M61.219546,17.2042398 C60.365761,17.5930362 59.1641377,17.8198341 57.804406,17.8198341 C54.8635911,17.8198341 52.4919661,16.0378507 52.4919661,12.571083 C52.4919661,8.13232429 55.9071061,4.85995475 60.6187343,4.85995475 C61.599006,4.85995475 62.452791,5.02195325 63.0536026,5.21635144 L62.0417093,8.52112067 C61.6306277,8.35912218 61.219546,8.29432278 60.5871127,8.29432278 C58.3103527,8.29432278 56.9189994,10.0763062 56.9189994,12.1498869 C56.9189994,13.7374721 57.994136,14.3854661 59.0060294,14.3854661 C59.9546793,14.3854661 60.650356,14.1910679 61.2511677,13.96427 L61.219546,17.2042398 Z" fill-rule="nonzero"></path>
                        <path d="M70.3898292,1.29598793 L69.7573959,4.82755506 L72.2238859,4.82755506 L71.5914526,8.09992459 L69.1249626,8.09992459 L68.4292859,11.5018929 C68.3660426,11.8906893 68.2711776,12.571083 68.2711776,12.9274796 C68.2711776,13.4458748 68.4925293,13.8994706 69.2514492,13.8994706 C69.5360442,13.8994706 69.8838826,13.8994706 70.2317209,13.8670709 L69.6941526,17.2366395 C69.1882059,17.4310377 68.1763126,17.5282368 67.3857709,17.5282368 C65.0773893,17.5282368 63.9390093,16.4266471 63.9390093,14.7418628 C63.9390093,14.0614691 64.0022526,13.4134751 64.1919826,12.4414842 L65.0457676,8.09992459 L63.5595493,8.09992459 L64.160361,4.82755506 L65.6465793,4.82755506 L66.0576609,2.49477677 L70.3898292,1.29598793 Z" fill-rule="nonzero"></path>
                        <path d="M85.0622824,16.8478431 C84.2084974,17.2690392 82.7222791,17.5606365 80.6668708,17.5606365 C76.1449725,17.5606365 73.0460492,14.8066621 73.0460492,10.2707044 C73.0460492,6.15594269 74.9117275,3.23996984 77.5363258,1.58758522 C79.2755175,0.485995475 81.2360608,0 83.5760641,0 C85.3468774,0 86.7382307,0.38879638 87.2441774,0.647993967 L86.1690407,4.17956109 C85.7263374,4.0175626 84.6512007,3.69356561 83.2598474,3.69356561 C81.9633591,3.69356561 80.7617358,4.04996229 79.8447075,4.76275566 C78.5482191,5.76714631 77.6628125,7.51673002 77.6628125,9.7847089 C77.6628125,12.3766848 79.2122741,13.8670709 81.8052508,13.8670709 C82.9436308,13.8670709 84.0187674,13.7050724 84.7776874,13.3486757 L85.0622824,16.8478431 Z" fill-rule="nonzero"></path>
                        <path d="M93.2206723,17.5930362 C93.2839156,16.8802428 93.3155373,16.1350498 93.347159,15.4546561 L93.2839156,15.4546561 C92.2404007,17.3014389 90.7541823,17.8846335 89.457694,17.8846335 C87.275799,17.8846335 85.6947157,16.1674495 85.6947157,13.4458748 C85.6947157,9.29871343 88.2560707,4.85995475 94.5487823,4.85995475 C96.098244,4.85995475 97.7741923,5.18395174 98.8809506,5.54034842 L97.5844623,12.0526878 C97.3314889,13.3810754 97.0785156,15.9406516 97.1101373,17.5606365 L93.2206723,17.5606365 L93.2206723,17.5930362 Z M94.1377006,8.16472399 C93.8531056,8.09992459 93.5685106,8.09992459 93.347159,8.09992459 C91.3866157,8.09992459 90.0901274,10.8214993 90.0901274,12.6358824 C90.0901274,13.8022715 90.596074,14.4178658 91.2917507,14.4178658 C92.0506707,14.4178658 93.0941857,13.640273 93.6001323,10.6919005 L94.1377006,8.16472399 Z" fill-rule="nonzero"></path>
                        <path d="M99.2920323,17.5606365 L100.620142,10.4327029 C100.967981,8.42392157 101.126089,6.15594269 101.220954,5.11915234 L104.857446,5.11915234 C104.794202,5.9615445 104.762581,6.80393666 104.667716,7.61392911 L104.730959,7.61392911 C105.616366,5.9939442 107.007719,4.85995475 108.683667,4.85995475 C108.905019,4.85995475 109.157992,4.85995475 109.379344,4.89235445 L108.55718,9.07191554 L107.98799,9.07191554 C105.521501,9.07191554 104.667716,11.0806968 104.225012,13.3486757 L103.466092,17.5930362 L99.2920323,17.5930362 L99.2920323,17.5606365 Z" fill-rule="nonzero"></path>
                    </g>
                </g>
            </g>
        </g>
    </g>
</svg>