<?xml version="1.0" encoding="UTF-8"?>
<svg width="227px" height="88px" viewBox="0 0 227 88" version="1.1" xmlns="http://www.w3.org/2000/svg" xmlns:xlink="http://www.w3.org/1999/xlink">
    <!-- Generator: Sketch 46.2 (44496) - http://www.bohemiancoding.com/sketch -->
    <title>Group 12</title>
    <desc>Created with Sketch.</desc>
    <defs>
        <polygon id="path-1" points="0.258608259 0.155406995 8.35490151 0.155406995 8.35490151 4.98018547 0.258608259 4.98018547 0.258608259 0.155406995"></polygon>
        <polygon id="path-3" points="0.0647439818 0.155406995 9.14259817 0.155406995 9.14259817 4.98018547 0.0647439818 4.98018547 0.0647439818 0.155406995"></polygon>
        <polygon id="path-5" points="0.352870002 0.155406995 10.4704486 0.155406995 10.4704486 4.98018547 0.352870002 4.98018547 0.352870002 0.155406995"></polygon>
        <polygon id="path-7" points="0.376202949 0.155406995 10.2170561 0.155406995 10.2170561 4.98018547 0.376202949 4.98018547 0.376202949 0.155406995"></polygon>
    </defs>
    <g id="Planos-Desktop" stroke="none" stroke-width="1" fill="none" fill-rule="evenodd">
        <g id="Planos-Como-funciona-3" transform="translate(-384.000000, -317.000000)">
            <g id="Group-12" transform="translate(385.000000, 315.000000)">
                <g id="Group-5" opacity="0.550101902" transform="translate(89.000000, 78.000000)" stroke="#A0A7AE" stroke-linecap="round">
                    <polyline id="Stroke-3" stroke-linejoin="round" points="40.4120132 6.50448897 43.4167129 3.49978926 40.4120132 0.49538287"></polyline>
                    <path d="M0.487806691,3.5 L41.5,3.5" id="Line-4" stroke-dasharray="3"></path>
                </g>
                <g id="Page-1" transform="translate(96.000000, 24.000000)">
                    <g id="Group-4" transform="translate(0.000000, 23.000000)" stroke-linecap="round" stroke="#4D5862" stroke-linejoin="round">
                        <polygon id="Stroke-1" points="0 23 13 23 13 -5.5067062e-14 0 2.71631456e-14"></polygon>
                    </g>
                    <g id="Group" transform="translate(8.000000, 0.000000)">
                        <g id="Group-20" transform="translate(18.038070, 16.017295) rotate(-40.000000) translate(-18.038070, -16.017295) translate(-1.961930, 13.017295)">
                            <g id="Group-8" transform="translate(30.823524, 0.771930)">
                                <mask id="mask-2" fill="white">
                                    <use xlink:href="#path-1"></use>
                                </mask>
                                <g id="Clip-7"></g>
                                <path d="M0.418311045,-1.12683893 L8.5146043,6.98941673" id="Stroke-6" stroke="#4D5862" stroke-linecap="round" stroke-linejoin="round" mask="url(#mask-2)"></path>
                            </g>
                            <g id="Group-11" transform="translate(22.068485, 0.944160)">
                                <mask id="mask-4" fill="white">
                                    <use xlink:href="#path-3"></use>
                                </mask>
                                <g id="Clip-10"></g>
                                <path d="M-0.477546934,-1.12683893 L7.61874632,6.98941673" id="Stroke-9" stroke="#4D5862" stroke-linecap="round" stroke-linejoin="round" mask="url(#mask-4)"></path>
                            </g>
                            <g id="Group-14" transform="translate(11.000000, 1.000000)">
                                <mask id="mask-6" fill="white">
                                    <use xlink:href="#path-5"></use>
                                </mask>
                                <g id="Clip-13"></g>
                                <path d="M0.850303548,-1.12683893 L8.9465968,6.98941673" id="Stroke-12" stroke="#4D5862" stroke-linecap="round" stroke-linejoin="round" mask="url(#mask-6)"></path>
                            </g>
                            <g id="Group-17" transform="translate(1.000000, 1.000000)">
                                <mask id="mask-8" fill="white">
                                    <use xlink:href="#path-7"></use>
                                </mask>
                                <g id="Clip-16"></g>
                                <path d="M1.69923727,-1.82297703 L9.79553052,6.29327863" id="Stroke-15" stroke="#4D5862" stroke-linecap="round" stroke-linejoin="round" mask="url(#mask-8)"></path>
                            </g>
                        </g>
                        <polygon id="Stroke-21" stroke="#4D5862" stroke-linejoin="round" transform="translate(19.238728, 16.052163) rotate(-40.000000) translate(-19.238728, -16.052163) " points="-1.55521664 18.7200638 40.0326725 18.2090398 40.0326725 13.3842613 2.87311304 13.4295738"></polygon>
                    </g>
                </g>
                <g id="Group-9" transform="translate(91.663672, 43.092605) rotate(-45.000000) translate(-91.663672, -43.092605) translate(83.163672, 39.592605)" stroke="#7A8BDB" stroke-linecap="round">
                    <path d="M8.39685196,0.58131264 L8.39685196,5.26625143" id="Line-Copy-4"></path>
                    <path d="M16.0102273,2.69738971 L13.4949984,6.47023294" id="Line-Copy-5"></path>
                    <path d="M3.37490981,2.69738971 L0.859680993,6.47023294" id="Line-Copy-6" transform="translate(2.117295, 4.583811) scale(-1, 1) translate(-2.117295, -4.583811) "></path>
                </g>
                <g id="Group-3" transform="translate(160.000000, 2.000000)">
                    <g id="Page-1" transform="translate(0.000000, 53.000000)">
                        <path d="M60,27.5 C60,23.9100387 57.0899613,21 53.5,21 C49.9100387,21 47,23.9100387 47,27.5 C47,31.0899613 49.9100387,34 53.5,34 C57.0899613,34 60,31.0899613 60,27.5" id="Fill-1" fill="#FFFFFF"></path>
                        <path d="M22,27.5 C22,23.9100387 19.0899613,21 15.5,21 C11.9100387,21 9,23.9100387 9,27.5 C9,31.0899613 11.9100387,34 15.5,34 C19.0899613,34 22,31.0899613 22,27.5" id="Fill-5" fill="#FFFFFF"></path>
                        <path d="M57.3852306,27 L7.70575884,27 C3.45013941,27 0,23.6025955 0,19.4111166 L0,14.7157199 C0,13.2157199 1.23506936,12 2.75727743,12 L57.3852306,12 C61.5908804,12 65,15.3577375 65,19.5 L65,19.5 C65,23.6422625 61.5908804,27 57.3852306,27" id="Fill-9" fill="#FFFFFF"></path>
                        <path d="M57.3852306,27 L7.70575884,27 C3.45013941,27 0,23.6025955 0,19.4111166 L0,14.7157199 C0,13.2157199 1.23506936,12 2.75727743,12 L57.3852306,12 C61.5908804,12 65,15.3577375 65,19.5 L65,19.5 C65,23.6422625 61.5908804,27 57.3852306,27 Z" id="Stroke-11" stroke="#4D5862" stroke-linecap="round" stroke-linejoin="round"></path>
                        <path d="M52,12 L10,12 L10,3.7762563 C10,1.69047927 11.6380315,0 13.6590966,0 L38.6426451,0 C42.6359572,0 46.3348593,2.17103733 48.3762026,5.71244025 L52,12 Z" id="Stroke-13" stroke="#4D5862" stroke-linecap="round" stroke-linejoin="round"></path>
                        <path d="M59,27.5 C59,23.9100387 56.0899613,21 52.5,21 C48.9100387,21 46,23.9100387 46,27.5 C46,31.0899613 48.9100387,34 52.5,34 C56.0899613,34 59,31.0899613 59,27.5" id="Fill-15" fill="#FFFFFF"></path>
                        <path d="M59,27.5 C59,23.9100387 56.0899613,21 52.5,21 C48.9100387,21 46,23.9100387 46,27.5 C46,31.0899613 48.9100387,34 52.5,34 C56.0899613,34 59,31.0899613 59,27.5 Z" id="Stroke-17" stroke="#4D5862" stroke-linecap="round" stroke-linejoin="round"></path>
                        <path d="M20,27.5 C20,23.9100387 17.0899613,21 13.5,21 C9.91003874,21 7,23.9100387 7,27.5 C7,31.0899613 9.91003874,34 13.5,34 C17.0899613,34 20,31.0899613 20,27.5" id="Fill-19" fill="#FFFFFF"></path>
                        <path d="M20,27.5 C20,23.9100387 17.0899613,21 13.5,21 C9.91003874,21 7,23.9100387 7,27.5 C7,31.0899613 9.91003874,34 13.5,34 C17.0899613,34 20,31.0899613 20,27.5 Z" id="Stroke-21" stroke="#4D5862" stroke-linecap="round" stroke-linejoin="round"></path>
                        <path d="M31,16 L36,16" id="Stroke-23" stroke="#4D5862" stroke-linecap="round" stroke-linejoin="round"></path>
                        <path d="M53,28 C53,27.4477262 52.5523787,27 52.0002344,27 C51.4476213,27 51,27.4477262 51,28 C51,28.5522738 51.4476213,29 52.0002344,29 C52.5523787,29 53,28.5522738 53,28" id="Fill-25" fill="#4D5862"></path>
                        <path d="M15,28 C15,27.4477262 14.5523787,27 14.0002344,27 C13.4476213,27 13,27.4477262 13,28 C13,28.5522738 13.4476213,29 14.0002344,29 C14.5523787,29 15,28.5522738 15,28" id="Fill-27" fill="#4D5862"></path>
                    </g>
                    <g id="Group-2" transform="translate(24.000000, 0.000000)">
                        <rect id="Rectangle" stroke="#FF6A38" x="0.5" y="0.5" width="7" height="45" rx="3.5"></rect>
                        <path d="M0,19 L8,19 L8,42 L8,42 C8,44.209139 6.209139,46 4,46 L4,46 L4,46 C1.790861,46 2.705415e-16,44.209139 0,42 L0,19 Z" id="Rectangle" fill="#FF6A38"></path>
                    </g>
                </g>
                <path d="M78.47,9.051 L82.096,9.051 L82.096,10.493 L78.47,10.493 L78.47,9.051 Z M88.466,10.045 L88.466,14 L86.583,14 L86.583,3.878 L89.67,3.878 C90.3606701,3.878 90.9521642,3.94916595 91.4445,4.0915 C91.9368358,4.23383405 92.3404984,4.43333205 92.6555,4.69 C92.9705016,4.94666795 93.2014993,5.25349822 93.3485,5.6105 C93.4955007,5.96750178 93.569,6.36066452 93.569,6.79 C93.569,7.13066837 93.5188338,7.45266515 93.4185,7.756 C93.3181662,8.05933485 93.1735009,8.33466543 92.9845,8.582 C92.7954991,8.82933457 92.5621681,9.0463324 92.2845,9.233 C92.0068319,9.4196676 91.6906684,9.56899944 91.336,9.681 C91.5740012,9.81633401 91.7793325,10.0099987 91.952,10.262 L94.486,14 L92.792,14 C92.6286659,14 92.4898339,13.9673337 92.3755,13.902 C92.2611661,13.8366663 92.1643337,13.7433339 92.085,13.622 L89.957,10.381 C89.8776663,10.2596661 89.7901671,10.1733336 89.6945,10.122 C89.5988329,10.0706664 89.4576676,10.045 89.271,10.045 L88.466,10.045 Z M88.466,8.694 L89.642,8.694 C89.9966684,8.694 90.305832,8.64966711 90.5695,8.561 C90.833168,8.47233289 91.0501658,8.34983412 91.2205,8.1935 C91.3908342,8.03716589 91.5179996,7.85166774 91.602,7.637 C91.6860004,7.42233226 91.728,7.18666795 91.728,6.93 C91.728,6.4166641 91.558835,6.02233471 91.2205,5.747 C90.882165,5.47166529 90.3653368,5.334 89.67,5.334 L88.466,5.334 L88.466,8.694 Z M97.909,14.063 C97.3629973,13.988333 96.8508357,13.8390011 96.3725,13.615 C95.8941643,13.3909989 95.4870017,13.113335 95.151,12.782 L95.683,11.991 C95.7296669,11.9209996 95.7914996,11.8638336 95.8685,11.8195 C95.9455004,11.7751664 96.0259996,11.753 96.11,11.753 C96.2126672,11.753 96.3223327,11.7891663 96.439,11.8615 C96.5556672,11.9338337 96.6886659,12.0189995 96.838,12.117 C96.9873341,12.2150005 97.1576657,12.3129995 97.349,12.411 C97.5403343,12.5090005 97.7666654,12.5813331 98.028,12.628 L98.294,9.492 C97.962665,9.3986662 97.634835,9.28900063 97.3105,9.163 C96.986165,9.03699937 96.6945013,8.87016771 96.4355,8.6625 C96.1764987,8.45483229 95.9676675,8.19233492 95.809,7.875 C95.6503325,7.55766508 95.571,7.16100238 95.571,6.685 C95.571,6.33033156 95.642166,5.98383502 95.7845,5.6455 C95.926834,5.30716497 96.133332,5.00500133 96.404,4.739 C96.674668,4.47299867 97.0083313,4.25366753 97.405,4.081 C97.8016686,3.90833247 98.2566641,3.81033345 98.77,3.787 L98.847,2.905 C98.8563334,2.79299944 98.9029996,2.69266711 98.987,2.604 C99.0710004,2.51533289 99.180666,2.471 99.316,2.471 L99.953,2.471 L99.834,3.85 C100.328669,3.92933373 100.755665,4.06933233 101.115,4.27 C101.474335,4.47066767 101.786999,4.69699874 102.053,4.949 L101.633,5.586 C101.567666,5.6793338 101.502334,5.7493331 101.437,5.796 C101.371666,5.8426669 101.292334,5.866 101.199,5.866 C101.129,5.866 101.046167,5.84383355 100.9505,5.7995 C100.854833,5.75516645 100.745167,5.70150032 100.6215,5.6385 C100.497833,5.57549969 100.361334,5.51133366 100.212,5.446 C100.062666,5.38066634 99.8970009,5.32700021 99.715,5.285 L99.47,8.183 C99.8060017,8.28566718 100.138498,8.39883272 100.4675,8.5225 C100.796502,8.64616729 101.092832,8.80599902 101.3565,9.002 C101.620168,9.19800098 101.833666,9.44183188 101.997,9.7335 C102.160334,10.0251681 102.242,10.3903311 102.242,10.829 C102.242,11.2630022 102.169667,11.6701648 102.025,12.0505 C101.880333,12.4308352 101.669168,12.7668319 101.3915,13.0585 C101.113832,13.3501681 100.772002,13.5869991 100.366,13.769 C99.959998,13.9510009 99.4956693,14.0606665 98.973,14.098 L98.889,15.127 C98.8796666,15.2343339 98.8330004,15.3334995 98.749,15.4245 C98.6649996,15.5155005 98.555334,15.561 98.42,15.561 L97.783,15.561 L97.909,14.063 Z M100.604,11.095 C100.604,10.9176658 100.5725,10.7625007 100.5095,10.6295 C100.4465,10.4964993 100.357834,10.3786672 100.2435,10.276 C100.129166,10.1733328 99.9950008,10.084667 99.841,10.01 C99.6869992,9.93533296 99.5190009,9.86766697 99.337,9.807 L99.099,12.649 C99.5936691,12.5836663 99.9681654,12.4168347 100.2225,12.1485 C100.476835,11.8801653 100.604,11.5290022 100.604,11.095 Z M97.202,6.517 C97.202,6.69433422 97.232333,6.85066599 97.293,6.986 C97.353667,7.12133401 97.4388328,7.24149947 97.5485,7.3465 C97.6581672,7.45150052 97.7876659,7.54483292 97.937,7.6265 C98.0863341,7.70816707 98.2496658,7.78166634 98.427,7.847 L98.644,5.257 C98.387332,5.28966683 98.1680009,5.34449961 97.986,5.4215 C97.8039991,5.49850038 97.6546672,5.59299944 97.538,5.705 C97.4213328,5.81700056 97.3361669,5.94183264 97.2825,6.0795 C97.2288331,6.21716735 97.202,6.36299923 97.202,6.517 Z M113.162,3.878 L113.162,4.627 C113.162,4.85100112 113.1375,5.03183264 113.0885,5.1695 C113.0395,5.30716735 112.991667,5.4226662 112.945,5.516 L109.116,13.412 C109.036666,13.5753341 108.924667,13.7141661 108.78,13.8285 C108.635333,13.9428339 108.439335,14 108.192,14 L106.939,14 L110.859,6.265 C111.022334,5.94766508 111.204332,5.67466781 111.405,5.446 L106.561,5.446 C106.453666,5.446 106.360334,5.40633373 106.281,5.327 C106.201666,5.24766627 106.162,5.15433387 106.162,5.047 L106.162,3.878 L113.162,3.878 Z M114.17,12.936 C114.17,12.8053327 114.1945,12.6828339 114.2435,12.5685 C114.2925,12.4541661 114.361333,12.3538338 114.45,12.2675 C114.538667,12.1811662 114.645999,12.1135002 114.772,12.0645 C114.898001,12.0154998 115.035666,11.991 115.185,11.991 C115.362334,11.991 115.516333,12.0224997 115.647,12.0855 C115.777667,12.1485003 115.887333,12.2348328 115.976,12.3445 C116.064667,12.4541672 116.13,12.580166 116.172,12.7225 C116.214,12.864834 116.235,13.0153325 116.235,13.174 C116.235,13.3980011 116.201167,13.6336654 116.1335,13.881 C116.065833,14.1283346 115.966667,14.3756654 115.836,14.623 C115.705333,14.8703346 115.544334,15.1106655 115.353,15.344 C115.161666,15.5773345 114.942335,15.791999 114.695,15.988 L114.394,15.715 C114.31,15.6449997 114.268,15.5586672 114.268,15.456 C114.268,15.4186665 114.280833,15.3766669 114.3065,15.33 C114.332167,15.2833331 114.363666,15.2413335 114.401,15.204 C114.452334,15.1479997 114.515333,15.0791671 114.59,14.9975 C114.664667,14.9158329 114.739333,14.8225005 114.814,14.7175 C114.888667,14.6124995 114.9575,14.4981673 115.0205,14.3745 C115.0835,14.2508327 115.129,14.1190007 115.157,13.979 C115.012333,13.979 114.879334,13.9521669 114.758,13.8985 C114.636666,13.8448331 114.532834,13.7713338 114.4465,13.678 C114.360166,13.5846662 114.2925,13.4750006 114.2435,13.349 C114.1945,13.2229994 114.17,13.0853341 114.17,12.936 Z M124.53,8.939 C124.53,9.82100441 124.435501,10.5874967 124.2465,11.2385 C124.057499,11.8895033 123.796168,12.4273312 123.4625,12.852 C123.128832,13.2766688 122.734502,13.5928323 122.2795,13.8005 C121.824498,14.0081677 121.333336,14.112 120.806,14.112 C120.278664,14.112 119.789836,14.0081677 119.3395,13.8005 C118.889164,13.5928323 118.498335,13.2766688 118.167,12.852 C117.835665,12.4273312 117.576668,11.8895033 117.39,11.2385 C117.203332,10.5874967 117.11,9.82100441 117.11,8.939 C117.11,8.0523289 117.203332,7.28466991 117.39,6.636 C117.576668,5.98733009 117.835665,5.45066879 118.167,5.026 C118.498335,4.60133121 118.889164,4.2851677 119.3395,4.0775 C119.789836,3.8698323 120.278664,3.766 120.806,3.766 C121.333336,3.766 121.824498,3.8698323 122.2795,4.0775 C122.734502,4.2851677 123.128832,4.60133121 123.4625,5.026 C123.796168,5.45066879 124.057499,5.98733009 124.2465,6.636 C124.435501,7.28466991 124.53,8.0523289 124.53,8.939 Z M122.745,8.939 C122.745,8.20632967 122.691334,7.59966907 122.584,7.119 C122.476666,6.63833093 122.333168,6.25566809 122.1535,5.971 C121.973832,5.68633191 121.767335,5.48683391 121.534,5.3725 C121.300666,5.25816609 121.058001,5.201 120.806,5.201 C120.558665,5.201 120.319501,5.25816609 120.0885,5.3725 C119.857499,5.48683391 119.653334,5.68633191 119.476,5.971 C119.298666,6.25566809 119.157501,6.63833093 119.0525,7.119 C118.947499,7.59966907 118.895,8.20632967 118.895,8.939 C118.895,9.67167033 118.947499,10.2783309 119.0525,10.759 C119.157501,11.2396691 119.298666,11.6223319 119.476,11.907 C119.653334,12.1916681 119.857499,12.3911661 120.0885,12.5055 C120.319501,12.6198339 120.558665,12.677 120.806,12.677 C121.058001,12.677 121.300666,12.6198339 121.534,12.5055 C121.767335,12.3911661 121.973832,12.1916681 122.1535,11.907 C122.333168,11.6223319 122.476666,11.2396691 122.584,10.759 C122.691334,10.2783309 122.745,9.67167033 122.745,8.939 Z M132.65,8.939 C132.65,9.82100441 132.555501,10.5874967 132.3665,11.2385 C132.177499,11.8895033 131.916168,12.4273312 131.5825,12.852 C131.248832,13.2766688 130.854502,13.5928323 130.3995,13.8005 C129.944498,14.0081677 129.453336,14.112 128.926,14.112 C128.398664,14.112 127.909836,14.0081677 127.4595,13.8005 C127.009164,13.5928323 126.618335,13.2766688 126.287,12.852 C125.955665,12.4273312 125.696668,11.8895033 125.51,11.2385 C125.323332,10.5874967 125.23,9.82100441 125.23,8.939 C125.23,8.0523289 125.323332,7.28466991 125.51,6.636 C125.696668,5.98733009 125.955665,5.45066879 126.287,5.026 C126.618335,4.60133121 127.009164,4.2851677 127.4595,4.0775 C127.909836,3.8698323 128.398664,3.766 128.926,3.766 C129.453336,3.766 129.944498,3.8698323 130.3995,4.0775 C130.854502,4.2851677 131.248832,4.60133121 131.5825,5.026 C131.916168,5.45066879 132.177499,5.98733009 132.3665,6.636 C132.555501,7.28466991 132.65,8.0523289 132.65,8.939 Z M130.865,8.939 C130.865,8.20632967 130.811334,7.59966907 130.704,7.119 C130.596666,6.63833093 130.453168,6.25566809 130.2735,5.971 C130.093832,5.68633191 129.887335,5.48683391 129.654,5.3725 C129.420665,5.25816609 129.178001,5.201 128.926,5.201 C128.678665,5.201 128.439501,5.25816609 128.2085,5.3725 C127.977499,5.48683391 127.773334,5.68633191 127.596,5.971 C127.418666,6.25566809 127.277501,6.63833093 127.1725,7.119 C127.067499,7.59966907 127.015,8.20632967 127.015,8.939 C127.015,9.67167033 127.067499,10.2783309 127.1725,10.759 C127.277501,11.2396691 127.418666,11.6223319 127.596,11.907 C127.773334,12.1916681 127.977499,12.3911661 128.2085,12.5055 C128.439501,12.6198339 128.678665,12.677 128.926,12.677 C129.178001,12.677 129.420665,12.6198339 129.654,12.5055 C129.887335,12.3911661 130.093832,12.1916681 130.2735,11.907 C130.453168,11.6223319 130.596666,11.2396691 130.704,10.759 C130.811334,10.2783309 130.865,9.67167033 130.865,8.939 Z" id="--R$-7,00" fill="#FF9268"></path>
                <g id="Group-10" transform="translate(0.000000, 2.000000)">
                    <g id="Group-9-Copy" transform="translate(51.318530, 50.259356) rotate(45.000000) translate(-51.318530, -50.259356) translate(43.318530, 46.759356)" stroke="#7A8BDB" stroke-linecap="round">
                        <path d="M8.10755452,0.561284627 L8.10755452,5.08481283" id="Line-Copy-4"></path>
                        <path d="M15.4342636,2.58009431 L13.0056921,6.22295145" id="Line-Copy-5"></path>
                        <path d="M3.28299577,2.58009431 L0.854424341,6.22295145" id="Line-Copy-6" transform="translate(2.068710, 4.401523) scale(-1, 1) translate(-2.068710, -4.401523) "></path>
                    </g>
                    <g id="Group-7">
                        <g id="Page-1-Copy" transform="translate(0.000000, 53.000000)">
                            <path d="M60,27.5 C60,23.9100387 57.0899613,21 53.5,21 C49.9100387,21 47,23.9100387 47,27.5 C47,31.0899613 49.9100387,34 53.5,34 C57.0899613,34 60,31.0899613 60,27.5" id="Fill-1" fill="#FFFFFF"></path>
                            <path d="M22,27.5 C22,23.9100387 19.0899613,21 15.5,21 C11.9100387,21 9,23.9100387 9,27.5 C9,31.0899613 11.9100387,34 15.5,34 C19.0899613,34 22,31.0899613 22,27.5" id="Fill-5" fill="#FFFFFF"></path>
                            <path d="M57.3852306,27 L7.70575884,27 C3.45013941,27 0,23.6025955 0,19.4111166 L0,14.7157199 C0,13.2157199 1.23506936,12 2.75727743,12 L57.3852306,12 C61.5908804,12 65,15.3577375 65,19.5 L65,19.5 C65,23.6422625 61.5908804,27 57.3852306,27" id="Fill-9" fill="#FFFFFF"></path>
                            <path d="M57.3852306,27 L7.70575884,27 C3.45013941,27 0,23.6025955 0,19.4111166 L0,14.7157199 C0,13.2157199 1.23506936,12 2.75727743,12 L57.3852306,12 C61.5908804,12 65,15.3577375 65,19.5 L65,19.5 C65,23.6422625 61.5908804,27 57.3852306,27 Z" id="Stroke-11" stroke="#4D5862" stroke-linecap="round" stroke-linejoin="round"></path>
                            <path d="M52,12 L10,12 L10,3.7762563 C10,1.69047927 11.6380315,0 13.6590966,0 L38.6426451,0 C42.6359572,0 46.3348593,2.17103733 48.3762026,5.71244025 L52,12 Z" id="Stroke-13" stroke="#4D5862" stroke-linecap="round" stroke-linejoin="round"></path>
                            <path d="M59,27.5 C59,23.9100387 56.0899613,21 52.5,21 C48.9100387,21 46,23.9100387 46,27.5 C46,31.0899613 48.9100387,34 52.5,34 C56.0899613,34 59,31.0899613 59,27.5" id="Fill-15" fill="#FFFFFF"></path>
                            <path d="M59,27.5 C59,23.9100387 56.0899613,21 52.5,21 C48.9100387,21 46,23.9100387 46,27.5 C46,31.0899613 48.9100387,34 52.5,34 C56.0899613,34 59,31.0899613 59,27.5 Z" id="Stroke-17" stroke="#4D5862" stroke-linecap="round" stroke-linejoin="round"></path>
                            <path d="M20,27.5 C20,23.9100387 17.0899613,21 13.5,21 C9.91003874,21 7,23.9100387 7,27.5 C7,31.0899613 9.91003874,34 13.5,34 C17.0899613,34 20,31.0899613 20,27.5" id="Fill-19" fill="#FFFFFF"></path>
                            <path d="M20,27.5 C20,23.9100387 17.0899613,21 13.5,21 C9.91003874,21 7,23.9100387 7,27.5 C7,31.0899613 9.91003874,34 13.5,34 C17.0899613,34 20,31.0899613 20,27.5 Z" id="Stroke-21" stroke="#4D5862" stroke-linecap="round" stroke-linejoin="round"></path>
                            <path d="M31,16 L36,16" id="Stroke-23" stroke="#4D5862" stroke-linecap="round" stroke-linejoin="round"></path>
                            <path d="M53,28 C53,27.4477262 52.5523787,27 52.0002344,27 C51.4476213,27 51,27.4477262 51,28 C51,28.5522738 51.4476213,29 52.0002344,29 C52.5523787,29 53,28.5522738 53,28" id="Fill-25" fill="#4D5862"></path>
                            <path d="M15,28 C15,27.4477262 14.5523787,27 14.0002344,27 C13.4476213,27 13,27.4477262 13,28 C13,28.5522738 13.4476213,29 14.0002344,29 C14.5523787,29 15,28.5522738 15,28" id="Fill-27" fill="#4D5862"></path>
                        </g>
                        <g id="Group-7-Copy" transform="translate(24.000000, 0.000000)">
                            <rect id="Rectangle" stroke="#FF6A38" x="0.5" y="0.5" width="7" height="45" rx="3.5"></rect>
                            <path d="M0,12.1052632 L8,12.1052632 L8,42 L8,42 C8,44.209139 6.209139,46 4,46 L4,46 L4,46 C1.790861,46 7.37596886e-15,44.209139 7.10542736e-15,42 L0,12.1052632 Z" id="Rectangle" fill="#FF6A38"></path>
                            <rect id="Rectangle" fill="#FF9268" x="1" y="10.8947368" width="6" height="6.05263158"></rect>
                        </g>
                    </g>
                </g>
            </g>
        </g>
    </g>
</svg>