<?xml version="1.0" encoding="UTF-8"?>
<svg width="189px" height="55px" viewBox="0 0 189 55" version="1.1" xmlns="http://www.w3.org/2000/svg" xmlns:xlink="http://www.w3.org/1999/xlink">
    <!-- Generator: Sketch 45.2 (43514) - http://www.bohemiancoding.com/sketch -->
    <title>ic Como funcionam os planos</title>
    <desc>Created with Sketch.</desc>
    <defs></defs>
    <g id="Planos-Mobile" stroke="none" stroke-width="1" fill="none" fill-rule="evenodd" stroke-linejoin="round">
        <g id="2-Plano-Urbano" transform="translate(-83.000000, -719.000000)">
            <g id="ic-Como-funcionam-os-planos" transform="translate(84.000000, 720.000000)">
                <g id="Group" transform="translate(-0.497354, 0.000000)">
                    <g id="Group-6" stroke-linecap="round">
                        <g id="Group-8" transform="translate(22.911111, 0.000000)">
                            <polygon id="Stroke-717-Copy" stroke="#4D5862" points="21.7788881 45.0714026 30.3639172 45.0714026 30.3639172 21.4625727 21.7788881 21.4625727"></polygon>
                            <path d="M21.5837346,20.9260084 L0.833517249,0.17579105" id="Stroke-718-Copy" stroke="#809AE0"></path>
                            <path d="M21.7788881,28.9744731 L29.2457171,21.4625727" id="Stroke-719-Copy" stroke="#4D5862"></path>
                            <path d="M21.7788881,36.4777885 L30.3639172,27.9013445" id="Stroke-720-Copy" stroke="#4D5862"></path>
                            <path d="M21.7788881,45.0714026 L30.3639172,36.4863735" id="Stroke-721-Copy" stroke="#4D5862"></path>
                        </g>
                        <g id="Page-1" transform="translate(0.278783, 18.095703)" stroke="#4D5862">
                            <path d="M29.4878953,25.886686 L29.4878953,27.6449018 C29.4878953,28.6585482 30.3172423,29.4878953 31.3308887,29.4878953 L33.1738822,29.4878953 C34.1875286,29.4878953 35.0168756,28.6585482 35.0168756,27.6449018 L35.0168756,16.0100841 C35.0168756,13.9514604 34.6722358,11.9094237 33.9977002,9.9650656 L31.1834492,1.86142339 C30.8148505,0.77405725 29.7827742,0 28.5663985,0 L8.29347054,0 C7.07709486,0 6.06344846,0.77405725 5.67641984,1.86142339 L2.86216883,9.9650656 C2.18763323,11.9094237 1.84299345,13.9514604 1.84299345,16.0100841 L1.84299345,27.6449018 C1.84299345,28.6585482 2.67234051,29.4878953 3.68598691,29.4878953 L5.52898036,29.4878953 C6.54262676,29.4878953 7.37197381,28.6585482 7.37197381,27.6449018 L7.37197381,25.8700991" id="Stroke-1"></path>
                            <path d="M33.719221,9.21496727 C33.719221,10.6525022 32.5617801,11.1114075 31.8736222,11.1114075 L4.96683099,11.1114075 C4.27867302,11.1114075 3.1917173,10.4442439 3.1917173,9.23708319" id="Stroke-3"></path>
                            <path d="M35.0555785,23.9589149 C35.0555785,25.3964498 33.796814,25.8553552 33.0485586,25.8553552 L3.77629359,25.8553552 C3.02619525,25.8553552 1.84299345,25.1881915 1.84299345,23.9810308" id="Stroke-5"></path>
                            <path d="M7.46412349,18.6142339 C6.39334429,18.6142339 5.52898036,17.74987 5.52898036,16.6790908 C5.52898036,15.6083116 6.39334429,14.7439476 7.46412349,14.7439476 C8.53490268,14.7439476 9.39926661,15.6083116 9.39926661,16.6790908 C9.39926661,17.74987 8.53490268,18.6142339 7.46412349,18.6142339 Z" id="Stroke-7"></path>
                            <path d="M29.5800449,18.6142339 C28.5092657,18.6142339 27.6449018,17.74987 27.6449018,16.6790908 C27.6449018,15.6083116 28.5092657,14.7439476 29.5800449,14.7439476 C30.6508241,14.7439476 31.5151881,15.6083116 31.5151881,16.6790908 C31.5151881,17.74987 30.6508241,18.6142339 29.5800449,18.6142339 Z" id="Stroke-9"></path>
                            <path d="M35.0168756,7.37197381 L37.0681273,7.37197381" id="Stroke-11"></path>
                            <path d="M0,7.37197381 L2.24660902,7.37197381" id="Stroke-13"></path>
                        </g>
                    </g>
                    <g id="Group-4" transform="translate(89.000000, 20.000000)" stroke-linecap="round">
                        <path d="M21.7008384,24.8009582 L4.13349303,24.8009582 C1.85180488,24.8009582 0,22.9470866 0,20.6674652 L0,4.13349303 C0,1.84973813 1.85180488,0 4.13349303,0 L31.0011977,0 C33.2849526,0 35.1346908,1.84973813 35.1346908,4.13349303 L35.1346908,17.5673454" id="Stroke-446" stroke="#4D5862"></path>
                        <path d="M0,6.20023955 L35.1346908,6.20023955" id="Stroke-447" stroke="#4D5862"></path>
                        <path d="M16.5339721,10.3337326 L6.20023955,10.3337326" id="Stroke-448" stroke="#4D5862"></path>
                        <path d="M31.0011977,10.3337326 L26.8677047,10.3337326" id="Stroke-449" stroke="#4D5862"></path>
                        <path d="M12.4004791,14.4672256 L6.20023955,14.4672256" id="Stroke-450" stroke="#4D5862"></path>
                        <g id="Group-5" transform="translate(25.024390, 20.390244)" stroke="#809AE0">
                            <polyline id="Stroke-451" points="12.5356417 1.15784698 12.5356417 4.60242451 9.09106417 4.60242451"></polyline>
                            <path d="M0.135162602,4.60242451 C0.985284335,2.19535373 3.6362312,0.468931475 6.33540215,0.468931475 C9.0345731,0.468931475 11.68552,2.19535373 12.5356417,4.60242451" id="Stroke-452"></path>
                            <polyline id="Stroke-453" points="0.135162602 12.1804951 0.135162602 8.73591754 3.57974013 8.73591754"></polyline>
                            <path d="M12.5356417,8.73591754 C11.68552,11.1443661 9.0345731,12.8694106 6.33540215,12.8694106 C3.6362312,12.8694106 0.985284335,11.1443661 0.135162602,8.73591754" id="Stroke-454"></path>
                        </g>
                    </g>
                    <g id="Group-9" transform="translate(165.000000, 11.000000)">
                        <path d="M23,37.1538462 C23,39.1070769 21.4165385,40.6923077 19.4615385,40.6923077 L3.53846154,40.6923077 C1.58523077,40.6923077 0,39.1070769 0,37.1538462 L0,3.53846154 C0,1.58346154 1.58523077,0 3.53846154,0 L19.4615385,0 C21.4165385,0 23,1.58346154 23,3.53846154 L23,37.1538462 Z" id="Stroke-347" stroke="#4D5862" stroke-linecap="round"></path>
                        <path d="M23,33.6153846 L0,33.6153846" id="Stroke-348" stroke="#4D5862" stroke-linecap="round"></path>
                        <path d="M23,7.07692308 L0,7.07692308" id="Stroke-349" stroke="#4D5862" stroke-linecap="round"></path>
                        <path d="M7.07692308,3.53846154 L15.9230769,3.53846154" id="Stroke-350" stroke="#4D5862" stroke-linecap="round"></path>
                        <path d="M11.5,38.0384615 C11.0116923,38.0384615 10.6153846,37.6403846 10.6153846,37.1538462 C10.6153846,36.6637692 11.0116923,36.2692308 11.5,36.2692308 C11.9883077,36.2692308 12.3846154,36.6637692 12.3846154,37.1538462 C12.3846154,37.6403846 11.9883077,38.0384615 11.5,38.0384615 Z" id="Stroke-351" stroke="#4D5862"></path>
                        <polyline id="Stroke-352" stroke="#809AE0" stroke-linecap="round" points="5.30769231 21.2307692 8.84615385 24.7692308 17.6923077 15.9230769"></polyline>
                    </g>
                </g>
            </g>
        </g>
    </g>
</svg>