<?xml version="1.0" encoding="UTF-8"?>
<svg width="182px" height="62px" viewBox="0 0 182 62" version="1.1" xmlns="http://www.w3.org/2000/svg" xmlns:xlink="http://www.w3.org/1999/xlink">
    <!-- Generator: Sketch 45.2 (43514) - http://www.bohemiancoding.com/sketch -->
    <title>ic Como empresa</title>
    <desc>Created with Sketch.</desc>
    <defs>
        <path d="M6.451,0.512 C5.234,0.512 4.221,1.286 3.833,2.373 L1.019,10.477 C0.344,12.422 0,14.464 0,16.522 L0,28.157 C0,29.171 0.829,30 1.843,30 L3.686,30 C4.699,30 5.529,29.171 5.529,28.157 L5.529,26.383 L27.645,26.399 L27.645,28.157 C27.645,29.171 28.475,30 29.488,30 L31.331,30 C32.345,30 33.174,29.171 33.174,28.157 L33.174,16.522 C33.174,14.464 32.829,12.422 32.155,10.477 L29.34,2.373 C28.972,1.286 27.94,0.512 26.723,0.512 L6.451,0.512 Z" id="path-1"></path>
    </defs>
    <g id="Planos-Mobile" stroke="none" stroke-width="1" fill="none" fill-rule="evenodd">
        <g id="1-Plano-Livre" transform="translate(-89.000000, -972.000000)">
            <g id="Group-2" transform="translate(29.000000, 970.000000)">
                <g id="ic-Como-Empresa" transform="translate(57.000000, 0.000000)">
                    <path d="M178.9913,56.1345 C178.9913,57.7255 177.5983,58.2335 176.7693,58.2335 L135.8473,58.2335 C135.0173,58.2335 133.7073,57.4955 133.7073,56.1585" id="Stroke-18" stroke="#4D5862" stroke-linecap="round" stroke-linejoin="round"></path>
                    <path d="M138.9295,54.9036 C137.8625,54.9036 137.0015,54.0426 137.0015,52.9756 C137.0015,51.9096 137.8625,51.0476 138.9295,51.0476 C139.9965,51.0476 140.8575,51.9096 140.8575,52.9756 C140.8575,54.0426 139.9965,54.9036 138.9295,54.9036 Z" id="Stroke-20" stroke="#4D5862" stroke-linecap="round" stroke-linejoin="round"></path>
                    <path d="M138.9295,49.2423 C137.8625,49.2423 137.0015,48.3813 137.0015,47.3143 C137.0015,46.2483 137.8625,45.3863 138.9295,45.3863 C139.9965,45.3863 140.8575,46.2483 140.8575,47.3143 C140.8575,48.3813 139.9965,49.2423 138.9295,49.2423 Z" id="Stroke-22" stroke="#4D5862" stroke-linecap="round" stroke-linejoin="round"></path>
                    <path d="M174.0504,54.9036 C172.9834,54.9036 172.1224,54.0426 172.1224,52.9756 C172.1224,51.9096 172.9834,51.0476 174.0504,51.0476 C175.1174,51.0476 175.9784,51.9096 175.9784,52.9756 C175.9784,54.0426 175.1174,54.9036 174.0504,54.9036 Z" id="Stroke-24" stroke="#4D5862" stroke-linecap="round" stroke-linejoin="round"></path>
                    <path d="M174.0504,49.2423 C172.9834,49.2423 172.1224,48.3813 172.1224,47.3143 C172.1224,46.2483 172.9834,45.3863 174.0504,45.3863 C175.1174,45.3863 175.9784,46.2483 175.9784,47.3143 C175.9784,48.3813 175.1174,49.2423 174.0504,49.2423 Z" id="Stroke-26" stroke="#4D5862" stroke-linecap="round" stroke-linejoin="round"></path>
                    <path d="M177.5241,34.3453 C177.5241,35.9363 176.1651,36.4443 175.3561,36.4443 L137.2651,36.4443 C136.4561,36.4443 135.1801,35.7063 135.1801,34.3693" id="Stroke-28" stroke="#4D5862" stroke-linecap="round" stroke-linejoin="round"></path>
                    <path d="M135.1798,19.2726 C135.1798,17.6816 136.5388,17.1736 137.3478,17.1736 L175.4388,17.1736 C176.2478,17.1736 177.5238,17.9116 177.5238,19.2486" id="Stroke-30" stroke="#4D5862" stroke-linecap="round" stroke-linejoin="round"></path>
                    <path d="M135.2116,12 L135.2116,3.385 C135.2116,2.896 135.6076,2.5 136.0966,2.5 L176.6546,2.5 C177.1436,2.5 177.5396,2.896 177.5396,3.385 L177.5396,12" id="Stroke-32" stroke="#4D5862" stroke-linecap="round" stroke-linejoin="round"></path>
                    <path d="M171.8916,58.2683 L171.8916,61.4283 C171.8916,62.5503 172.8096,63.4683 173.9316,63.4683 L175.9716,63.4683 C177.0936,63.4683 178.0116,62.5503 178.0116,61.4283 L178.0116,58.2333" id="Stroke-34" stroke="#4D5862" stroke-linecap="round" stroke-linejoin="round"></path>
                    <path d="M135.1798,58.2683 L135.1798,61.4283 C135.1798,62.5503 136.0978,63.4683 137.2198,63.4683 L139.2598,63.4683 C140.3818,63.4683 141.2998,62.5503 141.2998,61.4283 L141.2998,58.2333" id="Stroke-36" stroke="#4D5862" stroke-linecap="round" stroke-linejoin="round"></path>
                    <path d="M133.7076,56.159 L133.7076,43.125 C133.7076,41.125 135.2116,40.75 135.2116,40.75 L135.2116,14.984 C135.2116,13.612 136.3236,12.5 137.6956,12.5 L175.0546,12.5 C176.4266,12.5 177.5396,13.612 177.5396,14.984 L177.5396,40.75 C177.5396,40.75 179.0116,41.063 179.0116,43.118 L179.0116,56.135" id="Stroke-38" stroke="#4D5862" stroke-linecap="round" stroke-linejoin="round"></path>
                    <path d="M181.7413,31.25 L181.7413,31.25 C180.5673,31.25 179.6163,30.299 179.6163,29.125 L179.6163,24.375 C179.6163,23.201 180.5673,22.25 181.7413,22.25 C182.9153,22.25 183.8663,23.201 183.8663,24.375 L183.8663,29.125 C183.8663,30.299 182.9153,31.25 181.7413,31.25 Z" id="Stroke-40" stroke="#4D5862" stroke-linecap="round" stroke-linejoin="round"></path>
                    <path d="M130.8663,31.25 L130.8663,31.25 C129.6923,31.25 128.7413,30.299 128.7413,29.125 L128.7413,24.375 C128.7413,23.201 129.6923,22.25 130.8663,22.25 L130.8663,22.25 C132.0403,22.25 132.9913,23.201 132.9913,24.375 L132.9913,29.125 C132.9913,30.299 132.0403,31.25 130.8663,31.25 Z" id="Stroke-42" stroke="#4D5862" stroke-linecap="round" stroke-linejoin="round"></path>
                    <g id="Group-2" fill-rule="evenodd" transform="translate(62.500000, 12.000000)" stroke="#4D5862" stroke-linecap="round" stroke-linejoin="round">
                        <path d="M44.1293,22.548 C44.1293,23.986 42.8723,24.444 42.1243,24.444 L4.8983,24.444 C4.1513,24.444 2.9703,23.777 2.9703,22.57" id="Stroke-44"></path>
                        <path d="M44.2126,43.292 C44.2126,44.73 42.9536,45.188 42.2056,45.188 L4.9336,45.188 C4.1836,45.188 2.9996,44.521 2.9996,43.314" id="Stroke-46"></path>
                        <path d="M8.6211,39.9473 C7.5501,39.9473 6.6861,39.0833 6.6861,38.0123 C6.6861,36.9413 7.5501,36.0773 8.6211,36.0773 C9.6921,36.0773 10.5561,36.9413 10.5561,38.0123 C10.5561,39.0833 9.6921,39.9473 8.6211,39.9473 Z" id="Stroke-48"></path>
                        <path d="M38.737,39.9473 C37.666,39.9473 36.802,39.0833 36.802,38.0123 C36.802,36.9413 37.666,36.0773 38.737,36.0773 C39.808,36.0773 40.672,36.9413 40.672,38.0123 C40.672,39.0833 39.808,39.9473 38.737,39.9473 Z" id="Stroke-50"></path>
                        <path d="M44.1433,27.3431 L44.1433,1.5611 C44.1433,0.8301 43.5503,0.2371 42.8193,0.2371 L4.3243,0.2371 C3.5933,0.2371 3.0003,0.8301 3.0003,1.5611 L3.0003,27.3431" id="Stroke-52"></path>
                        <path d="M8.529,45.2031 L8.529,47.9781 C8.529,48.9911 7.7,49.8211 6.686,49.8211 L4.843,49.8211 C3.829,49.8211 3,48.9911 3,47.9781 L3,27.3431 L3,6.8101 C3,5.7211 3.883,4.8381 4.972,4.8381 L42.151,4.8381 C43.237,4.8381 44.119,5.7171 44.123,6.8041 L44.174,27.3431 L44.174,47.9781 C44.174,48.9911 43.345,49.8211 42.331,49.8211 L40.488,49.8211 C39.474,49.8211 38.645,48.9911 38.645,47.9781 L38.645,45.2201" id="Stroke-54"></path>
                        <path d="M45.5747,11.3333 L44.1737,11.3333 L44.1737,16.7053 L45.5747,16.7053 C46.1267,16.7053 46.5747,16.2573 46.5747,15.7053 L46.5747,12.3333 C46.5747,11.7813 46.1267,11.3333 45.5747,11.3333 Z" id="Stroke-56"></path>
                        <path d="M2.9757,11.3333 L1.5747,11.3333 C1.0227,11.3333 0.5747,11.7813 0.5747,12.3333 L0.5747,15.7053 C0.5747,16.2573 1.0227,16.7053 1.5747,16.7053 L2.9757,16.7053 L2.9757,11.3333 Z" id="Stroke-58"></path>
                    </g>
                    <g id="Group-4" fill-rule="evenodd" transform="translate(4.000000, 31.000000)">
                        <g id="Group-6" transform="translate(0.000000, 1.000000)" stroke-linecap="round" stroke="#4D5862" stroke-linejoin="round">
                            <g id="Page-1" transform="translate(0.278783, 0.095703)">
                                <path d="M29.4878953,25.886686 L29.4878953,27.6449018 C29.4878953,28.6585482 30.3172423,29.4878953 31.3308887,29.4878953 L33.1738822,29.4878953 C34.1875286,29.4878953 35.0168756,28.6585482 35.0168756,27.6449018 L35.0168756,16.0100841 C35.0168756,13.9514604 34.6722358,11.9094237 33.9977002,9.9650656 L31.1834492,1.86142339 C30.8148505,0.77405725 29.7827742,0 28.5663985,0 L8.29347054,0 C7.07709486,0 6.06344846,0.77405725 5.67641984,1.86142339 L2.86216883,9.9650656 C2.18763323,11.9094237 1.84299345,13.9514604 1.84299345,16.0100841 L1.84299345,27.6449018 C1.84299345,28.6585482 2.67234051,29.4878953 3.68598691,29.4878953 L5.52898036,29.4878953 C6.54262676,29.4878953 7.37197381,28.6585482 7.37197381,27.6449018 L7.37197381,25.8700991" id="Stroke-1" fill="#FFFFFF"></path>
                                <path d="M33.719221,9.21496727 C33.719221,10.6525022 32.5617801,11.1114075 31.8736222,11.1114075 L4.96683099,11.1114075 C4.27867302,11.1114075 3.1917173,10.4442439 3.1917173,9.23708319" id="Stroke-3"></path>
                                <path d="M35.0555785,23.9589149 C35.0555785,25.3964498 33.796814,25.8553552 33.0485586,25.8553552 L3.77629359,25.8553552 C3.02619525,25.8553552 1.84299345,25.1881915 1.84299345,23.9810308" id="Stroke-5"></path>
                                <path d="M7.46412349,18.6142339 C6.39334429,18.6142339 5.52898036,17.74987 5.52898036,16.6790908 C5.52898036,15.6083116 6.39334429,14.7439476 7.46412349,14.7439476 C8.53490268,14.7439476 9.39926661,15.6083116 9.39926661,16.6790908 C9.39926661,17.74987 8.53490268,18.6142339 7.46412349,18.6142339 Z" id="Stroke-7"></path>
                                <path d="M29.5800449,18.6142339 C28.5092657,18.6142339 27.6449018,17.74987 27.6449018,16.6790908 C27.6449018,15.6083116 28.5092657,14.7439476 29.5800449,14.7439476 C30.6508241,14.7439476 31.5151881,15.6083116 31.5151881,16.6790908 C31.5151881,17.74987 30.6508241,18.6142339 29.5800449,18.6142339 Z" id="Stroke-9"></path>
                                <path d="M35.0168756,7.37197381 L37.0681273,7.37197381" id="Stroke-11"></path>
                                <path d="M0,7.37197381 L2.24660902,7.37197381" id="Stroke-13"></path>
                            </g>
                        </g>
                        <g id="Group-3" transform="translate(2.000000, 0.487600)">
                            <mask id="mask-2" fill="white">
                                <use xlink:href="#path-1"></use>
                            </mask>
                            <g id="Clip-2"></g>
                            <polygon id="Fill-1" fill="#FFFFFF" mask="url(#mask-2)" points="-5 35 38.174 35 38.174 -4.488 -5 -4.488"></polygon>
                        </g>
                        <path d="M29.6449,26.8864 L29.6449,28.6444 C29.6449,29.6584 30.4739,30.4874 31.4879,30.4874 L33.3309,30.4874 C34.3449,30.4874 35.1739,29.6584 35.1739,28.6444 L35.1739,17.0094 C35.1739,14.9514 34.8289,12.9094 34.1549,10.9644 L31.3409,2.8614 C30.9719,1.7734 29.9399,0.9994 28.7239,0.9994 L8.4509,0.9994 C7.2339,0.9994 6.2209,1.7734 5.8339,2.8614 L3.0189,10.9644 C2.3449,12.9094 1.9999,14.9514 1.9999,17.0094 L1.9999,28.6444 C1.9999,29.6584 2.8289,30.4874 3.8429,30.4874 L5.6859,30.4874 C6.6999,30.4874 7.5289,29.6584 7.5289,28.6444 L7.5289,26.8694" id="Stroke-4" stroke="#4D5862" stroke-linecap="round" stroke-linejoin="round"></path>
                        <path d="M33.8762,10.2147 C33.8762,11.6527 32.7192,12.1107 32.0302,12.1107 L5.1242,12.1107 C4.4352,12.1107 3.3492,11.4437 3.3492,10.2367" id="Stroke-6" stroke="#4D5862" stroke-linecap="round" stroke-linejoin="round"></path>
                        <path d="M35.2126,24.9586 C35.2126,26.3966 33.9536,26.8546 33.2056,26.8546 L3.9336,26.8546 C3.1836,26.8546 1.9996,26.1876 1.9996,24.9806" id="Stroke-8" stroke="#4D5862" stroke-linecap="round" stroke-linejoin="round"></path>
                        <path d="M7.6211,19.6139 C6.5501,19.6139 5.6861,18.7499 5.6861,17.6789 C5.6861,16.6079 6.5501,15.7439 7.6211,15.7439 C8.6921,15.7439 9.5561,16.6079 9.5561,17.6789 C9.5561,18.7499 8.6921,19.6139 7.6211,19.6139 Z" id="Stroke-10" stroke="#4D5862" stroke-linecap="round" stroke-linejoin="round"></path>
                        <path d="M29.737,19.6139 C28.666,19.6139 27.802,18.7499 27.802,17.6789 C27.802,16.6079 28.666,15.7439 29.737,15.7439 C30.808,15.7439 31.672,16.6079 31.672,17.6789 C31.672,18.7499 30.808,19.6139 29.737,19.6139 Z" id="Stroke-12" stroke="#4D5862" stroke-linecap="round" stroke-linejoin="round"></path>
                        <path d="M0.157,8.3717 L2.404,8.3717" id="Stroke-16" stroke="#4D5862" stroke-linecap="round" stroke-linejoin="round"></path>
                    </g>
                    <path d="M21,35 L25,35" id="Line" stroke="#6777BF" stroke-linecap="round"></path>
                    <path d="M85,20 L89,20" id="Line-Copy" stroke="#6777BF" stroke-linecap="round"></path>
                    <path d="M156,20 L160,20" id="Line-Copy-2" stroke="#6777BF" stroke-linecap="round"></path>
                </g>
            </g>
        </g>
    </g>
</svg>