<?xml version="1.0" encoding="UTF-8"?>
<svg width="43px" height="32px" viewBox="0 0 43 32" version="1.1" xmlns="http://www.w3.org/2000/svg" xmlns:xlink="http://www.w3.org/1999/xlink">
    <!-- Generator: Sketch 45.2 (43514) - http://www.bohemiancoding.com/sketch -->
    <title>ic estacionamento</title>
    <desc>Created with Sketch.</desc>
    <defs></defs>
    <g id="Planos-Mobile" stroke="none" stroke-width="1" fill="none" fill-rule="evenodd" stroke-linecap="square">
        <g id="1-Plano-Livre-Expandido" transform="translate(-268.000000, -582.000000)">
            <g id="ic-estacionamento" transform="translate(268.000000, 583.000000)">
                <path d="M14.6307336,30.2484612 L14.6307336,0.518826674" id="Stroke-1-Copy-2" stroke="#4D5862"></path>
                <path d="M1.2192278,30.2484612 L1.2192278,0.561690152" id="Stroke-1-Copy-4" stroke="#4D5862"></path>
                <path d="M41.6241925,30.2484612 L41.6241925,0.609613901" id="Stroke-1-Copy" stroke="#4D5862"></path>
                <path d="M28.2126867,30.2484612 L28.2126867,0.488762707" id="Stroke-1-Copy-3" stroke="#4D5862"></path>
                <path d="M41.4268428,15.2403475 L1.2192278,15.2403475" id="Stroke-10" stroke="#4D5862"></path>
                <g id="Group-12" transform="translate(31.463415, 0.000000)" stroke="#4D5862">
                    <path d="M6.22173425,9.85687619 C6.22173425,10.8264526 5.43528543,11.6116933 4.46421738,11.6116933 L2.16447238,11.6116933 C1.19340433,11.6116933 0.406955507,10.8264526 0.406955507,9.85687619 L0.406955507,1.75481716 C0.406955507,0.785240762 1.19340433,0 2.16447238,0 L4.46421738,0 C5.43528543,0 6.22173425,0.785240762 6.22173425,1.75481716 L6.22173425,9.85687619 Z" id="Stroke-12"></path>
                    <path d="M5.89348061,7.92498071 L0.406955507,7.92498071" id="Stroke-14"></path>
                </g>
                <g id="Group-13" transform="translate(31.463415, 17.829268)" stroke="#4D5862">
                    <path d="M0.406955507,2.21396588 C0.406955507,1.24438949 1.19340433,0.459148723 2.16447238,0.459148723 L4.46421738,0.459148723 C5.43528543,0.459148723 6.22173425,1.24438949 6.22173425,2.21396588 L6.22173425,10.3160249 C6.22173425,11.2856013 5.43528543,12.0708421 4.46421738,12.0708421 L2.16447238,12.0708421 C1.19340433,12.0708421 0.406955507,11.2856013 0.406955507,10.3160249 L0.406955507,2.21396588 Z" id="Stroke-16"></path>
                    <path d="M1.01656941,3.50721823 L5.89348061,3.50721823" id="Stroke-18"></path>
                </g>
                <path d="M4.8769112,20.0432342 C4.8769112,19.0736578 5.66336003,18.288417 6.63442808,18.288417 L8.93417307,18.288417 C9.90524112,18.288417 10.6916899,19.0736578 10.6916899,20.0432342 L10.6916899,28.1452932 C10.6916899,29.1148696 9.90524112,29.9001104 8.93417307,29.9001104 L6.63442808,29.9001104 C5.66336003,29.9001104 4.8769112,29.1148696 4.8769112,28.1452932 L4.8769112,20.0432342 Z" id="Stroke-20" stroke="#4D5862"></path>
                <path d="M5.4865251,21.3364865 L10.3634363,21.3364865" id="Stroke-22" stroke="#4D5862"></path>
                <polyline id="Stroke-24" stroke="#7A8BDB" points="23.1418815 19.5076448 19.5076448 19.5076448 19.5076448 26.997187 23.1418815 26.997187"></polyline>
                <path d="M19.5076448,23.1653282 L22.4150342,23.1653282" id="Stroke-26" stroke="#7A8BDB"></path>
            </g>
        </g>
    </g>
</svg>