<?xml version="1.0" encoding="UTF-8"?>
<svg width="45px" height="40px" viewBox="0 0 45 40" version="1.1" xmlns="http://www.w3.org/2000/svg" xmlns:xlink="http://www.w3.org/1999/xlink">
    <!-- Generator: Sketch 45.2 (43514) - http://www.bohemiancoding.com/sketch -->
    <title>ic pedagio</title>
    <desc>Created with Sketch.</desc>
    <defs></defs>
    <g id="Planos-Mobile" stroke="none" stroke-width="1" fill="none" fill-rule="evenodd" stroke-linecap="round" stroke-linejoin="round">
        <g id="1-Plano-Livre-Expandido" transform="translate(-39.000000, -571.000000)">
            <g id="ic-pedagio" transform="translate(39.688822, 571.000000)">
                <g id="Group-8" transform="translate(18.646443, 0.000000)">
                    <polygon id="Stroke-717-Copy" stroke="#4D5862" points="17.7249721 36.6818247 24.7119863 36.6818247 24.7119863 17.4675356 17.7249721 17.4675356"></polygon>
                    <path d="M17.5661444,17.0308472 L0.678366588,0.143069354" id="Stroke-718-Copy" stroke="#809AE0"></path>
                    <path d="M17.7249721,23.581173 L23.8019277,17.4675356" id="Stroke-719-Copy" stroke="#4D5862"></path>
                    <path d="M17.7249721,29.6878234 L24.7119863,22.7077962" id="Stroke-720-Copy" stroke="#4D5862"></path>
                    <path d="M17.7249721,36.6818247 L24.7119863,29.6948105" id="Stroke-721-Copy" stroke="#4D5862"></path>
                </g>
                <g id="Page-1" transform="translate(0.226890, 14.727374)" stroke="#4D5862">
                    <path d="M23.9990269,21.0681457 L23.9990269,22.4990877 C23.9990269,23.3240543 24.6739995,23.9990269 25.4989661,23.9990269 L26.9989053,23.9990269 C27.8238718,23.9990269 28.4988445,23.3240543 28.4988445,22.4990877 L28.4988445,13.0299717 C28.4988445,11.3545396 28.2183558,9.69260699 27.6693781,8.11017116 L25.378971,1.51493857 C25.0789831,0.629974456 24.2390172,0 23.2490573,0 L6.74972632,0 C5.75976646,0 4.93479991,0.629974456 4.61981268,1.51493857 L2.32940555,8.11017116 C1.78042781,9.69260699 1.49993918,11.3545396 1.49993918,13.0299717 L1.49993918,22.4990877 C1.49993918,23.3240543 2.17491181,23.9990269 2.99987836,23.9990269 L4.49981754,23.9990269 C5.32478409,23.9990269 5.99975673,23.3240543 5.99975673,22.4990877 L5.99975673,21.0546463" id="Stroke-1"></path>
                    <path d="M27.4427349,7.49969591 C27.4427349,8.66964847 26.5007397,9.04313333 25.9406753,9.04313333 L4.0423065,9.04313333 C3.48224205,9.04313333 2.59761196,8.50015534 2.59761196,7.51769518" id="Stroke-3"></path>
                    <path d="M28.5303432,19.4992094 C28.5303432,20.6691619 27.5058847,21.0426468 26.8969094,21.0426468 L3.07337538,21.0426468 C2.46290014,21.0426468 1.49993918,20.4996688 1.49993918,19.5172086" id="Stroke-5"></path>
                    <path d="M6.07475369,15.1493857 C5.20328902,15.1493857 4.49981754,14.4459143 4.49981754,13.5744496 C4.49981754,12.7029849 5.20328902,11.9995135 6.07475369,11.9995135 C6.94621835,11.9995135 7.64968983,12.7029849 7.64968983,13.5744496 C7.64968983,14.4459143 6.94621835,15.1493857 6.07475369,15.1493857 Z" id="Stroke-7"></path>
                    <path d="M24.0740239,15.1493857 C23.2025592,15.1493857 22.4990877,14.4459143 22.4990877,13.5744496 C22.4990877,12.7029849 23.2025592,11.9995135 24.0740239,11.9995135 C24.9454885,11.9995135 25.64896,12.7029849 25.64896,13.5744496 C25.64896,14.4459143 24.9454885,15.1493857 24.0740239,15.1493857 Z" id="Stroke-9"></path>
                    <path d="M28.4988445,5.99975673 L30.1682768,5.99975673" id="Stroke-11"></path>
                    <path d="M0,5.99975673 L1.82842586,5.99975673" id="Stroke-13"></path>
                </g>
            </g>
        </g>
    </g>
</svg>