<?xml version="1.0" encoding="UTF-8"?>
<svg width="161px" height="150px" viewBox="0 0 161 150" version="1.1" xmlns="http://www.w3.org/2000/svg" xmlns:xlink="http://www.w3.org/1999/xlink">
    <!-- Generator: Sketch 45.2 (43514) - http://www.bohemiancoding.com/sketch -->
    <title>ilustra plano livre</title>
    <desc>Created with Sketch.</desc>
    <defs>
        <polygon id="path-1" points="0 149.602096 160.130838 149.602096 160.130838 -2.84217094e-14 0 -2.84217094e-14"></polygon>
    </defs>
    <g id="Planos-Mobile" stroke="none" stroke-width="1" fill="none" fill-rule="evenodd">
        <g id="1-Plano-Livre-Expandido" transform="translate(-95.000000, -98.000000)">
            <g id="ilustra-plano-livre" transform="translate(95.000000, 98.000000)">
                <g id="Cores" transform="translate(21.556886, 33.233533)">
                    <rect id="Rectangle-3" fill="#FFDFD1" x="30.5389222" y="79.9401198" width="7.18562874" height="13.4730539" rx="3.59281437"></rect>
                    <circle id="Oval" fill="#FFDFD1" cx="49.7143408" cy="7.49877199" r="7.49877199"></circle>
                    <circle id="Oval-Copy" fill="#E4E8F8" cx="46.5758912" cy="43.8812804" r="5.25852592"></circle>
                    <circle id="Oval-Copy-2" fill="#E4E8F8" cx="4.94011976" cy="31.8862275" r="4.94011976"></circle>
                </g>
                <g id="Icone">
                    <path d="M69.8104491,95.2230539 C69.3146407,95.2230539 68.9122455,94.8206587 68.9122455,94.3248503 L68.9122455,85.3428144 C68.9122455,84.847006 69.3146407,84.4446108 69.8104491,84.4446108 C70.3062575,84.4446108 70.7086527,84.847006 70.7086527,85.3428144 L70.7086527,94.3248503 C70.7086527,94.8206587 70.3062575,95.2230539 69.8104491,95.2230539 Z" id="Fill-1" fill="#4D5862"></path>
                    <path d="M69.8104491,86.241018 C66.3433832,86.241018 63.523024,83.4206587 63.523024,79.9535928 C63.523024,76.4865269 66.3433832,73.6661677 69.8104491,73.6661677 C73.277515,73.6661677 76.0978743,76.4865269 76.0978743,79.9535928 C76.0978743,83.4206587 73.277515,86.241018 69.8104491,86.241018 M69.8104491,75.4625749 C67.3341018,75.4625749 65.3194311,77.4772455 65.3194311,79.9535928 C65.3194311,82.4299401 67.3341018,84.4446108 69.8104491,84.4446108 C72.2867964,84.4446108 74.3014671,82.4299401 74.3014671,79.9535928 C74.3014671,77.4772455 72.2867964,75.4625749 69.8104491,75.4625749" id="Fill-3" fill="#4D5862"></path>
                    <path d="M28.4930838,79.9535928 C27.9972754,79.9535928 27.5948802,79.5511976 27.5948802,79.0553892 L27.5948802,72.7679641 C27.5948802,72.2721557 27.9972754,71.8697605 28.4930838,71.8697605 C28.9888922,71.8697605 29.3912874,72.2721557 29.3912874,72.7679641 L29.3912874,79.0553892 C29.3912874,79.5511976 28.9888922,79.9535928 28.4930838,79.9535928" id="Fill-5" fill="#4D5862"></path>
                    <path d="M28.4930838,73.6661677 C25.5200299,73.6661677 23.1038623,71.2491018 23.1038623,68.2769461 C23.1038623,65.3047904 25.5200299,62.8877246 28.4930838,62.8877246 C31.4652395,62.8877246 33.8823054,65.3047904 33.8823054,68.2769461 C33.8823054,71.2491018 31.4652395,73.6661677 28.4930838,73.6661677 M28.4930838,64.6841317 C26.5116467,64.6841317 24.9002695,66.295509 24.9002695,68.2769461 C24.9002695,70.2583832 26.5116467,71.8697605 28.4930838,71.8697605 C30.474521,71.8697605 32.0858982,70.2583832 32.0858982,68.2769461 C32.0858982,66.295509 30.474521,64.6841317 28.4930838,64.6841317" id="Fill-7" fill="#4D5862"></path>
                    <path d="M33.8823054,60.1931138 L23.1038623,60.1931138 C22.6080539,60.1931138 22.2056587,59.7907186 22.2056587,59.2949102 C22.2056587,58.7991018 22.6080539,58.3967066 23.1038623,58.3967066 L33.8823054,58.3967066 C34.3781138,58.3967066 34.780509,58.7991018 34.780509,59.2949102 C34.780509,59.7907186 34.3781138,60.1931138 33.8823054,60.1931138" id="Fill-9" fill="#4D5862"></path>
                    <path d="M49.6218862,60.1931138 L43.7629042,60.1931138 C43.2670958,60.1931138 42.8647006,59.7907186 42.8647006,59.2949102 C42.8647006,58.7991018 43.2670958,58.3967066 43.7629042,58.3967066 L49.6218862,58.3967066 C50.1185928,58.3967066 50.5200898,58.7991018 50.5200898,59.2949102 C50.5200898,59.7907186 50.1185928,60.1931138 49.6218862,60.1931138" id="Fill-11" fill="#4D5862"></path>
                    <path d="M28.5000898,60.2019162 C28.2279341,60.2019162 27.9575749,60.0788623 27.7824251,59.8453293 C27.0719461,58.9031138 26.696497,57.7812575 26.696497,56.6001198 C26.696497,53.6288623 29.1144611,51.2108982 32.0857186,51.2108982 C33.3162575,51.2108982 34.4596707,51.6052096 35.3821257,52.3228743 C36.287515,50.5740719 38.1099701,49.414491 40.1695509,49.414491 C42.6503892,49.414491 44.7441018,51.099521 45.3692515,53.3845509 C45.9952994,53.1357485 46.6653593,53.0073054 47.3551796,53.0073054 C49.3150599,53.0073054 51.1222455,54.0896407 52.0716467,55.8321557 C52.2180539,56.1007186 52.2180539,56.4249701 52.0707485,56.6935329 L50.4099701,59.7276647 C50.1719461,60.161497 49.6267365,60.3222754 49.1902096,60.0833533 C48.755479,59.8453293 48.5955988,59.2992216 48.834521,58.864491 L50.2429042,56.2920359 C49.5701497,55.3641916 48.5012874,54.8037126 47.3551796,54.8037126 C46.5710479,54.8037126 45.8255389,55.052515 45.2003892,55.5222754 C44.9291317,55.7270659 44.5635629,55.7602994 44.2590719,55.6076048 C43.955479,55.4558084 43.7623653,55.1441317 43.7623653,54.8037126 C43.7623653,52.8231737 42.150988,51.2108982 40.1695509,51.2108982 C38.4288323,51.2108982 36.940509,52.4531138 36.6342216,54.1632934 C36.5686527,54.5198802 36.296497,54.8037126 35.9417066,54.8818563 C35.5869162,54.9591018 35.2195509,54.8153892 35.0129641,54.5171856 C34.3438024,53.5579042 33.2758383,53.0073054 32.0857186,53.0073054 C30.1051796,53.0073054 28.4929042,54.6195808 28.4929042,56.6001198 C28.4929042,57.3878443 28.743503,58.1360479 29.2159581,58.7620958 C29.5150599,59.1582036 29.436018,59.7222754 29.0408084,60.020479 C28.8782335,60.1426347 28.6878144,60.2019162 28.5000898,60.2019162" id="Fill-13" fill="#4D5862"></path>
                    <path d="M75.1996707,88.9356287 L33.8823054,88.9356287 C33.5643413,88.9356287 33.2715269,88.7676647 33.1098503,88.495509 C32.9472754,88.2224551 32.9418862,87.8847305 33.0945808,87.6062874 L53.7532635,49.8817365 C54.0685329,49.305988 55.0125449,49.305988 55.3287126,49.8817365 L68.7829042,74.4520958 C68.9104491,74.6829341 68.9293114,74.9568862 68.8358982,75.202994 C68.7433832,75.4491018 68.5466766,75.6413174 68.2978743,75.7293413 C66.5167365,76.3670659 65.3194311,78.0637725 65.3194311,79.9535928 C65.3194311,82.4299401 67.3341018,84.4446108 69.8104491,84.4446108 C70.8101497,84.4446108 71.7586527,84.1185629 72.5553593,83.5023952 C72.7628443,83.3407186 73.0296108,83.2796407 73.2882934,83.3326347 C73.5451796,83.3865269 73.7661377,83.55 73.8927844,83.7808383 L75.9873952,87.6062874 C76.1400898,87.8847305 76.1347006,88.2224551 75.9721257,88.495509 C75.8104491,88.7676647 75.5167365,88.9356287 75.1996707,88.9356287 L75.1996707,88.9356287 Z M35.3975749,87.1392216 L73.6844012,87.1392216 L72.7817066,85.4928144 C71.8727246,85.9841317 70.8613473,86.241018 69.8104491,86.241018 C66.3433832,86.241018 63.523024,83.4206587 63.523024,79.9535928 C63.523024,77.6595808 64.7832036,75.5667665 66.7457784,74.4700599 L54.540988,52.1829341 L35.3975749,87.1392216 Z" id="Fill-15" fill="#4D5862"></path>
                    <path d="M38.3733234,75.4625749 C31.935,75.4625749 26.6966766,80.7008982 26.6966766,87.1392216 C26.6966766,91.1011976 29.9203293,94.3248503 33.8823054,94.3248503 L52.7445808,94.3248503 C54.2302096,94.3248503 55.4391916,95.5338323 55.4391916,97.0194611 C55.4391916,99.4958084 57.4538623,101.510479 59.9302096,101.510479 L83.283503,101.510479 L83.283503,99.7140719 L59.9302096,99.7140719 C58.4445808,99.7140719 57.2355988,98.5050898 57.2355988,97.0194611 C57.2355988,94.5431138 55.2209281,92.5284431 52.7445808,92.5284431 L33.8823054,92.5284431 C30.9092515,92.5284431 28.4930838,90.1113772 28.4930838,87.1392216 C28.4930838,81.6916168 32.9257186,77.258982 38.3733234,77.258982 L38.7613473,77.258982 L39.7448802,75.4625749 L38.3733234,75.4625749 Z" id="Fill-17" fill="#4D5862"></path>
                    <path d="M65.1352096,70.5575749 C64.9268263,70.5575749 64.7184431,70.4848204 64.550479,70.3411078 L57.5247305,64.3186527 L55.3447904,68.6785329 C55.0402994,69.287515 54.041497,69.287515 53.737006,68.6785329 L51.5570659,64.3186527 L44.5313174,70.3411078 C44.2016766,70.6222455 43.7166467,70.6294311 43.3807186,70.3563772 C43.0438922,70.0833234 42.950479,69.6081737 43.1588623,69.2273353 L53.7531737,49.8809281 C54.0684431,49.3060778 55.0124551,49.3060778 55.3286228,49.8809281 L65.9229341,69.2273353 C66.1313174,69.6081737 66.0379042,70.0833234 65.7010778,70.3563772 C65.5358084,70.4902096 65.335509,70.5575749 65.1352096,70.5575749 M51.8462874,61.9896108 C51.9055689,61.9896108 51.9648503,61.995 52.0241317,62.0066766 C52.2953892,62.0623653 52.5262275,62.2384132 52.6501796,62.4863174 L54.5408982,66.2686527 L56.4316168,62.4863174 C56.5555689,62.2384132 56.7864072,62.0623653 57.0576647,62.0066766 C57.3271257,61.9518862 57.6100599,62.0264371 57.8193413,62.2060778 L61.9843114,65.7755389 L54.5408982,52.183024 L47.097485,65.7755389 L51.2615569,62.2060778 C51.4259281,62.0650599 51.6343114,61.9896108 51.8462874,61.9896108" id="Fill-21" fill="#4D5862"></path>
                    <path d="M39.3013473,79.040479 C39.0624251,79.040479 38.827994,78.9452695 38.6537425,78.7647305 C38.3815868,78.4826946 38.325,78.0551497 38.5136228,77.7111377 L53.7534431,49.8802994 C54.0678144,49.3063473 55.0127246,49.3063473 55.3288922,49.8802994 L68.7830838,74.4524551 C68.9106287,74.6823952 68.9285928,74.9563473 68.836976,75.2033533 C68.7426647,75.4485629 68.5468563,75.6416766 68.2980539,75.7288024 C67.6549401,75.9596407 67.0594311,76.3449701 66.5788922,76.8434731 C66.3067365,77.1237126 65.8836826,77.1964671 65.5315868,77.0222156 L57.6372754,73.0746108 L55.3441617,77.6608383 C55.0396707,78.2698204 54.0417665,78.2698204 53.7363772,77.6608383 L51.4450599,73.0746108 L39.7019461,78.9461677 C39.5752994,79.0099401 39.436976,79.040479 39.3013473,79.040479 L39.3013473,79.040479 Z M54.5411677,52.1832934 L41.4687126,76.0548503 L51.4450599,71.0653293 C51.8896707,70.8434731 52.4267964,71.024012 52.6495509,71.4677246 L54.5411677,75.2500599 L56.430988,71.4677246 C56.6528443,71.024012 57.1926647,70.8434731 57.6372754,71.0653293 L65.779491,75.1368862 C66.0803892,74.8862874 66.4046407,74.6626347 66.7459581,74.4704192 L54.5411677,52.1832934 Z" id="Fill-23" fill="#4D5862"></path>
                    <path d="M76.1426048,48.0673653 C75.0656587,48.0673653 74.2563772,47.1691617 74.2563772,46.1811377 C74.2563772,45.1931138 75.1545808,44.2949102 76.1426048,44.2949102 C77.1315269,44.2949102 78.0297305,45.1931138 78.0297305,46.1811377 C78.0297305,47.1691617 77.2204491,48.0673653 76.1426048,48.0673653 M76.1426048,42.4086826 C74.0767365,42.4086826 72.4599701,44.1152695 72.4599701,46.0913174 C72.4599701,48.1571856 74.1674551,49.7739521 76.1426048,49.7739521 C78.1186527,49.7739521 79.8261377,48.0673653 79.8261377,46.0913174 C79.8261377,44.1152695 78.2093713,42.4086826 76.1426048,42.4086826" id="Fill-25" fill="#4D5862"></path>
                    <path d="M76.1426048,40.8817365 C76.6824251,40.8817365 77.0408084,40.5224551 77.0408084,39.9835329 L77.0408084,37.8278443 C77.0408084,37.2889222 76.6824251,36.9296407 76.1426048,36.9296407 C75.6036826,36.9296407 75.2444012,37.2889222 75.2444012,37.8278443 L75.2444012,39.9835329 C75.2444012,40.5224551 75.6036826,40.8817365 76.1426048,40.8817365" id="Fill-27" fill="#4D5862"></path>
                    <path d="M72.280509,41.3308383 C72.4601497,41.6002994 72.7296108,41.7799401 73.0888922,41.7799401 C73.2694311,41.7799401 73.3583533,41.7799401 73.537994,41.6901198 C73.9870958,41.4206587 74.0769162,40.8817365 73.8972754,40.4326347 L72.7296108,38.5464072 C72.4601497,38.0973054 71.9221257,38.007485 71.473024,38.1871257 C71.0239222,38.4565868 70.9332036,38.995509 71.1128443,39.4446108 L72.280509,41.3308383 Z" id="Fill-29" fill="#4D5862"></path>
                    <path d="M68.4184132,42.7676048 L70.3046407,43.8454491 C70.4842814,43.9361677 70.5741018,43.9361677 70.7537425,43.9361677 C71.0232036,43.9361677 71.382485,43.7565269 71.5621257,43.4870659 C71.8315868,43.0379641 71.6519461,42.4981437 71.2028443,42.2286826 L69.3166168,41.1508383 C68.867515,40.8813772 68.3285928,41.0619162 68.0591317,41.511018 C67.879491,41.9601198 67.9693114,42.4981437 68.4184132,42.7676048" id="Fill-31" fill="#4D5862"></path>
                    <path d="M67.7000299,47.0797006 L69.8548204,47.0797006 C70.3039222,47.0797006 70.753024,46.7204192 70.753024,46.181497 C70.753024,45.6416766 70.3946407,45.2832934 69.8548204,45.2832934 L67.7000299,45.2832934 C67.2509281,45.2832934 66.8018263,45.6416766 66.8018263,46.181497 C66.8018263,46.6305988 67.1602096,47.0797006 67.7000299,47.0797006" id="Fill-33" fill="#4D5862"></path>
                    <path d="M70.2148204,48.5164671 L68.3285928,49.5943114 C67.879491,49.8637725 67.6998503,50.4026946 67.9693114,50.8517964 C68.1489521,51.1212575 68.4184132,51.3008982 68.7776946,51.3008982 C68.9573353,51.3008982 69.0471557,51.3008982 69.2267964,51.2110778 L71.113024,50.1332335 C71.5621257,49.8637725 71.7417665,49.3248503 71.4723054,48.8757485 C71.2028443,48.4266467 70.6639222,48.247006 70.2148204,48.5164671" id="Fill-35" fill="#4D5862"></path>
                    <path d="M72.1006886,51.1216168 L70.933024,53.0078443 C70.6635629,53.4569461 70.8441018,53.9949701 71.202485,54.2653293 C71.3821257,54.3551497 71.4728443,54.3551497 71.6515868,54.3551497 C71.9219461,54.3551497 72.2803293,54.1746108 72.4599701,53.9060479 L73.6276347,52.0198204 C73.8970958,51.5707186 73.7183533,51.0308982 73.3581737,50.7623353 C72.9090719,50.5817964 72.3710479,50.7623353 72.1006886,51.1216168" id="Fill-37" fill="#4D5862"></path>
                    <path d="M74.9751198,52.5583832 L74.8852994,54.7140719 C74.8852994,55.252994 75.2445808,55.6122754 75.783503,55.6122754 C76.2326048,55.6122754 76.6817066,55.252994 76.6817066,54.7140719 L76.7715269,52.5583832 C76.7715269,52.0194611 76.4131437,51.6601796 75.8733234,51.6601796 C75.4242216,51.6601796 75.0658383,52.0194611 74.9751198,52.5583832" id="Fill-39" fill="#4D5862"></path>
                    <path d="M78.6582934,51.0312575 C78.2091916,51.3007186 78.0295509,51.8396407 78.299012,52.2887425 L79.2861377,54.1749701 C79.4657784,54.4444311 79.7352395,54.6240719 80.0954192,54.6240719 C80.2750599,54.6240719 80.363982,54.6240719 80.544521,54.5342515 C80.9936228,54.2656886 81.1732635,53.7258683 80.9038024,53.2767665 L79.9148802,51.3905389 C79.6463174,50.9414371 79.1073952,50.8516168 78.6582934,51.0312575" id="Fill-41" fill="#4D5862"></path>
                    <path d="M82.7896707,51.5707186 C82.9693114,51.6605389 83.1489521,51.7494611 83.2387725,51.7494611 C83.5082335,51.7494611 83.867515,51.5707186 83.9573353,51.3003593 C84.2267964,50.8512575 84.136976,50.3132335 83.6878743,50.0437725 L81.8914671,48.8761078 C81.4423653,48.6057485 80.9034431,48.6964671 80.633982,49.1455689 C80.364521,49.5946707 80.4543413,50.1326946 80.9034431,50.4021557 L82.7896707,51.5707186 Z" id="Fill-43" fill="#4D5862"></path>
                    <path d="M81.4423653,46.5402395 C81.4423653,47.0800599 81.8016467,47.4384431 82.2507485,47.4384431 L84.4064371,47.5291617 L84.4962575,47.5291617 C84.9453593,47.5291617 85.3944611,47.168982 85.3944611,46.6309581 C85.3944611,46.0911377 85.0351796,45.7327545 84.5860778,45.7327545 L82.4303892,45.6420359 C81.8914671,45.6420359 81.5321856,46.0911377 81.4423653,46.5402395" id="Fill-45" fill="#4D5862"></path>
                    <path d="M80.9038024,43.8456287 C81.0825449,44.1150898 81.3529042,44.2947305 81.7112874,44.2947305 C81.8918263,44.2947305 81.9807485,44.2947305 82.1603892,44.2049102 L84.1373353,43.2168862 C84.5864371,43.0381437 84.7660778,42.408503 84.4966168,42.0492216 C84.316976,41.6001198 83.6882335,41.420479 83.3280539,41.6908383 L81.3529042,42.6779641 C80.9038024,42.8576048 80.7241617,43.3965269 80.9038024,43.8456287" id="Fill-47" fill="#4D5862"></path>
                    <path d="M79.1073952,41.7799401 C79.2861377,41.8697605 79.4657784,41.9595808 79.6463174,41.9595808 C79.9148802,41.9595808 80.1843413,41.7799401 80.363982,41.6002994 L81.5316467,39.8038922 C81.802006,39.3547904 81.7112874,38.8158683 81.2621856,38.5464072 C80.8130838,38.2769461 80.2750599,38.3667665 80.0055988,38.8158683 L78.8370359,40.6122754 C78.5675749,40.9715569 78.6582934,41.510479 79.1073952,41.7799401" id="Fill-49" fill="#4D5862"></path>
                    <path d="M141.029012,108.696108 L75.1897904,108.696108 C74.6517665,108.696108 74.2915868,109.055389 74.2915868,109.594311 C74.2915868,110.133234 74.6517665,110.492515 75.1897904,110.492515 L141.029012,110.492515 C141.567934,110.492515 141.927216,110.133234 141.927216,109.594311 C141.927216,109.055389 141.567934,108.696108 141.029012,108.696108" id="Fill-51" fill="#4D5862"></path>
                    <path d="M65.9027246,108.696108 L58.4988323,108.696108 C57.9599102,108.696108 57.6006287,109.055389 57.6006287,109.594311 C57.6006287,110.133234 57.9599102,110.492515 58.4988323,110.492515 L65.9027246,110.492515 C66.4425449,110.492515 66.8009281,110.133234 66.8009281,109.594311 C66.8009281,109.055389 66.4425449,108.696108 65.9027246,108.696108" id="Fill-53" fill="#4D5862"></path>
                    <path d="M75.1899701,106.001497 L78.2438623,106.001497 C78.7827844,106.001497 79.1420659,105.642216 79.1420659,105.103293 C79.1420659,104.564371 78.7827844,104.20509 78.2438623,104.20509 L75.1899701,104.20509 C74.6510479,104.20509 74.2917665,104.564371 74.2917665,105.103293 C74.2917665,105.642216 74.7408683,106.001497 75.1899701,106.001497" id="Fill-55" fill="#4D5862"></path>
                    <path d="M47.5904192,106.001497 L50.6443114,106.001497 C51.1832335,106.001497 51.542515,105.642216 51.542515,105.103293 C51.542515,104.564371 51.1832335,104.20509 50.6443114,104.20509 L47.5904192,104.20509 C47.051497,104.20509 46.6922156,104.564371 46.6922156,105.103293 C46.6922156,105.642216 47.1413174,106.001497 47.5904192,106.001497" id="Fill-57" fill="#4D5862"></path>
                    <path d="M86.0587725,106.001497 C86.5976946,106.001497 86.956976,105.642216 86.956976,105.103293 C86.956976,104.564371 86.5976946,104.20509 86.0587725,104.20509 L83.0048802,104.20509 C82.4659581,104.20509 82.1066766,104.564371 82.1066766,105.103293 C82.1066766,105.642216 82.4659581,106.001497 83.0048802,106.001497 L86.0587725,106.001497 Z" id="Fill-59" fill="#4D5862"></path>
                    <path d="M93.9627844,106.001497 C94.5017066,106.001497 94.860988,105.642216 94.860988,105.103293 C94.860988,104.564371 94.5017066,104.20509 93.9627844,104.20509 L90.9088922,104.20509 C90.3699701,104.20509 90.0106886,104.564371 90.0106886,105.103293 C90.0106886,105.642216 90.3699701,106.001497 90.9088922,106.001497 L93.9627844,106.001497 Z" id="Fill-61" fill="#4D5862"></path>
                    <path d="M58.4030838,106.001497 C58.942006,106.001497 59.3012874,105.642216 59.3012874,105.103293 C59.3012874,104.564371 58.942006,104.20509 58.4030838,104.20509 L55.3491916,104.20509 C54.8102695,104.20509 54.450988,104.564371 54.450988,105.103293 C54.450988,105.642216 54.8102695,106.001497 55.3491916,106.001497 L58.4030838,106.001497 Z" id="Fill-63" fill="#4D5862"></path>
                    <path d="M66.3070958,106.001497 C66.8469162,106.001497 67.2052994,105.642216 67.2052994,105.103293 C67.2052994,104.564371 66.8469162,104.20509 66.3070958,104.20509 L63.2541018,104.20509 C62.7142814,104.20509 62.3558982,104.564371 62.3558982,105.103293 C62.3558982,105.642216 62.7142814,106.001497 63.2541018,106.001497 L66.3070958,106.001497 Z" id="Fill-65" fill="#4D5862"></path>
                    <path d="M101.777335,106.001497 C102.316257,106.001497 102.675539,105.642216 102.675539,105.103293 C102.675539,104.564371 102.316257,104.20509 101.777335,104.20509 L98.7234431,104.20509 C98.184521,104.20509 97.8252395,104.564371 97.8252395,105.103293 C97.8252395,105.642216 98.184521,106.001497 98.7234431,106.001497 L101.777335,106.001497 Z" id="Fill-67" fill="#4D5862"></path>
                    <path d="M109.681347,106.001497 C110.220269,106.001497 110.579551,105.642216 110.579551,105.103293 C110.579551,104.564371 110.220269,104.20509 109.681347,104.20509 L106.627455,104.20509 C106.088533,104.20509 105.729251,104.564371 105.729251,105.103293 C105.729251,105.642216 106.088533,106.001497 106.627455,106.001497 L109.681347,106.001497 Z" id="Fill-69" fill="#4D5862"></path>
                    <path d="M117.495898,106.001497 C118.03482,106.001497 118.394102,105.642216 118.394102,105.103293 C118.394102,104.564371 118.03482,104.20509 117.495898,104.20509 L114.442006,104.20509 C113.903084,104.20509 113.543802,104.564371 113.543802,105.103293 C113.543802,105.642216 113.903084,106.001497 114.442006,106.001497 L117.495898,106.001497 Z" id="Fill-71" fill="#4D5862"></path>
                    <path d="M125.310449,106.001497 C125.849371,106.001497 126.208653,105.642216 126.208653,105.103293 C126.208653,104.564371 125.849371,104.20509 125.310449,104.20509 L122.256557,104.20509 C121.717635,104.20509 121.358353,104.564371 121.358353,105.103293 C121.358353,105.642216 121.717635,106.001497 122.256557,106.001497 L125.310449,106.001497 Z" id="Fill-73" fill="#4D5862"></path>
                    <path d="M133.214461,106.001497 C133.753383,106.001497 134.112665,105.642216 134.112665,105.103293 C134.112665,104.564371 133.753383,104.20509 133.214461,104.20509 L130.160569,104.20509 C129.621647,104.20509 129.262365,104.564371 129.262365,105.103293 C129.262365,105.642216 129.621647,106.001497 130.160569,106.001497 L133.214461,106.001497 Z" id="Fill-75" fill="#4D5862"></path>
                    <path d="M141.029012,104.20509 L137.97512,104.20509 C137.436198,104.20509 137.076916,104.564371 137.076916,105.103293 C137.076916,105.642216 137.436198,106.001497 137.97512,106.001497 L141.029012,106.001497 C141.567934,106.001497 141.927216,105.642216 141.927216,105.103293 C141.927216,104.564371 141.567934,104.20509 141.029012,104.20509" id="Fill-77" fill="#4D5862"></path>
                    <path d="M67.1158383,144.893533 L67.1158383,121.559102 C67.1158383,121.02018 66.7565569,120.660898 66.2176347,120.660898 C65.6778144,120.660898 65.3194311,121.02018 65.3194311,121.559102 L65.3194311,144.893533 C65.3194311,145.433353 65.6778144,145.791737 66.2176347,145.791737 C66.7565569,145.791737 67.1158383,145.433353 67.1158383,144.893533" id="Fill-79" fill="#4D5862"></path>
                    <path d="M76.0978743,146.68994 L76.0978743,121.559102 C76.0978743,121.02018 75.7385928,120.660898 75.1996707,120.660898 C74.6598503,120.660898 74.3014671,121.02018 74.3014671,121.559102 L74.3014671,146.68994 C74.3014671,147.22976 74.6598503,147.588144 75.1996707,147.588144 C75.7385928,147.588144 76.0978743,147.22976 76.0978743,146.68994" id="Fill-81" fill="#4D5862"></path>
                    <path d="M69.8104491,113.546766 C69.8104491,114.085689 70.1688323,114.44497 70.7086527,114.44497 C71.2475749,114.44497 71.6068563,114.085689 71.6068563,113.546766 L71.6068563,110.492874 C71.6068563,109.953952 71.2475749,109.594671 70.7086527,109.594671 C70.1688323,109.594671 69.8104491,109.953952 69.8104491,110.492874 L69.8104491,113.546766 Z" id="Fill-83" fill="#4D5862"></path>
                    <path d="M69.8104491,128.276766 C69.8104491,128.816587 70.1688323,129.17497 70.7086527,129.17497 C71.2475749,129.17497 71.6068563,128.816587 71.6068563,128.276766 L71.6068563,125.223772 C71.6068563,124.683952 71.2475749,124.325569 70.7086527,124.325569 C70.1688323,124.325569 69.8104491,124.683952 69.8104491,125.223772 L69.8104491,128.276766 Z" id="Fill-85" fill="#4D5862"></path>
                    <path d="M69.8104491,136.180778 C69.8104491,136.720599 70.1688323,137.078982 70.7086527,137.078982 C71.2475749,137.078982 71.6068563,136.720599 71.6068563,136.180778 L71.6068563,133.127784 C71.6068563,132.587964 71.2475749,132.229581 70.7086527,132.229581 C70.1688323,132.229581 69.8104491,132.587964 69.8104491,133.127784 L69.8104491,136.180778 Z" id="Fill-87" fill="#4D5862"></path>
                    <path d="M71.6068563,143.995329 L71.6068563,140.942335 C71.6068563,140.402515 71.2475749,140.044132 70.7086527,140.044132 C70.1688323,140.044132 69.8104491,140.402515 69.8104491,140.942335 L69.8104491,143.995329 C69.8104491,144.53515 70.1688323,144.893533 70.7086527,144.893533 C71.2475749,144.893533 71.6068563,144.53515 71.6068563,143.995329" id="Fill-89" fill="#4D5862"></path>
                    <path d="M67.1158383,117.548353 L67.1158383,109.59476 C67.1158383,109.055838 66.7565569,108.696557 66.2176347,108.696557 C65.6778144,108.696557 65.3194311,109.055838 65.3194311,109.59476 L65.3194311,117.548353 C65.3194311,118.087275 65.6778144,118.446557 66.2176347,118.446557 C66.7565569,118.446557 67.1158383,118.087275 67.1158383,117.548353" id="Fill-91" fill="#4D5862"></path>
                    <path d="M76.0978743,117.548353 L76.0978743,109.59476 C76.0978743,109.055838 75.7385928,108.696557 75.1996707,108.696557 C74.6598503,108.696557 74.3014671,109.055838 74.3014671,109.59476 L74.3014671,117.548353 C74.3014671,118.087275 74.6598503,118.446557 75.1996707,118.446557 C75.7385928,118.446557 76.0978743,118.087275 76.0978743,117.548353" id="Fill-93" fill="#4D5862"></path>
                    <mask id="mask-2" fill="white">
                        <use xlink:href="#path-1"></use>
                    </mask>
                    <g id="Clip-96"></g>
                    <path d="M118.483832,99.7140719 L121.897006,99.7140719 L121.897006,92.5284431 L118.483832,92.5284431 L118.483832,99.7140719 Z M129.711377,84.9835329 L129.711377,99.8038922 L123.693413,99.8038922 L123.693413,91.7200599 C123.693413,91.1811377 123.334132,90.8218563 122.79521,90.8218563 L117.585629,90.8218563 C117.046707,90.8218563 116.687425,91.1811377 116.687425,91.7200599 L116.687425,99.8038922 L106.537725,99.8038922 L106.537725,84.9835329 L129.621557,84.9835329 L129.711377,84.9835329 Z M121.088623,83.1871257 L129.621557,83.1871257 L129.621557,55.5224551 L121.088623,55.5224551 L121.088623,83.1871257 Z M106.537725,83.1871257 L119.292216,83.1871257 L119.292216,55.5224551 L106.537725,55.5224551 L106.537725,83.1871257 Z M96.7473054,99.7140719 L100.161377,99.7140719 L100.161377,92.5284431 L96.7473054,92.5284431 L96.7473054,99.7140719 Z M104.741317,48.0673653 L104.741317,99.7140719 L101.956886,99.7140719 L101.956886,91.6302395 C101.956886,91.0913174 101.597605,90.7320359 101.058683,90.7320359 L95.8491018,90.7320359 C95.3101796,90.7320359 94.9508982,91.0913174 94.9508982,91.6302395 L94.9508982,99.7140719 L91.9868263,99.7140719 L91.9868263,48.0673653 L104.741317,48.0673653 Z M83.0047904,99.7140719 L86.4179641,99.7140719 L86.4179641,92.5284431 L83.0047904,92.5284431 L83.0047904,99.7140719 Z M90.2802395,65.2230539 L90.2802395,99.8038922 L88.2143713,99.8038922 L88.2143713,91.7200599 C88.2143713,91.1811377 87.8550898,90.8218563 87.3161677,90.8218563 L82.1065868,90.8218563 C81.5676647,90.8218563 81.2083832,91.1811377 81.2083832,91.7200599 L81.2083832,99.8038922 L79.6814371,99.8038922 L79.6814371,65.2230539 L90.2802395,65.2230539 Z M143.184431,95.8517964 C141.926946,95.8517964 140.849102,94.7739521 140.849102,93.5164671 C140.849102,92.258982 141.926946,91.1811377 143.184431,91.1811377 C144.441916,91.1811377 145.51976,92.258982 145.51976,93.5164671 C145.51976,94.7739521 144.441916,95.8517964 143.184431,95.8517964 L143.184431,95.8517964 Z M143.184431,89.3847305 C142.465868,89.3847305 141.837126,88.755988 141.837126,88.0374251 C141.837126,87.3188623 142.465868,86.6901198 143.184431,86.6901198 C143.902994,86.6901198 144.531737,87.3188623 144.531737,88.0374251 C144.531737,88.755988 143.902994,89.3847305 143.184431,89.3847305 L143.184431,89.3847305 Z M74.2922156,100.702096 C74.2922156,101.241018 74.7736527,101.510479 75.3116766,101.510479 L150.132036,101.510479 C150.671856,101.510479 150.908982,101.241018 150.908982,100.702096 C150.908982,100.163174 150.549701,99.8038922 150.010778,99.8038922 L144.082635,99.8038922 L144.082635,97.5583832 C145.968862,97.1092814 147.316168,95.492515 147.316168,93.5164671 C147.316168,92.0793413 146.597605,90.8218563 145.51976,90.1032934 C146.058683,89.5643713 146.328144,88.8458084 146.328144,88.0374251 C146.328144,86.3308383 144.891018,84.8937126 143.184431,84.8937126 C141.477844,84.8937126 140.040719,86.3308383 140.040719,88.0374251 C140.040719,88.8458084 140.4,89.5643713 140.849102,90.1032934 C139.771257,90.8218563 139.052695,92.0793413 139.052695,93.5164671 C139.052695,95.492515 140.4,97.1092814 142.286228,97.5583832 L142.286228,99.8038922 L131.417964,99.8038922 L131.417964,84.0853293 L131.417964,83.9056886 L131.417964,83.7260479 L131.417964,54.6242515 C131.417964,54.0853293 131.058683,53.7260479 130.51976,53.7260479 L120.190419,53.7260479 L106.537725,53.7260479 L106.537725,47.1691617 C106.537725,46.6302395 106.178443,46.2709581 105.639521,46.2709581 L91.0886228,46.2709581 C90.5497006,46.2709581 90.1904192,46.6302395 90.1904192,47.1691617 L90.1904192,63.4266467 L78.7832335,63.4266467 C78.2443114,63.4266467 77.8850299,63.7859281 77.8850299,64.3248503 L77.8850299,99.7140719 L75.1904192,99.7140719 C74.651497,99.7140719 74.2922156,100.163174 74.2922156,100.702096 L74.2922156,100.702096 Z" id="Fill-95" fill="#4D5862" mask="url(#mask-2)"></path>
                    <path d="M116.777515,64.2350299 L116.777515,60.3727545 C116.777515,59.8338323 116.418234,59.4745509 115.879311,59.4745509 C115.339491,59.4745509 114.981108,59.8338323 114.981108,60.3727545 L114.981108,64.2350299 C114.981108,64.7739521 115.339491,65.1332335 115.879311,65.1332335 C116.418234,65.1332335 116.777515,64.7739521 116.777515,64.2350299" id="Fill-97" fill="#4D5862" mask="url(#mask-2)"></path>
                    <path d="M113.543443,64.2350299 L113.543443,60.3727545 C113.543443,59.8338323 113.18506,59.4745509 112.64524,59.4745509 C112.106317,59.4745509 111.747036,59.8338323 111.747036,60.3727545 L111.747036,64.2350299 C111.747036,64.7739521 112.106317,65.1332335 112.64524,65.1332335 C113.094341,65.1332335 113.543443,64.7739521 113.543443,64.2350299" id="Fill-98" fill="#4D5862" mask="url(#mask-2)"></path>
                    <path d="M110.21991,64.2350299 L110.21991,60.3727545 C110.21991,59.8338323 109.861527,59.4745509 109.321707,59.4745509 C108.782784,59.4745509 108.423503,59.8338323 108.423503,60.3727545 L108.423503,64.2350299 C108.423503,64.7739521 108.782784,65.1332335 109.321707,65.1332335 C109.861527,65.1332335 110.21991,64.7739521 110.21991,64.2350299" id="Fill-99" fill="#4D5862" mask="url(#mask-2)"></path>
                    <path d="M116.777515,72.0495808 L116.777515,68.1873054 C116.777515,67.6483832 116.418234,67.2891018 115.879311,67.2891018 C115.339491,67.2891018 114.981108,67.6483832 114.981108,68.1873054 L114.981108,72.1394012 C114.981108,72.6783234 115.339491,73.0376048 115.879311,73.0376048 C116.418234,73.0376048 116.777515,72.588503 116.777515,72.0495808" id="Fill-100" fill="#4D5862" mask="url(#mask-2)"></path>
                    <path d="M113.543443,72.0495808 L113.543443,68.1873054 C113.543443,67.6483832 113.18506,67.2891018 112.64524,67.2891018 C112.106317,67.2891018 111.747036,67.6483832 111.747036,68.1873054 L111.747036,72.1394012 C111.747036,72.6783234 112.106317,73.0376048 112.64524,73.0376048 C113.094341,73.0376048 113.543443,72.588503 113.543443,72.0495808" id="Fill-101" fill="#4D5862" mask="url(#mask-2)"></path>
                    <path d="M110.21991,72.0495808 L110.21991,68.1873054 C110.21991,67.6483832 109.861527,67.2891018 109.321707,67.2891018 C108.782784,67.2891018 108.423503,67.6483832 108.423503,68.1873054 L108.423503,72.1394012 C108.423503,72.6783234 108.782784,73.0376048 109.321707,73.0376048 C109.861527,73.0376048 110.21991,72.588503 110.21991,72.0495808" id="Fill-102" fill="#4D5862" mask="url(#mask-2)"></path>
                    <path d="M116.777515,79.9535928 L116.777515,76.0913174 C116.777515,75.5523952 116.418234,75.1931138 115.879311,75.1931138 C115.339491,75.1931138 114.981108,75.5523952 114.981108,76.0913174 L114.981108,79.9535928 C114.981108,80.492515 115.339491,80.8517964 115.879311,80.8517964 C116.418234,80.8517964 116.777515,80.492515 116.777515,79.9535928" id="Fill-103" fill="#4D5862" mask="url(#mask-2)"></path>
                    <path d="M113.543443,79.9535928 L113.543443,76.0913174 C113.543443,75.5523952 113.18506,75.1931138 112.64524,75.1931138 C112.106317,75.1931138 111.747036,75.5523952 111.747036,76.0913174 L111.747036,79.9535928 C111.747036,80.492515 112.106317,80.8517964 112.64524,80.8517964 C113.094341,80.8517964 113.543443,80.492515 113.543443,79.9535928" id="Fill-104" fill="#4D5862" mask="url(#mask-2)"></path>
                    <path d="M110.21991,79.9535928 L110.21991,76.0913174 C110.21991,75.5523952 109.861527,75.1931138 109.321707,75.1931138 C108.782784,75.1931138 108.423503,75.5523952 108.423503,76.0913174 L108.423503,79.9535928 C108.423503,80.492515 108.782784,80.8517964 109.321707,80.8517964 C109.861527,80.8517964 110.21991,80.492515 110.21991,79.9535928" id="Fill-105" fill="#4D5862" mask="url(#mask-2)"></path>
                    <path d="M127.82524,64.2350299 L127.82524,60.3727545 C127.82524,59.8338323 127.465958,59.4745509 126.927036,59.4745509 C126.387216,59.4745509 126.028832,59.8338323 126.028832,60.3727545 L126.028832,64.2350299 C126.028832,64.7739521 126.387216,65.1332335 126.927036,65.1332335 C127.465958,65.1332335 127.82524,64.7739521 127.82524,64.2350299" id="Fill-106" fill="#4D5862" mask="url(#mask-2)"></path>
                    <path d="M124.591168,64.2350299 L124.591168,60.3727545 C124.591168,59.8338323 124.232784,59.4745509 123.692964,59.4745509 C123.154042,59.4745509 122.79476,59.8338323 122.79476,60.3727545 L122.79476,64.2350299 C122.79476,64.7739521 123.154042,65.1332335 123.692964,65.1332335 C124.142066,65.1332335 124.591168,64.7739521 124.591168,64.2350299" id="Fill-107" fill="#4D5862" mask="url(#mask-2)"></path>
                    <path d="M127.82524,72.0495808 L127.82524,68.1873054 C127.82524,67.6483832 127.465958,67.2891018 126.927036,67.2891018 C126.387216,67.2891018 126.028832,67.6483832 126.028832,68.1873054 L126.028832,72.1394012 C126.028832,72.6783234 126.387216,73.0376048 126.927036,73.0376048 C127.465958,73.0376048 127.82524,72.588503 127.82524,72.0495808" id="Fill-108" fill="#4D5862" mask="url(#mask-2)"></path>
                    <path d="M124.591168,72.0495808 L124.591168,68.1873054 C124.591168,67.6483832 124.232784,67.2891018 123.692964,67.2891018 C123.154042,67.2891018 122.79476,67.6483832 122.79476,68.1873054 L122.79476,72.1394012 C122.79476,72.6783234 123.154042,73.0376048 123.692964,73.0376048 C124.142066,73.0376048 124.591168,72.588503 124.591168,72.0495808" id="Fill-109" fill="#4D5862" mask="url(#mask-2)"></path>
                    <path d="M127.82524,79.9535928 L127.82524,76.0913174 C127.82524,75.5523952 127.465958,75.1931138 126.927036,75.1931138 C126.387216,75.1931138 126.028832,75.5523952 126.028832,76.0913174 L126.028832,79.9535928 C126.028832,80.492515 126.387216,80.8517964 126.927036,80.8517964 C127.465958,80.8517964 127.82524,80.492515 127.82524,79.9535928" id="Fill-110" fill="#4D5862" mask="url(#mask-2)"></path>
                    <path d="M124.591168,79.9535928 L124.591168,76.0913174 C124.591168,75.5523952 124.232784,75.1931138 123.692964,75.1931138 C123.154042,75.1931138 122.79476,75.5523952 122.79476,76.0913174 L122.79476,79.9535928 C122.79476,80.492515 123.154042,80.8517964 123.692964,80.8517964 C124.142066,80.8517964 124.591168,80.492515 124.591168,79.9535928" id="Fill-111" fill="#4D5862" mask="url(#mask-2)"></path>
                    <path d="M102.58518,64.2350299 L102.58518,60.3727545 C102.58518,59.8338323 102.226796,59.4745509 101.686976,59.4745509 C101.148054,59.4745509 100.788772,59.8338323 100.788772,60.3727545 L100.788772,64.2350299 C100.788772,64.7739521 101.148054,65.1332335 101.686976,65.1332335 C102.226796,65.1332335 102.58518,64.7739521 102.58518,64.2350299" id="Fill-112" fill="#4D5862" mask="url(#mask-2)"></path>
                    <path d="M99.352006,64.2350299 L99.352006,60.3727545 C99.352006,59.8338323 98.9927246,59.4745509 98.4538024,59.4745509 C97.9148802,59.4745509 97.5555988,59.8338323 97.5555988,60.3727545 L97.5555988,64.2350299 C97.5555988,64.7739521 97.9148802,65.1332335 98.4538024,65.1332335 C98.9029042,65.1332335 99.352006,64.7739521 99.352006,64.2350299" id="Fill-113" fill="#4D5862" mask="url(#mask-2)"></path>
                    <path d="M96.0284731,64.2350299 L96.0284731,60.3727545 C96.0284731,59.8338323 95.6700898,59.4745509 95.1302695,59.4745509 C94.5913473,59.4745509 94.2320659,59.8338323 94.2320659,60.3727545 L94.2320659,64.2350299 C94.2320659,64.7739521 94.5913473,65.1332335 95.1302695,65.1332335 C95.6700898,65.1332335 96.0284731,64.7739521 96.0284731,64.2350299" id="Fill-114" fill="#4D5862" mask="url(#mask-2)"></path>
                    <path d="M102.58518,56.331018 L102.58518,52.4687425 C102.58518,51.9298204 102.226796,51.5705389 101.686976,51.5705389 C101.148054,51.5705389 100.788772,51.9298204 100.788772,52.4687425 L100.788772,56.331018 C100.788772,56.8699401 101.148054,57.2292216 101.686976,57.2292216 C102.226796,57.2292216 102.58518,56.7801198 102.58518,56.331018" id="Fill-115" fill="#4D5862" mask="url(#mask-2)"></path>
                    <path d="M99.352006,56.331018 L99.352006,52.4687425 C99.352006,51.9298204 98.9927246,51.5705389 98.4538024,51.5705389 C97.9148802,51.5705389 97.5555988,51.9298204 97.5555988,52.4687425 L97.5555988,56.331018 C97.5555988,56.8699401 97.9148802,57.2292216 98.4538024,57.2292216 C98.9029042,57.2292216 99.352006,56.7801198 99.352006,56.331018" id="Fill-116" fill="#4D5862" mask="url(#mask-2)"></path>
                    <path d="M96.0284731,56.331018 L96.0284731,52.4687425 C96.0284731,51.9298204 95.6700898,51.5705389 95.1302695,51.5705389 C94.5913473,51.5705389 94.2320659,51.9298204 94.2320659,52.4687425 L94.2320659,56.331018 C94.2320659,56.8699401 94.5913473,57.2292216 95.1302695,57.2292216 C95.6700898,57.2292216 96.0284731,56.7801198 96.0284731,56.331018" id="Fill-117" fill="#4D5862" mask="url(#mask-2)"></path>
                    <path d="M102.58518,72.0495808 L102.58518,68.1873054 C102.58518,67.6483832 102.226796,67.2891018 101.686976,67.2891018 C101.148054,67.2891018 100.788772,67.6483832 100.788772,68.1873054 L100.788772,72.1394012 C100.788772,72.6783234 101.148054,73.0376048 101.686976,73.0376048 C102.226796,73.0376048 102.58518,72.588503 102.58518,72.0495808" id="Fill-118" fill="#4D5862" mask="url(#mask-2)"></path>
                    <path d="M99.352006,72.0495808 L99.352006,68.1873054 C99.352006,67.6483832 98.9927246,67.2891018 98.4538024,67.2891018 C97.9148802,67.2891018 97.5555988,67.6483832 97.5555988,68.1873054 L97.5555988,72.1394012 C97.5555988,72.6783234 97.9148802,73.0376048 98.4538024,73.0376048 C98.9029042,73.0376048 99.352006,72.588503 99.352006,72.0495808" id="Fill-119" fill="#4D5862" mask="url(#mask-2)"></path>
                    <path d="M96.0284731,72.0495808 L96.0284731,68.1873054 C96.0284731,67.6483832 95.6700898,67.2891018 95.1302695,67.2891018 C94.5913473,67.2891018 94.2320659,67.6483832 94.2320659,68.1873054 L94.2320659,72.1394012 C94.2320659,72.6783234 94.5913473,73.0376048 95.1302695,73.0376048 C95.6700898,73.0376048 96.0284731,72.588503 96.0284731,72.0495808" id="Fill-120" fill="#4D5862" mask="url(#mask-2)"></path>
                    <path d="M102.58518,79.9535928 L102.58518,76.0913174 C102.58518,75.5523952 102.226796,75.1931138 101.686976,75.1931138 C101.148054,75.1931138 100.788772,75.5523952 100.788772,76.0913174 L100.788772,79.9535928 C100.788772,80.492515 101.148054,80.8517964 101.686976,80.8517964 C102.226796,80.8517964 102.58518,80.492515 102.58518,79.9535928" id="Fill-121" fill="#4D5862" mask="url(#mask-2)"></path>
                    <path d="M99.352006,79.9535928 L99.352006,76.0913174 C99.352006,75.5523952 98.9927246,75.1931138 98.4538024,75.1931138 C97.9148802,75.1931138 97.5555988,75.5523952 97.5555988,76.0913174 L97.5555988,79.9535928 C97.5555988,80.492515 97.9148802,80.8517964 98.4538024,80.8517964 C98.9029042,80.8517964 99.352006,80.492515 99.352006,79.9535928" id="Fill-122" fill="#4D5862" mask="url(#mask-2)"></path>
                    <path d="M96.0284731,79.9535928 L96.0284731,76.0913174 C96.0284731,75.5523952 95.6700898,75.1931138 95.1302695,75.1931138 C94.5913473,75.1931138 94.2320659,75.5523952 94.2320659,76.0913174 L94.2320659,79.9535928 C94.2320659,80.492515 94.5913473,80.8517964 95.1302695,80.8517964 C95.6700898,80.8517964 96.0284731,80.492515 96.0284731,79.9535928" id="Fill-123" fill="#4D5862" mask="url(#mask-2)"></path>
                    <path d="M102.58518,87.7681437 L102.58518,83.9058683 C102.58518,83.3669461 102.226796,83.0076647 101.686976,83.0076647 C101.148054,83.0076647 100.788772,83.3669461 100.788772,83.9058683 L100.788772,87.7681437 C100.788772,88.3070659 101.148054,88.6663473 101.686976,88.6663473 C102.226796,88.6663473 102.58518,88.2172455 102.58518,87.7681437" id="Fill-124" fill="#4D5862" mask="url(#mask-2)"></path>
                    <path d="M99.352006,87.7681437 L99.352006,83.9058683 C99.352006,83.3669461 98.9927246,83.0076647 98.4538024,83.0076647 C97.9148802,83.0076647 97.5555988,83.3669461 97.5555988,83.9058683 L97.5555988,87.7681437 C97.5555988,88.3070659 97.9148802,88.6663473 98.4538024,88.6663473 C98.9029042,88.6663473 99.352006,88.2172455 99.352006,87.7681437" id="Fill-125" fill="#4D5862" mask="url(#mask-2)"></path>
                    <path d="M96.0284731,87.7681437 L96.0284731,83.9058683 C96.0284731,83.3669461 95.6700898,83.0076647 95.1302695,83.0076647 C94.5913473,83.0076647 94.2320659,83.3669461 94.2320659,83.9058683 L94.2320659,87.7681437 C94.2320659,88.3070659 94.5913473,88.6663473 95.1302695,88.6663473 C95.6700898,88.6663473 96.0284731,88.2172455 96.0284731,87.7681437" id="Fill-126" fill="#4D5862" mask="url(#mask-2)"></path>
                    <path d="M87.2262575,72.0495808 L87.2262575,68.1873054 C87.2262575,67.6483832 86.866976,67.2891018 86.3280539,67.2891018 C85.7891317,67.2891018 85.4298503,67.6483832 85.4298503,68.1873054 L85.4298503,72.1394012 C85.4298503,72.6783234 85.7891317,73.0376048 86.3280539,73.0376048 C86.866976,73.0376048 87.2262575,72.588503 87.2262575,72.0495808" id="Fill-127" fill="#4D5862" mask="url(#mask-2)"></path>
                    <path d="M83.9930838,72.0495808 L83.9930838,68.1873054 C83.9930838,67.6483832 83.6338024,67.2891018 83.0948802,67.2891018 C82.5550599,67.2891018 82.1966766,67.6483832 82.1966766,68.1873054 L82.1966766,72.1394012 C82.1966766,72.6783234 82.5550599,73.0376048 83.0948802,73.0376048 C83.543982,73.0376048 83.9930838,72.588503 83.9930838,72.0495808" id="Fill-128" fill="#4D5862" mask="url(#mask-2)"></path>
                    <path d="M87.2262575,79.9535928 L87.2262575,76.0913174 C87.2262575,75.5523952 86.866976,75.1931138 86.3280539,75.1931138 C85.7891317,75.1931138 85.4298503,75.5523952 85.4298503,76.0913174 L85.4298503,79.9535928 C85.4298503,80.492515 85.7891317,80.8517964 86.3280539,80.8517964 C86.866976,80.8517964 87.2262575,80.492515 87.2262575,79.9535928" id="Fill-129" fill="#4D5862" mask="url(#mask-2)"></path>
                    <path d="M83.9930838,79.9535928 L83.9930838,76.0913174 C83.9930838,75.5523952 83.6338024,75.1931138 83.0948802,75.1931138 C82.5550599,75.1931138 82.1966766,75.5523952 82.1966766,76.0913174 L82.1966766,79.9535928 C82.1966766,80.492515 82.5550599,80.8517964 83.0948802,80.8517964 C83.543982,80.8517964 83.9930838,80.492515 83.9930838,79.9535928" id="Fill-130" fill="#4D5862" mask="url(#mask-2)"></path>
                    <path d="M87.2262575,87.7681437 L87.2262575,83.9058683 C87.2262575,83.3669461 86.866976,83.0076647 86.3280539,83.0076647 C85.7891317,83.0076647 85.4298503,83.3669461 85.4298503,83.9058683 L85.4298503,87.7681437 C85.4298503,88.3070659 85.7891317,88.6663473 86.3280539,88.6663473 C86.866976,88.6663473 87.2262575,88.2172455 87.2262575,87.7681437" id="Fill-131" fill="#4D5862" mask="url(#mask-2)"></path>
                    <path d="M83.9930838,87.7681437 L83.9930838,83.9058683 C83.9930838,83.3669461 83.6338024,83.0076647 83.0948802,83.0076647 C82.5550599,83.0076647 82.1966766,83.3669461 82.1966766,83.9058683 L82.1966766,87.7681437 C82.1966766,88.3070659 82.5550599,88.6663473 83.0948802,88.6663473 C83.543982,88.6663473 83.9930838,88.2172455 83.9930838,87.7681437" id="Fill-132" fill="#4D5862" mask="url(#mask-2)"></path>
                    <path d="M81.4484731,121.510419 C81.8652395,121.510419 82.2011677,121.173593 82.2011677,120.756826 L82.2011677,117.86012 C82.2011677,117.443353 81.8652395,117.107425 81.4484731,117.107425 L57.3317066,117.108323 C56.9158383,117.108323 56.579012,117.44515 56.579012,117.861916 L56.579012,120.758623 C56.579012,121.175389 56.9158383,121.511317 57.3317066,121.511317 L81.4484731,121.510419 Z M80.6930838,118.614611 L80.6930838,120.00503 L78.1341018,120.00503 L79.5227246,118.614611 L80.6948802,118.614611 L80.6930838,118.614611 Z M58.0852994,120.00503 L58.0852994,118.614611 L66.4206287,118.614611 L65.0302096,120.00503 L58.0852994,120.00503 Z M74.3391916,120.00503 L75.7296108,118.614611 L77.3921856,118.614611 L76.0026647,120.00503 L74.3391916,120.00503 Z M70.7796108,120.00503 L72.1691317,118.614611 L73.833503,118.614611 L72.443982,120.00503 L70.7796108,120.00503 Z M66.9847006,120.00503 L68.3751198,118.614611 L70.0385928,118.614611 L68.6481737,120.00503 L66.9847006,120.00503 Z" id="Fill-134" fill="#4D5862" mask="url(#mask-2)"></path>
                    <path d="M59.5214371,124.253263 C59.5214371,125.06524 58.8630539,125.724521 58.0492814,125.724521 C57.2373054,125.724521 56.5789222,125.06524 56.5789222,124.253263 C56.5789222,123.441287 57.2373054,122.782006 58.0492814,122.782006 C58.8630539,122.782006 59.5214371,123.441287 59.5214371,124.253263" id="Fill-135" fill="#4D5862" mask="url(#mask-2)"></path>
                    <path d="M55.4067665,115.58524 L60.1402994,115.58524 L60.1402994,116.640629 L60.1402994,120.146317 L60.1402994,126.648413 L55.4067665,126.648413 L55.4067665,115.58524 Z M53.9013772,114.82985 L53.9013772,128.142126 L61.6465868,128.141228 L61.6465868,120.144521 L61.647485,116.639731 L61.647485,114.82985 C61.647485,114.413084 61.3106587,114.076257 60.8938922,114.076257 L54.6549701,114.076257 C54.2382036,114.076257 53.9013772,114.413084 53.9013772,114.82985 L53.9013772,114.82985 Z" id="Fill-136" fill="#4D5862" mask="url(#mask-2)"></path>
                    <polygon id="Fill-137" fill="#4D5862" mask="url(#mask-2)" points="10.0347305 110.677545 27.8730539 110.677545 27.8730539 109.191916 10.0347305 109.191916"></polygon>
                    <polygon id="Fill-138" fill="#4D5862" mask="url(#mask-2)" points="33.0754491 107.704491 38.2787425 107.704491 38.2787425 106.217964 33.0754491 106.217964"></polygon>
                    <polygon id="Fill-139" fill="#4D5862" mask="url(#mask-2)" points="0.370958084 107.704491 4.08772455 107.704491 4.08772455 106.217964 0.370958084 106.217964"></polygon>
                    <polygon id="Fill-140" fill="#4D5862" mask="url(#mask-2)" points="15.5884132 97.8633234 16.7030838 102.322006 15.2605689 102.682186 14.1458982 98.2226048"></polygon>
                    <path d="M18.4426347,97.2992515 C20.1240719,97.2992515 21.7794611,97.7402695 23.2390419,98.5738024 L28.8653892,101.787575 L31.670479,102.220509 L34.6111976,102.673204 C37.1441317,103.063024 39.0213772,105.251946 39.0213772,107.815419 L39.0213772,108.447754 C39.0213772,109.67021 38.014491,110.677994 36.7920359,110.677994 L33.0752695,110.677994 L33.0752695,109.191467 L36.7920359,109.191467 C37.211497,109.191467 37.5357485,108.867216 37.5357485,108.447754 L37.5357485,107.815419 C37.5357485,105.975 36.2028144,104.422904 34.3848503,104.142665 L31.4441317,103.689072 L28.502515,103.236377 C28.4126946,103.222904 28.3264671,103.192365 28.2474251,103.146557 L22.5016168,99.8627246 C21.2665868,99.1567365 19.8653892,98.7848802 18.4426347,98.7848802 L8.25161677,98.7848802 C6.32047904,98.7848802 4.49712575,99.6714072 3.30431138,101.189371 L2.0091018,102.838473 C1.67137725,103.267814 1.48634731,103.798653 1.48634731,104.345659 L1.48634731,108.447754 C1.48634731,108.866317 1.8097006,109.190569 2.22916168,109.190569 L4.08844311,109.190569 L4.08844311,110.677994 L2.22916168,110.677994 C1.00760479,110.677994 -0.000179640719,109.669311 -0.000179640719,108.447754 L-0.000179640719,104.345659 C-0.000179640719,103.466317 0.296227545,102.612126 0.838742515,101.921407 L2.13754491,100.272305 C3.6105988,98.3968563 5.86688623,97.2992515 8.25161677,97.2992515 L18.4426347,97.2992515 Z" id="Fill-141" fill="#4D5862" mask="url(#mask-2)"></path>
                    <polygon id="Fill-142" fill="#4D5862" mask="url(#mask-2)" points="7.84230539 97.807994 9.25248503 98.2777545 7.76685629 102.737335 6.35577844 102.267575"></polygon>
                    <path d="M26.3861677,103.988443 C26.7966467,103.981257 27.1352695,104.308204 27.1424551,104.718683 C27.1496407,105.13006 26.8226946,105.467784 26.4122156,105.47497 L26.3861677,105.47497 L25.6631138,105.47497 C25.2526347,105.482156 24.914012,105.15521 24.9077246,104.744731 C24.9005389,104.334251 25.2265868,103.995629 25.6370659,103.988443 L25.6631138,103.988443 L26.3861677,103.988443 Z" id="Fill-143" fill="#4D5862" mask="url(#mask-2)"></path>
                    <path d="M30.474521,106.218144 C29.0293114,106.218144 27.8733234,107.374132 27.8733234,108.819341 C27.8733234,110.265449 29.0293114,111.421437 30.474521,111.421437 C31.9197305,111.421437 33.0757186,110.265449 33.0757186,108.819341 C33.0757186,107.374132 31.9197305,106.218144 30.474521,106.218144 M30.474521,104.732515 C32.7227246,104.732515 34.5622455,106.571138 34.5622455,108.819341 C34.5622455,111.068443 32.7227246,112.907066 30.474521,112.907066 C28.2254192,112.907066 26.3858982,111.068443 26.3858982,108.819341 C26.3858982,106.571138 28.2254192,104.732515 30.474521,104.732515" id="Fill-144" fill="#4D5862" mask="url(#mask-2)"></path>
                    <path d="M7.06077844,106.218144 C5.61556886,106.218144 4.45958084,107.374132 4.45958084,108.819341 C4.45958084,110.265449 5.61556886,111.421437 7.06077844,111.421437 C8.50598802,111.421437 9.66197605,110.265449 9.66197605,108.819341 C9.66197605,107.374132 8.50598802,106.218144 7.06077844,106.218144 M7.06077844,104.732515 C9.30988024,104.732515 11.1494012,106.571138 11.1494012,108.819341 C11.1494012,111.068443 9.30988024,112.907066 7.06077844,112.907066 C4.81257485,112.907066 2.97305389,111.068443 2.97305389,108.819341 C2.97305389,106.571138 4.81257485,104.732515 7.06077844,104.732515" id="Fill-145" fill="#4D5862" mask="url(#mask-2)"></path>
                    <polygon id="Fill-146" fill="#4D5862" mask="url(#mask-2)" points="1.11467066 103.245808 28.6158683 103.245808 28.6158683 101.759281 1.11467066 101.759281"></polygon>
                    <polygon id="Fill-147" fill="#4D5862" mask="url(#mask-2)" points="16.7146707 105.47515 18.2011976 105.47515 18.2011976 103.988623 16.7146707 103.988623"></polygon>
                    <path d="M6.31868263,108.81979 C6.31868263,109.230269 6.65101796,109.563503 7.06149701,109.563503 C7.47197605,109.563503 7.80520958,109.230269 7.80520958,108.81979 C7.80520958,108.409311 7.47197605,108.076976 7.06149701,108.076976 C6.65101796,108.076976 6.31868263,108.409311 6.31868263,108.81979" id="Fill-148" fill="#4D5862" mask="url(#mask-2)"></path>
                    <path d="M29.7316168,108.81979 C29.7316168,109.230269 30.0639521,109.563503 30.4744311,109.563503 C30.8849102,109.563503 31.2181437,109.230269 31.2181437,108.81979 C31.2181437,108.409311 30.8849102,108.076976 30.4744311,108.076976 C30.0639521,108.076976 29.7316168,108.409311 29.7316168,108.81979" id="Fill-149" fill="#4D5862" mask="url(#mask-2)"></path>
                    <path d="M16.7857186,97.2835329 L9.06296407,97.2835329 L9.06296407,93.7976048 L9.59919162,93.7976048 L16.249491,93.7976048 L16.7857186,93.7976048 L16.7857186,97.2835329 Z M10.1363174,92.6712575 L15.7141617,92.6712575 L15.7141617,90.741018 L10.1363174,90.741018 L10.1363174,92.6712575 Z M7.95547904,98.355988 L17.9210479,98.355988 L17.9210479,97.2835329 L17.9120659,93.2613772 C17.9120659,92.9398204 17.6982934,92.7251497 17.3758383,92.7251497 L16.840509,92.7251497 L16.840509,90.2586826 C16.840509,89.9362275 16.6249401,89.7215569 16.3033832,89.7215569 L9.59919162,89.7215569 C9.27763473,89.7215569 9.06296407,89.9362275 9.06296407,90.2586826 L9.06296407,92.7251497 L8.52673653,92.7251497 C8.20517964,92.7251497 7.99050898,92.9398204 7.99050898,93.2613772 L7.95547904,97.2835329 L7.95547904,98.355988 Z" id="Fill-150" fill="#4D5862" mask="url(#mask-2)"></path>
                    <path d="M10.3607784,92.4467066 L15.489521,92.4467066 L15.489521,90.9655689 L10.3607784,90.9655689 L10.3607784,92.4467066 Z M9.91167665,92.8958084 L15.9386228,92.8958084 L15.9386228,90.5164671 L9.91167665,90.5164671 L9.91167665,92.8958084 Z M9.28742515,97.058982 L16.5610778,97.058982 L16.5610778,94.0221557 L9.28742515,94.0221557 L9.28742515,97.058982 Z M8.83832335,97.5080838 L17.0101796,97.5080838 L17.0101796,93.5730539 L8.83832335,93.5730539 L8.83832335,97.5080838 Z M8.17994012,98.1314371 L17.6964072,98.1314371 L17.6874251,93.2622754 C17.6874251,93.0637725 17.5742515,92.9497006 17.3757485,92.9497006 L16.6158683,92.9497006 L16.6158683,90.2586826 C16.6158683,90.0601796 16.5017964,89.9461078 16.3032934,89.9461078 L9.5991018,89.9461078 C9.4005988,89.9461078 9.28742515,90.0601796 9.28742515,90.2586826 L9.28742515,92.9497006 L8.52664671,92.9497006 C8.32814371,92.9497006 8.21497006,93.0637725 8.21497006,93.2613772 L8.17994012,98.1314371 Z M18.145509,98.5805389 L7.73083832,98.5805389 L7.73083832,97.2835329 L7.76586826,93.2595808 C7.76586826,92.8131737 8.07934132,92.5005988 8.52664671,92.5005988 L8.83832335,92.5005988 L8.83832335,90.2586826 C8.83832335,89.810479 9.15179641,89.497006 9.5991018,89.497006 L16.3032934,89.497006 C16.751497,89.497006 17.0649701,89.810479 17.0649701,90.2586826 L17.0649701,92.5005988 L17.3757485,92.5005988 C17.8230539,92.5005988 18.1365269,92.8131737 18.1365269,93.2613772 L18.145509,98.5805389 Z" id="Fill-151" fill="#4D5862" mask="url(#mask-2)"></path>
                    <path d="M14.6138623,94.7625449 L11.2348204,94.7625449 C10.9132635,94.7625449 10.699491,94.9772156 10.699491,95.2996707 C10.699491,95.6203293 10.9132635,95.835 11.2348204,95.835 L14.6138623,95.835 C14.9354192,95.835 15.1500898,95.6203293 15.1500898,95.2996707 C15.1500898,94.9772156 14.9354192,94.7625449 14.6138623,94.7625449" id="Fill-152" fill="#4D5862" mask="url(#mask-2)"></path>
                    <path d="M11.2350898,94.9870958 C11.0365868,94.9870958 10.9234132,95.1011677 10.9234132,95.2996707 C10.9234132,95.4972754 11.0365868,95.6104491 11.2350898,95.6104491 L14.6141317,95.6104491 C14.8117365,95.6104491 14.9249102,95.4972754 14.9249102,95.2996707 C14.9249102,95.1011677 14.8117365,94.9870958 14.6141317,94.9870958 L11.2350898,94.9870958 Z M14.6141317,96.0595509 L11.2350898,96.0595509 C10.7877844,96.0595509 10.4743114,95.746976 10.4743114,95.2996707 C10.4743114,94.8514671 10.7877844,94.537994 11.2350898,94.537994 L14.6141317,94.537994 C15.0614371,94.537994 15.374012,94.8514671 15.374012,95.2996707 C15.374012,95.746976 15.0614371,96.0595509 14.6141317,96.0595509 L14.6141317,96.0595509 Z" id="Fill-153" fill="#4D5862" mask="url(#mask-2)"></path>
                    <path d="M23.1562275,116.404491 C22.8813772,115.993114 22.9909581,115.434431 23.4032335,115.157784 C23.8146108,114.882036 24.3723952,114.991617 24.6490419,115.40479 C38.2523353,135.693413 60.9364671,147.805689 85.3298802,147.805689 C125.584671,147.805689 158.334072,115.056287 158.334072,74.801497 C158.334072,34.5458084 125.584671,1.79640719 85.3298802,1.79640719 C45.0750898,1.79640719 12.3256886,34.5458084 12.3256886,74.801497 C12.3256886,77.9586826 12.5286826,81.1374251 12.9310778,84.2505988 C12.9948503,84.7428144 12.6472455,85.1928144 12.1550299,85.2565868 C11.6619162,85.3131737 11.2119162,84.9727545 11.1490419,84.4805389 C10.7376647,81.2919162 10.5292814,78.0350299 10.5292814,74.801497 C10.5292814,33.555988 44.0843713,-2.84217094e-14 85.3298802,-2.84217094e-14 C126.575389,-2.84217094e-14 160.130479,33.555988 160.130479,74.801497 C160.130479,116.047006 126.575389,149.602096 85.3298802,149.602096 C60.3364671,149.602096 37.0936527,137.192515 23.1562275,116.404491 Z" id="Fill-133" fill="#EBEDEE" mask="url(#mask-2)"></path>
                </g>
            </g>
        </g>
    </g>
</svg>