<?xml version="1.0" encoding="UTF-8"?>
<svg width="165px" height="150px" viewBox="0 0 165 150" version="1.1" xmlns="http://www.w3.org/2000/svg" xmlns:xlink="http://www.w3.org/1999/xlink">
    <!-- Generator: Sketch 45.2 (43514) - http://www.bohemiancoding.com/sketch -->
    <title>ilustra plano urbano</title>
    <desc>Created with Sketch.</desc>
    <defs>
        <polygon id="path-1" points="0 0.623712575 0 53.8871856 57.6653892 53.8871856 57.6653892 0.623712575 0 0.623712575"></polygon>
        <polygon id="path-3" points="0 149.601198 164.233832 149.601198 164.233832 0 0 0"></polygon>
    </defs>
    <g id="Planos-Mobile" stroke="none" stroke-width="1" fill="none" fill-rule="evenodd">
        <g id="2-Plano-Urbano-Expandido" transform="translate(-96.000000, -98.000000)">
            <g id="ilustra-plano-urbano" transform="translate(96.000000, 98.000000)">
                <g id="Ilustracao_Urbano">
                    <g id="Cor" transform="translate(3.592814, 19.760479)">
                        <path d="M45.1752395,14.446965 C47.0443595,16.7874542 49.8844702,18.1911528 53.0279225,18.1911528 C58.6025691,18.1911528 63.1393114,13.6558975 63.1393114,8.079764 C63.1393114,4.91400711 61.6344988,1.97724343 59.2077655,0.100688623 C59.2523745,0.531909618 59.2731921,0.960156674 59.2731921,1.38840373 C59.2731921,8.60317707 53.4041257,14.4737305 46.1893523,14.4737305 C45.8622192,14.4737305 45.5217033,14.4677826 45.1752395,14.446965" id="Path" fill="#E4E8F8"></path>
                        <polygon id="Rectangle-Copy" fill="#E4E8F8" points="88.0239521 22.4550898 94.3113772 25.1497006 94.3113772 36.8263473 88.0239521 34.1317365"></polygon>
                        <polygon id="Rectangle-Copy" fill="#E4E8F8" points="97.005988 26.9461078 103.293413 29.6407186 103.293413 41.3173653 97.005988 38.6227545"></polygon>
                        <ellipse id="Oval-2" fill="#FFDFD1" cx="14.3712575" cy="68.2634731" rx="3.59281437" ry="7.18562874"></ellipse>
                        <ellipse id="Oval-2" fill="#FFDFD1" cx="3.59281437" cy="69.1616766" rx="3.59281437" ry="5.38922156"></ellipse>
                    </g>
                    <g id="Icone">
                        <path d="M20.1000898,110.953473 C20.6399102,110.953473 20.9982934,110.594192 20.9982934,110.055269 C20.9982934,109.516347 20.6399102,109.157066 20.1000898,109.157066 L17.0470958,109.157066 C16.5072754,109.157066 16.1488922,109.516347 16.1488922,110.055269 C16.1488922,110.594192 16.5072754,110.953473 17.0470958,110.953473 L20.1000898,110.953473 Z" id="Fill-156" fill="#4D5862"></path>
                        <path d="M81.0866766,149.601198 C64.6729042,149.601198 49.0935629,144.384431 36.0327844,134.515868 C24.4585329,125.77006 15.5582335,113.651497 10.6684132,100.080539 C10.6684132,100.080539 12.0381737,98.611976 12.5492515,99.997006 C17.3609281,113.030838 25.9684132,124.658982 37.116018,133.082335 C49.8615269,142.713772 65.0663174,147.80479 81.0866766,147.80479 C102.106437,147.80479 122.118413,138.733832 135.991168,122.918263 C136.319012,122.544611 136.887575,122.508683 137.258533,122.835629 C137.631287,123.162575 137.669012,123.73024 137.342066,124.102994 C123.127994,140.307485 102.623802,149.601198 81.0866766,149.601198" id="Fill-66" fill="#EBEDEE"></path>
                        <g id="Group-3" transform="translate(0.000000, 47.205988)">
                            <mask id="mask-2" fill="white">
                                <use xlink:href="#path-1"></use>
                            </mask>
                            <g id="Clip-2"></g>
                            <path d="M23.4429341,17.3302994 L36.915988,17.3302994 L36.8261677,52.0907784 L23.4429341,52.0907784 L23.4429341,17.3302994 Z M27.664491,13.3782036 L32.7842515,13.3782036 C33.2333533,13.3782036 34.1315569,14.2764072 34.401018,15.5338922 L26.0477246,15.5338922 C26.3171856,14.2764072 27.2153892,13.3782036 27.664491,13.3782036 L27.664491,13.3782036 Z M28.7423353,10.3243114 L31.7064072,10.3243114 C31.8860479,10.4141317 32.2453293,10.9530539 32.3351497,11.5817964 L28.1135928,11.5817964 C28.2034132,10.9530539 28.5626946,10.5039521 28.7423353,10.3243114 L28.7423353,10.3243114 Z M38.8031138,52.0907784 L52.9947305,52.0907784 L52.9947305,2.42011976 L38.8031138,2.42011976 L38.8031138,52.0907784 Z M1.79622754,42.7494611 C1.79622754,40.234491 3.14353293,38.1686228 4.67137725,38.1686228 C6.19742515,38.1686228 7.54473054,40.234491 7.54473054,42.7494611 C7.54473054,44.725509 6.73634731,46.4320958 5.56958084,47.0608383 L5.56958084,42.7494611 C5.56958084,42.2105389 5.2094012,41.8512575 4.67137725,41.8512575 C4.13155689,41.8512575 3.77317365,42.2105389 3.77317365,42.7494611 L3.77317365,47.0608383 C2.60461078,46.4320958 1.79622754,44.725509 1.79622754,42.7494611 L1.79622754,42.7494611 Z M12.5746707,41.1326946 C12.5746707,37.719521 14.102515,35.2943713 15.4498204,35.2943713 C16.7971257,35.2943713 18.3231737,37.719521 18.3231737,41.1326946 C18.3231737,43.8273054 17.4249701,45.8033533 16.348024,46.6117365 L16.348024,42.3901796 C16.348024,41.8512575 15.9878443,41.491976 15.4498204,41.491976 C14.91,41.491976 14.5516168,41.8512575 14.5516168,42.3901796 L14.5516168,46.6117365 C13.4728743,45.8033533 12.5746707,43.8273054 12.5746707,41.1326946 L12.5746707,41.1326946 Z M56.6764671,52.0907784 L54.7902395,52.0907784 L54.7902395,1.52191617 C54.7902395,0.982994012 54.4309581,0.623712575 53.8920359,0.623712575 L37.9049102,0.623712575 C37.3650898,0.623712575 37.0067066,0.982994012 37.0067066,1.52191617 L37.0067066,15.5338922 L36.1974251,15.5338922 C36.0177844,14.0069461 35.2102994,12.7494611 34.2213772,12.1207186 C34.1315569,10.234491 33.0537126,8.52790419 31.7962275,8.52790419 L31.1683832,8.52790419 L31.1683832,3.49796407 C31.1683832,2.95904192 30.8082036,2.59976048 30.2701796,2.59976048 C29.7303593,2.59976048 29.371976,2.95904192 29.371976,3.49796407 L29.371976,8.52790419 L28.7423353,8.52790419 C27.4848503,8.52790419 26.407006,10.234491 26.3171856,12.1207186 C25.3300599,12.7494611 24.5207784,14.0069461 24.3411377,15.5338922 L22.6354491,15.5338922 C22.0956287,15.5338922 21.7372455,15.8931737 21.7372455,16.4320958 L21.7372455,52.0907784 L16.348024,52.0907784 L16.348024,48.5877844 C18.5028144,47.9590419 20.1195808,44.9051497 20.1195808,41.1326946 C20.1195808,36.8213174 18.0537126,33.4979641 15.4498204,33.4979641 C12.8441317,33.4979641 10.7782635,36.8213174 10.7782635,41.1326946 C10.7782635,44.9051497 12.3950299,47.9590419 14.5516168,48.5877844 L14.5516168,52.0907784 L5.56958084,52.0907784 L5.56958084,48.9470659 C7.72437126,48.4081437 9.34113772,45.8033533 9.34113772,42.6596407 C9.34113772,39.0668263 7.27526946,36.2823952 4.67137725,36.2823952 C2.06568862,36.2823952 -0.000179640719,39.0668263 -0.000179640719,42.6596407 C-0.000179640719,45.8033533 1.61658683,48.4081437 3.77317365,48.9470659 L3.77317365,52.0907784 L0.987844311,52.0907784 C0.448922156,52.0907784 0.0896407186,52.4500599 0.0896407186,52.988982 C0.0896407186,53.5279042 0.448922156,53.8871856 0.987844311,53.8871856 L56.7671856,53.8871856 C57.3052096,53.8871856 57.6653892,53.5279042 57.6653892,52.988982 C57.6653892,52.4500599 57.2162874,52.0907784 56.6764671,52.0907784 L56.6764671,52.0907784 Z" id="Fill-1" fill="#4D5862" mask="url(#mask-2)"></path>
                        </g>
                        <path d="M49.7601198,57.7098503 C50.2999401,57.7098503 50.6583234,57.3505689 50.6583234,56.8116467 L50.6583234,54.0272156 C50.6583234,53.4882934 50.2999401,53.129012 49.7601198,53.129012 C49.2211976,53.129012 48.8619162,53.4882934 48.8619162,54.0272156 L48.8619162,56.8116467 C48.8619162,57.3505689 49.2211976,57.7098503 49.7601198,57.7098503" id="Fill-4" fill="#4D5862"></path>
                        <path d="M45.8085629,57.7098503 C46.347485,57.7098503 46.7067665,57.3505689 46.7067665,56.8116467 L46.7067665,54.0272156 C46.7067665,53.4882934 46.347485,53.129012 45.8085629,53.129012 C45.2687425,53.129012 44.9103593,53.4882934 44.9103593,54.0272156 L44.9103593,56.8116467 C44.9103593,57.3505689 45.2687425,57.7098503 45.8085629,57.7098503" id="Fill-6" fill="#4D5862"></path>
                        <path d="M41.8561078,57.7098503 C42.3959281,57.7098503 42.7543114,57.3505689 42.7543114,56.8116467 L42.7543114,54.0272156 C42.7543114,53.4882934 42.3959281,53.129012 41.8561078,53.129012 C41.3171856,53.129012 40.9579042,53.4882934 40.9579042,54.0272156 L40.9579042,56.8116467 C40.9579042,57.3505689 41.3171856,57.7098503 41.8561078,57.7098503" id="Fill-8" fill="#4D5862"></path>
                        <path d="M49.7601198,65.0752994 C50.2999401,65.0752994 50.6583234,64.716018 50.6583234,64.1770958 L50.6583234,61.3926647 C50.6583234,60.8537425 50.2999401,60.4944611 49.7601198,60.4944611 C49.2211976,60.4944611 48.8619162,60.8537425 48.8619162,61.3926647 L48.8619162,64.1770958 C48.8619162,64.6261976 49.2211976,65.0752994 49.7601198,65.0752994" id="Fill-10" fill="#4D5862"></path>
                        <path d="M45.8085629,65.0752994 C46.347485,65.0752994 46.7067665,64.716018 46.7067665,64.1770958 L46.7067665,61.3926647 C46.7067665,60.8537425 46.347485,60.4944611 45.8085629,60.4944611 C45.2687425,60.4944611 44.9103593,60.8537425 44.9103593,61.3926647 L44.9103593,64.1770958 C44.9103593,64.6261976 45.2687425,65.0752994 45.8085629,65.0752994" id="Fill-12" fill="#4D5862"></path>
                        <path d="M41.8561078,65.0752994 C42.3959281,65.0752994 42.7543114,64.716018 42.7543114,64.1770958 L42.7543114,61.3926647 C42.7543114,60.8537425 42.3959281,60.4944611 41.8561078,60.4944611 C41.3171856,60.4944611 40.9579042,60.8537425 40.9579042,61.3926647 L40.9579042,64.1770958 C40.9579042,64.6261976 41.3171856,65.0752994 41.8561078,65.0752994" id="Fill-14" fill="#4D5862"></path>
                        <path d="M49.7601198,72.3503892 C50.2999401,72.3503892 50.6583234,71.9911078 50.6583234,71.4521856 L50.6583234,68.6677545 C50.6583234,68.1288323 50.2999401,67.7695509 49.7601198,67.7695509 C49.2211976,67.7695509 48.8619162,68.1288323 48.8619162,68.6677545 L48.8619162,71.4521856 C48.8619162,71.9911078 49.2211976,72.3503892 49.7601198,72.3503892" id="Fill-16" fill="#4D5862"></path>
                        <path d="M45.8085629,72.3503892 C46.347485,72.3503892 46.7067665,71.9911078 46.7067665,71.4521856 L46.7067665,68.6677545 C46.7067665,68.1288323 46.347485,67.7695509 45.8085629,67.7695509 C45.2687425,67.7695509 44.9103593,68.1288323 44.9103593,68.6677545 L44.9103593,71.4521856 C44.9103593,71.9911078 45.2687425,72.3503892 45.8085629,72.3503892" id="Fill-18" fill="#4D5862"></path>
                        <path d="M41.8561078,72.3503892 C42.3959281,72.3503892 42.7543114,71.9911078 42.7543114,71.4521856 L42.7543114,68.6677545 C42.7543114,68.1288323 42.3959281,67.7695509 41.8561078,67.7695509 C41.3171856,67.7695509 40.9579042,68.1288323 40.9579042,68.6677545 L40.9579042,71.4521856 C40.9579042,71.9911078 41.3171856,72.3503892 41.8561078,72.3503892" id="Fill-20" fill="#4D5862"></path>
                        <path d="M49.7601198,79.7158383 C50.2999401,79.7158383 50.6583234,79.3565569 50.6583234,78.8176347 L50.6583234,76.0332036 C50.6583234,75.4942814 50.2999401,75.135 49.7601198,75.135 C49.2211976,75.135 48.8619162,75.4942814 48.8619162,76.0332036 L48.8619162,78.8176347 C48.8619162,79.2667365 49.2211976,79.7158383 49.7601198,79.7158383" id="Fill-22" fill="#4D5862"></path>
                        <path d="M45.8085629,79.7158383 C46.347485,79.7158383 46.7067665,79.3565569 46.7067665,78.8176347 L46.7067665,76.0332036 C46.7067665,75.4942814 46.347485,75.135 45.8085629,75.135 C45.2687425,75.135 44.9103593,75.4942814 44.9103593,76.0332036 L44.9103593,78.8176347 C44.9103593,79.2667365 45.2687425,79.7158383 45.8085629,79.7158383" id="Fill-24" fill="#4D5862"></path>
                        <path d="M41.8561078,79.7158383 C42.3959281,79.7158383 42.7543114,79.3565569 42.7543114,78.8176347 L42.7543114,76.0332036 C42.7543114,75.4942814 42.3959281,75.135 41.8561078,75.135 C41.3171856,75.135 40.9579042,75.4942814 40.9579042,76.0332036 L40.9579042,78.8176347 C40.9579042,79.2667365 41.3171856,79.7158383 41.8561078,79.7158383" id="Fill-26" fill="#4D5862"></path>
                        <path d="M49.7601198,86.9913772 C50.2999401,86.9913772 50.6583234,86.6320958 50.6583234,86.0931737 L50.6583234,83.3087425 C50.6583234,82.7698204 50.2999401,82.4105389 49.7601198,82.4105389 C49.2211976,82.4105389 48.8619162,82.7698204 48.8619162,83.3087425 L48.8619162,86.0931737 C48.8619162,86.6320958 49.2211976,86.9913772 49.7601198,86.9913772" id="Fill-28" fill="#4D5862"></path>
                        <path d="M45.8085629,86.9913772 C46.347485,86.9913772 46.7067665,86.6320958 46.7067665,86.0931737 L46.7067665,83.3087425 C46.7067665,82.7698204 46.347485,82.4105389 45.8085629,82.4105389 C45.2687425,82.4105389 44.9103593,82.7698204 44.9103593,83.3087425 L44.9103593,86.0931737 C44.9103593,86.6320958 45.2687425,86.9913772 45.8085629,86.9913772" id="Fill-30" fill="#4D5862"></path>
                        <path d="M41.8561078,86.9913772 C42.3959281,86.9913772 42.7543114,86.6320958 42.7543114,86.0931737 L42.7543114,83.3087425 C42.7543114,82.7698204 42.3959281,82.4105389 41.8561078,82.4105389 C41.3171856,82.4105389 40.9579042,82.7698204 40.9579042,83.3087425 L40.9579042,86.0931737 C40.9579042,86.6320958 41.3171856,86.9913772 41.8561078,86.9913772" id="Fill-32" fill="#4D5862"></path>
                        <path d="M49.7601198,94.3563772 C50.2999401,94.3563772 50.6583234,93.9970958 50.6583234,93.4581737 L50.6583234,90.6737425 C50.6583234,90.1348204 50.2999401,89.7755389 49.7601198,89.7755389 C49.2211976,89.7755389 48.8619162,90.1348204 48.8619162,90.6737425 L48.8619162,93.4581737 C48.8619162,93.9072754 49.2211976,94.3563772 49.7601198,94.3563772" id="Fill-34" fill="#4D5862"></path>
                        <path d="M45.8085629,94.3563772 C46.347485,94.3563772 46.7067665,93.9970958 46.7067665,93.4581737 L46.7067665,90.6737425 C46.7067665,90.1348204 46.347485,89.7755389 45.8085629,89.7755389 C45.2687425,89.7755389 44.9103593,90.1348204 44.9103593,90.6737425 L44.9103593,93.4581737 C44.9103593,93.9072754 45.2687425,94.3563772 45.8085629,94.3563772" id="Fill-36" fill="#4D5862"></path>
                        <path d="M41.8561078,94.3563772 C42.3959281,94.3563772 42.7543114,93.9970958 42.7543114,93.4581737 L42.7543114,90.6737425 C42.7543114,90.1348204 42.3959281,89.7755389 41.8561078,89.7755389 C41.3171856,89.7755389 40.9579042,90.1348204 40.9579042,90.6737425 L40.9579042,93.4581737 C40.9579042,93.9072754 41.3171856,94.3563772 41.8561078,94.3563772" id="Fill-38" fill="#4D5862"></path>
                        <path d="M34.2213772,67.7699102 C33.6824551,67.7699102 33.3231737,68.1291916 33.3231737,68.6681138 L33.3231737,71.4525449 C33.3231737,71.9914671 33.6824551,72.3507485 34.2213772,72.3507485 C34.7611976,72.3507485 35.1195808,71.9914671 35.1195808,71.4525449 L35.1195808,68.6681138 C35.1195808,68.219012 34.670479,67.7699102 34.2213772,67.7699102" id="Fill-40" fill="#4D5862"></path>
                        <path d="M30.2697305,67.7699102 C29.7299102,67.7699102 29.3715269,68.1291916 29.3715269,68.6681138 L29.3715269,71.4525449 C29.3715269,71.9914671 29.7299102,72.3507485 30.2697305,72.3507485 C30.8086527,72.3507485 31.1679341,71.9914671 31.1679341,71.4525449 L31.1679341,68.6681138 C31.1679341,68.219012 30.7188323,67.7699102 30.2697305,67.7699102" id="Fill-42" fill="#4D5862"></path>
                        <path d="M26.3173653,67.7699102 C25.7784431,67.7699102 25.4191617,68.1291916 25.4191617,68.6681138 L25.4191617,71.4525449 C25.4191617,71.9914671 25.7784431,72.3507485 26.3173653,72.3507485 C26.8562874,72.3507485 27.2155689,71.9914671 27.2155689,71.4525449 L27.2155689,68.6681138 C27.2155689,68.219012 26.7664671,67.7699102 26.3173653,67.7699102" id="Fill-44" fill="#4D5862"></path>
                        <path d="M34.2213772,75.1349102 C33.6824551,75.1349102 33.3231737,75.4941916 33.3231737,76.0331138 L33.3231737,78.8175449 C33.3231737,79.3564671 33.6824551,79.7157485 34.2213772,79.7157485 C34.7611976,79.7157485 35.1195808,79.3564671 35.1195808,78.8175449 L35.1195808,76.0331138 C35.1195808,75.4941916 34.670479,75.1349102 34.2213772,75.1349102" id="Fill-46" fill="#4D5862"></path>
                        <path d="M30.2697305,75.1349102 C29.7299102,75.1349102 29.3715269,75.4941916 29.3715269,76.0331138 L29.3715269,78.8175449 C29.3715269,79.3564671 29.7299102,79.7157485 30.2697305,79.7157485 C30.8086527,79.7157485 31.1679341,79.3564671 31.1679341,78.8175449 L31.1679341,76.0331138 C31.1679341,75.4941916 30.7188323,75.1349102 30.2697305,75.1349102" id="Fill-48" fill="#4D5862"></path>
                        <path d="M26.3173653,75.1349102 C25.7784431,75.1349102 25.4191617,75.4941916 25.4191617,76.0331138 L25.4191617,78.8175449 C25.4191617,79.3564671 25.7784431,79.7157485 26.3173653,79.7157485 C26.8562874,79.7157485 27.2155689,79.3564671 27.2155689,78.8175449 L27.2155689,76.0331138 C27.2155689,75.4941916 26.7664671,75.1349102 26.3173653,75.1349102" id="Fill-50" fill="#4D5862"></path>
                        <path d="M34.2213772,82.4104491 C33.6824551,82.4104491 33.3231737,82.7697305 33.3231737,83.3086527 L33.3231737,86.0930838 C33.3231737,86.632006 33.6824551,86.9912874 34.2213772,86.9912874 C34.7611976,86.9912874 35.1195808,86.632006 35.1195808,86.0930838 L35.1195808,83.3086527 C35.1195808,82.7697305 34.670479,82.4104491 34.2213772,82.4104491" id="Fill-52" fill="#4D5862"></path>
                        <path d="M30.2697305,82.4104491 C29.7299102,82.4104491 29.3715269,82.7697305 29.3715269,83.3086527 L29.3715269,86.0930838 C29.3715269,86.632006 29.7299102,86.9912874 30.2697305,86.9912874 C30.8086527,86.9912874 31.1679341,86.632006 31.1679341,86.0930838 L31.1679341,83.3086527 C31.1679341,82.7697305 30.7188323,82.4104491 30.2697305,82.4104491" id="Fill-54" fill="#4D5862"></path>
                        <path d="M26.3173653,82.4104491 C25.7784431,82.4104491 25.4191617,82.7697305 25.4191617,83.3086527 L25.4191617,86.0930838 C25.4191617,86.632006 25.7784431,86.9912874 26.3173653,86.9912874 C26.8562874,86.9912874 27.2155689,86.632006 27.2155689,86.0930838 L27.2155689,83.3086527 C27.2155689,82.7697305 26.7664671,82.4104491 26.3173653,82.4104491" id="Fill-56" fill="#4D5862"></path>
                        <path d="M34.2213772,89.685988 C33.6824551,89.685988 33.3231737,90.0452695 33.3231737,90.5841916 L33.3231737,93.4584431 C33.3231737,93.9973653 33.6824551,94.3566467 34.2213772,94.3566467 C34.7611976,94.3566467 35.1195808,93.9973653 35.1195808,93.4584431 L35.1195808,90.674012 C35.1195808,90.1350898 34.670479,89.685988 34.2213772,89.685988" id="Fill-58" fill="#4D5862"></path>
                        <path d="M30.2697305,89.685988 C29.7299102,89.685988 29.3715269,90.0452695 29.3715269,90.5841916 L29.3715269,93.4584431 C29.3715269,93.9973653 29.7299102,94.3566467 30.2697305,94.3566467 C30.8086527,94.3566467 31.1679341,93.9973653 31.1679341,93.4584431 L31.1679341,90.674012 C31.1679341,90.1350898 30.7188323,89.685988 30.2697305,89.685988" id="Fill-60" fill="#4D5862"></path>
                        <path d="M26.3173653,89.685988 C25.7784431,89.685988 25.4191617,90.0452695 25.4191617,90.5841916 L25.4191617,93.4584431 C25.4191617,93.9973653 25.7784431,94.3566467 26.3173653,94.3566467 C26.8562874,94.3566467 27.2155689,93.9973653 27.2155689,93.4584431 L27.2155689,90.674012 C27.2155689,90.1350898 26.7664671,89.685988 26.3173653,89.685988" id="Fill-62" fill="#4D5862"></path>
                        <path d="M91.8203892,68.6032635 C92.3593114,68.6032635 92.7185928,68.243982 92.7185928,67.7050599 L92.7185928,66.1781138 C92.7185928,65.6391916 92.3593114,65.2799102 91.8203892,65.2799102 C91.2805689,65.2799102 90.9221856,65.6391916 90.9221856,66.1781138 L90.9221856,67.7050599 C90.9221856,68.243982 91.3712874,68.6032635 91.8203892,68.6032635" id="Fill-68" fill="#4D5862"></path>
                        <path d="M96.1315868,68.6032635 C96.670509,68.6032635 97.0297904,68.243982 97.0297904,67.7050599 L97.0297904,66.1781138 C97.0297904,65.6391916 96.670509,65.2799102 96.1315868,65.2799102 C95.5926647,65.2799102 95.2333832,65.6391916 95.2333832,66.1781138 L95.2333832,67.7050599 C95.2333832,68.243982 95.5926647,68.6032635 96.1315868,68.6032635" id="Fill-70" fill="#4D5862"></path>
                        <path d="M100.442784,68.6032635 C100.982605,68.6032635 101.340988,68.243982 101.340988,67.7050599 L101.340988,66.1781138 C101.340988,65.6391916 100.982605,65.2799102 100.442784,65.2799102 C99.9038623,65.2799102 99.5445808,65.6391916 99.5445808,66.1781138 L99.5445808,67.7050599 C99.5445808,68.243982 99.9038623,68.6032635 100.442784,68.6032635" id="Fill-72" fill="#4D5862"></path>
                        <path d="M91.8203892,74.8007784 C92.3593114,74.8007784 92.7185928,74.441497 92.7185928,73.9025749 L92.7185928,72.3756287 C92.7185928,71.8367066 92.3593114,71.4774251 91.8203892,71.4774251 C91.2805689,71.4774251 90.9221856,71.8367066 90.9221856,72.3756287 L90.9221856,73.9025749 C90.9221856,74.441497 91.3712874,74.8007784 91.8203892,74.8007784" id="Fill-74" fill="#4D5862"></path>
                        <path d="M96.1315868,74.8007784 C96.670509,74.8007784 97.0297904,74.441497 97.0297904,73.9025749 L97.0297904,72.3756287 C97.0297904,71.8367066 96.670509,71.4774251 96.1315868,71.4774251 C95.5926647,71.4774251 95.2333832,71.8367066 95.2333832,72.3756287 L95.2333832,73.9025749 C95.2333832,74.441497 95.5926647,74.8007784 96.1315868,74.8007784" id="Fill-76" fill="#4D5862"></path>
                        <path d="M100.442784,74.8007784 C100.982605,74.8007784 101.340988,74.441497 101.340988,73.9025749 L101.340988,72.3756287 C101.340988,71.8367066 100.982605,71.4774251 100.442784,71.4774251 C99.9038623,71.4774251 99.5445808,71.8367066 99.5445808,72.3756287 L99.5445808,73.9025749 C99.5445808,74.441497 99.9038623,74.8007784 100.442784,74.8007784" id="Fill-78" fill="#4D5862"></path>
                        <path d="M91.8203892,81.0882036 C92.3593114,81.0882036 92.7185928,80.7289222 92.7185928,80.19 L92.7185928,78.6630539 C92.7185928,78.1241317 92.3593114,77.7648503 91.8203892,77.7648503 C91.2805689,77.7648503 90.9221856,78.1241317 90.9221856,78.6630539 L90.9221856,80.19 C90.9221856,80.7289222 91.3712874,81.0882036 91.8203892,81.0882036" id="Fill-80" fill="#4D5862"></path>
                        <path d="M96.1315868,81.0882036 C96.670509,81.0882036 97.0297904,80.7289222 97.0297904,80.19 L97.0297904,78.6630539 C97.0297904,78.1241317 96.670509,77.7648503 96.1315868,77.7648503 C95.5926647,77.7648503 95.2333832,78.1241317 95.2333832,78.6630539 L95.2333832,80.19 C95.2333832,80.7289222 95.5926647,81.0882036 96.1315868,81.0882036" id="Fill-82" fill="#4D5862"></path>
                        <path d="M100.442784,81.0882036 C100.982605,81.0882036 101.340988,80.7289222 101.340988,80.19 L101.340988,78.6630539 C101.340988,78.1241317 100.982605,77.7648503 100.442784,77.7648503 C99.9038623,77.7648503 99.5445808,78.1241317 99.5445808,78.6630539 L99.5445808,80.19 C99.5445808,80.7289222 99.9038623,81.0882036 100.442784,81.0882036" id="Fill-84" fill="#4D5862"></path>
                        <path d="M91.8203892,87.3756287 C92.3593114,87.3756287 92.7185928,87.0163473 92.7185928,86.4774251 L92.7185928,84.950479 C92.7185928,84.4115569 92.3593114,84.0522754 91.8203892,84.0522754 C91.2805689,84.0522754 90.9221856,84.4115569 90.9221856,84.950479 L90.9221856,86.4774251 C90.9221856,86.9265269 91.3712874,87.3756287 91.8203892,87.3756287" id="Fill-86" fill="#4D5862"></path>
                        <path d="M96.1315868,87.3756287 C96.670509,87.3756287 97.0297904,87.0163473 97.0297904,86.4774251 L97.0297904,84.950479 C97.0297904,84.4115569 96.670509,84.0522754 96.1315868,84.0522754 C95.5926647,84.0522754 95.2333832,84.4115569 95.2333832,84.950479 L95.2333832,86.4774251 C95.2333832,86.9265269 95.5926647,87.3756287 96.1315868,87.3756287" id="Fill-88" fill="#4D5862"></path>
                        <path d="M100.442784,87.3756287 C100.982605,87.3756287 101.340988,87.0163473 101.340988,86.4774251 L101.340988,84.950479 C101.340988,84.4115569 100.982605,84.0522754 100.442784,84.0522754 C99.9038623,84.0522754 99.5445808,84.4115569 99.5445808,84.950479 L99.5445808,86.4774251 C99.5445808,86.9265269 99.9038623,87.3756287 100.442784,87.3756287" id="Fill-90" fill="#4D5862"></path>
                        <path d="M91.8203892,93.5731437 C92.3593114,93.5731437 92.7185928,93.2138623 92.7185928,92.6749401 L92.7185928,91.147994 C92.7185928,90.6090719 92.3593114,90.2497904 91.8203892,90.2497904 C91.2805689,90.2497904 90.9221856,90.6090719 90.9221856,91.147994 L90.9221856,92.6749401 C90.9221856,93.2138623 91.3712874,93.5731437 91.8203892,93.5731437" id="Fill-92" fill="#4D5862"></path>
                        <path d="M96.1315868,93.5731437 C96.670509,93.5731437 97.0297904,93.2138623 97.0297904,92.6749401 L97.0297904,91.147994 C97.0297904,90.6090719 96.670509,90.2497904 96.1315868,90.2497904 C95.5926647,90.2497904 95.2333832,90.6090719 95.2333832,91.147994 L95.2333832,92.6749401 C95.2333832,93.2138623 95.5926647,93.5731437 96.1315868,93.5731437" id="Fill-94" fill="#4D5862"></path>
                        <path d="M100.442784,93.5731437 C100.982605,93.5731437 101.340988,93.2138623 101.340988,92.6749401 L101.340988,91.147994 C101.340988,90.6090719 100.982605,90.2497904 100.442784,90.2497904 C99.9038623,90.2497904 99.5445808,90.6090719 99.5445808,91.147994 L99.5445808,92.6749401 C99.5445808,93.2138623 99.9038623,93.5731437 100.442784,93.5731437" id="Fill-96" fill="#4D5862"></path>
                        <path d="M64.0655389,65.2797305 C63.5266168,65.2797305 63.1673353,65.639012 63.1673353,66.1779341 L63.1673353,67.7048802 C63.1673353,68.2438024 63.5266168,68.6030838 64.0655389,68.6030838 C64.6053593,68.6030838 64.9637425,68.2438024 64.9637425,67.7048802 L64.9637425,66.1779341 C64.9637425,65.639012 64.5146407,65.2797305 64.0655389,65.2797305" id="Fill-98" fill="#4D5862"></path>
                        <path d="M68.2872754,65.2797305 C67.7483533,65.2797305 67.3890719,65.639012 67.3890719,66.1779341 L67.3890719,67.7048802 C67.3890719,68.2438024 67.7483533,68.6030838 68.2872754,68.6030838 C68.8261976,68.6030838 69.185479,68.2438024 69.185479,67.7048802 L69.185479,66.1779341 C69.185479,65.639012 68.8261976,65.2797305 68.2872754,65.2797305" id="Fill-100" fill="#4D5862"></path>
                        <path d="M72.5984731,65.2797305 C72.0595509,65.2797305 71.7002695,65.639012 71.7002695,66.1779341 L71.7002695,67.7048802 C71.7002695,68.2438024 72.0595509,68.6030838 72.5984731,68.6030838 C73.1382934,68.6030838 73.4966766,68.2438024 73.4966766,67.7048802 L73.4966766,66.1779341 C73.4966766,65.639012 73.0475749,65.2797305 72.5984731,65.2797305" id="Fill-102" fill="#4D5862"></path>
                        <path d="M64.0655389,71.5671557 C63.5266168,71.5671557 63.1673353,71.9264371 63.1673353,72.4653593 L63.1673353,73.9923054 C63.1673353,74.5312275 63.5266168,74.890509 64.0655389,74.890509 C64.6053593,74.890509 64.9637425,74.5312275 64.9637425,73.9923054 L64.9637425,72.4653593 C64.9637425,71.9264371 64.5146407,71.5671557 64.0655389,71.5671557" id="Fill-104" fill="#4D5862"></path>
                        <path d="M68.2872754,71.5671557 C67.7483533,71.5671557 67.3890719,71.9264371 67.3890719,72.4653593 L67.3890719,73.9923054 C67.3890719,74.5312275 67.7483533,74.890509 68.2872754,74.890509 C68.8261976,74.890509 69.185479,74.5312275 69.185479,73.9923054 L69.185479,72.4653593 C69.185479,71.9264371 68.8261976,71.5671557 68.2872754,71.5671557" id="Fill-106" fill="#4D5862"></path>
                        <path d="M72.5984731,71.5671557 C72.0595509,71.5671557 71.7002695,71.9264371 71.7002695,72.4653593 L71.7002695,73.9923054 C71.7002695,74.5312275 72.0595509,74.890509 72.5984731,74.890509 C73.1382934,74.890509 73.4966766,74.5312275 73.4966766,73.9923054 L73.4966766,72.4653593 C73.4966766,71.9264371 73.0475749,71.5671557 72.5984731,71.5671557" id="Fill-108" fill="#4D5862"></path>
                        <path d="M64.0655389,77.7651198 C63.5266168,77.7651198 63.1673353,78.1244012 63.1673353,78.6633234 L63.1673353,80.1902695 C63.1673353,80.7291916 63.5266168,81.0884731 64.0655389,81.0884731 C64.6053593,81.0884731 64.9637425,80.7291916 64.9637425,80.1902695 L64.9637425,78.6633234 C64.9637425,78.1244012 64.5146407,77.7651198 64.0655389,77.7651198" id="Fill-110" fill="#4D5862"></path>
                        <path d="M68.2872754,77.7651198 C67.7483533,77.7651198 67.3890719,78.1244012 67.3890719,78.6633234 L67.3890719,80.1902695 C67.3890719,80.7291916 67.7483533,81.0884731 68.2872754,81.0884731 C68.8261976,81.0884731 69.185479,80.7291916 69.185479,80.1902695 L69.185479,78.6633234 C69.185479,78.1244012 68.8261976,77.7651198 68.2872754,77.7651198" id="Fill-112" fill="#4D5862"></path>
                        <path d="M72.5984731,77.7651198 C72.0595509,77.7651198 71.7002695,78.1244012 71.7002695,78.6633234 L71.7002695,80.1902695 C71.7002695,80.7291916 72.0595509,81.0884731 72.5984731,81.0884731 C73.1382934,81.0884731 73.4966766,80.7291916 73.4966766,80.1902695 L73.4966766,78.6633234 C73.4966766,78.1244012 73.0475749,77.7651198 72.5984731,77.7651198" id="Fill-114" fill="#4D5862"></path>
                        <path d="M64.0655389,84.0525449 C63.5266168,84.0525449 63.1673353,84.4118263 63.1673353,84.9507485 L63.1673353,86.4776946 C63.1673353,87.0166168 63.5266168,87.3758982 64.0655389,87.3758982 C64.6053593,87.3758982 64.9637425,87.0166168 64.9637425,86.4776946 L64.9637425,84.9507485 C64.9637425,84.4118263 64.5146407,84.0525449 64.0655389,84.0525449" id="Fill-116" fill="#4D5862"></path>
                        <path d="M68.2872754,84.0525449 C67.7483533,84.0525449 67.3890719,84.4118263 67.3890719,84.9507485 L67.3890719,86.4776946 C67.3890719,87.0166168 67.7483533,87.3758982 68.2872754,87.3758982 C68.8261976,87.3758982 69.185479,87.0166168 69.185479,86.4776946 L69.185479,84.9507485 C69.185479,84.4118263 68.8261976,84.0525449 68.2872754,84.0525449" id="Fill-118" fill="#4D5862"></path>
                        <path d="M72.5984731,84.0525449 C72.0595509,84.0525449 71.7002695,84.4118263 71.7002695,84.9507485 L71.7002695,86.4776946 C71.7002695,87.0166168 72.0595509,87.3758982 72.5984731,87.3758982 C73.1382934,87.3758982 73.4966766,87.0166168 73.4966766,86.4776946 L73.4966766,84.9507485 C73.4966766,84.4118263 73.0475749,84.0525449 72.5984731,84.0525449" id="Fill-120" fill="#4D5862"></path>
                        <path d="M64.0655389,90.2500599 C63.5266168,90.2500599 63.1673353,90.6093413 63.1673353,91.1482635 L63.1673353,92.6752096 C63.1673353,93.2141317 63.5266168,93.5734132 64.0655389,93.5734132 C64.6053593,93.5734132 64.9637425,93.2141317 64.9637425,92.6752096 L64.9637425,91.1482635 C64.9637425,90.6991617 64.5146407,90.2500599 64.0655389,90.2500599" id="Fill-122" fill="#4D5862"></path>
                        <path d="M68.2872754,90.2500599 C67.7483533,90.2500599 67.3890719,90.6093413 67.3890719,91.1482635 L67.3890719,92.6752096 C67.3890719,93.2141317 67.7483533,93.5734132 68.2872754,93.5734132 C68.8261976,93.5734132 69.185479,93.2141317 69.185479,92.6752096 L69.185479,91.1482635 C69.185479,90.6991617 68.8261976,90.2500599 68.2872754,90.2500599" id="Fill-124" fill="#4D5862"></path>
                        <path d="M72.5984731,90.2500599 C72.0595509,90.2500599 71.7002695,90.6093413 71.7002695,91.1482635 L71.7002695,92.6752096 C71.7002695,93.2141317 72.0595509,93.5734132 72.5984731,93.5734132 C73.1382934,93.5734132 73.4966766,93.2141317 73.4966766,92.6752096 L73.4966766,91.1482635 C73.4966766,90.6991617 73.0475749,90.2500599 72.5984731,90.2500599" id="Fill-126" fill="#4D5862"></path>
                        <path d="M104.844341,62.9447605 L104.844341,99.2321856 L87.4191916,99.2321856 L87.4191916,55.0405689 L104.844341,62.9447605 Z M90.5629042,45.6094311 L94.2455389,47.2261976 L94.2455389,56.2082335 L90.5629042,54.5914671 L90.5629042,45.6094311 Z M99.3644012,49.6513473 L103.047934,51.2681138 L103.047934,60.1603293 L99.3644012,58.5435629 L99.3644012,49.6513473 Z M59.6647006,99.2321856 L77.0000299,99.2321856 L77.0000299,61.7770958 L59.6647006,61.7770958 L59.6647006,99.2321856 Z M64.1557186,50.9986527 L68.1078144,52.4357784 L68.1078144,59.9806886 L64.1557186,59.9806886 L64.1557186,50.9986527 Z M69.9042216,39.1423653 L85.4422455,39.1423653 L85.4422455,99.1423653 L78.7964371,99.1423653 L78.7964371,93.4836826 L82.4790719,93.4836826 C83.017994,93.4836826 83.3772754,93.1244012 83.3772754,92.585479 C83.3772754,92.0465569 83.017994,91.6872754 82.4790719,91.6872754 L78.7964371,91.6872754 L78.7964371,86.4776946 L82.4790719,86.4776946 C83.017994,86.4776946 83.3772754,86.1184132 83.3772754,85.579491 C83.3772754,85.0405689 83.017994,84.6812874 82.4790719,84.6812874 L78.7964371,84.6812874 L78.7964371,79.4717066 L82.4790719,79.4717066 C83.017994,79.4717066 83.3772754,79.1124251 83.3772754,78.573503 C83.3772754,78.0345808 83.017994,77.6752994 82.4790719,77.6752994 L78.7964371,77.6752994 L78.7964371,72.4657186 L82.4790719,72.4657186 C83.017994,72.4657186 83.3772754,72.1064371 83.3772754,71.567515 C83.3772754,71.0285928 83.017994,70.6693114 82.4790719,70.6693114 L78.7964371,70.6693114 L78.7964371,65.6393713 L82.4790719,65.6393713 C83.017994,65.6393713 83.3772754,65.2800898 83.3772754,64.7411677 C83.3772754,64.2022455 83.017994,63.8429641 82.4790719,63.8429641 L78.7964371,63.8429641 L78.7964371,60.8788922 C78.7964371,60.3399701 78.4371557,59.9806886 77.8982335,59.9806886 L69.9042216,59.9806886 L69.9042216,51.8070359 L69.9042216,39.1423653 Z M86.3404491,37.3459581 L69.006018,37.3459581 C68.4670958,37.3459581 68.1078144,37.7052395 68.1078144,38.2441617 L68.1078144,50.5495509 L63.6167964,48.9327844 C63.3473353,48.8429641 63.0778743,48.8429641 62.8084132,49.0226048 C62.5380539,49.2022455 62.4491317,49.4717066 62.4491317,49.7411677 L62.4491317,59.9806886 L58.8563174,59.9806886 C58.3173952,59.9806886 57.9581138,60.3399701 57.9581138,60.8788922 L57.9581138,99.2321856 L54.6347605,99.2321856 C54.0958383,99.2321856 53.7365569,99.5914671 53.7365569,100.130389 C53.7365569,100.669311 54.0958383,101.028593 54.6347605,101.028593 L113.535359,101.028593 C114.073383,101.028593 114.433563,100.669311 114.433563,100.130389 C114.433563,99.5914671 114.073383,99.2321856 113.535359,99.2321856 L106.640749,99.2321856 L106.640749,62.4058383 C106.640749,62.0465569 106.461108,61.7770958 106.100928,61.5974551 L104.844341,61.0585329 L104.844341,50.7291916 C104.844341,50.3699102 104.664701,50.1004491 104.304521,49.9208084 L98.8263772,47.4058383 C98.5569162,47.316018 98.1976347,47.316018 97.9281737,47.4956587 C97.6587126,47.6752994 97.4790719,47.9447605 97.4790719,48.2142216 L97.4790719,57.7351796 L95.9521257,57.0166168 L95.9521257,46.6872754 C95.9521257,46.327994 95.7715868,46.0585329 95.4132036,45.8788922 L89.9332635,43.3639222 C89.6647006,43.2741018 89.3054192,43.2741018 89.0350599,43.4537425 C88.766497,43.6333832 88.5859581,43.9028443 88.5859581,44.1723054 L88.5859581,53.6932635 L87.0599102,52.9747006 L87.0599102,38.2441617 C87.2386527,37.7950599 86.7895509,37.3459581 86.3404491,37.3459581 L86.3404491,37.3459581 Z" id="Fill-128" fill="#4D5862"></path>
                        <path d="M72.5984731,44.6210479 L82.4787126,44.6210479 C83.0185329,44.6210479 83.3769162,44.2617665 83.3769162,43.7228443 C83.3769162,43.1839222 83.0185329,42.8246407 82.4787126,42.8246407 L72.5984731,42.8246407 C72.0595509,42.8246407 71.7002695,43.1839222 71.7002695,43.7228443 C71.7002695,44.2617665 72.0595509,44.6210479 72.5984731,44.6210479" id="Fill-130" fill="#4D5862"></path>
                        <path d="M72.5984731,51.6273054 L82.4787126,51.6273054 C83.0185329,51.6273054 83.3769162,51.268024 83.3769162,50.7291018 C83.3769162,50.1901796 83.0185329,49.8308982 82.4787126,49.8308982 L72.5984731,49.8308982 C72.0595509,49.8308982 71.7002695,50.1901796 71.7002695,50.7291018 C71.7002695,51.268024 72.0595509,51.6273054 72.5984731,51.6273054" id="Fill-132" fill="#4D5862"></path>
                        <path d="M72.5984731,58.6331138 L82.4787126,58.6331138 C83.0185329,58.6331138 83.3769162,58.2738323 83.3769162,57.7349102 C83.3769162,57.195988 83.0185329,56.8367066 82.4787126,56.8367066 L72.5984731,56.8367066 C72.0595509,56.8367066 71.7002695,57.195988 71.7002695,57.7349102 C71.7002695,58.2738323 72.0595509,58.6331138 72.5984731,58.6331138" id="Fill-134" fill="#4D5862"></path>
                        <mask id="mask-4" fill="white">
                            <use xlink:href="#path-3"></use>
                        </mask>
                        <g id="Clip-137"></g>
                        <polygon id="Fill-136" fill="#4D5862" mask="url(#mask-4)" points="135.247006 118.850299 153.084431 118.850299 153.084431 117.363772 135.247006 117.363772"></polygon>
                        <polygon id="Fill-138" fill="#4D5862" mask="url(#mask-4)" points="158.287725 115.878144 163.491018 115.878144 163.491018 114.391617 158.287725 114.391617"></polygon>
                        <polygon id="Fill-139" fill="#4D5862" mask="url(#mask-4)" points="125.583234 115.878144 129.3 115.878144 129.3 114.391617 125.583234 114.391617"></polygon>
                        <polygon id="Fill-140" fill="#4D5862" mask="url(#mask-4)" points="140.800509 106.035719 141.91518 110.495299 140.472665 110.855479 139.357994 106.395898"></polygon>
                        <path d="M143.653922,105.472096 C145.335359,105.472096 146.990749,105.913114 148.451228,106.746647 L154.077575,109.960419 L156.882665,110.393353 L159.823383,110.846048 C162.356317,111.235868 164.233563,113.42479 164.233563,115.988263 L164.233563,116.620599 C164.233563,117.843054 163.226677,118.850838 162.004222,118.850838 L158.287455,118.850838 L158.287455,117.364311 L162.004222,117.364311 C162.422784,117.364311 162.747036,117.04006 162.747036,116.620599 L162.747036,115.988263 C162.747036,114.148743 161.415,112.59485 159.597036,112.315509 L156.656317,111.861916 L153.714701,111.409222 C153.62488,111.39485 153.537754,111.364311 153.459611,111.318503 L147.713802,108.035569 C146.477874,107.329581 145.077575,106.957725 143.653922,106.957725 L133.462904,106.957725 C131.532665,106.957725 129.709311,107.844251 128.515599,109.362216 L127.221287,111.011317 C126.883563,111.440659 126.698533,111.971497 126.698533,112.517605 L126.698533,116.620599 C126.698533,117.039162 127.021886,117.363413 127.441347,117.363413 L129.300629,117.363413 L129.300629,118.84994 L127.441347,118.84994 C126.218892,118.84994 125.212006,117.842156 125.212006,116.620599 L125.212006,112.517605 C125.212006,111.639162 125.508413,110.78497 126.050928,110.094251 L127.348832,108.44515 C128.822784,106.569701 131.078174,105.472096 133.462904,105.472096 L143.653922,105.472096 Z" id="Fill-141" fill="#4D5862" mask="url(#mask-4)"></path>
                        <polygon id="Fill-142" fill="#4D5862" mask="url(#mask-4)" points="133.053503 105.980389 134.464581 106.45015 132.978054 110.909731 131.567874 110.43997"></polygon>
                        <path d="M151.598263,112.161287 C152.008743,112.154102 152.347365,112.481048 152.354551,112.891527 C152.361737,113.302006 152.033892,113.640629 151.623413,113.647814 C151.615329,113.647814 151.607246,113.647814 151.598263,113.647814 L150.87521,113.647814 C150.464731,113.655 150.126108,113.328054 150.118922,112.917575 C150.111737,112.507096 150.438683,112.168473 150.849162,112.161287 L150.87521,112.161287 L151.598263,112.161287 Z" id="Fill-143" fill="#4D5862" mask="url(#mask-4)"></path>
                        <path d="M155.685808,114.390988 C154.240599,114.390988 153.084611,115.546976 153.084611,116.992186 C153.084611,118.438293 154.240599,119.593383 155.685808,119.593383 C157.131018,119.593383 158.287006,118.438293 158.287006,116.992186 C158.287006,115.546976 157.131018,114.390988 155.685808,114.390988 M155.685808,112.904461 C157.93491,112.904461 159.774431,114.743982 159.774431,116.992186 C159.774431,119.241287 157.93491,121.07991 155.685808,121.07991 C153.436707,121.07991 151.598084,119.241287 151.598084,116.992186 C151.598084,114.743982 153.436707,112.904461 155.685808,112.904461" id="Fill-144" fill="#4D5862" mask="url(#mask-4)"></path>
                        <path d="M132.272874,114.390988 C130.827665,114.390988 129.671677,115.546976 129.671677,116.992186 C129.671677,118.438293 130.827665,119.593383 132.272874,119.593383 C133.718084,119.593383 134.874072,118.438293 134.874072,116.992186 C134.874072,115.546976 133.718084,114.390988 132.272874,114.390988 M132.272874,112.904461 C134.521976,112.904461 136.361497,114.743982 136.361497,116.992186 C136.361497,119.241287 134.521976,121.07991 132.272874,121.07991 C130.023772,121.07991 128.18515,119.241287 128.18515,116.992186 C128.18515,114.743982 130.023772,112.904461 132.272874,112.904461" id="Fill-145" fill="#4D5862" mask="url(#mask-4)"></path>
                        <polygon id="Fill-146" fill="#4D5862" mask="url(#mask-4)" points="126.326946 111.417665 153.828144 111.417665 153.828144 109.931138 126.326946 109.931138"></polygon>
                        <polygon id="Fill-147" fill="#4D5862" mask="url(#mask-4)" points="141.926946 113.647904 143.413473 113.647904 143.413473 112.161377 141.926946 112.161377"></polygon>
                        <path d="M131.530778,116.992635 C131.52988,117.403114 131.863114,117.736347 132.273593,117.736347 C132.684072,117.736347 133.016407,117.403114 133.016407,116.992635 C133.016407,116.582156 132.684072,116.248922 132.273593,116.248922 C131.863114,116.248922 131.530778,116.582156 131.530778,116.992635" id="Fill-148" fill="#4D5862" mask="url(#mask-4)"></path>
                        <path d="M154.943713,116.992635 C154.943713,117.403114 155.276048,117.736347 155.686527,117.736347 C156.097006,117.736347 156.429341,117.403114 156.429341,116.992635 C156.429341,116.582156 156.097006,116.248922 155.686527,116.248922 C155.276048,116.248922 154.943713,116.582156 154.943713,116.992635" id="Fill-149" fill="#4D5862" mask="url(#mask-4)"></path>
                        <path d="M51.4626647,32.1198503 C52.5917066,33.5336228 54.3072754,34.3815269 56.2060778,34.3815269 C59.5734431,34.3815269 62.3138623,31.642006 62.3138623,28.2737425 C62.3138623,26.3614671 61.4048802,24.587515 59.939012,23.453982 C59.9659581,23.7144611 59.9785329,23.9731437 59.9785329,24.2318263 C59.9785329,28.5899102 56.4333234,32.136018 52.0752395,32.136018 C51.8776347,32.136018 51.6719461,32.1324251 51.4626647,32.1198503 M48.8066766,31.0078743 C48.6746407,30.6476946 48.786018,30.243503 49.0842216,30.0018862 C49.3815269,29.7584731 49.7991916,29.7333234 50.1261377,29.9372156 C50.6596707,30.2713473 51.292006,30.3396108 52.0752395,30.3396108 C55.4426048,30.3396108 58.1821257,27.6000898 58.1821257,24.2318263 C58.1821257,23.5258383 58.0581737,22.8378144 57.7788323,22.0006886 C57.6701497,21.6737425 57.7590719,21.3126647 58.0060778,21.0719461 C58.2530838,20.8321257 58.6168563,20.7548802 58.9411078,20.8734431 C62.0336228,22.006976 64.1102695,24.9818263 64.1102695,28.2737425 C64.1102695,32.6318263 60.5650599,36.1779341 56.2060778,36.1779341 C52.8620659,36.1779341 49.9572754,34.1488922 48.8066766,31.0078743 Z" id="Fill-150" fill="#4D5862" mask="url(#mask-4)"></path>
                        <path d="M105.370689,119.427575 L31.0614072,119.427575 C30.522485,119.427575 30.1632036,119.786856 30.1632036,120.325778 C30.1632036,120.864701 30.522485,121.223982 31.0614072,121.223982 L105.370689,121.223982 C105.910509,121.223982 106.268892,120.864701 106.268892,120.325778 C106.268892,119.786856 105.910509,119.427575 105.370689,119.427575" id="Fill-151" fill="#4D5862" mask="url(#mask-4)"></path>
                        <path d="M40.7306587,110.953473 L43.7845509,110.953473 C44.3234731,110.953473 44.6827545,110.594192 44.6827545,110.055269 C44.6827545,109.516347 44.3234731,109.157066 43.7845509,109.157066 L40.7306587,109.157066 C40.1917365,109.157066 39.8324551,109.516347 39.8324551,110.055269 C39.8324551,110.594192 40.2815569,110.953473 40.7306587,110.953473" id="Fill-152" fill="#4D5862" mask="url(#mask-4)"></path>
                        <path d="M51.5994611,110.953473 C52.1383832,110.953473 52.4976647,110.594192 52.4976647,110.055269 C52.4976647,109.516347 52.1383832,109.157066 51.5994611,109.157066 L48.5455689,109.157066 C48.0066467,109.157066 47.6473653,109.516347 47.6473653,110.055269 C47.6473653,110.594192 48.0066467,110.953473 48.5455689,110.953473 L51.5994611,110.953473 Z" id="Fill-153" fill="#4D5862" mask="url(#mask-4)"></path>
                        <path d="M59.5034731,110.953473 C60.0423952,110.953473 60.4016766,110.594192 60.4016766,110.055269 C60.4016766,109.516347 60.0423952,109.157066 59.5034731,109.157066 L56.4495808,109.157066 C55.9106587,109.157066 55.5513772,109.516347 55.5513772,110.055269 C55.5513772,110.594192 55.9106587,110.953473 56.4495808,110.953473 L59.5034731,110.953473 Z" id="Fill-154" fill="#4D5862" mask="url(#mask-4)"></path>
                        <path d="M27.9295509,110.953473 C28.4684731,110.953473 28.8277545,110.594192 28.8277545,110.055269 C28.8277545,109.516347 28.4684731,109.157066 27.9295509,109.157066 L24.8756587,109.157066 C24.3367365,109.157066 23.9774551,109.516347 23.9774551,110.055269 C23.9774551,110.594192 24.3367365,110.953473 24.8756587,110.953473 L27.9295509,110.953473 Z" id="Fill-155" fill="#4D5862" mask="url(#mask-4)"></path>
                        <path d="M35.8335629,110.953473 C36.372485,110.953473 36.7317665,110.594192 36.7317665,110.055269 C36.7317665,109.516347 36.372485,109.157066 35.8335629,109.157066 L32.7796707,109.157066 C32.2407485,109.157066 31.8814671,109.516347 31.8814671,110.055269 C31.8814671,110.594192 32.2407485,110.953473 32.7796707,110.953473 L35.8335629,110.953473 Z" id="Fill-157" fill="#4D5862" mask="url(#mask-4)"></path>
                        <path d="M67.318024,110.953473 C67.8569461,110.953473 68.2162275,110.594192 68.2162275,110.055269 C68.2162275,109.516347 67.8569461,109.157066 67.318024,109.157066 L64.2641317,109.157066 C63.7252096,109.157066 63.3659281,109.516347 63.3659281,110.055269 C63.3659281,110.594192 63.7252096,110.953473 64.2641317,110.953473 L67.318024,110.953473 Z" id="Fill-158" fill="#4D5862" mask="url(#mask-4)"></path>
                        <path d="M75.2220359,110.953473 C75.7609581,110.953473 76.1202395,110.594192 76.1202395,110.055269 C76.1202395,109.516347 75.7609581,109.157066 75.2220359,109.157066 L72.1681437,109.157066 C71.6292216,109.157066 71.2699401,109.516347 71.2699401,110.055269 C71.2699401,110.594192 71.6292216,110.953473 72.1681437,110.953473 L75.2220359,110.953473 Z" id="Fill-159" fill="#4D5862" mask="url(#mask-4)"></path>
                        <path d="M83.0365868,110.953473 C83.575509,110.953473 83.9347904,110.594192 83.9347904,110.055269 C83.9347904,109.516347 83.575509,109.157066 83.0365868,109.157066 L79.9826946,109.157066 C79.4437725,109.157066 79.084491,109.516347 79.084491,110.055269 C79.084491,110.594192 79.4437725,110.953473 79.9826946,110.953473 L83.0365868,110.953473 Z" id="Fill-160" fill="#4D5862" mask="url(#mask-4)"></path>
                        <path d="M90.8511377,110.953473 C91.3900599,110.953473 91.7493413,110.594192 91.7493413,110.055269 C91.7493413,109.516347 91.3900599,109.157066 90.8511377,109.157066 L87.7972455,109.157066 C87.2583234,109.157066 86.8990419,109.516347 86.8990419,110.055269 C86.8990419,110.594192 87.2583234,110.953473 87.7972455,110.953473 L90.8511377,110.953473 Z" id="Fill-161" fill="#4D5862" mask="url(#mask-4)"></path>
                        <path d="M99.1858383,110.953473 C99.7247605,110.953473 100.084042,110.594192 100.084042,110.055269 C100.084042,109.516347 99.7247605,109.157066 99.1858383,109.157066 L96.1319461,109.157066 C95.593024,109.157066 95.2337425,109.516347 95.2337425,110.055269 C95.2337425,110.594192 95.593024,110.953473 96.1319461,110.953473 L99.1858383,110.953473 Z" id="Fill-162" fill="#4D5862" mask="url(#mask-4)"></path>
                        <path d="M106.999491,110.953473 C107.539311,110.953473 107.897695,110.594192 107.897695,110.055269 C107.897695,109.516347 107.539311,109.157066 106.999491,109.157066 L103.946497,109.157066 C103.406677,109.157066 103.048293,109.516347 103.048293,110.055269 C103.048293,110.594192 103.406677,110.953473 103.946497,110.953473 L106.999491,110.953473 Z" id="Fill-163" fill="#4D5862" mask="url(#mask-4)"></path>
                        <path d="M114.814042,110.953473 C115.353862,110.953473 115.712246,110.594192 115.712246,110.055269 C115.712246,109.516347 115.353862,109.157066 114.814042,109.157066 L111.761048,109.157066 C111.221228,109.157066 110.862844,109.516347 110.862844,110.055269 C110.862844,110.594192 111.221228,110.953473 111.761048,110.953473 L114.814042,110.953473 Z" id="Fill-164" fill="#4D5862" mask="url(#mask-4)"></path>
                        <path d="M122.120749,110.953473 C122.659671,110.953473 123.018952,110.594192 123.018952,110.055269 C123.018952,109.516347 122.659671,109.157066 122.120749,109.157066 L119.066856,109.157066 C118.527934,109.157066 118.168653,109.516347 118.168653,110.055269 C118.168653,110.594192 118.527934,110.953473 119.066856,110.953473 L122.120749,110.953473 Z" id="Fill-165" fill="#4D5862" mask="url(#mask-4)"></path>
                        <path d="M116.999012,72.4653593 L113.226557,72.4653593 C112.687635,72.4653593 112.328353,72.8246407 112.328353,73.3635629 L112.328353,75.6988922 L112.328353,77.4952994 L112.328353,99.2318263 L90.1427246,99.2318263 C89.6038024,99.2318263 89.244521,99.5911078 89.244521,100.13003 C89.244521,100.668952 89.6038024,101.028234 90.1427246,101.028234 L150.228054,101.028234 C150.767874,101.028234 151.126257,100.668952 151.126257,100.13003 C151.126257,99.5911078 150.767874,99.2318263 150.228054,99.2318263 L147.358293,99.2318263 L147.358293,95.1000898 L152.208593,95.1000898 C152.747515,95.1000898 153.106796,94.7408084 153.106796,94.2018862 C153.106796,93.6629641 152.747515,93.3036826 152.208593,93.3036826 L146.909192,93.3036826 C144.933144,89.9803293 135.322365,72.4653593 134.424162,58.2737425 C134.424162,57.8246407 134.06488,57.4653593 133.525958,57.4653593 C133.076856,57.4653593 132.627754,57.7348204 132.627754,58.2737425 C131.909192,62.9444012 130.292425,70.7587725 128.765479,72.5551796 L118.795419,72.5551796 L116.999012,72.4653593 Z M114.12476,78.5731437 L128.316377,78.5731437 L128.316377,74.2617665 L114.12476,74.2617665 L114.12476,78.5731437 Z M139.633743,93.3036826 L139.633743,82.884521 C141.699611,87.5551796 143.765479,91.3276347 144.843323,93.3036826 L139.633743,93.3036826 Z M145.561886,99.2318263 L130.112784,99.2318263 L130.112784,95.1000898 L145.651707,95.1000898 L145.651707,99.2318263 L145.561886,99.2318263 Z M114.12476,99.2318263 L128.316377,99.2318263 L128.316377,94.650988 L114.12476,94.650988 L114.12476,99.2318263 Z M114.12476,85.6689521 L128.316377,85.6689521 L128.316377,80.3695509 L114.12476,80.3695509 L114.12476,85.6689521 Z M114.12476,92.7647605 L128.316377,92.7647605 L128.316377,87.4653593 L114.12476,87.4653593 L114.12476,92.7647605 Z M132.717575,93.3036826 L130.112784,93.3036826 L130.112784,73.7228443 C131.100808,72.5551796 131.999012,70.0402096 132.717575,67.4354192 L132.717575,93.3036826 Z M137.837335,93.3036826 L134.513982,93.3036826 L134.513982,68.7827246 C135.412186,72.2857186 136.669671,75.6988922 137.927156,78.8426048 L137.927156,79.0222455 L137.927156,93.3036826 L137.837335,93.3036826 Z" id="Fill-166" fill="#4D5862" mask="url(#mask-4)"></path>
                        <path d="M149.181737,104.465569 C149.06497,104.465569 148.945509,104.442216 148.831437,104.393713 C148.37515,104.201497 148.161377,103.674251 148.354491,103.217066 C152.161078,94.2161677 154.091317,84.6556886 154.091317,74.8005988 C154.091317,34.5458084 121.341916,1.79640719 81.0871257,1.79640719 C40.8314371,1.79640719 8.08203593,34.5458084 8.08203593,74.8005988 C8.08203593,76.2664671 8.1260479,77.7422156 8.21227545,79.1856287 C8.24191617,79.6814371 7.86467066,80.1062874 7.36886228,80.1359281 C6.88113772,80.1673653 6.44820359,79.7892216 6.41946108,79.2934132 C6.33053892,77.8140719 6.28562874,76.3023952 6.28562874,74.8005988 C6.28562874,33.5550898 39.8416168,0 81.0871257,0 C122.331737,0 155.887725,33.5550898 155.887725,74.8005988 C155.887725,84.8973054 153.90988,94.6931138 150.008982,103.916766 C149.864371,104.25988 149.532036,104.465569 149.181737,104.465569" id="Fill-64" fill="#EBEDEE" mask="url(#mask-4)"></path>
                    </g>
                </g>
            </g>
        </g>
    </g>
</svg>